<?xml version="1.0" encoding="UTF-8"?>
<svg id="Layer_1" data-name="Layer 1" xmlns="http://www.w3.org/2000/svg" viewBox="0 0 180 180">
  <path d="M99.15,98.41c.29,.74,.43,1.74,.43,3.01,0,3.59-1.66,5.38-4.98,5.38h-12.99v-30.01h11.09c1.74,0,3.04,.26,3.91,.79,.88,.53,1.31,1.46,1.31,2.77s-.08,2.27-.24,2.86c-.42,1.1-1.69,1.66-3.8,1.66-2.27,0-3.89,.37-4.87,1.11-.98,.74-1.46,2.25-1.46,4.55s.47,3.81,1.42,4.55c.95,.74,2.38,1.11,4.28,1.11s3.38,.21,4.43,.64c.69,.31,1.18,.84,1.47,1.58Z" style="fill: #1a263d;"/>
  <path d="M163.65,73.65L106.34,16.37c-9.01-9.02-23.67-9.03-32.68-.02L16.36,73.65c-9.02,9.02-9.02,23.69,0,32.7l57.3,57.3c9.01,9,23.67,9.02,32.68,0l8.78-8.78-9.69-9.68c-2.69-2.7-2.69-7.06,0-9.76,2.7-2.69,7.07-2.69,9.76,0l9.7,9.7,20.23-20.25-9.7-9.68c-2.69-2.71-2.69-7.08,0-9.77,2.7-2.68,7.06-2.68,9.76,0l9.7,9.7,8.77-8.78c9.01-9.01,9.01-23.68,0-32.7Zm-55.47,41.83c-3.51,3.56-7.78,5.34-12.79,5.34h-20.83c-3.7,0-5.86-1-6.49-3.01-.32-.89-.48-2.27-.48-4.12v-43.95c0-1.27,.04-2.19,.12-2.77,.08-.58,.33-1.27,.75-2.06,.74-1.42,2.8-2.14,6.18-2.14h19.96c4.85,0,8.92,1.69,12.19,5.07,3.43,3.43,5.15,7.55,5.15,12.36,0,3.48-1,6.68-3.01,9.58,3.11,3.69,4.67,7.84,4.67,12.43-.1,5.28-1.91,9.7-5.42,13.27Z" style="fill: #1a263d;"/>
</svg>