<?xml version="1.0" encoding="UTF-8"?>
<svg id="Layer_1" data-name="Layer 1" xmlns="http://www.w3.org/2000/svg" viewBox="0 0 180 180">
  <path d="M104.24,50.33L69.91,16.01c-5.4-5.4-14.18-5.41-19.58-.01L16,50.33c-5.4,5.4-5.4,14.19,0,19.59l34.33,34.32c5.4,5.4,14.18,5.41,19.58,0l5.26-5.26-5.8-5.81c-1.62-1.61-1.62-4.23,0-5.84,1.61-1.61,4.23-1.61,5.84,0l5.81,5.81,12.13-12.13-5.81-5.81c-1.62-1.61-1.62-4.23,0-5.84,1.61-1.62,4.23-1.62,5.84,0l5.81,5.81,5.26-5.26c5.4-5.4,5.39-14.19-.01-19.59Zm-30.67,22.24c-.21,.6-.55,1.02-1.02,1.24-.7,.38-1.68,.57-2.95,.57h-18.57c-1.14,0-2.13-.43-2.95-1.28-.82-.86-1.23-1.86-1.23-3,0-1.71,.59-3.28,1.78-4.72,1.18-1.45,2.62-2.68,4.3-3.71,1.67-1.03,3.35-2.04,5.03-3.04,1.68-1,3.11-2.13,4.3-3.4,1.19-1.26,1.78-2.61,1.78-4.04,0-.28-.11-.68-.33-1.21-.22-.52-.47-.95-.74-1.28-.27-.33-.68-.64-1.25-.93-.58-.28-1.37-.42-2.38-.42s-1.89,.37-2.64,1.11c-.74,.75-1.16,1.48-1.26,2.21l-.19,1.09v.29c0,.7-.02,1.22-.07,1.57-.04,.35-.2,.74-.45,1.18-.47,.77-1.71,1.15-3.7,1.15-2.22,0-3.54-.61-3.95-1.81-.16-.51-.23-1.31-.23-2.42,0-3.3,1.17-6.25,3.53-8.86,2.36-2.62,5.45-3.92,9.27-3.92s6.91,1.32,9.29,3.96c2.37,2.65,3.56,5.67,3.56,9.05,0,1.81-.4,3.52-1.19,5.14-.79,1.61-1.74,2.91-2.85,3.89-2.34,2.09-4.43,3.5-6.27,4.23l-1.19,.47v.24h8.7c1.29,0,2.22,.15,2.78,.45,.55,.3,.92,.76,1.11,1.38,.19,.62,.29,1.43,.29,2.42s-.11,1.8-.31,2.4Z" style="fill: #94c0ff;"/>
  <path d="M164,110.09l-34.33-34.33c-5.4-5.4-14.18-5.4-19.58,0l-5.26,5.26,5.89,5.88c1.61,1.62,1.61,4.24,0,5.85-.81,.81-1.87,1.21-2.92,1.21s-2.12-.4-2.93-1.21l-5.88-5.89-12.13,12.13,5.89,5.89c1.61,1.61,1.61,4.23,0,5.84-.81,.81-1.87,1.21-2.92,1.21s-2.12-.4-2.93-1.21l-5.88-5.89-5.26,5.26c-5.4,5.4-5.4,14.18,0,19.58l34.33,34.33c5.4,5.4,14.18,5.4,19.58,0l34.33-34.33c5.4-5.4,5.4-14.18,0-19.58Zm-30.67,25.89c-.21,.6-.55,1.01-1.02,1.24-.7,.38-1.68,.57-2.95,.57h-18.58c-1.14,0-2.12-.43-2.94-1.29-.82-.85-1.24-1.85-1.24-2.99,0-1.71,.6-3.29,1.79-4.73,1.18-1.44,2.62-2.67,4.3-3.7,1.67-1.03,3.35-2.05,5.03-3.04,1.68-1,3.11-2.13,4.3-3.4s1.78-2.61,1.78-4.04c0-.28-.11-.69-.33-1.21s-.47-.95-.74-1.28c-.27-.33-.69-.64-1.26-.93-.57-.28-1.36-.43-2.37-.43s-1.89,.38-2.64,1.12c-.74,.74-1.16,1.48-1.26,2.21l-.19,1.09v.29c0,.69-.02,1.22-.07,1.56-.05,.35-.2,.75-.45,1.19-.47,.76-1.71,1.14-3.71,1.14-2.21,0-3.53-.6-3.94-1.8-.16-.51-.24-1.32-.24-2.43,0-3.29,1.18-6.24,3.54-8.86,2.36-2.61,5.45-3.92,9.27-3.92s6.91,1.33,9.28,3.97c2.38,2.65,3.57,5.66,3.57,9.05,0,1.81-.4,3.52-1.19,5.13-.79,1.62-1.74,2.92-2.85,3.9-2.34,2.09-4.43,3.5-6.27,4.23l-1.19,.47v.24h8.7c1.29,0,2.22,.15,2.77,.45,.56,.3,.93,.76,1.12,1.38s.29,1.42,.29,2.42-.11,1.8-.31,2.4Z" style="fill: #8ce8f4;"/>
</svg>