<?xml version="1.0" encoding="UTF-8"?>
<svg id="Layer_1" data-name="Layer 1" xmlns="http://www.w3.org/2000/svg" viewBox="0 0 180 180">
  <path d="M99.14,98.41c.29,.74,.44,1.74,.44,3.01,0,3.59-1.66,5.38-4.99,5.38h-12.99v-30.01h11.09c1.74,0,3.05,.26,3.92,.79,.87,.53,1.31,1.46,1.31,2.77s-.08,2.27-.24,2.86c-.42,1.1-1.69,1.66-3.8,1.66-2.27,0-3.9,.37-4.87,1.11-.98,.74-1.47,2.25-1.47,4.55s.48,3.81,1.43,4.55c.95,.74,2.37,1.11,4.27,1.11s3.38,.21,4.44,.64c.68,.31,1.17,.84,1.46,1.58Z" style="fill: #94c0ff;"/>
  <path d="M163.64,73.65L106.34,16.37c-9.01-9.02-23.67-9.03-32.68-.02L16.35,73.65c-9.01,9.02-9.01,23.69,0,32.7l57.31,57.3c9.01,9,23.67,9.02,32.68,0l8.78-8.78-9.7-9.68c-2.69-2.7-2.69-7.06,0-9.76,2.7-2.69,7.08-2.69,9.77,0l9.69,9.7,20.23-20.25-9.69-9.68c-2.69-2.71-2.69-7.08,0-9.77,2.7-2.68,7.06-2.68,9.76,0l9.7,9.7,8.76-8.78c9.01-9.01,9.01-23.68,0-32.7Zm-55.47,41.83c-3.51,3.56-7.77,5.34-12.79,5.34h-20.83c-3.69,0-5.86-1-6.49-3.01-.32-.89-.47-2.27-.47-4.12v-43.95c0-1.27,.04-2.19,.11-2.77,.08-.58,.33-1.27,.76-2.06,.74-1.42,2.8-2.14,6.17-2.14h19.96c4.86,0,8.92,1.69,12.2,5.07,3.43,3.43,5.14,7.55,5.14,12.36,0,3.48-1,6.68-3.01,9.58,3.12,3.69,4.68,7.84,4.68,12.43-.11,5.28-1.92,9.7-5.43,13.27Z" style="fill: #94c0ff;"/>
</svg>