<?xml version="1.0" encoding="UTF-8"?>
<svg id="Layer_1" data-name="Layer 1" xmlns="http://www.w3.org/2000/svg" xmlns:xlink="http://www.w3.org/1999/xlink" viewBox="0 0 180 180">
  <defs>
    <filter id="drop-shadow-3" filterUnits="userSpaceOnUse">
      <feOffset dx="11.73" dy="11.73"/>
      <feGaussianBlur result="blur" stdDeviation="16.76"/>
      <feFlood flood-color="#000" flood-opacity=".9"/>
      <feComposite in2="blur" operator="in"/>
      <feComposite in="SourceGraphic"/>
    </filter>
  </defs>
  <path d="M158.61,101.45l-57.17,57.17c-6.32,6.31-16.57,6.31-22.88,0L21.39,101.45c-6.32-6.32-6.32-16.57,0-22.89L78.56,21.39c6.31-6.32,16.56-6.32,22.88,0l57.17,57.17c6.32,6.32,6.32,16.57,0,22.89Z" style="fill: #1e0808;"/>
  <g style="filter: url(#drop-shadow-3);">
    <path d="M158.61,101.45l-57.17,57.17c-6.32,6.31-16.57,6.31-22.88,0L21.39,101.45c-6.32-6.32-6.32-16.57,0-22.89L78.56,21.39c6.31-6.32,16.56-6.32,22.88,0l57.17,57.17c6.32,6.32,6.32,16.57,0,22.89Z" style="fill: none; stroke: #ff3939; stroke-miterlimit: 10; stroke-width: 13.77px;"/>
  </g>
  <g>
    <path d="M67.96,75.15c-.16-.49-.4-.85-.69-1.06-.3-.22-.73-.41-1.3-.57-.56-.17-1.35-.25-2.36-.25s-1.94,.43-2.8,1.29l-.15,.1-8.15,7.35c-1.19,1.06-1.79,2.04-1.79,2.93s.52,1.92,1.57,3.08c1.04,1.16,2.04,1.74,3,1.74s2.12-.51,3.48-1.54l.65-.59v17.73c0,.8,.02,1.4,.07,1.82,.05,.41,.21,.87,.47,1.36,.5,.86,1.77,1.3,3.83,1.3s3.41-.45,3.87-1.35c.27-.49,.43-.93,.48-1.31s.07-.95,.07-1.72v-27.67c0-1.19-.08-2.07-.25-2.64Z" style="fill: #fff;"/>
    <path d="M79.89,101.54c-.77-.7-2.15-1.05-4.15-1.05s-3.26,.5-3.75,1.49c-.27,.5-.43,.95-.48,1.35-.05,.39-.07,.97-.07,1.74v.19c0,1.76,.32,2.95,.97,3.58,.64,.63,1.97,.95,3.97,.95s3.26-.48,3.75-1.45c.3-.52,.48-.98,.53-1.36,.05-.38,.07-.97,.07-1.77v-.19c0-1.76-.28-2.92-.84-3.48Z" style="fill: #fff;"/>
    <path d="M99.96,75.15c-.17-.49-.4-.85-.7-1.06-.29-.22-.72-.41-1.29-.57-.56-.17-1.35-.25-2.36-.25s-1.94,.43-2.81,1.29l-.14,.1-8.15,7.35c-1.19,1.06-1.79,2.04-1.79,2.93s.52,1.92,1.56,3.08c1.05,1.16,2.05,1.74,3.01,1.74s2.12-.51,3.48-1.54l.64-.59v17.73c0,.8,.03,1.4,.08,1.82,.05,.41,.21,.87,.47,1.36,.5,.86,1.77,1.3,3.83,1.3s3.41-.45,3.87-1.35c.27-.49,.42-.93,.47-1.31s.08-.95,.08-1.72v-27.67c0-1.19-.08-2.07-.25-2.64Z" style="fill: #fff;"/>
    <path d="M125.27,91.28c-2.33-2.17-5.14-3.26-8.42-3.26-1.22,0-2.45,.29-3.67,.85l.24-.7c.34-1.09,1.23-2.32,2.69-3.67,.73-.67,1.73-1.23,3-1.69,1.28-.47,2.6-.7,3.95-.7s2.32-.1,2.89-.3c.43-.13,.76-.35,.99-.64,.23-.3,.43-.73,.6-1.3,.16-.56,.24-1.32,.24-2.28s-.1-1.76-.29-2.39c-.2-.62-.59-1.1-1.17-1.41-.58-.32-1.5-.47-2.76-.47-6.23,0-11.14,2.12-14.73,6.36-3.6,4.24-5.39,9.52-5.39,15.85,0,4.37,1.09,7.94,3.28,10.7,2.18,2.77,5.43,4.15,9.74,4.15,3.41,0,6.31-1.12,8.71-3.38,2.41-2.25,3.61-5.05,3.61-8.39,0-2.72-1.17-5.16-3.51-7.33Zm-9.01,10.95c-1.66,0-2.72-.38-3.18-1.14-.24-.4-.39-.76-.48-1.09-.08-.33-.12-.81-.12-1.44s.34-1.25,1.02-1.87c.68-.61,1.66-.92,2.93-.92s2.2,.34,2.78,1c.58,.66,.87,1.37,.87,2.13,0,2.22-1.27,3.33-3.82,3.33Z" style="fill: #fff;"/>
  </g>
</svg>