<?xml version="1.0" encoding="utf-8"?>
<!-- Generator: Adobe Illustrator 28.1.0, SVG Export Plug-In . SVG Version: 6.00 Build 0)  -->
<svg version="1.1" id="Layer_1" xmlns="http://www.w3.org/2000/svg" xmlns:xlink="http://www.w3.org/1999/xlink" x="0px" y="0px"
	 viewBox="0 0 180 180" style="enable-background:new 0 0 180 180;" xml:space="preserve">
<style type="text/css">
	.st0{fill:#0C1326;stroke:#5484FF;stroke-miterlimit:10;}
	.st1{fill:#FFFFFF;}
	.st2{fill:none;stroke:#5484FF;stroke-width:13.77;stroke-miterlimit:10;}
</style>
<path class="st0" d="M158.6,101.4l-57.2,57.2c-6.3,6.3-16.6,6.3-22.9,0l-57.2-57.2c-6.3-6.3-6.3-16.6,0-22.9l57.2-57.2
	c6.3-6.3,16.6-6.3,22.9,0l57.2,57.2C164.9,84.9,164.9,95.1,158.6,101.4L158.6,101.4z"/>
<path class="st1" d="M121.2,67.2c-0.1-0.6-0.3-1.3-0.8-2.1c-0.7-1.4-2.8-2.1-6.1-2.1s-5.5,0.7-6.4,2.1c-3,3.8-9,11.6-18,23.5
	L71.9,65l-0.5-0.5c-0.3-0.4-1-0.7-2-1.1c-1-0.3-2.2-0.5-3.7-0.5c-3.3,0-5.4,0.7-6.2,2.1c-0.4,0.8-0.7,1.5-0.8,2.1
	c-0.1,0.6-0.1,1.5-0.1,2.7v44c0,1.3,0,2.2,0.1,2.8c0.1,0.6,0.3,1.3,0.8,2.1c0.8,1.4,2.8,2.1,6,2.1s5.4-0.7,6.2-2.1
	c0.4-0.7,0.7-1.4,0.8-2c0.1-0.6,0.1-1.5,0.1-2.7V87.2c0.3,0.3,1.9,2.6,5.1,6.9c3.1,4.3,5.2,7.1,6.3,8.4l0.6,0.9
	c0.4,0.5,1.1,1.1,2.1,1.6c1,0.6,2.1,0.8,3.2,0.8s2.3-0.3,3.3-0.9c1-0.6,1.7-1.1,1.9-1.4c0.3-0.3,0.7-1,1.4-1.9
	c0.7-0.9,2.3-3.1,4.8-6.7c2.5-3.6,4.5-6.2,5.8-7.8v26.5c0,1.8,0.1,3.2,0.4,4.1c0.3,0.7,0.6,1.2,1.1,1.6c0.5,0.4,1.2,0.7,2.1,0.9
	c0.9,0.3,2.1,0.4,3.7,0.4s2.8-0.2,3.8-0.5c2-0.6,3-2.8,3-6.4V70C121.3,68.8,121.3,67.8,121.2,67.2z"/>
<path class="st2" d="M158.6,101.4l-57.2,57.2c-6.3,6.3-16.6,6.3-22.9,0l-57.2-57.2c-6.3-6.3-6.3-16.6,0-22.9l57.2-57.2
	c6.3-6.3,16.6-6.3,22.9,0l57.2,57.2C164.9,84.9,164.9,95.1,158.6,101.4L158.6,101.4z"/>
</svg>
