<?xml version="1.0" encoding="UTF-8"?>
<svg id="Layer_1" data-name="Layer 1" xmlns="http://www.w3.org/2000/svg" viewBox="0 0 180 180">
  <path d="M158.61,101.45l-57.17,57.17c-6.32,6.31-16.56,6.31-22.88,0L21.39,101.45c-6.32-6.32-6.32-16.57,0-22.89L78.56,21.39c6.32-6.32,16.56-6.32,22.88,0l57.17,57.17c6.32,6.32,6.32,16.57,0,22.89Z" style="fill: #171d23;"/>
  <path d="M121.17,67.21c-.08-.64-.33-1.35-.76-2.14-.73-1.42-2.78-2.14-6.13-2.14s-5.48,.72-6.38,2.14c-3.01,3.8-9,11.64-17.97,23.52l-17.98-23.6-.48-.47c-.31-.37-.99-.73-2.02-1.07-1.02-.35-2.25-.52-3.68-.52-3.32,0-5.38,.69-6.17,2.06-.43,.79-.68,1.49-.76,2.1-.08,.61-.12,1.52-.12,2.73v43.95c0,1.27,.04,2.22,.12,2.85,.08,.64,.33,1.32,.76,2.06,.79,1.43,2.79,2.14,6.01,2.14s5.39-.71,6.18-2.14c.42-.74,.67-1.41,.75-2.02,.08-.6,.12-1.51,.12-2.73v-26.69c.27,.32,1.95,2.63,5.07,6.93,3.11,4.31,5.2,7.12,6.26,8.44l.63,.87c.42,.53,1.12,1.07,2.1,1.62,.97,.56,2.06,.83,3.25,.83s2.29-.3,3.32-.91c1.03-.6,1.68-1.08,1.94-1.42,.27-.35,.74-.97,1.43-1.86,.68-.9,2.29-3.13,4.83-6.7,2.53-3.56,4.46-6.16,5.78-7.8v26.53c0,1.85,.13,3.22,.39,4.12,.27,.69,.64,1.22,1.11,1.59,.48,.37,1.16,.68,2.06,.95,.9,.26,2.11,.39,3.65,.39s2.79-.16,3.8-.47c2-.64,3.01-2.78,3.01-6.42v-43.95c0-1.21-.04-2.14-.12-2.77Z" style="fill: #fff;"/>
  <path d="M158.61,101.45l-57.17,57.17c-6.32,6.31-16.56,6.31-22.88,0L21.39,101.45c-6.32-6.32-6.32-16.57,0-22.89L78.56,21.39c6.32-6.32,16.56-6.32,22.88,0l57.17,57.17c6.32,6.32,6.32,16.57,0,22.89Z" style="fill: none; stroke: #fff; stroke-miterlimit: 10; stroke-width: 13.77px;"/>
</svg>