<?xml version="1.0" encoding="UTF-8"?>
<svg id="Layer_1" data-name="Layer 1" xmlns="http://www.w3.org/2000/svg" viewBox="0 0 1500 500">
  <g>
    <rect width="1500" height="500" style="fill: #1e0530;"/>
    <g>
      <path d="M269.15,418.88l217.59-31.93v-5.04l-89.25,12.62V99.38l-112.53-16.21v6.12l106.15,14.73V395.43l-121.96,17.25v6.2Zm245.34,5.58l-290.3,55.77c-11.06,2.12-19.19,1.84-24.26-.93-5.12-2.77-7.7-8.36-7.7-16.74v-80.01c0-8.37,2.57-14.68,7.7-18.9,5.07-4.18,13.2-6.76,24.26-7.75l89.66-7.99V148.75l-72.61-6.47c-10.75-.96-18.65-3.49-23.57-7.61-4.98-4.14-7.48-10.36-7.48-18.62V37.2c0-8.25,2.5-13.76,7.48-16.52,4.92-2.72,12.83-3.04,23.57-.98l202.31,38.87c7.27,1.4,12.48,3.88,15.67,7.42,3.16,3.53,4.74,8.55,4.74,15.09v253.46l50.53-4.5c6.27-.56,10.76,.42,13.52,2.89,2.73,2.47,4.1,6.74,4.1,12.81v58.06c0,6.08-1.37,10.73-4.1,13.96s-7.25,5.49-13.52,6.69Z" style="fill: #2f0f4c;"/>
      <path d="M656.98,418.88l217.59-31.93v-5.04l-89.25,12.62V99.38l-112.53-16.21v6.12l106.15,14.73V395.43l-121.96,17.25v6.2Zm245.34,5.58l-290.3,55.77c-11.06,2.12-19.19,1.84-24.26-.93-5.12-2.77-7.7-8.36-7.7-16.74v-80.01c0-8.37,2.57-14.68,7.7-18.9,5.07-4.18,13.2-6.76,24.26-7.75l89.66-7.99V148.75l-72.61-6.47c-10.75-.96-18.65-3.49-23.57-7.61-4.98-4.14-7.48-10.36-7.48-18.62V37.2c0-8.25,2.5-13.76,7.48-16.52,4.92-2.72,12.83-3.04,23.57-.98l202.31,38.87c7.27,1.4,12.48,3.88,15.67,7.42,3.16,3.53,4.74,8.55,4.74,15.09v253.46l50.53-4.5c6.27-.56,10.76,.42,13.52,2.89,2.73,2.47,4.1,6.74,4.1,12.81v58.06c0,6.08-1.37,10.73-4.1,13.96-2.75,3.26-7.25,5.49-13.52,6.69Z" style="fill: #440a3d;"/>
      <path d="M1044.8,418.88l217.59-31.93v-5.04l-89.25,12.62V99.38l-112.53-16.21v6.12l106.15,14.73V395.43l-121.96,17.25v6.2Zm245.34,5.58l-290.3,55.77c-11.06,2.12-19.19,1.84-24.26-.93-5.12-2.77-7.7-8.36-7.7-16.74v-80.01c0-8.37,2.57-14.68,7.7-18.9,5.07-4.18,13.2-6.76,24.26-7.75l89.66-7.99V148.75l-72.61-6.47c-10.75-.96-18.65-3.49-23.57-7.61-4.98-4.14-7.48-10.36-7.48-18.62V37.2c0-8.25,2.5-13.76,7.48-16.52,4.92-2.72,12.83-3.04,23.57-.98l202.31,38.87c7.27,1.4,12.48,3.88,15.67,7.42,3.16,3.53,4.74,8.55,4.74,15.09v253.46l50.53-4.5c6.27-.56,10.76,.42,13.52,2.89,2.73,2.47,4.1,6.74,4.1,12.81v58.06c0,6.08-1.37,10.73-4.1,13.96s-7.25,5.49-13.52,6.69Z" style="fill: #2f0f4c;"/>
    </g>
  </g>
  <g>
    <g>
      <g>
        <path d="M609.23,137.69l-50.58-50.58c-3.85-3.85-8.98-5.98-14.43-5.98s-10.57,2.12-14.43,5.98l-50.58,50.58c-3.85,3.85-5.98,8.98-5.98,14.43s2.12,10.57,5.98,14.43l50.58,50.58c3.85,3.85,8.98,5.98,14.43,5.98s10.57-2.12,14.43-5.98l50.58-50.58c3.85-3.85,5.98-8.98,5.98-14.43s-2.12-10.57-5.98-14.43Zm-8.61,20.24l-50.58,50.58c-1.55,1.55-3.62,2.41-5.82,2.41s-4.26-.86-5.82-2.41l-50.58-50.58c-1.55-1.55-2.41-3.62-2.41-5.82s.86-4.26,2.41-5.82l50.58-50.58c1.55-1.55,3.62-2.41,5.82-2.41s4.26,.86,5.82,2.41l50.58,50.58c1.55,1.55,2.41,3.62,2.41,5.82s-.86,4.26-2.41,5.82Z" style="fill: #ce46a5;"/>
        <path d="M551.78,168.63v-38.09c0-1.15-.93-2.09-2.09-2.09h-19.5c-1.15,0-2.09,.93-2.09,2.09v6.72c0,1.15,.93,2.09,2.09,2.09h7.7v29.28h-9.19c-1.15,0-2.09,.93-2.09,2.09v6.57c0,1.15,.93,2.09,2.09,2.09h31.01c1.15,0,2.09-.93,2.09-2.09v-6.57c0-1.15-.93-2.09-2.09-2.09h-7.95Z" style="fill: #fff;"/>
      </g>
      <text transform="translate(639.22 154.42)" style="fill: #fff; font-family: FredokaOne-Regular, &apos;Fredoka One&apos;;"><tspan style="font-size: 89.13px;"><tspan x="0" y="0">Mod</tspan><tspan x="184.32" y="0" style="letter-spacing: -.09em;">F</tspan><tspan x="233.08" y="0">e</tspan><tspan x="284.15" y="0" style="letter-spacing: -.02em;">s</tspan><tspan x="326.31" y="0">t:</tspan></tspan><tspan style="font-size: 54.89px;"><tspan x="11.08" y="65.87">SINGULARITY</tspan></tspan></text>
    </g>
    <g>
      <g>
        <text transform="translate(493.33 295.95)" style="fill: #fff; font-family: FredokaOne-Regular, &apos;Fredoka One&apos;; font-size: 35.61px;"><tspan x="0" y="0" xml:space="preserve">ONE WEEK    ONE FE</tspan><tspan x="355.09" y="0" style="letter-spacing: -.19em;">A</tspan><tspan x="375.67" y="0" style="letter-spacing: 0em;">TURE</tspan></text>
        <text transform="translate(556.01 345.91)" style="fill: #fff; font-family: FredokaOne-Regular, &apos;Fredoka One&apos;;"><tspan x="0" y="0" style="font-size: 35.61px; letter-spacing: -.05em;">A</tspan><tspan x="25.46" y="0" style="font-size: 35.61px;">UG</tspan><tspan x="76.73" y="0" style="font-size: 35.61px; letter-spacing: -.03em;">U</tspan><tspan x="101.51" y="0" style="font-size: 35.61px; letter-spacing: -.05em;">S</tspan><tspan x="120.49" y="0" style="font-size: 35.61px;">T 13-21, 2022</tspan><tspan x="347.44" y="0" style="font-size: .11px;">TH</tspan></text>
        <rect x="694.2" y="277.59" width="10.29" height="10.29" rx="1.47" ry="1.47" transform="translate(4.91 577.33) rotate(-45)" style="fill: #fff; stroke: #fff; stroke-miterlimit: 10; stroke-width: 1.25px;"/>
      </g>
      <g>
        <g>
          <text transform="translate(641.97 422.73)" style="fill: #fff; font-family: FredokaOne-Regular, &apos;Fredoka One&apos;; font-size: 25.48px;"><tspan x="0" y="0">M</tspan></text>
          <rect x="634.84" y="394.57" width="36.43" height="36.43" rx="5.21" ry="5.21" transform="translate(-100.61 582.68) rotate(-45)" style="fill: none; stroke: #fff; stroke-miterlimit: 10; stroke-width: 4.43px;"/>
        </g>
        <g>
          <rect x="706.21" y="391.5" width="19.33" height="19.33" rx=".99" ry=".99" style="fill: #fff;"/>
          <rect x="728.04" y="391.5" width="19.33" height="19.33" rx=".99" ry=".99" style="fill: #fff;"/>
          <rect x="706.21" y="413.34" width="19.33" height="19.33" rx=".99" ry=".99" style="fill: #fff;"/>
          <rect x="732.05" y="417.34" width="19.33" height="19.33" rx=".99" ry=".99" transform="translate(-84.7 649.54) rotate(-45)" style="fill: #fff;"/>
        </g>
        <g>
          <path d="M829.1,419.27c1.11-4.09,1.18-8.5,0-12.89-3.55-13.26-17.2-21.12-30.46-17.57-10.24,2.74-17.26,11.48-18.3,21.42h4.2c1-8.06,6.77-15.11,15.12-17.35,10.32-2.77,20.9,2.81,24.59,12.59l-4.1,1.09c-1.88-4.54-5.68-7.88-10.16-9.3l-.75,4.25c3.54,1.31,6.42,4.25,7.47,8.17,1.53,5.72-1.32,11.57-6.5,14l1.12,4.17c6.81-2.81,10.9-9.89,9.93-17.18l4.08-1.09c.44,2.79,.28,5.55-.38,8.17l4.14,1.5Z" style="fill: #fff; fill-rule: evenodd;"/>
          <path d="M811.51,436.8c-13.27,3.55-26.9-4.32-30.46-17.57-.42-1.54-.67-3.1-.79-4.64h4.2c.11,1.15,.31,2.32,.62,3.47,.33,1.21,.76,2.38,1.27,3.47l3.75-2.24c-.32-.73-.58-1.48-.8-2.28-2.33-8.7,2.83-17.63,11.54-19.96,1.65-.45,3.31-.61,4.93-.54l-.75,4.25c-1.02,0-2.05,.14-3.08,.41-6.42,1.74-10.24,8.33-8.51,14.75,.11,.4,.23,.78,.37,1.15l4.79-2.87-1.45-3.82,4.52-4.65,5.72-1.23,1.65,2.04-2.63,2.67-2.3,.72-1.64,1.69,.81,2.24s1.63,1.73,1.63,1.74l2.3-.61,1.64-1.8,3.58-1.14,1.07,2.4-3.69,4.52-6.18,1.96-2.78-3.09-4.83,2.9c2.47,2.82,6.2,4.39,10.07,4.07l1.12,4.17c-5.76,.77-11.39-1.62-14.9-6.01l-3.73,2.23c4.91,6.45,13.41,9.65,21.74,7.42,5.99-1.6,10.66-5.69,13.18-10.85l4.13,1.5c-3.01,6.42-8.73,11.53-16.13,13.51Z" style="fill: #fff;"/>
        </g>
      </g>
    </g>
  </g>
  <path d="M1430.96,418.88l217.59-31.93v-5.04l-89.25,12.62V99.38l-112.53-16.21v6.12l106.15,14.73V395.43l-121.96,17.25v6.2Zm245.34,5.58l-290.3,55.77c-11.06,2.12-19.19,1.84-24.26-.93-5.12-2.77-7.7-8.36-7.7-16.74v-80.01c0-8.37,2.57-14.68,7.7-18.9,5.07-4.18,13.2-6.76,24.26-7.75l89.66-7.99V148.75l-72.61-6.47c-10.75-.96-18.65-3.49-23.57-7.61-4.98-4.14-7.48-10.36-7.48-18.62V37.2c0-8.25,2.5-13.76,7.48-16.52,4.92-2.72,12.83-3.04,23.57-.98l202.31,38.87c7.27,1.4,12.48,3.88,15.67,7.42,3.16,3.53,4.74,8.55,4.74,15.09v253.46l50.53-4.5c6.27-.56,10.76,.42,13.52,2.89,2.73,2.47,4.1,6.74,4.1,12.81v58.06c0,6.08-1.37,10.73-4.1,13.96s-7.25,5.49-13.52,6.69Z" style="fill: #1b0f49;"/>
  <path d="M-118.68,418.88l217.59-31.93v-5.04l-89.25,12.62V99.38l-112.53-16.21v6.12L3.29,104.01V395.43l-121.96,17.25v6.2Zm245.34,5.58l-290.3,55.77c-11.06,2.12-19.19,1.84-24.26-.93-5.12-2.77-7.7-8.36-7.7-16.74v-80.01c0-8.37,2.57-14.68,7.7-18.9,5.07-4.18,13.2-6.76,24.26-7.75l89.66-7.99V148.75l-72.61-6.47c-10.75-.96-18.65-3.49-23.57-7.61-4.98-4.14-7.48-10.36-7.48-18.62V37.2c0-8.25,2.5-13.76,7.48-16.52,4.92-2.72,12.83-3.04,23.57-.98L55.73,58.57c7.27,1.4,12.48,3.88,15.67,7.42,3.16,3.53,4.74,8.55,4.74,15.09v253.46l50.53-4.5c6.27-.56,10.76,.42,13.52,2.89,2.73,2.47,4.1,6.74,4.1,12.81v58.06c0,6.08-1.37,10.73-4.1,13.96s-7.25,5.49-13.52,6.69Z" style="fill: #1b0f49;"/>
</svg>