<?xml version="1.0" encoding="UTF-8"?>
<svg id="Layer_1" data-name="Layer 1" xmlns="http://www.w3.org/2000/svg" xmlns:xlink="http://www.w3.org/1999/xlink" viewBox="0 0 180 180">
  <defs>
    <filter id="drop-shadow-7" filterUnits="userSpaceOnUse">
      <feOffset dx="11.73" dy="11.73"/>
      <feGaussianBlur result="blur" stdDeviation="16.76"/>
      <feFlood flood-color="#000" flood-opacity=".9"/>
      <feComposite in2="blur" operator="in"/>
      <feComposite in="SourceGraphic"/>
    </filter>
  </defs>
  <path d="M158.62,101.45l-57.17,57.17c-6.32,6.31-16.57,6.31-22.89,0L21.39,101.45c-6.32-6.32-6.32-16.57,0-22.89L78.56,21.39c6.32-6.32,16.57-6.32,22.89,0l57.17,57.17c6.31,6.32,6.31,16.57,0,22.89Z" style="fill: #3f241c;"/>
  <g style="filter: url(#drop-shadow-7);">
    <path d="M158.62,101.45l-57.17,57.17c-6.32,6.31-16.57,6.31-22.89,0L21.39,101.45c-6.32-6.32-6.32-16.57,0-22.89L78.56,21.39c6.32-6.32,16.57-6.32,22.89,0l57.17,57.17c6.31,6.32,6.31,16.57,0,22.89Z" style="fill: none; stroke: #ff9764; stroke-miterlimit: 10; stroke-width: 13.77px;"/>
  </g>
  <g>
    <path d="M67.94,75.15c-.16-.49-.39-.85-.69-1.06-.3-.22-.73-.41-1.29-.57-.57-.17-1.35-.25-2.36-.25s-1.95,.43-2.81,1.29l-.15,.1-8.15,7.35c-1.19,1.06-1.79,2.04-1.79,2.93s.53,1.92,1.57,3.08c1.04,1.16,2.04,1.74,3,1.74s2.12-.51,3.48-1.54l.65-.59v17.73c0,.8,.02,1.4,.07,1.82,.05,.41,.21,.87,.48,1.36,.49,.86,1.77,1.3,3.82,1.3s3.41-.45,3.88-1.35c.26-.49,.42-.93,.47-1.31s.07-.95,.07-1.72v-27.67c0-1.19-.08-2.07-.25-2.64Z" style="fill: #fff;"/>
    <path d="M79.87,101.54c-.76-.7-2.15-1.05-4.15-1.05s-3.25,.5-3.75,1.49c-.27,.5-.42,.95-.47,1.35-.05,.39-.08,.97-.08,1.74v.19c0,1.76,.32,2.95,.97,3.58,.65,.63,1.97,.95,3.98,.95s3.25-.48,3.75-1.45c.29-.52,.47-.98,.52-1.36,.05-.38,.07-.97,.07-1.77v-.19c0-1.76-.28-2.92-.84-3.48Z" style="fill: #fff;"/>
    <path d="M99.94,75.15c-.16-.49-.39-.85-.69-1.06-.3-.22-.73-.41-1.29-.57-.57-.17-1.36-.25-2.37-.25s-1.94,.43-2.8,1.29l-.15,.1-8.15,7.35c-1.19,1.06-1.79,2.04-1.79,2.93s.52,1.92,1.57,3.08c1.04,1.16,2.04,1.74,3,1.74s2.12-.51,3.48-1.54l.65-.59v17.73c0,.8,.02,1.4,.07,1.82,.05,.41,.21,.87,.47,1.36,.5,.86,1.78,1.3,3.83,1.3s3.41-.45,3.88-1.35c.26-.49,.42-.93,.47-1.31s.07-.95,.07-1.72v-27.67c0-1.19-.08-2.07-.25-2.64Z" style="fill: #fff;"/>
    <path d="M129.01,75.25c-.4-1.25-1.76-1.88-4.08-1.88h-17.88c-1.23,0-2.19,.19-2.89,.59-.43,.23-.74,.66-.94,1.29s-.3,1.46-.3,2.49,.1,1.85,.3,2.48,.6,1.11,1.19,1.44c.6,.33,1.56,.5,2.89,.5h11.32c0,.43-.36,1.19-1.09,2.26-.73,1.08-1.61,2.37-2.63,3.88-1.03,1.5-2.06,3.15-3.08,4.94-1.03,1.79-1.91,3.82-2.64,6.09s-1.09,4.48-1.09,6.63c0,.76,.03,1.32,.07,1.66,.06,.35,.21,.72,.48,1.12,.26,.4,.7,.66,1.31,.8,.62,.13,1.45,.2,2.51,.2s1.9-.07,2.51-.2c.61-.14,1.05-.39,1.32-.77,.26-.38,.43-.75,.5-1.1,.06-.34,.1-.88,.1-1.61,0-2.88,1.45-6.69,4.37-11.43,1.22-1.95,2.44-3.89,3.65-5.81s2.24-3.87,3.1-5.84c.87-1.97,1.3-3.62,1.3-4.94s-.1-2.26-.3-2.79Z" style="fill: #fff;"/>
  </g>
</svg>