<?xml version="1.0" encoding="UTF-8"?>
<svg id="Layer_1" data-name="Layer 1" xmlns="http://www.w3.org/2000/svg" viewBox="0 0 200 200">
  <g>
    <rect width="200" height="200" style="fill: #1e0530;"/>
    <path d="M64.37,164.69l83.35-12.23v-1.93l-34.19,4.83V42.3l-43.11-6.21v2.34l40.66,5.64v111.63l-46.72,6.61v2.38Zm93.98,2.14l-111.2,21.36c-4.24,.81-7.35,.7-9.29-.35-1.96-1.06-2.95-3.2-2.95-6.41v-30.65c0-3.21,.98-5.62,2.95-7.24,1.94-1.6,5.06-2.59,9.29-2.97l34.35-3.06V61.21l-27.81-2.48c-4.12-.37-7.14-1.34-9.03-2.91-1.91-1.59-2.86-3.97-2.86-7.13V18.49c0-3.16,.96-5.27,2.86-6.33,1.89-1.04,4.91-1.16,9.03-.37l77.5,14.89c2.79,.54,4.78,1.49,6,2.84,1.21,1.35,1.82,3.28,1.82,5.78v97.09l19.36-1.72c2.4-.21,4.12,.16,5.18,1.11,1.05,.95,1.57,2.58,1.57,4.91v22.24c0,2.33-.52,4.11-1.57,5.35-1.06,1.25-2.78,2.1-5.18,2.56Z" style="fill: #440a3d;"/>
  </g>
  <path d="M173.48,83.69L116.31,26.52c-4.36-4.36-10.15-6.75-16.31-6.75s-11.95,2.4-16.31,6.75L26.52,83.69c-4.36,4.36-6.75,10.15-6.75,16.31s2.4,11.95,6.75,16.31l57.17,57.17c4.36,4.36,10.15,6.75,16.31,6.75s11.95-2.4,16.31-6.75l57.17-57.17c4.36-4.36,6.75-10.15,6.75-16.31s-2.4-11.95-6.75-16.31Zm-9.73,22.88l-57.17,57.17c-1.76,1.76-4.09,2.72-6.57,2.72s-4.82-.97-6.58-2.72l-57.17-57.17c-1.76-1.76-2.72-4.09-2.72-6.58s.97-4.82,2.72-6.57l57.17-57.17c1.76-1.76,4.09-2.72,6.58-2.72s4.82,.97,6.57,2.72l57.17,57.17c1.76,1.76,2.72,4.09,2.72,6.57s-.97,4.82-2.72,6.58Z" style="fill: #ce46a5;"/>
  <path d="M108.54,118.67v-43.05c0-1.3-1.06-2.36-2.36-2.36h-22.04c-1.3,0-2.36,1.06-2.36,2.36v7.6c0,1.3,1.06,2.36,2.36,2.36h8.71v33.09h-10.38c-1.3,0-2.36,1.06-2.36,2.36v7.43c0,1.3,1.06,2.36,2.36,2.36h35.06c1.3,0,2.36-1.06,2.36-2.36v-7.43c0-1.3-1.06-2.36-2.36-2.36h-8.99Z" style="fill: #fff;"/>
</svg>