<?xml version="1.0" encoding="UTF-8"?>
<svg id="Layer_1" data-name="Layer 1" xmlns="http://www.w3.org/2000/svg" viewBox="0 0 180 180">
  <g>
    <path d="M163.48,106.31l-14.3,14.3c1.97-.06,3.42,.32,4.34,1.16,1.05,.95,1.57,2.58,1.57,4.91v22.24c0,2.33-.52,4.11-1.57,5.35-1.05,1.25-2.77,2.1-5.17,2.56l-44.11,8.48c-4.04,3.2-9.01,4.93-14.24,4.93-2.25,0-4.44-.32-6.54-.94l-46.32,8.9c-4.23,.81-7.35,.7-9.29-.36-1.96-1.06-2.95-3.2-2.95-6.41v-30.65c0-3.2,.99-5.62,2.95-7.24,1.94-1.6,5.06-2.59,9.29-2.97l3.34-.3-23.96-23.96c-4.36-4.35-6.75-10.15-6.75-16.31s2.39-11.95,6.75-16.3l25.19-25.19c-3.13-.48-5.49-1.37-7.06-2.68-1.91-1.59-2.87-3.97-2.87-7.14V8.49c0-3.16,.96-5.27,2.87-6.33,1.88-1.04,4.91-1.16,9.03-.37l42.86,8.24c1.14-.17,2.29-.26,3.46-.26,4.16,0,8.15,1.1,11.65,3.16l19.52,3.75c2.79,.53,4.78,1.48,6,2.84,1.22,1.35,1.82,3.27,1.82,5.78v13.91l34.49,34.49c4.35,4.35,6.75,10.14,6.75,16.3s-2.4,11.96-6.75,16.31Z" style="fill: #1e0530;"/>
    <path d="M153.52,121.77c-.92-.84-2.37-1.22-4.34-1.16-.27,.01-.55,.02-.83,.05l-19.36,1.73V25.3c0-2.51-.6-4.43-1.82-5.78-1.22-1.36-3.21-2.31-6-2.84l-19.52-3.75-15.11-2.9L43.68,1.79c-4.12-.79-7.15-.67-9.03,.37-1.91,1.06-2.87,3.17-2.87,6.33v30.2c0,3.17,.96,5.55,2.87,7.14,1.57,1.31,3.93,2.2,7.06,2.68,.63,.09,1.28,.17,1.97,.23l15.85,1.41,11.96,1.07V127.51l-13.14,1.17-17.87,1.59-3.34,.3c-4.23,.38-7.35,1.37-9.29,2.97-1.96,1.62-2.95,4.04-2.95,7.24v30.65c0,3.21,.99,5.35,2.95,6.41,1.94,1.06,5.06,1.17,9.29,.36l46.32-8.9,20.78-3.99,44.11-8.48c2.4-.46,4.12-1.31,5.17-2.56,1.05-1.24,1.57-3.02,1.57-5.35v-22.24c0-2.33-.52-3.96-1.57-4.91Zm-15.8,20.69l-12.18,1.79-22.82,3.35-22.19,3.26-16.97,2.49-9.2,1.35v-2.38l7.16-1.01,17.05-2.41,22.51-3.19V34.08l-22.38-3.1-17.09-2.37-1.19-.17v-2.34l3.23,.47,17.01,2.45,21.81,3.14,1.06,.15v113.06l1.65-.23,22.68-3.21,9.86-1.4v1.93Z" style="fill: #440a3d;"/>
  </g>
  <path d="M163.48,73.7L106.31,16.53c-1.41-1.41-2.98-2.62-4.66-3.6-3.5-2.06-7.49-3.16-11.65-3.16-1.17,0-2.32,.09-3.46,.26-4.85,.72-9.32,2.97-12.85,6.5l-10.04,10.04L16.52,73.7c-4.36,4.35-6.75,10.14-6.75,16.3s2.39,11.96,6.75,16.31l47.04,47.04,10.13,10.13c2.77,2.77,6.12,4.75,9.77,5.82,2.1,.62,4.29,.94,6.54,.94,5.23,0,10.2-1.73,14.24-4.93,.72-.56,1.41-1.17,2.07-1.83l57.17-57.17c4.35-4.35,6.75-10.15,6.75-16.31s-2.4-11.95-6.75-16.3Zm-9.74,22.88l-51.02,51.02-6.15,6.15c-1.75,1.75-4.09,2.72-6.57,2.72s-4.82-.97-6.58-2.72l-2.89-2.89-1.96-1.96-20.22-20.22L26.25,96.58c-1.75-1.76-2.72-4.09-2.72-6.58s.97-4.81,2.72-6.57L59.53,50.15l19.17-19.17,1.96-1.96,2.76-2.76c1.76-1.76,4.09-2.72,6.58-2.72s4.82,.96,6.57,2.72l6.96,6.96,25.46,25.46,24.75,24.75c1.76,1.76,2.73,4.09,2.73,6.57s-.97,4.82-2.73,6.58Z" style="fill: #ce46a5;"/>
  <path d="M98.54,108.67v-43.05c0-1.3-1.06-2.36-2.36-2.36h-22.04c-1.3,0-2.36,1.06-2.36,2.36v7.6c0,1.3,1.06,2.36,2.36,2.36h8.71v33.09h-10.38c-1.3,0-2.36,1.06-2.36,2.36v7.43c0,1.3,1.06,2.36,2.36,2.36h35.06c1.3,0,2.36-1.06,2.36-2.36v-7.43c0-1.3-1.06-2.36-2.36-2.36h-8.99Z" style="fill: #fff;"/>
</svg>