<?xml version="1.0" encoding="UTF-8" standalone="no"?>
<!DOCTYPE svg PUBLIC "-//W3C//DTD SVG 1.1//EN" "http://www.w3.org/Graphics/SVG/1.1/DTD/svg11.dtd">
<svg width="100%" height="100%" viewBox="0 0 188 179" version="1.1" xmlns="http://www.w3.org/2000/svg" xmlns:xlink="http://www.w3.org/1999/xlink" xml:space="preserve" xmlns:serif="http://www.serif.com/" style="fill-rule:evenodd;clip-rule:evenodd;stroke-linejoin:round;stroke-miterlimit:2;">
    <g transform="matrix(1,0,0,1,-839,-494)">
        <g id="ModFest-Carnival-Tent" serif:id="ModFest Carnival Tent" transform="matrix(1,0,0,1,118.791,472.459)">
            <rect x="720.593" y="21.762" width="187.487" height="178.238" style="fill:none;"/>
            <clipPath id="_clip1">
                <rect x="720.593" y="21.762" width="187.487" height="178.238"/>
            </clipPath>
            <g clip-path="url(#_clip1)">
                <g transform="matrix(1.03423,0,0,1.05647,711.48,-2.34093)">
                    <path d="M33.32,121.595C21.206,116.723 15.466,112.138 15.466,112.138C10.955,108.719 8.697,103.172 9.569,97.654C10.441,92.135 14.305,87.515 19.66,85.591C19.66,85.591 35.211,79.766 55.959,62.581C77.139,45.039 86.81,30.585 86.81,30.585C91.489,23.458 101.198,21.391 108.478,25.972C110.453,27.214 112.047,28.819 113.229,30.641C114.053,31.841 123.829,45.8 144.091,62.581C164.839,79.766 180.39,85.591 180.39,85.591C185.742,87.514 189.606,92.131 190.48,97.646C191.354,103.161 189.102,108.707 184.597,112.128C184.597,112.128 176.984,118.224 160.766,123.83C162.888,123.119 164.871,122.397 166.718,121.678C164.367,139.214 167.357,155.44 171.84,171.294C172.017,171.879 172.127,172.473 172.174,173.066C172.288,174.503 172.026,175.912 171.454,177.182C170.884,178.452 169.999,179.593 168.839,180.48C168.347,180.858 167.809,181.187 167.231,181.458C165.545,182.277 152.103,188.585 131.061,192.246L130.661,191.809C130.661,191.809 117.883,177.865 112.829,169.654C108.824,163.148 105.595,156.622 103.7,151.264L100.546,142.351L97.392,151.264C95.497,156.622 92.269,163.148 88.264,169.654C83.268,177.769 77.064,185.859 70.668,191.575L69.975,192.194C47.285,188.288 32.83,181.462 32.83,181.462C28.999,179.667 27.034,175.44 28.17,171.434C32.682,155.51 35.698,139.214 33.32,121.595ZM100.016,63.483C94.169,69.872 86.29,77.673 76.215,86.018C70.628,90.646 65.328,94.596 60.451,97.946C70.525,100.391 83.66,102.316 100.05,102.316C116.427,102.316 129.548,100.394 139.608,97.953C134.728,94.601 129.426,90.649 123.835,86.018C113.758,77.672 105.872,69.87 100.016,63.483Z" style="fill:white;"/>
                </g>
            </g>
        </g>
    </g>
</svg>
