<?xml version="1.0" encoding="UTF-8" standalone="no"?>
<!DOCTYPE svg PUBLIC "-//W3C//DTD SVG 1.1//EN" "http://www.w3.org/Graphics/SVG/1.1/DTD/svg11.dtd">
<svg width="100%" height="100%" viewBox="0 0 201 201" version="1.1" xmlns="http://www.w3.org/2000/svg" xmlns:xlink="http://www.w3.org/1999/xlink" xml:space="preserve" xmlns:serif="http://www.serif.com/" style="fill-rule:evenodd;clip-rule:evenodd;stroke-miterlimit:10;">
    <g transform="matrix(1,0,0,1,-227,-494)">
        <g id="ModFest-Carnival-Transparent" serif:id="ModFest Carnival Transparent" transform="matrix(1,0,0,1,227.602,494.22)">
            <rect x="0" y="0" width="200" height="200" style="fill:none;"/>
            <clipPath id="_clip1">
                <rect x="0" y="0" width="200" height="200"/>
            </clipPath>
            <g clip-path="url(#_clip1)">
                <g transform="matrix(1,0,0,1,0.05,0)">
                    <path d="M199.95,0L200,0L200,200L199.95,200L199.95,0ZM29.295,108.905C17.94,104.035 12.547,99.635 12.547,99.635C7.882,96.023 5.546,90.163 6.448,84.333C7.349,78.502 11.346,73.622 16.884,71.588C16.884,71.588 32.968,65.435 54.426,47.279C76.331,28.747 86.332,13.476 86.332,13.476C91.172,5.947 101.213,3.763 108.742,8.603C110.785,9.915 112.434,11.611 113.656,13.535C114.508,14.803 124.619,29.551 145.574,47.279C167.032,65.435 183.116,71.588 183.116,71.588C188.651,73.621 192.647,78.497 193.551,84.324C194.455,90.151 192.126,96.01 187.467,99.624C187.467,99.624 182.079,104.031 170.724,108.906C170.164,109.757 169.515,110.566 168.778,111.32C166.725,129.232 169.771,145.868 174.273,162.132C174.457,162.75 174.57,163.377 174.618,164.004C174.737,165.521 174.466,167.011 173.874,168.351C173.285,169.693 172.369,170.899 171.17,171.836C170.661,172.235 170.104,172.583 169.506,172.869C167.763,173.734 153.861,180.399 132.098,184.267L131.684,183.805C131.684,183.805 121.871,172.864 115.812,164.288L111.45,168.65C105.15,174.95 94.85,174.95 88.55,168.65L84.923,165.023C80.347,171.975 75.059,178.609 69.638,183.558L68.921,184.212C45.455,180.085 30.505,172.873 30.505,172.873C26.542,170.977 24.511,166.512 25.685,162.279C30.211,145.967 33.281,129.285 31.221,111.317C30.492,110.561 29.85,109.752 29.295,108.905Z" style="fill:url(#_Linear2);"/>
                </g>
                <g id="Layer6">
                    <path d="M29.345,108.905C17.99,104.035 12.597,99.635 12.597,99.635C7.932,96.023 5.596,90.163 6.498,84.333C7.399,78.502 11.396,73.622 16.934,71.588C16.934,71.588 33.018,65.435 54.476,47.279C76.381,28.747 86.382,13.476 86.382,13.476C91.222,5.947 101.263,3.763 108.792,8.603C110.835,9.915 112.484,11.611 113.706,13.535C114.558,14.803 124.669,29.551 145.624,47.279C167.082,65.435 183.166,71.588 183.166,71.588C188.701,73.621 192.697,78.497 193.601,84.324C194.505,90.151 192.176,96.01 187.517,99.624C187.517,99.624 182.129,104.031 170.774,108.906C170.214,109.757 169.565,110.566 168.828,111.32C166.775,129.232 169.821,145.868 174.323,162.132C174.507,162.75 174.62,163.377 174.668,164.004C174.787,165.521 174.516,167.011 173.924,168.351C173.335,169.693 172.419,170.899 171.22,171.836C170.711,172.235 170.154,172.583 169.556,172.869C167.813,173.734 153.911,180.399 132.148,184.267L131.734,183.805C131.734,183.805 121.921,172.864 115.862,164.288L111.5,168.65C105.2,174.95 94.9,174.95 88.6,168.65L84.973,165.023C80.397,171.975 75.109,178.609 69.688,183.558L68.971,184.212C45.505,180.085 30.555,172.873 30.555,172.873C26.592,170.977 24.561,166.512 25.735,162.279C30.261,145.967 33.331,129.285 31.271,111.317C30.542,110.561 29.9,109.752 29.345,108.905Z" style="fill-opacity:0.8;"/>
                </g>
                <g id="Layer3" transform="matrix(1.16747,0,0,1.05647,-16.9423,-20.8681)">
                    <g opacity="0.13">
                        <g transform="matrix(0.885871,0,0,1,11.6008,1.92375)">
                            <path d="M33.32,121.595C21.206,116.723 15.466,112.138 15.466,112.138C10.955,108.719 8.697,103.172 9.569,97.654C10.441,92.135 14.305,87.515 19.66,85.591C19.66,85.591 35.211,79.766 55.959,62.581C77.139,45.039 86.81,30.585 86.81,30.585C91.489,23.458 101.198,21.391 108.478,25.972C110.453,27.214 112.047,28.819 113.229,30.641C114.053,31.841 123.829,45.8 144.091,62.581C164.839,79.766 180.39,85.591 180.39,85.591C185.742,87.514 189.606,92.131 190.48,97.646C191.354,103.161 189.102,108.707 184.597,112.128C184.597,112.128 176.984,118.224 160.766,123.83C162.888,123.119 164.871,122.397 166.718,121.678C164.367,139.214 167.357,155.44 171.84,171.294C172.017,171.879 172.127,172.473 172.174,173.066C172.288,174.503 172.026,175.912 171.454,177.182C170.884,178.452 169.999,179.593 168.839,180.48C168.347,180.858 167.809,181.187 167.231,181.458C165.545,182.277 152.103,188.585 131.061,192.246L130.661,191.809C130.661,191.809 117.883,177.865 112.829,169.654C108.824,163.148 105.595,156.622 103.7,151.264L100.546,142.351L97.392,151.264C95.497,156.622 92.269,163.148 88.264,169.654C83.268,177.769 77.064,185.859 70.668,191.575L69.975,192.194C47.285,188.288 32.83,181.462 32.83,181.462C28.999,179.667 27.034,175.44 28.17,171.434C32.682,155.51 35.698,139.214 33.32,121.595ZM115.783,101.692C125.08,100.934 133.004,99.555 139.608,97.953C134.728,94.601 129.426,90.649 123.835,86.018C113.758,77.672 105.872,69.87 100.016,63.483C94.169,69.872 86.29,77.673 76.215,86.018C70.628,90.646 65.328,94.596 60.451,97.946C69.568,100.159 81.194,101.946 95.471,102.265C95.501,101.595 95.651,100.762 95.922,99.763C96.252,98.548 96.833,97.533 97.665,96.718C99.514,94.908 101.782,94.096 104.468,94.281C107.153,94.467 110.156,96.184 113.476,99.434L115.783,101.692Z" style="fill:rgb(184,178,116);"/>
                        </g>
                    </g>
                </g>
                <g transform="matrix(1,0,0,1,7.10543e-14,-0.05)">
                    <path d="M31.4,88.6L88.6,31.4C94.9,25.1 105.2,25.1 111.5,31.4L168.7,88.6C175,94.9 175,105.2 168.7,111.5L111.5,168.7C105.2,175 94.9,175 88.6,168.7L31.4,111.5C25.1,105.1 25.1,94.9 31.4,88.6Z" style="fill:none;fill-rule:nonzero;stroke:url(#_Linear3);stroke-width:13.77px;"/>
                </g>
                <g id="Text">
                </g>
                <g transform="matrix(0.865803,0.865803,-0.535219,0.535219,-334.058,-463.708)">
                    <path d="M556.676,121.072L556.676,121.068L556.676,81.883C556.676,79.804 557.186,77.811 558.094,76.341C559.003,74.872 560.235,74.046 561.52,74.046L567.631,74.046C568.335,74.046 568.958,74.779 569.176,75.861C570.146,80.686 572.95,84.178 576.255,84.178C579.56,84.178 582.365,80.686 583.335,75.861C583.552,74.779 584.176,74.046 584.879,74.046L590.99,74.046C592.275,74.046 593.507,74.872 594.416,76.341C595.324,77.811 595.835,79.804 595.835,81.883L595.835,121.072L595.834,121.076L595.799,160.273C595.795,164.597 593.627,168.098 590.954,168.098L584.839,168.098C584.135,168.098 583.511,167.366 583.294,166.283C582.324,161.458 579.519,157.966 576.214,157.966C572.91,157.966 570.105,161.458 569.135,166.283C568.917,167.366 568.294,168.098 567.59,168.098L561.484,168.098C560.198,168.098 558.965,167.271 558.056,165.799C557.147,164.327 556.638,162.33 556.64,160.25L556.676,121.072ZM565.209,107.792C565.209,109.4 565.481,110.963 566.026,112.482C566.57,114 567.073,115.106 567.534,115.798C567.994,116.49 568.434,117.082 568.853,117.574C566.424,119.807 565.209,123.201 565.209,127.757C565.209,128.65 565.314,129.532 565.523,130.403C565.733,131.274 565.97,131.977 566.235,132.513C566.5,133.049 566.808,133.563 567.157,134.054C567.506,134.546 567.743,134.858 567.869,134.992L568.183,135.327C567.233,135.327 566.507,135.707 566.005,136.466C565.502,137.225 565.251,138.699 565.251,140.888C565.251,142.317 565.335,143.456 565.502,144.305C565.67,145.153 565.956,145.756 566.361,146.113C566.766,146.471 567.129,146.683 567.45,146.75C567.771,146.817 568.253,146.85 568.895,146.85L583.639,146.85C584.309,146.85 584.798,146.817 585.105,146.75C585.412,146.683 585.775,146.482 586.194,146.147C586.613,145.812 586.906,145.22 587.074,144.372C587.241,143.523 587.325,142.406 587.325,141.022C587.325,139.593 587.241,138.454 587.074,137.605C586.906,136.756 586.62,136.153 586.215,135.796C585.81,135.439 585.447,135.227 585.126,135.16C584.805,135.093 584.323,135.059 583.681,135.059L576.267,135.059C573.838,135.059 572.623,133.719 572.623,131.04C572.623,128.27 573.838,126.886 576.267,126.886L583.597,126.886C584.24,126.886 584.721,126.852 585.042,126.785C585.364,126.718 585.734,126.517 586.152,126.182C586.571,125.847 586.871,125.256 587.053,124.407C587.234,123.558 587.325,122.442 587.325,121.057C587.325,119.628 587.241,118.489 587.074,117.64C586.906,116.792 586.613,116.189 586.194,115.832C585.775,115.474 585.412,115.262 585.105,115.195C584.798,115.128 584.309,115.095 583.639,115.095L576.309,115.095C575.136,115.095 574.229,114.816 573.586,114.257C572.944,113.699 572.623,112.638 572.623,111.075C572.623,108.306 573.838,106.921 576.267,106.921L583.597,106.921C584.24,106.921 584.721,106.888 585.042,106.821C585.364,106.754 585.734,106.553 586.152,106.218C586.571,105.883 586.871,105.291 587.053,104.442C587.234,103.594 587.325,102.477 587.325,101.093C587.325,99.663 587.241,98.525 587.074,97.676C586.906,96.827 586.613,96.236 586.194,95.901C585.775,95.566 585.405,95.365 585.084,95.298C584.763,95.231 584.281,95.197 583.639,95.197L576.309,95.197C572.344,95.197 569.502,96.403 567.785,98.815C566.068,101.227 565.209,104.219 565.209,107.792Z" style="fill:white;"/>
                </g>
            </g>
        </g>
    </g>
    <defs>
        <linearGradient id="_Linear2" x1="0" y1="0" x2="1" y2="0" gradientUnits="userSpaceOnUse" gradientTransform="matrix(200,0,0,200,0,100)"><stop offset="0" style="stop-color:rgb(206,255,97);stop-opacity:1"/><stop offset="0.23" style="stop-color:rgb(176,255,104);stop-opacity:1"/><stop offset="0.49" style="stop-color:rgb(95,255,122);stop-opacity:1"/><stop offset="1" style="stop-color:rgb(0,228,196);stop-opacity:1"/></linearGradient>
        <linearGradient id="_Linear3" x1="0" y1="0" x2="1" y2="0" gradientUnits="userSpaceOnUse" gradientTransform="matrix(146.75,0,0,146.75,26.675,100.05)"><stop offset="0" style="stop-color:rgb(206,255,97);stop-opacity:1"/><stop offset="0.23" style="stop-color:rgb(176,255,104);stop-opacity:1"/><stop offset="0.49" style="stop-color:rgb(95,255,122);stop-opacity:1"/><stop offset="1" style="stop-color:rgb(0,228,196);stop-opacity:1"/></linearGradient>
    </defs>
</svg>
