<?xml version="1.0" encoding="UTF-8"?>
<svg id="Layer_1" data-name="Layer 1" xmlns="http://www.w3.org/2000/svg" xmlns:xlink="http://www.w3.org/1999/xlink" viewBox="0 0 180 180">
  <defs>
    <filter id="drop-shadow-4" filterUnits="userSpaceOnUse">
      <feOffset dx="11.73" dy="11.73"/>
      <feGaussianBlur result="blur" stdDeviation="16.76"/>
      <feFlood flood-color="#000" flood-opacity=".9"/>
      <feComposite in2="blur" operator="in"/>
      <feComposite in="SourceGraphic"/>
    </filter>
  </defs>
  <path d="M158.61,101.45l-57.17,57.17c-6.31,6.31-16.56,6.31-22.88,0L21.39,101.45c-6.32-6.32-6.32-16.57,0-22.89L78.56,21.39c6.32-6.32,16.57-6.32,22.88,0l57.17,57.17c6.32,6.32,6.32,16.57,0,22.89Z" style="fill: #1e1608;"/>
  <g style="filter: url(#drop-shadow-4);">
    <path d="M158.61,101.45l-57.17,57.17c-6.31,6.31-16.56,6.31-22.88,0L21.39,101.45c-6.32-6.32-6.32-16.57,0-22.89L78.56,21.39c6.32-6.32,16.57-6.32,22.88,0l57.17,57.17c6.32,6.32,6.32,16.57,0,22.89Z" style="fill: none; stroke: #ffbf0b; stroke-miterlimit: 10; stroke-width: 13.77px;"/>
  </g>
  <g>
    <path d="M68.71,75.15c-.16-.49-.39-.85-.69-1.06-.3-.22-.73-.41-1.29-.57-.57-.17-1.35-.25-2.36-.25s-1.95,.43-2.81,1.29l-.15,.1-8.15,7.35c-1.19,1.06-1.79,2.04-1.79,2.93s.52,1.92,1.57,3.08c1.04,1.16,2.04,1.74,3,1.74s2.12-.51,3.48-1.54l.65-.59v17.73c0,.8,.02,1.4,.07,1.82,.05,.41,.21,.87,.47,1.36,.5,.86,1.78,1.3,3.83,1.3s3.41-.45,3.88-1.35c.26-.49,.42-.93,.47-1.31s.07-.95,.07-1.72v-27.67c0-1.19-.08-2.07-.25-2.64Z" style="fill: #fff;"/>
    <path d="M80.64,101.54c-.76-.7-2.15-1.05-4.15-1.05s-3.26,.5-3.75,1.49c-.27,.5-.43,.95-.48,1.35-.04,.39-.07,.97-.07,1.74v.19c0,1.76,.32,2.95,.97,3.58,.65,.63,1.97,.95,3.97,.95s3.26-.48,3.76-1.45c.29-.52,.47-.98,.52-1.36,.05-.38,.07-.97,.07-1.77v-.19c0-1.76-.28-2.92-.84-3.48Z" style="fill: #fff;"/>
    <path d="M100.71,75.15c-.16-.49-.4-.85-.69-1.06-.3-.22-.73-.41-1.3-.57-.56-.17-1.35-.25-2.36-.25s-1.94,.43-2.8,1.29l-.15,.1-8.15,7.35c-1.19,1.06-1.79,2.04-1.79,2.93s.52,1.92,1.57,3.08c1.04,1.16,2.04,1.74,3,1.74s2.12-.51,3.48-1.54l.65-.59v17.73c0,.8,.02,1.4,.07,1.82,.05,.41,.21,.87,.47,1.36,.5,.86,1.77,1.3,3.83,1.3s3.41-.45,3.87-1.35c.27-.49,.43-.93,.47-1.31,.05-.38,.08-.95,.08-1.72v-27.67c0-1.19-.08-2.07-.25-2.64Z" style="fill: #fff;"/>
    <path d="M124.26,89.19c-2.52-2.37-5.35-3.55-8.49-3.55-.8,0-1.38,.03-1.74,.1,.26-2.12,.43-3.38,.49-3.78h8.7c.73,0,1.27-.02,1.61-.07,.35-.05,.76-.21,1.22-.48,.83-.43,1.24-1.63,1.24-3.62,0-2.19-.44-3.51-1.34-3.98-.5-.26-.93-.42-1.29-.47-.37-.05-.94-.07-1.74-.07h-4.67l-7.55-.05c-.77,0-1.44,.15-2.02,.47-.57,.31-1.01,.67-1.29,1.07-.28,.39-.52,.84-.72,1.34-.2,.5-.31,.84-.34,1.04-.04,.2-.39,2.75-1.05,7.65-.66,4.91-.99,7.57-.99,8s.18,.84,.54,1.22c.37,.38,1.14,.89,2.31,1.52,1.18,.62,2.22,.94,3.14,.94s1.81-.38,2.7-1.14c.6-.6,1.39-.9,2.39-.9s1.88,.33,2.66,.97c.77,.65,1.16,1.53,1.16,2.63s-.35,1.98-1.06,2.61c-.72,.63-1.81,.95-3.28,.95s-2.51-.35-3.11-1.05c-1.29-1.06-2.4-1.59-3.33-1.59s-1.89,.55-2.88,1.64c-1.23,1.26-1.84,2.34-1.84,3.23s.63,1.89,1.89,2.98l.4,.35c.26,.27,.68,.58,1.24,.95,2.48,1.55,5.27,2.33,8.35,2.33,3.54,0,6.51-1.23,8.89-3.7,2.39-2.47,3.58-5.42,3.58-8.84s-1.26-6.33-3.78-8.7Z" style="fill: #fff;"/>
  </g>
</svg>