<?xml version="1.0" encoding="UTF-8" standalone="no"?>
<!DOCTYPE svg PUBLIC "-//W3C//DTD SVG 1.1//EN" "http://www.w3.org/Graphics/SVG/1.1/DTD/svg11.dtd">
<svg width="100%" height="100%" viewBox="0 0 1920 1080" version="1.1" xmlns="http://www.w3.org/2000/svg" xmlns:xlink="http://www.w3.org/1999/xlink" xml:space="preserve" xmlns:serif="http://www.serif.com/" style="fill-rule:evenodd;clip-rule:evenodd;stroke-linecap:round;stroke-linejoin:round;stroke-miterlimit:1.5;">
    <g transform="matrix(1,0,0,1,0,-1200)">
        <g id="_1.20-background" serif:id="1.20/background" transform="matrix(1.78857,0,0,2.07692,1.13687e-13,-1606.42)">
            <rect x="0" y="1351.24" width="1073.48" height="520" style="fill:rgb(5,9,34);"/>
            <clipPath id="_clip1">
                <rect x="0" y="1351.24" width="1073.48" height="520"/>
            </clipPath>
            <g clip-path="url(#_clip1)">
                <g transform="matrix(9.06381,-4.50647,5.23299,7.80543,-750.075,1373.39)">
                    <path d="M73.047,83.262C73.908,83.262 74.62,83.345 75.183,83.51C75.747,83.676 76.177,83.866 76.475,84.082C76.773,84.297 76.997,84.645 77.146,85.125C77.295,85.605 77.378,86.003 77.395,86.318C77.411,86.632 77.419,87.121 77.419,87.783L77.419,115.458C77.419,116.22 77.395,116.792 77.345,117.173C77.295,117.553 77.138,117.992 76.873,118.489C76.608,118.986 76.161,119.334 75.531,119.533C74.902,119.731 74.057,119.831 72.997,119.831C71.97,119.831 71.142,119.731 70.513,119.533C69.884,119.334 69.436,118.994 69.171,118.514C68.906,118.034 68.749,117.587 68.699,117.173C68.65,116.759 68.625,116.154 68.625,115.359L68.625,97.621L67.979,98.217C66.621,99.244 65.495,99.758 64.6,99.758C63.574,99.758 62.613,99.261 61.719,98.267C60.526,96.942 59.93,95.816 59.93,94.888C59.93,94.027 60.526,93.067 61.719,92.007L69.867,84.653L70.016,84.554C70.877,83.692 71.888,83.262 73.047,83.262Z" style="fill:rgb(15,24,48);fill-rule:nonzero;"/>
                    <path d="M89.096,111.533C89.659,112.096 89.94,113.256 89.94,115.011L89.94,115.21C89.94,116.005 89.915,116.593 89.866,116.974C89.816,117.355 89.65,117.81 89.369,118.34C89.087,118.87 88.615,119.243 87.953,119.458C87.29,119.673 86.396,119.781 85.27,119.781C83.481,119.781 82.239,119.433 81.543,118.738C80.947,118.175 80.649,117.015 80.649,115.26L80.649,115.061C80.649,114.299 80.674,113.719 80.723,113.322C80.773,112.924 80.931,112.469 81.195,111.956C81.46,111.442 81.933,111.069 82.612,110.838C83.291,110.606 84.193,110.49 85.319,110.49C87.075,110.49 88.334,110.838 89.096,111.533Z" style="fill:rgb(15,24,48);fill-rule:nonzero;"/>
                    <path d="M116.324,110.987C117.118,110.987 117.715,111.02 118.112,111.086C118.51,111.152 118.94,111.31 119.404,111.558C119.868,111.806 120.199,112.254 120.398,112.9C120.596,113.545 120.696,114.398 120.696,115.458C120.696,116.485 120.588,117.313 120.373,117.943C120.158,118.572 119.81,119.011 119.33,119.259C118.849,119.508 118.402,119.665 117.988,119.731C117.574,119.798 116.986,119.831 116.224,119.831L96.797,119.831C95.604,119.831 94.578,119.384 93.716,118.489C92.855,117.595 92.425,116.551 92.425,115.359C92.425,113.57 93.046,111.922 94.288,110.415C95.53,108.908 97.029,107.616 98.784,106.54C100.54,105.463 102.295,104.403 104.051,103.36C105.807,102.316 107.305,101.132 108.548,99.807C109.79,98.482 110.411,97.075 110.411,95.584C110.411,95.485 110.394,95.344 110.361,95.162C110.328,94.979 110.212,94.657 110.013,94.193C109.815,93.729 109.574,93.323 109.293,92.975C109.011,92.628 108.572,92.305 107.976,92.007C107.38,91.708 106.684,91.559 105.889,91.559C104.564,91.559 103.513,91.949 102.734,92.727C101.956,93.505 101.517,94.276 101.418,95.037L101.219,96.18L101.219,96.478C101.219,97.207 101.194,97.754 101.144,98.118C101.095,98.482 100.937,98.888 100.672,99.335C100.407,99.782 99.96,100.097 99.331,100.279C98.702,100.462 97.857,100.553 96.797,100.553C95.936,100.553 95.224,100.47 94.66,100.304C94.097,100.139 93.667,99.94 93.369,99.708C93.07,99.476 92.847,99.137 92.698,98.689C92.549,98.242 92.466,97.861 92.449,97.547C92.433,97.232 92.425,96.76 92.425,96.131C92.425,92.686 93.658,89.597 96.126,86.864C98.594,84.131 101.832,82.765 105.84,82.765C109.815,82.765 113.044,84.148 115.529,86.914C118.013,89.68 119.255,92.835 119.255,96.379C119.255,98.267 118.841,100.056 118.013,101.745C117.185,103.434 116.183,104.801 115.007,105.844C113.831,106.888 112.655,107.798 111.479,108.577C110.303,109.355 109.301,109.91 108.473,110.241L107.231,110.738L107.231,110.987L116.324,110.987Z" style="fill:rgb(15,24,48);fill-rule:nonzero;"/>
                    <path d="M136.595,82.765C138.848,82.765 140.827,83.212 142.533,84.107C144.239,85.001 145.58,86.111 146.557,87.436C147.535,88.76 148.321,90.317 148.918,92.106C149.514,93.895 149.911,95.543 150.11,97.05C150.309,98.557 150.408,100.072 150.408,101.596C150.408,103.219 150.309,104.801 150.11,106.341C149.911,107.881 149.505,109.529 148.893,111.285C148.28,113.04 147.493,114.572 146.533,115.881C145.572,117.189 144.239,118.274 142.533,119.135C140.827,119.996 138.881,120.427 136.695,120.427C134.376,120.427 132.347,119.988 130.608,119.11C128.869,118.233 127.511,117.148 126.534,115.856C125.557,114.564 124.762,113.024 124.149,111.235C123.536,109.446 123.139,107.79 122.957,106.266C122.774,104.743 122.683,103.169 122.683,101.546C122.683,100.056 122.774,98.582 122.957,97.124C123.139,95.667 123.528,94.035 124.124,92.23C124.72,90.425 125.499,88.852 126.459,87.51C127.42,86.169 128.77,85.042 130.509,84.131C132.248,83.22 134.277,82.765 136.595,82.765ZM136.496,111.583C139.908,111.583 141.614,108.337 141.614,101.844L141.614,101.546C141.614,94.888 139.924,91.559 136.546,91.559C133.167,91.559 131.478,94.905 131.478,101.596C131.478,108.254 133.15,111.583 136.496,111.583Z" style="fill:rgb(15,24,48);fill-rule:nonzero;"/>
                </g>
                <g transform="matrix(0.628905,0,0,0.541591,6.35629e-14,-53.5873)">
                    <circle cx="0" cy="2593.89" r="512.648" style="fill:none;stroke:rgb(15,24,48);stroke-width:146.33px;"/>
                </g>
            </g>
        </g>
    </g>
</svg>
