<?xml version="1.0" encoding="UTF-8" standalone="no"?>
<!DOCTYPE svg PUBLIC "-//W3C//DTD SVG 1.1//EN" "http://www.w3.org/Graphics/SVG/1.1/DTD/svg11.dtd">
<svg width="100%" height="100%" viewBox="0 0 883 200" version="1.1" xmlns="http://www.w3.org/2000/svg" xmlns:xlink="http://www.w3.org/1999/xlink" xml:space="preserve" xmlns:serif="http://www.serif.com/" style="fill-rule:evenodd;clip-rule:evenodd;stroke-miterlimit:10;">
    <g transform="matrix(1,0,0,1,-4400,-960)">
        <g id="_1.20-wordmark-minimal" serif:id="1.20/wordmark-minimal" transform="matrix(0.928811,0,0,1,4400,960)">
            <rect x="0" y="0" width="949.973" height="200" style="fill:none;"/>
            <clipPath id="_clip1">
                <rect x="0" y="0" width="949.973" height="200"/>
            </clipPath>
            <g clip-path="url(#_clip1)">
                <g id="Icon" transform="matrix(1.07664,0,0,1,-45.7828,-42.5238)">
                    <rect x="42.524" y="42.524" width="200" height="200" style="fill:none;"/>
                    <clipPath id="_clip2">
                        <rect x="42.524" y="42.524" width="200" height="200"/>
                    </clipPath>
                    <g clip-path="url(#_clip2)">
                        <g transform="matrix(1,0,0,1,44.3106,40.7042)">
                            <path d="M66.091,83.262C66.952,83.262 67.664,83.345 68.227,83.51C68.791,83.676 69.221,83.866 69.519,84.082C69.817,84.297 70.041,84.645 70.19,85.125C70.339,85.605 70.422,86.003 70.438,86.318C70.455,86.632 70.463,87.121 70.463,87.783L70.463,115.458C70.463,116.22 70.438,116.792 70.389,117.173C70.339,117.553 70.182,117.992 69.917,118.489C69.652,118.986 69.205,119.334 68.575,119.533C67.946,119.731 67.101,119.831 66.041,119.831C65.014,119.831 64.186,119.731 63.557,119.533C62.928,119.334 62.48,118.994 62.215,118.514C61.95,118.034 61.793,117.587 61.743,117.173C61.694,116.759 61.669,116.154 61.669,115.359L61.669,97.621L61.023,98.217C59.665,99.244 58.539,99.758 57.644,99.758C56.617,99.758 55.657,99.261 54.763,98.267C53.57,96.942 52.974,95.816 52.974,94.888C52.974,94.027 53.57,93.067 54.763,92.007L62.911,84.653L63.06,84.554C63.921,83.692 64.932,83.262 66.091,83.262Z" style="fill:white;fill-rule:nonzero;"/>
                            <path d="M82.14,111.533C82.703,112.096 82.984,113.256 82.984,115.011L82.984,115.21C82.984,116.005 82.959,116.593 82.91,116.974C82.86,117.355 82.694,117.81 82.413,118.34C82.131,118.87 81.659,119.243 80.997,119.458C80.334,119.673 79.44,119.781 78.314,119.781C76.525,119.781 75.283,119.433 74.587,118.738C73.991,118.175 73.693,117.015 73.693,115.26L73.693,115.061C73.693,114.299 73.718,113.719 73.767,113.322C73.817,112.924 73.974,112.469 74.239,111.956C74.504,111.442 74.976,111.069 75.656,110.838C76.335,110.606 77.237,110.49 78.363,110.49C80.119,110.49 81.378,110.838 82.14,111.533Z" style="fill:white;fill-rule:nonzero;"/>
                            <path d="M109.367,110.987C110.162,110.987 110.759,111.02 111.156,111.086C111.554,111.152 111.984,111.31 112.448,111.558C112.912,111.806 113.243,112.254 113.442,112.9C113.64,113.545 113.74,114.398 113.74,115.458C113.74,116.485 113.632,117.313 113.417,117.943C113.202,118.572 112.854,119.011 112.373,119.259C111.893,119.508 111.446,119.665 111.032,119.731C110.618,119.798 110.03,119.831 109.268,119.831L89.841,119.831C88.648,119.831 87.622,119.384 86.76,118.489C85.899,117.595 85.468,116.551 85.468,115.359C85.468,113.57 86.09,111.922 87.332,110.415C88.574,108.908 90.073,107.616 91.828,106.54C93.584,105.463 95.339,104.403 97.095,103.36C98.851,102.316 100.349,101.132 101.592,99.807C102.834,98.482 103.455,97.075 103.455,95.584C103.455,95.485 103.438,95.344 103.405,95.162C103.372,94.979 103.256,94.657 103.057,94.193C102.859,93.729 102.618,93.323 102.337,92.975C102.055,92.628 101.616,92.305 101.02,92.007C100.424,91.708 99.728,91.559 98.933,91.559C97.608,91.559 96.557,91.949 95.778,92.727C95,93.505 94.561,94.276 94.462,95.037L94.263,96.18L94.263,96.478C94.263,97.207 94.238,97.754 94.188,98.118C94.139,98.482 93.981,98.888 93.716,99.335C93.451,99.782 93.004,100.097 92.375,100.279C91.745,100.462 90.901,100.553 89.841,100.553C88.98,100.553 88.267,100.47 87.704,100.304C87.141,100.139 86.711,99.94 86.413,99.708C86.114,99.476 85.891,99.137 85.742,98.689C85.593,98.242 85.51,97.861 85.493,97.547C85.477,97.232 85.468,96.76 85.468,96.131C85.468,92.686 86.702,89.597 89.17,86.864C91.638,84.131 94.876,82.765 98.884,82.765C102.859,82.765 106.088,84.148 108.572,86.914C111.057,89.68 112.299,92.835 112.299,96.379C112.299,98.267 111.885,100.056 111.057,101.745C110.229,103.434 109.227,104.801 108.051,105.844C106.875,106.888 105.699,107.798 104.523,108.577C103.347,109.355 102.345,109.91 101.517,110.241L100.275,110.738L100.275,110.987L109.367,110.987Z" style="fill:white;fill-rule:nonzero;"/>
                            <path d="M129.639,82.765C131.892,82.765 133.871,83.212 135.577,84.107C137.283,85.001 138.624,86.111 139.601,87.436C140.579,88.76 141.365,90.317 141.961,92.106C142.558,93.895 142.955,95.543 143.154,97.05C143.353,98.557 143.452,100.072 143.452,101.596C143.452,103.219 143.353,104.801 143.154,106.341C142.955,107.881 142.549,109.529 141.937,111.285C141.324,113.04 140.537,114.572 139.577,115.881C138.616,117.189 137.283,118.274 135.577,119.135C133.871,119.996 131.925,120.427 129.739,120.427C127.42,120.427 125.391,119.988 123.652,119.11C121.913,118.233 120.555,117.148 119.578,115.856C118.601,114.564 117.806,113.024 117.193,111.235C116.58,109.446 116.183,107.79 116.001,106.266C115.818,104.743 115.727,103.169 115.727,101.546C115.727,100.056 115.818,98.582 116.001,97.124C116.183,95.667 116.572,94.035 117.168,92.23C117.764,90.425 118.543,88.852 119.503,87.51C120.464,86.169 121.814,85.042 123.553,84.131C125.292,83.22 127.321,82.765 129.639,82.765ZM129.54,111.583C132.952,111.583 134.658,108.337 134.658,101.844L134.658,101.546C134.658,94.888 132.968,91.559 129.59,91.559C126.211,91.559 124.522,94.905 124.522,101.596C124.522,108.254 126.194,111.583 129.54,111.583Z" style="fill:white;fill-rule:nonzero;"/>
                        </g>
                        <g transform="matrix(1,0,0,1,211.658,131.605)">
                            <path d="M0,22.884L-57.169,80.053C-63.488,86.372 -73.734,86.372 -80.053,80.053L-137.222,22.884C-143.541,16.565 -143.541,6.32 -137.222,0.001L-80.053,-57.169C-73.734,-63.488 -63.488,-63.488 -57.169,-57.169L0,0.001C6.319,6.32 6.319,16.565 0,22.884Z" style="fill:none;fill-rule:nonzero;stroke:rgb(92,126,255);stroke-width:13.77px;"/>
                        </g>
                    </g>
                </g>
                <g transform="matrix(2.22684,0,0,2.06831,98.4135,-108.591)">
                    <path d="M96.052,83.361C97.078,83.361 97.907,83.461 98.536,83.659C99.165,83.858 99.612,84.206 99.877,84.703C100.142,85.2 100.3,85.647 100.349,86.044C100.399,86.442 100.424,87.021 100.424,87.783L100.424,115.359C100.424,116.121 100.391,116.692 100.325,117.073C100.258,117.454 100.101,117.885 99.853,118.365C99.604,118.845 99.165,119.185 98.536,119.384C97.907,119.582 97.062,119.682 96.002,119.682C95.141,119.682 94.429,119.599 93.865,119.433C93.302,119.268 92.872,119.069 92.574,118.837C92.275,118.605 92.052,118.266 91.903,117.818C91.754,117.371 91.671,116.99 91.654,116.676C91.638,116.361 91.63,115.889 91.63,115.26L91.63,98.615C90.801,99.642 89.592,101.273 88.002,103.509C86.413,105.745 85.237,107.343 84.475,108.304C84.375,108.469 84.243,108.66 84.077,108.875C83.912,109.09 83.506,109.388 82.86,109.769C82.214,110.15 81.51,110.341 80.748,110.341C80.02,110.341 79.349,110.167 78.736,109.819C78.123,109.471 77.684,109.132 77.419,108.8L77.022,108.254C76.359,107.426 75.051,105.662 73.097,102.962C71.142,100.263 70.082,98.814 69.917,98.615L69.917,115.359C69.917,116.121 69.892,116.692 69.842,117.073C69.793,117.454 69.635,117.885 69.37,118.365C69.105,118.845 68.658,119.185 68.029,119.384C67.399,119.582 66.555,119.682 65.495,119.682C64.468,119.682 63.648,119.582 63.035,119.384C62.422,119.185 61.984,118.845 61.719,118.365C61.454,117.885 61.296,117.446 61.247,117.048C61.197,116.651 61.172,116.055 61.172,115.26L61.172,87.684C61.172,86.922 61.197,86.351 61.247,85.97C61.296,85.589 61.454,85.158 61.719,84.678C61.984,84.198 62.431,83.858 63.06,83.659C63.689,83.461 64.534,83.361 65.594,83.361C66.488,83.361 67.259,83.469 67.904,83.684C68.55,83.9 68.973,84.123 69.171,84.355L69.47,84.653L80.748,99.46C86.379,92.007 90.139,87.088 92.027,84.703C92.59,83.808 93.932,83.361 96.052,83.361Z" style="fill:white;fill-rule:nonzero;"/>
                    <path d="M117.268,92.951C120.911,92.951 124.108,94.234 126.857,96.801C129.606,99.368 130.981,102.639 130.981,106.614C130.981,109.364 130.269,111.806 128.844,113.943C127.42,116.079 125.689,117.653 123.652,118.663C121.615,119.673 119.52,120.179 117.367,120.179C115.148,120.179 113.011,119.64 110.957,118.564C108.904,117.487 107.173,115.897 105.765,113.794C104.357,111.691 103.654,109.314 103.654,106.664C103.654,102.689 105.045,99.41 107.827,96.826C110.61,94.242 113.756,92.951 117.268,92.951ZM114.038,110.217C115.098,111.028 116.174,111.434 117.268,111.434C118.361,111.434 119.454,111.02 120.547,110.192C121.64,109.364 122.186,108.138 122.186,106.515C122.186,104.892 121.673,103.683 120.646,102.888C119.619,102.093 118.477,101.695 117.218,101.695C116.092,101.695 115.015,102.109 113.988,102.938C112.961,103.766 112.448,104.975 112.448,106.565C112.448,108.188 112.978,109.405 114.038,110.217Z" style="fill:white;fill-rule:nonzero;"/>
                    <path d="M155.625,81.324C156.652,81.324 157.48,81.423 158.109,81.622C158.739,81.821 159.178,82.169 159.426,82.666C159.675,83.163 159.824,83.601 159.873,83.982C159.923,84.363 159.948,84.935 159.948,85.696L159.948,115.359C159.948,116.121 159.923,116.692 159.873,117.073C159.824,117.454 159.666,117.885 159.401,118.365C159.136,118.845 158.689,119.185 158.06,119.384C157.43,119.582 156.586,119.682 155.526,119.682C153.008,119.682 151.617,118.87 151.352,117.247C149.961,118.837 148.023,119.632 145.539,119.632C142.558,119.632 139.842,118.332 137.39,115.732C134.939,113.131 133.714,110.059 133.714,106.515C133.714,103.136 134.947,100.139 137.415,97.522C139.883,94.905 142.591,93.597 145.539,93.597C147.99,93.597 149.895,94.425 151.253,96.081L151.253,85.647C151.253,84.885 151.278,84.314 151.327,83.933C151.377,83.552 151.526,83.121 151.774,82.641C152.023,82.161 152.462,81.821 153.091,81.622C153.72,81.423 154.565,81.324 155.625,81.324ZM143.7,109.645C144.562,110.539 145.605,110.987 146.831,110.987C148.056,110.987 149.075,110.539 149.886,109.645C150.698,108.751 151.104,107.757 151.104,106.664C151.104,105.604 150.714,104.61 149.936,103.683C149.158,102.755 148.106,102.292 146.781,102.292C145.456,102.292 144.396,102.747 143.601,103.658C142.806,104.569 142.409,105.571 142.409,106.664C142.409,107.757 142.839,108.751 143.7,109.645Z" style="fill:white;fill-rule:nonzero;"/>
                    <path d="M188.02,83.312C188.782,83.312 189.354,83.336 189.735,83.386C190.115,83.436 190.546,83.593 191.026,83.858C191.507,84.123 191.846,84.57 192.045,85.2C192.244,85.829 192.343,86.674 192.343,87.734C192.343,88.794 192.244,89.638 192.045,90.268C191.846,90.897 191.498,91.336 191.002,91.584C190.505,91.833 190.066,91.982 189.685,92.031C189.304,92.081 188.716,92.106 187.921,92.106L172.717,92.106L172.717,97.124L182.505,97.124C183.3,97.124 183.888,97.149 184.269,97.199C184.65,97.248 185.081,97.406 185.561,97.671C186.041,97.936 186.381,98.391 186.58,99.037C186.778,99.683 186.878,100.536 186.878,101.596C186.878,102.457 186.795,103.169 186.629,103.733C186.464,104.296 186.265,104.726 186.033,105.024C185.801,105.322 185.462,105.546 185.014,105.695C184.567,105.844 184.186,105.927 183.872,105.944C183.557,105.96 183.085,105.968 182.456,105.968L172.717,105.968L172.717,115.359C172.717,116.154 172.692,116.734 172.643,117.098C172.593,117.462 172.436,117.893 172.171,118.39C171.906,118.887 171.458,119.235 170.829,119.433C170.2,119.632 169.355,119.731 168.295,119.731C167.434,119.731 166.722,119.649 166.159,119.483C165.595,119.317 165.165,119.119 164.867,118.887C164.569,118.655 164.345,118.315 164.196,117.868C164.047,117.421 163.964,117.04 163.948,116.725C163.931,116.411 163.923,115.939 163.923,115.309L163.923,87.684C163.923,85.995 164.237,84.844 164.867,84.231C165.496,83.618 166.689,83.312 168.444,83.312L188.02,83.312Z" style="fill:white;fill-rule:nonzero;"/>
                    <path d="M216.341,103.285C216.341,105.472 215.836,107.053 214.826,108.03C213.816,109.008 212.698,109.496 211.472,109.496L199.697,109.496C199.697,110.424 200.243,111.202 201.336,111.831C202.429,112.461 203.605,112.775 204.864,112.775C205.758,112.775 206.603,112.709 207.398,112.577C208.193,112.444 208.773,112.312 209.137,112.179L209.683,111.98C210.478,111.616 211.141,111.434 211.671,111.434C212.731,111.434 213.642,112.179 214.404,113.67C214.834,114.564 215.05,115.326 215.05,115.955C215.05,118.903 211.522,120.377 204.466,120.377C202.015,120.377 199.837,119.955 197.933,119.11C196.028,118.266 194.546,117.156 193.486,115.781C192.426,114.407 191.639,112.958 191.126,111.434C190.612,109.91 190.356,108.353 190.356,106.763C190.356,102.59 191.705,99.252 194.405,96.752C197.105,94.251 200.475,93 204.516,93C206.139,93 207.63,93.224 208.988,93.671C210.346,94.118 211.472,94.698 212.367,95.41C213.261,96.122 214.014,96.942 214.627,97.87C215.24,98.797 215.679,99.716 215.944,100.627C216.209,101.538 216.341,102.424 216.341,103.285ZM205.858,104.975C207.116,104.975 207.746,104.445 207.746,103.385C207.746,102.623 207.456,102.01 206.876,101.546C206.297,101.083 205.46,100.851 204.367,100.851C203.307,100.851 202.247,101.29 201.187,102.167C200.127,103.045 199.597,103.981 199.597,104.975L205.858,104.975Z" style="fill:white;fill-rule:nonzero;"/>
                    <path d="M229.21,120.179C225.865,120.179 222.718,119.251 219.77,117.396C219.14,116.999 218.826,116.419 218.826,115.657C218.826,114.697 219.455,113.338 220.714,111.583C221.078,111.02 221.641,110.738 222.403,110.738C223.264,110.738 224.275,111.086 225.434,111.782C227.057,112.709 228.432,113.173 229.558,113.173C231.578,113.173 232.589,112.775 232.589,111.98C232.589,111.649 232.274,111.368 231.645,111.136C231.015,110.904 230.22,110.722 229.26,110.589C228.299,110.457 227.264,110.183 226.154,109.769C225.045,109.355 224.01,108.85 223.049,108.254C222.088,107.658 221.293,106.722 220.664,105.447C220.035,104.171 219.72,102.656 219.72,100.9C219.72,95.667 223.314,93.05 230.502,93.05C232.854,93.05 235.272,93.613 237.756,94.739C238.915,95.269 239.495,95.998 239.495,96.926C239.495,97.588 239.147,98.482 238.452,99.609C237.69,100.801 236.928,101.397 236.166,101.397C235.769,101.397 235.206,101.232 234.477,100.9C233.052,100.238 231.711,99.907 230.452,99.907C228.498,99.907 227.521,100.271 227.521,101C227.521,101.53 227.844,101.952 228.49,102.267C229.136,102.581 229.947,102.797 230.924,102.913C231.901,103.029 232.953,103.252 234.079,103.583C235.206,103.915 236.257,104.32 237.234,104.801C238.212,105.281 239.023,106.093 239.669,107.235C240.315,108.378 240.638,109.778 240.638,111.434C240.638,113.223 240.315,114.721 239.669,115.93C239.023,117.139 238.112,118.034 236.936,118.613C235.76,119.193 234.568,119.599 233.359,119.831C232.15,120.063 230.767,120.179 229.21,120.179Z" style="fill:white;fill-rule:nonzero;"/>
                    <path d="M258.276,102.341L255.047,102.143L255.047,108.999C255.047,109.894 255.188,110.539 255.469,110.937C255.751,111.334 256.256,111.533 256.985,111.533C257.813,111.533 258.434,111.558 258.848,111.608C259.262,111.657 259.692,111.806 260.14,112.055C260.587,112.303 260.893,112.693 261.059,113.223C261.224,113.753 261.307,114.481 261.307,115.409C261.307,116.436 261.2,117.264 260.984,117.893C260.769,118.522 260.413,118.961 259.916,119.21C259.419,119.458 258.98,119.607 258.599,119.657C258.218,119.707 257.664,119.731 256.935,119.731C253.49,119.731 250.873,118.953 249.084,117.396C247.296,115.839 246.401,113.206 246.401,109.496L246.401,102.143C245.772,102.242 245.176,102.292 244.613,102.292C243.718,102.292 243.031,102.01 242.551,101.447C242.07,100.884 241.83,99.708 241.83,97.919C241.83,96.992 241.913,96.222 242.079,95.609C242.244,94.996 242.485,94.557 242.799,94.292C243.114,94.027 243.42,93.853 243.718,93.77C244.017,93.688 244.364,93.646 244.762,93.646L246.401,93.845L246.401,88.727C246.401,87.965 246.426,87.402 246.476,87.038C246.526,86.674 246.675,86.268 246.923,85.821C247.172,85.374 247.61,85.059 248.24,84.877C248.869,84.694 249.714,84.603 250.774,84.603C251.602,84.603 252.289,84.686 252.836,84.852C253.382,85.017 253.805,85.208 254.103,85.423C254.401,85.639 254.624,85.97 254.774,86.417C254.923,86.864 255.005,87.253 255.022,87.585C255.039,87.916 255.047,88.38 255.047,88.976L255.047,93.845C256.504,93.712 257.597,93.646 258.326,93.646C259.088,93.646 259.659,93.671 260.04,93.721C260.421,93.77 260.852,93.92 261.332,94.168C261.812,94.416 262.152,94.855 262.351,95.485C262.549,96.114 262.649,96.959 262.649,98.019C262.649,99.045 262.549,99.874 262.351,100.503C262.152,101.132 261.804,101.571 261.307,101.82C260.81,102.068 260.371,102.217 259.991,102.267C259.61,102.316 259.038,102.341 258.276,102.341Z" style="fill:white;fill-rule:nonzero;"/>
                    <path d="M289.827,83.262C290.688,83.262 291.4,83.345 291.964,83.51C292.527,83.676 292.957,83.866 293.255,84.082C293.553,84.297 293.777,84.645 293.926,85.125C294.075,85.605 294.158,86.003 294.175,86.318C294.191,86.632 294.199,87.121 294.199,87.783L294.199,115.458C294.199,116.22 294.175,116.792 294.125,117.173C294.075,117.553 293.918,117.992 293.653,118.489C293.388,118.986 292.941,119.334 292.311,119.533C291.682,119.731 290.837,119.831 289.777,119.831C288.75,119.831 287.922,119.731 287.293,119.533C286.664,119.334 286.216,118.994 285.952,118.514C285.687,118.034 285.529,117.587 285.479,117.173C285.43,116.759 285.405,116.154 285.405,115.359L285.405,97.621L284.759,98.217C283.401,99.244 282.275,99.758 281.38,99.758C280.354,99.758 279.393,99.261 278.499,98.267C277.306,96.942 276.71,95.816 276.71,94.888C276.71,94.027 277.306,93.067 278.499,92.007L286.647,84.653L286.796,84.554C287.657,83.692 288.668,83.262 289.827,83.262Z" style="fill:white;fill-rule:nonzero;"/>
                    <path d="M305.876,111.533C306.439,112.096 306.72,113.256 306.72,115.011L306.72,115.21C306.72,116.005 306.695,116.593 306.646,116.974C306.596,117.355 306.43,117.81 306.149,118.34C305.867,118.87 305.395,119.243 304.733,119.458C304.07,119.673 303.176,119.781 302.05,119.781C300.261,119.781 299.019,119.433 298.323,118.738C297.727,118.175 297.429,117.015 297.429,115.26L297.429,115.061C297.429,114.299 297.454,113.719 297.503,113.322C297.553,112.924 297.711,112.469 297.976,111.956C298.241,111.442 298.713,111.069 299.392,110.838C300.071,110.606 300.973,110.49 302.099,110.49C303.855,110.49 305.114,110.838 305.876,111.533Z" style="fill:white;fill-rule:nonzero;"/>
                    <path d="M333.104,110.987C333.898,110.987 334.495,111.02 334.892,111.086C335.29,111.152 335.72,111.31 336.184,111.558C336.648,111.806 336.979,112.254 337.178,112.9C337.377,113.545 337.476,114.398 337.476,115.458C337.476,116.485 337.368,117.313 337.153,117.943C336.938,118.572 336.59,119.011 336.11,119.259C335.629,119.508 335.182,119.665 334.768,119.731C334.354,119.798 333.766,119.831 333.004,119.831L313.577,119.831C312.384,119.831 311.358,119.384 310.496,118.489C309.635,117.595 309.205,116.551 309.205,115.359C309.205,113.57 309.826,111.922 311.068,110.415C312.31,108.908 313.809,107.616 315.564,106.54C317.32,105.463 319.076,104.403 320.831,103.36C322.587,102.316 324.086,101.132 325.328,99.807C326.57,98.482 327.191,97.075 327.191,95.584C327.191,95.485 327.174,95.344 327.141,95.162C327.108,94.979 326.992,94.657 326.793,94.193C326.595,93.729 326.355,93.323 326.073,92.975C325.791,92.628 325.353,92.305 324.756,92.007C324.16,91.708 323.464,91.559 322.669,91.559C321.344,91.559 320.293,91.949 319.514,92.727C318.736,93.505 318.297,94.276 318.198,95.037L317.999,96.18L317.999,96.478C317.999,97.207 317.974,97.754 317.924,98.118C317.875,98.482 317.717,98.888 317.452,99.335C317.187,99.782 316.74,100.097 316.111,100.279C315.482,100.462 314.637,100.553 313.577,100.553C312.716,100.553 312.004,100.47 311.44,100.304C310.877,100.139 310.447,99.94 310.149,99.708C309.85,99.476 309.627,99.137 309.478,98.689C309.329,98.242 309.246,97.861 309.229,97.547C309.213,97.232 309.205,96.76 309.205,96.131C309.205,92.686 310.438,89.597 312.906,86.864C315.374,84.131 318.612,82.765 322.62,82.765C326.595,82.765 329.824,84.148 332.309,86.914C334.793,89.68 336.035,92.835 336.035,96.379C336.035,98.267 335.621,100.056 334.793,101.745C333.965,103.434 332.963,104.801 331.787,105.844C330.611,106.888 329.435,107.798 328.259,108.577C327.083,109.355 326.081,109.91 325.253,110.241L324.011,110.738L324.011,110.987L333.104,110.987Z" style="fill:white;fill-rule:nonzero;"/>
                    <path d="M353.375,82.765C355.628,82.765 357.607,83.212 359.313,84.107C361.019,85.001 362.36,86.111 363.337,87.436C364.315,88.76 365.101,90.317 365.698,92.106C366.294,93.895 366.691,95.543 366.89,97.05C367.089,98.557 367.188,100.072 367.188,101.596C367.188,103.219 367.089,104.801 366.89,106.341C366.691,107.881 366.285,109.529 365.673,111.285C365.06,113.04 364.273,114.572 363.313,115.881C362.352,117.189 361.019,118.274 359.313,119.135C357.607,119.996 355.661,120.427 353.475,120.427C351.156,120.427 349.127,119.988 347.388,119.11C345.649,118.233 344.291,117.148 343.314,115.856C342.337,114.564 341.542,113.024 340.929,111.235C340.316,109.446 339.919,107.79 339.737,106.266C339.554,104.743 339.463,103.169 339.463,101.546C339.463,100.056 339.554,98.582 339.737,97.124C339.919,95.667 340.308,94.035 340.904,92.23C341.5,90.425 342.279,88.852 343.239,87.51C344.2,86.169 345.55,85.042 347.289,84.131C349.028,83.22 351.057,82.765 353.375,82.765ZM353.276,111.583C356.688,111.583 358.394,108.337 358.394,101.844L358.394,101.546C358.394,94.888 356.704,91.559 353.326,91.559C349.947,91.559 348.258,94.905 348.258,101.596C348.258,108.254 349.931,111.583 353.276,111.583Z" style="fill:white;fill-rule:nonzero;"/>
                </g>
            </g>
        </g>
    </g>
</svg>
