<?xml version="1.0" encoding="UTF-8"?>
<svg id="Layer_1" data-name="Layer 1" xmlns="http://www.w3.org/2000/svg" viewBox="0 0 1152 648">
  <g style="opacity: .05;">
    <rect x="531.14" y="-409.68" width="415.01" height="415.01" rx="75.36" ry="75.36" transform="translate(359.3 463.09) rotate(-45)" style="fill: #94c0ff;"/>
  </g>
  <g>
    <rect width="1152" height="648" style="fill: #1e0530;"/>
    <g>
      <path d="M-47.18,542.87l282-41.39v-6.53l-115.66,16.36V128.79L-26.69,107.78v7.93l137.57,19.09v377.69l-158.06,22.35v8.04Zm317.97,7.23l-376.23,72.28c-14.33,2.75-24.87,2.38-31.44-1.2-6.64-3.59-9.97-10.84-9.97-21.69v-103.69c0-10.85,3.33-19.03,9.97-24.5,6.57-5.41,17.11-8.76,31.44-10.04l116.2-10.36V192.78l-94.1-8.39c-13.93-1.24-24.17-4.52-30.55-9.86-6.45-5.37-9.69-13.43-9.69-24.13V48.21c0-10.69,3.24-17.84,9.69-21.41,6.38-3.53,16.62-3.94,30.55-1.27L178.84,75.91c9.43,1.81,16.17,5.03,20.31,9.62,4.1,4.57,6.15,11.08,6.15,19.55V433.57l65.48-5.84c8.13-.72,13.95,.54,17.52,3.75,3.54,3.2,5.31,8.73,5.31,16.6v75.25c0,7.88-1.77,13.91-5.31,18.1-3.57,4.22-9.39,7.11-17.52,8.68Z" style="fill: #2f0f4c;"/>
      <path d="M455.44,542.87l282-41.39v-6.53l-115.66,16.36V128.79l-145.84-21.01v7.93l137.57,19.09v377.69l-158.06,22.35v8.04Zm317.97,7.23l-376.23,72.28c-14.33,2.75-24.87,2.38-31.44-1.2-6.64-3.59-9.97-10.84-9.97-21.69v-103.69c0-10.85,3.33-19.03,9.97-24.5s17.11-8.76,31.44-10.04l116.2-10.36V192.78l-94.1-8.39c-13.93-1.24-24.17-4.52-30.55-9.86-6.45-5.37-9.69-13.43-9.69-24.13V48.21c0-10.69,3.24-17.84,9.69-21.41,6.38-3.53,16.62-3.94,30.55-1.27l262.19,50.37c9.43,1.81,16.17,5.03,20.31,9.62,4.1,4.57,6.15,11.08,6.15,19.55V433.57l65.48-5.84c8.13-.72,13.95,.54,17.52,3.75,3.54,3.2,5.31,8.73,5.31,16.6v75.25c0,7.88-1.77,13.91-5.31,18.1s-9.39,7.11-17.52,8.68Z" style="fill: #440a3d;"/>
      <path d="M958.07,542.87l282-41.39v-6.53l-115.66,16.36V128.79l-145.84-21.01v7.93l137.57,19.09v377.69l-158.06,22.35v8.04Zm317.97,7.23l-376.23,72.28c-14.33,2.75-24.87,2.38-31.44-1.2-6.64-3.59-9.97-10.84-9.97-21.69v-103.69c0-10.85,3.33-19.03,9.97-24.5,6.57-5.41,17.11-8.76,31.44-10.04l116.2-10.36V192.78l-94.1-8.39c-13.93-1.24-24.17-4.52-30.55-9.86-6.45-5.37-9.69-13.43-9.69-24.13V48.21c0-10.69,3.24-17.84,9.69-21.41,6.38-3.53,16.62-3.94,30.55-1.27l262.19,50.37c9.43,1.81,16.17,5.03,20.31,9.62,4.1,4.57,6.15,11.08,6.15,19.55V433.57l65.48-5.84c8.13-.72,13.95,.54,17.52,3.75,3.54,3.2,5.31,8.73,5.31,16.6v75.25c0,7.88-1.77,13.91-5.31,18.1-3.57,4.22-9.39,7.11-17.52,8.68Z" style="fill: #2f0f4c;"/>
    </g>
  </g>
  <g>
    <text transform="translate(360.68 461.47)" style="fill: #fff; font-family: FredokaOne-Regular, &apos;Fredoka One&apos;; font-size: 32.44px;"><tspan x="0" y="0" xml:space="preserve">ONE WEEK    ONE FE</tspan><tspan x="323.47" y="0" style="letter-spacing: -.19em;">A</tspan><tspan x="342.22" y="0">TURE</tspan></text>
    <text transform="translate(417.78 506.98)" style="fill: #fff; font-family: FredokaOne-Regular, &apos;Fredoka One&apos;;"><tspan x="0" y="0" style="font-size: 32.44px; letter-spacing: -.05em;">A</tspan><tspan x="23.19" y="0" style="font-size: 32.44px;">UG</tspan><tspan x="69.9" y="0" style="font-size: 32.44px; letter-spacing: -.03em;">U</tspan><tspan x="92.47" y="0" style="font-size: 32.44px; letter-spacing: -.05em;">S</tspan><tspan x="109.76" y="0" style="font-size: 32.44px; letter-spacing: 0em;">T 13-21, 2022</tspan><tspan x="316.5" y="0" style="font-size: .1px;">TH</tspan></text>
    <rect x="543.66" y="444.75" width="9.38" height="9.38" rx="1.34" ry="1.34" transform="translate(-157.19 519.38) rotate(-45)" style="fill: #fff; stroke: #fff; stroke-miterlimit: 10; stroke-width: 1.14px;"/>
  </g>
  <g>
    <path d="M651.59,146.88l-58.81-58.81c-4.48-4.48-10.44-6.95-16.78-6.95s-12.3,2.47-16.78,6.95l-58.81,58.81c-4.48,4.48-6.95,10.44-6.95,16.78s2.47,12.3,6.95,16.78l58.81,58.81c4.48,4.48,10.44,6.95,16.78,6.95s12.29-2.47,16.78-6.95l58.81-58.81c4.48-4.48,6.95-10.44,6.95-16.78s-2.47-12.29-6.95-16.78Zm-10.01,23.54l-58.81,58.81c-1.81,1.81-4.21,2.8-6.76,2.8s-4.96-.99-6.76-2.8l-58.81-58.81c-1.81-1.81-2.8-4.21-2.8-6.76s.99-4.96,2.8-6.76l58.81-58.81c1.81-1.81,4.21-2.8,6.76-2.8s4.96,.99,6.76,2.8l58.81,58.81c1.81,1.81,2.8,4.21,2.8,6.76s-.99,4.96-2.8,6.76Z" style="fill: #ce46a5;"/>
    <path d="M584.79,182.87v-44.29c0-1.34-1.09-2.43-2.43-2.43h-22.67c-1.34,0-2.43,1.09-2.43,2.43v7.82c0,1.34,1.09,2.43,2.43,2.43h8.96v34.04h-10.68c-1.34,0-2.43,1.09-2.43,2.43v7.64c0,1.34,1.09,2.43,2.43,2.43h36.06c1.34,0,2.43-1.09,2.43-2.43v-7.64c0-1.34-1.09-2.43-2.43-2.43h-9.24Z" style="fill: #fff;"/>
  </g>
  <text transform="translate(399.49 339.16)" style="fill: #fff; font-family: FredokaOne-Regular, &apos;Fredoka One&apos;;"><tspan style="font-size: 81.19px;"><tspan x="0" y="0">Mod</tspan><tspan x="167.91" y="0" style="letter-spacing: -.09em;">F</tspan><tspan x="212.32" y="0">e</tspan><tspan x="258.84" y="0" style="letter-spacing: -.02em;">s</tspan><tspan x="297.25" y="0">t:</tspan></tspan><tspan style="font-size: 50px;"><tspan x="10.09" y="60">SINGULARITY</tspan></tspan></text>
  <g>
    <g>
      <text transform="translate(496.08 576.96)" style="fill: #fff; font-family: FredokaOne-Regular, &apos;Fredoka One&apos;; font-size: 23.21px;"><tspan x="0" y="0">M</tspan></text>
      <rect x="489.58" y="551.31" width="33.19" height="33.19" rx="4.74" ry="4.74" transform="translate(-253.31 524.25) rotate(-45)" style="fill: none; stroke: #fff; stroke-miterlimit: 10; stroke-width: 4.04px;"/>
    </g>
    <g>
      <rect x="554.6" y="548.51" width="17.61" height="17.61" rx=".9" ry=".9" style="fill: #fff;"/>
      <rect x="574.49" y="548.51" width="17.61" height="17.61" rx=".9" ry=".9" style="fill: #fff;"/>
      <rect x="554.6" y="568.4" width="17.61" height="17.61" rx=".9" ry=".9" style="fill: #fff;"/>
      <rect x="578.14" y="572.05" width="17.61" height="17.61" rx=".9" ry=".9" transform="translate(-238.82 585.16) rotate(-45)" style="fill: #fff;"/>
    </g>
    <g>
      <path d="M666.54,573.81c1.01-3.72,1.08-7.74,0-11.74-3.24-12.08-15.67-19.24-27.75-16-9.33,2.49-15.73,10.46-16.67,19.51h3.83c.91-7.35,6.17-13.76,13.77-15.81,9.4-2.52,19.04,2.56,22.4,11.47l-3.73,.99c-1.72-4.14-5.17-7.18-9.26-8.47l-.68,3.87c3.23,1.19,5.85,3.87,6.81,7.44,1.4,5.21-1.2,10.54-5.92,12.76l1.02,3.8c6.21-2.56,9.93-9.01,9.04-15.65l3.71-.99c.4,2.54,.26,5.06-.34,7.44l3.77,1.37Z" style="fill: #fff; fill-rule: evenodd;"/>
      <path d="M650.53,589.78c-12.08,3.24-24.51-3.93-27.75-16-.38-1.41-.61-2.82-.72-4.23h3.83c.1,1.05,.28,2.11,.57,3.16,.3,1.11,.69,2.17,1.16,3.16l3.41-2.04c-.29-.66-.53-1.35-.72-2.08-2.12-7.92,2.58-16.06,10.51-18.18,1.5-.41,3.01-.56,4.49-.5l-.68,3.87c-.93,0-1.87,.12-2.8,.37-5.85,1.58-9.33,7.59-7.75,13.44,.1,.36,.21,.71,.34,1.05l4.37-2.62-1.32-3.48,4.12-4.23,5.21-1.12,1.5,1.86-2.4,2.43-2.1,.65-1.49,1.54,.73,2.04s1.49,1.57,1.49,1.58l2.1-.56,1.49-1.64,3.26-1.03,.97,2.18-3.36,4.12-5.63,1.79-2.53-2.81-4.4,2.64c2.25,2.57,5.65,4,9.18,3.7l1.02,3.8c-5.25,.7-10.38-1.48-13.57-5.47l-3.39,2.03c4.47,5.88,12.22,8.79,19.8,6.76,5.45-1.46,9.71-5.18,12.01-9.88l3.77,1.37c-2.74,5.85-7.96,10.5-14.69,12.31Z" style="fill: #fff;"/>
    </g>
  </g>
</svg>