<?xml version="1.0" encoding="UTF-8" standalone="no"?>
<!DOCTYPE svg PUBLIC "-//W3C//DTD SVG 1.1//EN" "http://www.w3.org/Graphics/SVG/1.1/DTD/svg11.dtd">
<svg width="100%" height="100%" viewBox="0 0 200 200" version="1.1" xmlns="http://www.w3.org/2000/svg" xmlns:xlink="http://www.w3.org/1999/xlink" xml:space="preserve" xmlns:serif="http://www.serif.com/" style="fill-rule:evenodd;clip-rule:evenodd;stroke-miterlimit:10;">
    <g transform="matrix(1,0,0,1,0,-1230)">
        <g transform="matrix(1,0,0,1,3,0)">
            <g id="_1.17-full" serif:id="1.17/full" transform="matrix(1,0,0,1,-3,1230)">
                <rect x="0" y="0" width="200" height="200" style="fill:none;"/>
                <clipPath id="_clip1">
                    <rect x="0" y="0" width="200" height="200"/>
                </clipPath>
                <g clip-path="url(#_clip1)">
                    <rect x="0" y="0" width="200" height="200" style="fill:rgb(63,36,28);"/>
                    <g>
                        <g transform="matrix(0.707107,-0.707107,0.707107,0.707107,-41.42,100)">
                            <path d="M156.6,59.57L156.6,140.42C156.6,149.35 149.35,156.6 140.42,156.6L59.57,156.6C50.64,156.6 43.39,149.35 43.39,140.42L43.39,59.57C43.39,50.64 50.64,43.39 59.57,43.39L140.42,43.39C149.35,43.39 156.6,50.64 156.6,59.57Z" style="fill:none;stroke:rgb(255,151,100);stroke-width:13.77px;"/>
                        </g>
                        <g transform="matrix(1,0,0,1,59.95,119.73)">
                            <path d="M13.864,-36.472C14.725,-36.472 15.437,-36.39 16,-36.224C16.563,-36.058 16.994,-35.868 17.292,-35.653C17.59,-35.437 17.814,-35.089 17.963,-34.609C18.112,-34.129 18.195,-33.731 18.211,-33.417C18.228,-33.102 18.236,-32.613 18.236,-31.951L18.236,-4.273C18.236,-3.511 18.211,-2.94 18.162,-2.559C18.112,-2.178 17.955,-1.739 17.69,-1.242C17.425,-0.745 16.977,-0.398 16.348,-0.199C15.719,0 14.874,0.099 13.814,0.099C12.787,0.099 11.959,0 11.329,-0.199C10.7,-0.398 10.253,-0.737 9.988,-1.217C9.723,-1.698 9.565,-2.145 9.516,-2.559C9.466,-2.973 9.441,-3.578 9.441,-4.373L9.441,-22.112L8.795,-21.516C7.437,-20.489 6.311,-19.975 5.416,-19.975C4.389,-19.975 3.429,-20.472 2.534,-21.466C1.342,-22.791 0.745,-23.917 0.745,-24.845C0.745,-25.706 1.342,-26.667 2.534,-27.727L10.683,-35.081L10.832,-35.181C11.694,-36.042 12.704,-36.472 13.864,-36.472Z" style="fill:white;fill-rule:nonzero;"/>
                            <path d="M29.913,-8.199C30.477,-7.636 30.758,-6.476 30.758,-4.721L30.758,-4.522C30.758,-3.727 30.733,-3.139 30.684,-2.758C30.634,-2.377 30.468,-1.921 30.187,-1.391C29.905,-0.861 29.433,-0.489 28.771,-0.273C28.108,-0.058 27.214,0.05 26.087,0.05C24.298,0.05 23.056,-0.298 22.36,-0.994C21.764,-1.557 21.466,-2.716 21.466,-4.472L21.466,-4.671C21.466,-5.433 21.491,-6.012 21.541,-6.41C21.59,-6.808 21.748,-7.263 22.013,-7.776C22.278,-8.29 22.75,-8.663 23.429,-8.895C24.108,-9.126 25.011,-9.242 26.137,-9.242C27.893,-9.242 29.151,-8.895 29.913,-8.199Z" style="fill:white;fill-rule:nonzero;"/>
                            <path d="M45.864,-36.472C46.725,-36.472 47.437,-36.39 48.001,-36.224C48.564,-36.058 48.994,-35.868 49.292,-35.653C49.591,-35.437 49.814,-35.089 49.963,-34.609C50.112,-34.129 50.195,-33.731 50.212,-33.417C50.228,-33.102 50.237,-32.613 50.237,-31.951L50.237,-4.273C50.237,-3.511 50.212,-2.94 50.162,-2.559C50.112,-2.178 49.955,-1.739 49.69,-1.242C49.425,-0.745 48.978,-0.398 48.348,-0.199C47.719,0 46.874,0.099 45.814,0.099C44.787,0.099 43.959,0 43.33,-0.199C42.7,-0.398 42.253,-0.737 41.988,-1.217C41.723,-1.698 41.566,-2.145 41.516,-2.559C41.466,-2.973 41.441,-3.578 41.441,-4.373L41.441,-22.112L40.795,-21.516C39.437,-20.489 38.311,-19.975 37.417,-19.975C36.39,-19.975 35.429,-20.472 34.535,-21.466C33.342,-22.791 32.746,-23.917 32.746,-24.845C32.746,-25.706 33.342,-26.667 34.535,-27.727L42.684,-35.081L42.833,-35.181C43.694,-36.042 44.704,-36.472 45.864,-36.472Z" style="fill:white;fill-rule:nonzero;"/>
                            <path d="M74.982,-36.373C75.844,-36.373 76.556,-36.29 77.119,-36.125C77.682,-35.959 78.113,-35.76 78.411,-35.528C78.709,-35.296 78.933,-34.957 79.082,-34.51C79.231,-34.062 79.314,-33.682 79.33,-33.367C79.347,-33.052 79.355,-32.58 79.355,-31.951C79.355,-30.46 78.924,-28.729 78.063,-26.758C77.202,-24.787 76.166,-22.841 74.957,-20.919C73.748,-18.998 72.539,-17.06 71.33,-15.106C70.121,-13.151 69.086,-11.155 68.224,-9.118C67.363,-7.081 66.932,-5.267 66.932,-3.677C66.932,-2.948 66.899,-2.41 66.833,-2.062C66.767,-1.714 66.601,-1.35 66.336,-0.969C66.071,-0.588 65.632,-0.331 65.019,-0.199C64.407,-0.066 63.57,0 62.51,0C61.45,0 60.614,-0.066 60.001,-0.199C59.388,-0.331 58.949,-0.596 58.684,-0.994C58.419,-1.391 58.262,-1.764 58.212,-2.112C58.162,-2.46 58.137,-3.015 58.137,-3.776C58.137,-5.93 58.502,-8.141 59.23,-10.41C59.959,-12.679 60.837,-14.708 61.864,-16.497C62.891,-18.286 63.918,-19.934 64.945,-21.441C65.972,-22.948 66.85,-24.24 67.578,-25.317C68.307,-26.394 68.672,-27.147 68.672,-27.578L57.342,-27.578C56.58,-27.578 56.001,-27.611 55.603,-27.677C55.206,-27.744 54.767,-27.909 54.286,-28.174C53.806,-28.439 53.466,-28.886 53.268,-29.516C53.069,-30.145 52.97,-30.973 52.97,-32C52.97,-33.027 53.069,-33.855 53.268,-34.485C53.466,-35.114 53.789,-35.553 54.237,-35.802C54.684,-36.05 55.098,-36.207 55.479,-36.274C55.86,-36.34 56.398,-36.373 57.094,-36.373L74.982,-36.373Z" style="fill:white;fill-rule:nonzero;"/>
                        </g>
                    </g>
                </g>
            </g>
        </g>
    </g>
</svg>
