<?xml version="1.0" encoding="UTF-8" standalone="no"?>
<!DOCTYPE svg PUBLIC "-//W3C//DTD SVG 1.1//EN" "http://www.w3.org/Graphics/SVG/1.1/DTD/svg11.dtd">
<svg width="100%" height="100%" viewBox="0 0 180 180" version="1.1" xmlns="http://www.w3.org/2000/svg" xmlns:xlink="http://www.w3.org/1999/xlink" xml:space="preserve" xmlns:serif="http://www.serif.com/" style="fill-rule:evenodd;clip-rule:evenodd;stroke-linejoin:round;stroke-miterlimit:2;">
    <g transform="matrix(1,0,0,1,-1830,-1240)">
        <g transform="matrix(1,0,0,1,1460.97,0)">
            <g id="_1.17-minimal-faithful" serif:id="1.17/minimal-faithful" transform="matrix(0.9,0,0,0.9,369.032,1240)">
                <rect x="0" y="0" width="200" height="200" style="fill:none;"/>
                <g transform="matrix(1.11111,0,0,1.11111,-11.1111,-11.1111)">
                    <g transform="matrix(1,0,0,1,10,9.99875)">
                        <path d="M106.317,163.49L106.315,163.492C97.308,172.484 82.702,172.484 73.693,163.49L16.522,106.318C7.513,97.31 7.513,82.7 16.522,73.692L73.692,16.522C82.7,7.513 97.31,7.513 106.318,16.522L163.49,73.693L163.492,73.695C172.484,82.702 172.484,97.308 163.49,106.317L106.317,163.49ZM153.748,96.585C157.376,92.951 157.376,87.059 153.748,83.425L96.582,26.258C92.95,22.627 87.06,22.627 83.428,26.258L26.258,83.428C22.627,87.06 22.627,92.95 26.258,96.582L83.425,153.748C87.059,157.376 92.951,157.376 96.585,153.748L153.748,96.585Z" style="fill:rgb(255,151,100);"/>
                        <path d="M108.953,166.135C98.49,176.582 81.52,176.583 71.055,166.133L71.052,166.131L13.881,108.959C3.414,98.493 3.414,81.517 13.881,71.051L71.051,13.881C81.517,3.414 98.493,3.414 108.959,13.881L166.131,71.052L166.135,71.057C167.2,72.125 167.518,73.729 166.941,75.123C166.709,75.682 166.352,76.163 165.909,76.539C165.193,75.543 164.387,74.592 163.492,73.695L163.49,73.693L106.318,16.522C97.31,7.513 82.7,7.513 73.692,16.522L16.522,73.692C7.513,82.7 7.513,97.31 16.522,106.318L73.693,163.49C81.805,171.589 94.455,172.395 103.468,165.911C104.166,166.732 105.2,167.227 106.315,167.227C107.304,167.227 108.253,166.835 108.953,166.135ZM166.135,71.057C176.582,81.52 176.583,98.49 166.133,108.955L166.131,108.958L108.958,166.131L108.953,166.135C108.254,166.833 107.307,167.225 106.319,167.225L106.315,167.227L106.314,167.225C105.2,167.225 104.168,166.729 103.471,165.909C103.668,165.767 103.864,165.621 104.058,165.472C105.049,166.501 106.248,167.186 106.314,167.224C106.294,167.145 105.939,165.755 105.479,164.286C105.762,164.03 106.041,163.765 106.315,163.492L106.317,163.49L163.49,106.317C171.589,98.205 172.395,85.555 165.911,76.541C166.353,76.166 166.711,75.685 166.942,75.126C167.521,73.731 167.202,72.125 166.135,71.057ZM153.748,96.585L96.585,153.748C92.951,157.376 87.059,157.376 83.425,153.748L26.258,96.582C22.627,92.95 22.627,87.06 26.258,83.428L83.428,26.258C87.06,22.627 92.95,22.627 96.582,26.258L153.748,83.425C157.376,87.059 157.376,92.951 153.748,96.585ZM151.105,93.946C153.278,91.77 153.278,88.24 151.105,86.064L93.941,28.899C91.767,26.726 88.243,26.726 86.069,28.899L28.899,86.069C26.726,88.243 26.726,91.767 28.899,93.941L86.064,151.105C88.24,153.278 91.77,153.278 93.946,151.105L151.105,93.946Z"/>
                    </g>
                    <g transform="matrix(1,0,0,1,60.5698,119.578)">
                        <g transform="matrix(1,0,0,1,-3.25576,0)">
                            <path d="M13.864,-36.472C14.725,-36.472 15.437,-36.39 16,-36.224C16.563,-36.058 16.994,-35.868 17.292,-35.653C17.59,-35.437 17.814,-35.089 17.963,-34.609C18.112,-34.129 18.195,-33.731 18.211,-33.417C18.228,-33.102 18.236,-32.613 18.236,-31.951L18.236,-4.273C18.236,-3.511 18.211,-2.94 18.162,-2.559C18.112,-2.178 17.955,-1.739 17.69,-1.242C17.425,-0.745 16.977,-0.398 16.348,-0.199C15.719,0 14.874,0.099 13.814,0.099C12.787,0.099 11.959,0 11.329,-0.199C10.7,-0.398 10.253,-0.737 9.988,-1.217C9.723,-1.698 9.565,-2.145 9.516,-2.559C9.466,-2.973 9.441,-3.578 9.441,-4.373L9.441,-22.112L8.795,-21.516C7.437,-20.489 6.311,-19.975 5.416,-19.975C4.389,-19.975 3.429,-20.472 2.534,-21.466C1.342,-22.791 0.745,-23.917 0.745,-24.845C0.745,-25.706 1.342,-26.667 2.534,-27.727L10.683,-35.081L10.832,-35.181C11.694,-36.042 12.704,-36.472 13.864,-36.472Z" style="fill:rgb(255,151,100);fill-rule:nonzero;"/>
                            <path d="M8.042,-32.698C7.769,-33.004 7.545,-33.358 7.382,-33.751C6.804,-35.147 7.123,-36.753 8.191,-37.822C9.8,-39.43 11.698,-40.207 13.864,-40.207C15.151,-40.207 16.212,-40.055 17.054,-39.807C18.12,-39.494 18.915,-39.088 19.479,-38.68C20.345,-38.055 21.097,-37.112 21.53,-35.716C21.792,-34.871 21.912,-34.167 21.941,-33.613C21.96,-33.256 21.971,-32.702 21.971,-31.951L21.971,-4.273C21.971,-3.297 21.929,-2.564 21.865,-2.076C21.768,-1.331 21.504,-0.457 20.985,0.515C20.28,1.837 19.147,2.834 17.473,3.363C16.563,3.65 15.346,3.834 13.814,3.834C12.32,3.834 11.12,3.652 10.205,3.363C8.539,2.837 7.419,1.858 6.717,0.587C6.186,-0.376 5.907,-1.284 5.807,-2.114C5.745,-2.63 5.706,-3.382 5.706,-4.373L5.706,-16.248C5.608,-16.243 5.511,-16.24 5.416,-16.24C3.428,-16.24 1.489,-17.044 -0.242,-18.968C-2.266,-21.216 -2.99,-23.271 -2.99,-24.845C-2.99,-26.476 -2.214,-28.497 0.037,-30.504L8.181,-37.854C7.034,-36.818 6.643,-35.183 7.197,-33.741C7.365,-33.304 7.609,-32.913 7.91,-32.579L2.534,-27.727C1.342,-26.667 0.745,-25.706 0.745,-24.845C0.745,-23.917 1.342,-22.791 2.534,-21.466C3.429,-20.472 4.389,-19.975 5.416,-19.975C6.311,-19.975 7.437,-20.489 8.795,-21.516L9.441,-22.112L9.441,-4.373C9.441,-3.578 9.466,-2.973 9.516,-2.559C9.565,-2.145 9.723,-1.698 9.988,-1.217C10.253,-0.737 10.7,-0.398 11.329,-0.199C11.959,0 12.787,0.099 13.814,0.099C14.874,0.099 15.719,0 16.348,-0.199C16.977,-0.398 17.425,-0.745 17.69,-1.242C17.955,-1.739 18.112,-2.178 18.162,-2.559C18.211,-2.94 18.236,-3.511 18.236,-4.273L18.236,-31.951C18.236,-32.613 18.228,-33.102 18.211,-33.417C18.195,-33.731 18.112,-34.129 17.963,-34.609C17.814,-35.089 17.59,-35.437 17.292,-35.653C16.994,-35.868 16.563,-36.058 16,-36.224C15.437,-36.39 14.725,-36.472 13.864,-36.472C12.704,-36.472 11.694,-36.042 10.832,-35.181L10.683,-35.081L8.042,-32.698Z"/>
                        </g>
                        <g transform="matrix(1,0,0,1,-0.456415,0)">
                            <path d="M29.913,-8.199C30.477,-7.636 30.758,-6.476 30.758,-4.721L30.758,-4.522C30.758,-3.727 30.733,-3.139 30.684,-2.758C30.634,-2.377 30.468,-1.921 30.187,-1.391C29.905,-0.861 29.433,-0.489 28.771,-0.273C28.108,-0.058 27.214,0.05 26.087,0.05C24.298,0.05 23.056,-0.298 22.36,-0.994C21.764,-1.557 21.466,-2.716 21.466,-4.472L21.466,-4.671C21.466,-5.433 21.491,-6.012 21.541,-6.41C21.59,-6.808 21.748,-7.263 22.013,-7.776C22.278,-8.29 22.75,-8.663 23.429,-8.895C24.108,-9.126 25.011,-9.242 26.137,-9.242C27.893,-9.242 29.151,-8.895 29.913,-8.199Z" style="fill:rgb(255,151,100);fill-rule:nonzero;"/>
                            <path d="M30.758,-0.787C32.821,-0.787 34.493,-2.459 34.493,-4.522C34.493,-3.509 34.45,-2.76 34.387,-2.275C34.292,-1.545 34.025,-0.655 33.485,0.361C32.767,1.713 31.615,2.729 29.925,3.279C28.976,3.587 27.7,3.785 26.087,3.785C22.997,3.785 20.947,2.863 19.749,1.676C18.684,0.64 17.731,-1.327 17.731,-4.472L17.731,-4.671C17.731,-5.636 17.772,-6.37 17.835,-6.873C17.929,-7.63 18.189,-8.511 18.694,-9.489C19.368,-10.796 20.493,-11.839 22.222,-12.429C23.205,-12.765 24.506,-12.977 26.137,-12.977C29.099,-12.977 31.146,-12.131 32.432,-10.957C32.473,-10.919 32.514,-10.88 32.554,-10.84C33.564,-9.83 34.493,-7.869 34.493,-4.721L34.493,-4.715C34.493,-3.812 30.758,-0.787 30.758,-0.787L30.185,-1.389C30.186,-1.39 30.186,-1.391 30.187,-1.391C30.206,-1.428 30.225,-1.464 30.243,-1.5C30.491,-1.984 30.637,-2.403 30.684,-2.758C30.733,-3.139 30.758,-3.727 30.758,-4.522L30.758,-4.721C30.758,-6.476 30.477,-7.636 29.913,-8.199C29.151,-8.895 27.893,-9.242 26.137,-9.242C25.011,-9.242 24.108,-9.126 23.429,-8.895C22.75,-8.663 22.278,-8.29 22.013,-7.776C21.748,-7.263 21.59,-6.808 21.541,-6.41C21.491,-6.012 21.466,-5.433 21.466,-4.671L21.466,-4.472C21.466,-2.716 21.764,-1.557 22.361,-0.994C23.056,-0.298 24.298,0.05 26.087,0.05C27.214,0.05 28.108,-0.058 28.771,-0.273C29.424,-0.486 29.892,-0.851 30.175,-1.37L30.758,-0.787Z"/>
                        </g>
                        <g transform="matrix(1,0,0,1,-0.456415,0)">
                            <path d="M45.864,-36.472C46.725,-36.472 47.437,-36.39 48.001,-36.224C48.564,-36.058 48.994,-35.868 49.292,-35.653C49.591,-35.437 49.814,-35.089 49.963,-34.609C50.112,-34.129 50.195,-33.731 50.212,-33.417C50.228,-33.102 50.237,-32.613 50.237,-31.951L50.237,-4.273C50.237,-3.511 50.212,-2.94 50.162,-2.559C50.112,-2.178 49.955,-1.739 49.69,-1.242C49.425,-0.745 48.978,-0.398 48.348,-0.199C47.719,0 46.874,0.099 45.814,0.099C44.787,0.099 43.959,0 43.33,-0.199C42.7,-0.398 42.253,-0.737 41.988,-1.217C41.723,-1.698 41.566,-2.145 41.516,-2.559C41.466,-2.973 41.441,-3.578 41.441,-4.373L41.441,-22.112L40.795,-21.516C39.437,-20.489 38.311,-19.975 37.417,-19.975C36.39,-19.975 35.429,-20.472 34.535,-21.466C33.342,-22.791 32.746,-23.917 32.746,-24.845C32.746,-25.706 33.342,-26.667 34.535,-27.727L42.684,-35.081L42.833,-35.181C43.694,-36.042 44.704,-36.472 45.864,-36.472Z" style="fill:rgb(255,151,100);fill-rule:nonzero;"/>
                            <path d="M40.042,-32.698C39.77,-33.004 39.545,-33.358 39.382,-33.751C38.804,-35.147 39.124,-36.753 40.192,-37.822C41.8,-39.43 43.699,-40.207 45.864,-40.207C47.151,-40.207 48.213,-40.055 49.054,-39.807C50.12,-39.494 50.915,-39.088 51.479,-38.68C52.346,-38.055 53.097,-37.112 53.53,-35.716C53.793,-34.871 53.912,-34.167 53.942,-33.613C53.96,-33.256 53.972,-32.702 53.972,-31.951L53.972,-4.273C53.972,-3.297 53.929,-2.564 53.866,-2.076C53.768,-1.331 53.504,-0.457 52.986,0.515C52.28,1.837 51.148,2.834 49.473,3.363C48.563,3.65 47.347,3.834 45.814,3.834C44.32,3.834 43.121,3.652 42.205,3.363C40.54,2.837 39.419,1.858 38.718,0.587C38.187,-0.376 37.907,-1.284 37.808,-2.114C37.746,-2.63 37.707,-3.382 37.707,-4.373L37.707,-16.248C37.608,-16.243 37.511,-16.24 37.417,-16.24C35.429,-16.24 33.49,-17.044 31.758,-18.968C29.735,-21.216 29.011,-23.271 29.011,-24.845C29.011,-26.476 29.786,-28.497 32.037,-30.504L40.181,-37.854C39.034,-36.818 38.643,-35.183 39.198,-33.741C39.365,-33.304 39.609,-32.913 39.911,-32.579L34.535,-27.727C33.342,-26.667 32.746,-25.706 32.746,-24.845C32.746,-23.917 33.342,-22.791 34.535,-21.466C35.429,-20.472 36.39,-19.975 37.417,-19.975C38.311,-19.975 39.437,-20.489 40.795,-21.516L41.441,-22.112L41.441,-4.373C41.441,-3.578 41.466,-2.973 41.516,-2.559C41.566,-2.145 41.723,-1.698 41.988,-1.217C42.253,-0.737 42.7,-0.398 43.33,-0.199C43.959,0 44.787,0.099 45.814,0.099C46.874,0.099 47.719,0 48.348,-0.199C48.978,-0.398 49.425,-0.745 49.69,-1.242C49.955,-1.739 50.112,-2.178 50.162,-2.559C50.212,-2.94 50.237,-3.511 50.237,-4.273L50.237,-31.951C50.237,-32.613 50.228,-33.102 50.212,-33.417C50.195,-33.731 50.112,-34.129 49.963,-34.609C49.814,-35.089 49.591,-35.437 49.292,-35.653C48.994,-35.868 48.564,-36.058 48.001,-36.224C47.437,-36.39 46.725,-36.472 45.864,-36.472C44.704,-36.472 43.694,-36.042 42.833,-35.181L42.684,-35.081L40.042,-32.698Z"/>
                        </g>
                        <g transform="matrix(1,0,0,1,2.01583,0)">
                            <path d="M74.982,-36.373C75.844,-36.373 76.556,-36.29 77.119,-36.125C77.682,-35.959 78.113,-35.76 78.411,-35.528C78.709,-35.296 78.933,-34.957 79.082,-34.51C79.231,-34.062 79.314,-33.682 79.33,-33.367C79.347,-33.052 79.355,-32.58 79.355,-31.951C79.355,-30.46 78.924,-28.729 78.063,-26.758C77.202,-24.787 76.166,-22.841 74.957,-20.919C73.748,-18.998 72.539,-17.06 71.33,-15.106C70.121,-13.151 69.086,-11.155 68.224,-9.118C67.363,-7.081 66.932,-5.267 66.932,-3.677C66.932,-2.948 66.899,-2.41 66.833,-2.062C66.767,-1.714 66.601,-1.35 66.336,-0.969C66.071,-0.588 65.632,-0.331 65.019,-0.199C64.407,-0.066 63.57,0 62.51,0C61.45,0 60.614,-0.066 60.001,-0.199C59.388,-0.331 58.949,-0.596 58.684,-0.994C58.419,-1.391 58.262,-1.764 58.212,-2.112C58.162,-2.46 58.137,-3.015 58.137,-3.776C58.137,-5.93 58.502,-8.141 59.23,-10.41C59.959,-12.679 60.837,-14.708 61.864,-16.497C62.891,-18.286 63.918,-19.934 64.945,-21.441C65.972,-22.948 66.85,-24.24 67.578,-25.317C68.307,-26.394 68.672,-27.147 68.672,-27.578L57.342,-27.578C56.58,-27.578 56.001,-27.611 55.603,-27.677C55.206,-27.744 54.767,-27.909 54.286,-28.174C53.806,-28.439 53.466,-28.886 53.268,-29.516C53.069,-30.145 52.97,-30.973 52.97,-32C52.97,-33.027 53.069,-33.855 53.268,-34.485C53.466,-35.114 53.789,-35.553 54.237,-35.802C54.684,-36.05 55.098,-36.207 55.479,-36.274C55.86,-36.34 56.398,-36.373 57.094,-36.373L74.982,-36.373Z" style="fill:rgb(255,151,100);fill-rule:nonzero;"/>
                            <path d="M62.062,-23.843L57.342,-23.843C56.311,-23.843 55.527,-23.904 54.989,-23.993C54.236,-24.119 53.392,-24.402 52.482,-24.904C51.211,-25.605 50.232,-26.726 49.706,-28.391C49.417,-29.307 49.235,-30.507 49.235,-32C49.235,-33.494 49.417,-34.694 49.706,-35.61C50.241,-37.302 51.22,-38.398 52.423,-39.067C53.289,-39.548 54.101,-39.825 54.839,-39.953C55.371,-40.046 56.122,-40.108 57.094,-40.108L74.982,-40.108C76.27,-40.108 77.331,-39.955 78.173,-39.708C79.287,-39.38 80.114,-38.935 80.704,-38.477C81.531,-37.833 82.211,-36.932 82.625,-35.691C82.902,-34.86 83.029,-34.148 83.06,-33.563C83.079,-33.205 83.09,-32.667 83.09,-31.951C83.09,-30.035 82.593,-27.796 81.485,-25.263C80.551,-23.125 79.43,-21.014 78.118,-18.93C76.914,-17.017 75.71,-15.087 74.506,-13.141C73.4,-11.353 72.452,-9.527 71.664,-7.664C71.032,-6.167 70.667,-4.846 70.667,-3.677C70.667,-2.632 70.597,-1.862 70.502,-1.363C70.35,-0.565 70.01,0.29 69.402,1.164C68.662,2.228 67.52,3.082 65.809,3.452C65.003,3.626 63.904,3.735 62.51,3.735C61.116,3.735 60.017,3.626 59.211,3.452C57.482,3.078 56.324,2.2 55.576,1.078C54.95,0.139 54.632,-0.762 54.514,-1.584C54.449,-2.042 54.402,-2.772 54.402,-3.776C54.402,-6.3 54.82,-8.893 55.674,-11.552C56.489,-14.09 57.477,-16.356 58.625,-18.357C59.702,-20.234 60.781,-21.963 61.858,-23.544L62.062,-23.843ZM74.982,-36.373L57.094,-36.373C56.398,-36.373 55.86,-36.34 55.479,-36.274C55.098,-36.207 54.684,-36.05 54.237,-35.802C53.789,-35.553 53.466,-35.114 53.268,-34.485C53.069,-33.855 52.97,-33.027 52.97,-32C52.97,-30.973 53.069,-30.145 53.268,-29.516C53.466,-28.886 53.806,-28.439 54.286,-28.174C54.767,-27.909 55.206,-27.744 55.603,-27.677C56.001,-27.611 56.58,-27.578 57.342,-27.578L68.672,-27.578C68.672,-27.147 68.307,-26.394 67.578,-25.317C66.85,-24.24 65.972,-22.948 64.945,-21.441C63.918,-19.934 62.891,-18.286 61.864,-16.497C60.837,-14.708 59.959,-12.679 59.23,-10.41C58.502,-8.141 58.137,-5.93 58.137,-3.776C58.137,-3.015 58.162,-2.46 58.212,-2.112C58.262,-1.764 58.419,-1.391 58.684,-0.994C58.949,-0.596 59.388,-0.331 60.001,-0.199C60.614,-0.066 61.45,0 62.51,0C63.57,0 64.407,-0.066 65.019,-0.199C65.632,-0.331 66.071,-0.588 66.336,-0.969C66.601,-1.35 66.767,-1.714 66.833,-2.062C66.899,-2.41 66.932,-2.948 66.932,-3.677C66.932,-5.267 67.363,-7.081 68.224,-9.118C69.086,-11.155 70.121,-13.151 71.33,-15.106C72.539,-17.06 73.748,-18.998 74.957,-20.919C76.166,-22.841 77.202,-24.787 78.063,-26.758C78.924,-28.729 79.355,-30.46 79.355,-31.951C79.355,-32.58 79.347,-33.052 79.33,-33.367C79.314,-33.682 79.231,-34.062 79.082,-34.51C78.933,-34.957 78.709,-35.296 78.411,-35.528C78.113,-35.76 77.682,-35.959 77.119,-36.125C76.556,-36.29 75.844,-36.373 74.982,-36.373Z"/>
                        </g>
                    </g>
                </g>
            </g>
        </g>
    </g>
</svg>
