<?xml version="1.0" encoding="UTF-8" standalone="no"?>
<!DOCTYPE svg PUBLIC "-//W3C//DTD SVG 1.1//EN" "http://www.w3.org/Graphics/SVG/1.1/DTD/svg11.dtd">
<svg width="100%" height="100%" viewBox="0 0 180 180" version="1.1" xmlns="http://www.w3.org/2000/svg" xmlns:xlink="http://www.w3.org/1999/xlink" xml:space="preserve" xmlns:serif="http://www.serif.com/" style="fill-rule:evenodd;clip-rule:evenodd;stroke-linejoin:round;stroke-miterlimit:2;">
    <g transform="matrix(1,0,0,1,-2250,-1240)">
        <g transform="matrix(1,0,0,1,1460.97,0)">
            <g id="_1.17-transparent-faithful-modfest" serif:id="1.17/transparent-faithful-modfest" transform="matrix(0.9,0,0,0.9,789.032,1240)">
                <rect x="0" y="0" width="200" height="200" style="fill:none;"/>
                <g transform="matrix(1.11111,0,0,1.11111,-8.88178e-14,-0.00138889)">
                    <path d="M158.62,101.45L101.45,158.62C95.13,164.93 84.88,164.93 78.56,158.62L21.39,101.45C15.07,95.13 15.07,84.88 21.39,78.56L78.56,21.39C84.88,15.07 95.13,15.07 101.45,21.39L158.62,78.56C164.93,84.88 164.93,95.13 158.62,101.45Z" style="fill:rgb(17,35,7);fill-rule:nonzero;"/>
                </g>
                <g transform="matrix(1.11111,0,0,1.11111,-11.1111,-11.1111)">
                    <g transform="matrix(0.707107,-0.707107,0.707107,0.707107,-41.42,100)">
                        <path d="M163.485,140.42C163.485,153.15 153.15,163.485 140.42,163.485L59.57,163.485C46.84,163.485 36.505,153.15 36.505,140.42L36.505,59.57C36.505,46.84 46.84,36.505 59.57,36.505L140.42,36.505C153.15,36.505 163.485,46.84 163.485,59.57L163.485,140.42ZM149.715,59.57C149.715,54.44 145.55,50.275 140.42,50.275L59.57,50.275C54.44,50.275 50.275,54.44 50.275,59.57L50.275,140.42C50.275,145.55 54.44,149.715 59.57,149.715L140.42,149.715C145.55,149.715 149.715,145.55 149.715,140.42L149.715,59.57Z" style="fill:rgb(255,151,100);"/>
                        <path d="M167.22,140.42C167.22,155.211 155.211,167.22 140.42,167.22L59.57,167.22C44.779,167.22 32.77,155.211 32.77,140.42L32.77,59.57C32.77,44.779 44.779,32.77 59.57,32.77L140.42,32.77C155.211,32.77 167.22,44.779 167.22,59.57L167.22,140.42ZM163.485,140.42L163.485,59.57C163.485,46.84 153.15,36.505 140.42,36.505L59.57,36.505C46.84,36.505 36.505,46.84 36.505,59.57L36.505,140.42C36.505,153.15 46.84,163.485 59.57,163.485L140.42,163.485C153.15,163.485 163.485,153.15 163.485,140.42ZM149.715,59.57L149.715,140.42C149.715,145.55 145.55,149.715 140.42,149.715L59.57,149.715C54.44,149.715 50.275,145.55 50.275,140.42L50.275,59.57C50.275,54.44 54.44,50.275 59.57,50.275L140.42,50.275C145.55,50.275 149.715,54.44 149.715,59.57ZM145.98,59.57C145.98,56.501 143.489,54.01 140.42,54.01L59.57,54.01C56.501,54.01 54.01,56.501 54.01,59.57L54.01,140.42C54.01,143.489 56.501,145.98 59.57,145.98L140.42,145.98C143.489,145.98 145.98,143.489 145.98,140.42L145.98,59.57Z"/>
                    </g>
                    <g transform="matrix(1,0,0,1,65.55,130.9)">
                        <path d="M58.759,-57.967C60.396,-57.967 61.715,-57.809 62.718,-57.492C63.722,-57.175 64.434,-56.621 64.857,-55.829C65.279,-55.037 65.53,-54.324 65.609,-53.691C65.688,-53.057 65.728,-52.133 65.728,-50.919L65.728,-6.969C65.728,-5.754 65.675,-4.844 65.569,-4.237C65.464,-3.63 65.213,-2.943 64.817,-2.178C64.421,-1.412 63.722,-0.871 62.718,-0.554C61.715,-0.238 60.369,-0.079 58.68,-0.079C57.307,-0.079 56.172,-0.211 55.275,-0.475C54.377,-0.739 53.691,-1.056 53.216,-1.425C52.741,-1.795 52.384,-2.336 52.147,-3.049C51.909,-3.762 51.777,-4.369 51.751,-4.87C51.724,-5.372 51.711,-6.124 51.711,-7.127L51.711,-33.656C50.391,-32.019 48.464,-29.419 45.93,-25.856C43.396,-22.292 41.522,-19.745 40.308,-18.214C40.149,-17.95 39.938,-17.646 39.674,-17.303C39.41,-16.96 38.764,-16.485 37.734,-15.878C36.705,-15.27 35.583,-14.967 34.368,-14.967C33.207,-14.967 32.138,-15.244 31.161,-15.798C30.185,-16.353 29.485,-16.894 29.063,-17.422L28.429,-18.293C27.373,-19.613 25.288,-22.424 22.173,-26.727C19.058,-31.029 17.369,-33.339 17.105,-33.656L17.105,-6.969C17.105,-5.754 17.065,-4.844 16.986,-4.237C16.907,-3.63 16.656,-2.943 16.234,-2.178C15.812,-1.412 15.099,-0.871 14.096,-0.554C13.093,-0.238 11.747,-0.079 10.057,-0.079C8.421,-0.079 7.114,-0.238 6.137,-0.554C5.161,-0.871 4.461,-1.412 4.039,-2.178C3.616,-2.943 3.366,-3.643 3.286,-4.276C3.207,-4.91 3.168,-5.86 3.168,-7.127L3.168,-51.078C3.168,-52.292 3.207,-53.202 3.286,-53.81C3.366,-54.417 3.616,-55.103 4.039,-55.869C4.461,-56.634 5.174,-57.175 6.177,-57.492C7.18,-57.809 8.526,-57.967 10.216,-57.967C11.641,-57.967 12.868,-57.796 13.898,-57.452C14.927,-57.109 15.6,-56.753 15.917,-56.383L16.392,-55.908L34.368,-32.31C43.343,-44.188 49.335,-52.028 52.345,-55.829C53.242,-57.254 55.38,-57.967 58.759,-57.967Z" style="fill:rgb(255,151,100);fill-rule:nonzero;"/>
                        <path d="M47.976,-22.293C45.974,-19.498 44.438,-17.423 43.374,-16.071C43.175,-15.758 42.93,-15.409 42.635,-15.026C42.215,-14.481 41.266,-13.624 39.631,-12.66C38.021,-11.711 36.268,-11.232 34.368,-11.232C32.539,-11.232 30.856,-11.677 29.318,-12.55C27.822,-13.399 26.793,-14.28 26.146,-15.089C26.111,-15.133 26.076,-15.179 26.042,-15.225C26.042,-15.225 25.472,-16.009 25.465,-16.019C24.587,-17.122 23.044,-19.184 20.84,-22.207L20.84,-6.969C20.84,-5.54 20.783,-4.468 20.69,-3.754C20.56,-2.762 20.194,-1.624 19.504,-0.373C18.646,1.183 17.259,2.363 15.22,3.007C13.937,3.413 12.219,3.656 10.057,3.656C7.937,3.656 6.25,3.409 4.985,2.998C2.998,2.354 1.628,1.184 0.768,-0.373C0.079,-1.623 -0.29,-2.779 -0.42,-3.813C-0.512,-4.55 -0.567,-5.654 -0.567,-7.127L-0.567,-51.078C-0.567,-52.507 -0.51,-53.578 -0.417,-54.293C-0.288,-55.285 0.078,-56.422 0.768,-57.673C1.627,-59.229 3.013,-60.41 5.052,-61.054C6.336,-61.459 8.054,-61.702 10.216,-61.702C12.1,-61.702 13.718,-61.449 15.079,-60.996C16.872,-60.398 17.998,-59.621 18.6,-58.982L19.033,-58.549C19.152,-58.431 19.262,-58.305 19.363,-58.171C19.363,-58.171 34.358,-38.487 34.358,-38.487C41.637,-48.103 46.624,-54.616 49.316,-58.02C50.746,-60.101 53.756,-61.702 58.759,-61.702C60.862,-61.702 62.554,-61.461 63.843,-61.054C65.891,-60.407 67.29,-59.203 68.152,-57.587C68.827,-56.32 69.188,-55.167 69.315,-54.154C69.407,-53.415 69.463,-52.337 69.463,-50.919L69.463,-6.969C69.463,-5.47 69.379,-4.346 69.249,-3.597C69.089,-2.675 68.735,-1.624 68.134,-0.462C67.311,1.13 65.929,2.348 63.843,3.007C62.56,3.413 60.842,3.656 58.68,3.656C56.881,3.656 55.397,3.454 54.221,3.108C52.772,2.682 51.689,2.119 50.923,1.523C49.919,0.742 49.105,-0.362 48.603,-1.868C48.238,-2.964 48.061,-3.903 48.021,-4.674C47.992,-5.219 47.976,-6.037 47.976,-7.127L47.976,-22.293ZM58.759,-57.967C55.38,-57.967 53.242,-57.254 52.345,-55.829C49.335,-52.028 43.343,-44.188 34.368,-32.31L16.392,-55.908L15.917,-56.383C15.6,-56.753 14.927,-57.109 13.898,-57.452C12.868,-57.796 11.641,-57.967 10.216,-57.967C8.526,-57.967 7.18,-57.809 6.177,-57.492C5.174,-57.175 4.461,-56.634 4.039,-55.869C3.616,-55.103 3.366,-54.417 3.286,-53.81C3.207,-53.202 3.168,-52.292 3.168,-51.078L3.168,-7.127C3.168,-5.86 3.207,-4.91 3.286,-4.276C3.366,-3.643 3.616,-2.943 4.039,-2.178C4.461,-1.412 5.161,-0.871 6.137,-0.554C7.114,-0.238 8.421,-0.079 10.057,-0.079C11.747,-0.079 13.093,-0.238 14.096,-0.554C15.099,-0.871 15.812,-1.412 16.234,-2.178C16.656,-2.943 16.907,-3.63 16.986,-4.237C17.065,-4.844 17.105,-5.754 17.105,-6.969L17.105,-33.656C17.369,-33.339 19.058,-31.029 22.173,-26.727C25.288,-22.424 27.373,-19.613 28.429,-18.293L29.063,-17.422C29.485,-16.894 30.185,-16.353 31.161,-15.798C32.138,-15.244 33.207,-14.967 34.368,-14.967C35.583,-14.967 36.705,-15.27 37.734,-15.878C38.764,-16.485 39.41,-16.96 39.674,-17.303C39.938,-17.646 40.149,-17.95 40.308,-18.214C41.522,-19.745 43.396,-22.292 45.93,-25.856C48.464,-29.419 50.391,-32.019 51.711,-33.656L51.711,-7.127C51.711,-6.124 51.724,-5.372 51.751,-4.87C51.777,-4.369 51.909,-3.762 52.147,-3.049C52.384,-2.336 52.741,-1.795 53.216,-1.425C53.691,-1.056 54.377,-0.739 55.275,-0.475C56.172,-0.211 57.307,-0.079 58.68,-0.079C60.369,-0.079 61.715,-0.238 62.718,-0.554C63.722,-0.871 64.421,-1.412 64.817,-2.178C65.213,-2.943 65.464,-3.63 65.569,-4.237C65.675,-4.844 65.728,-5.754 65.728,-6.969L65.728,-50.919C65.728,-52.133 65.688,-53.057 65.609,-53.691C65.53,-54.324 65.279,-55.037 64.857,-55.829C64.434,-56.621 63.722,-57.175 62.718,-57.492C61.715,-57.809 60.396,-57.967 58.759,-57.967Z"/>
                    </g>
                </g>
            </g>
        </g>
    </g>
</svg>
