<?xml version="1.0" encoding="UTF-8" standalone="no"?>
<!DOCTYPE svg PUBLIC "-//W3C//DTD SVG 1.1//EN" "http://www.w3.org/Graphics/SVG/1.1/DTD/svg11.dtd">
<svg width="100%" height="100%" viewBox="0 0 180 180" version="1.1" xmlns="http://www.w3.org/2000/svg" xmlns:xlink="http://www.w3.org/1999/xlink" xml:space="preserve" xmlns:serif="http://www.serif.com/" style="fill-rule:evenodd;clip-rule:evenodd;stroke-miterlimit:10;">
    <g transform="matrix(1,0,0,1,-220,-1240)">
        <g transform="matrix(1,0,0,1,3,0)">
            <g id="_1.17-transparent" serif:id="1.17/transparent" transform="matrix(0.9,0,0,0.9,217,1240)">
                <rect x="0" y="0" width="200" height="200" style="fill:none;"/>
                <clipPath id="_clip1">
                    <rect x="0" y="0" width="200" height="200"/>
                </clipPath>
                <g clip-path="url(#_clip1)">
                    <g transform="matrix(1.11111,0,0,1.11111,-3.55271e-15,-0.00138889)">
                        <path d="M158.62,101.45L101.45,158.62C95.13,164.93 84.88,164.93 78.56,158.62L21.39,101.45C15.07,95.13 15.07,84.88 21.39,78.56L78.56,21.39C84.88,15.07 95.13,15.07 101.45,21.39L158.62,78.56C164.93,84.88 164.93,95.13 158.62,101.45Z" style="fill:rgb(63,36,28);fill-rule:nonzero;"/>
                    </g>
                    <g transform="matrix(1.11111,0,0,1.11111,-11.1111,-11.1111)">
                        <g transform="matrix(1,0,0,1,10,9.99875)">
                            <path d="M158.62,101.45L101.45,158.62C95.13,164.93 84.88,164.93 78.56,158.62L21.39,101.45C15.07,95.13 15.07,84.88 21.39,78.56L78.56,21.39C84.88,15.07 95.13,15.07 101.45,21.39L158.62,78.56C164.93,84.88 164.93,95.13 158.62,101.45Z" style="fill:none;fill-rule:nonzero;stroke:rgb(255,151,100);stroke-width:13.77px;"/>
                        </g>
                        <g transform="matrix(1,0,0,1,10,9.99875)">
                            <path d="M67.94,75.15C67.78,74.66 67.55,74.3 67.25,74.09C66.95,73.87 66.52,73.68 65.96,73.52C65.39,73.35 64.61,73.27 63.6,73.27C62.59,73.27 61.65,73.7 60.79,74.56L60.64,74.66L52.49,82.01C51.3,83.07 50.7,84.05 50.7,84.94C50.7,85.83 51.23,86.86 52.27,88.02C53.31,89.18 54.31,89.76 55.27,89.76C56.23,89.76 57.39,89.25 58.75,88.22L59.4,87.63L59.4,105.36C59.4,106.16 59.42,106.76 59.47,107.18C59.52,107.59 59.68,108.05 59.95,108.54C60.44,109.4 61.72,109.84 63.77,109.84C65.82,109.84 67.18,109.39 67.65,108.49C67.91,108 68.07,107.56 68.12,107.18C68.17,106.8 68.19,106.23 68.19,105.46L68.19,77.79C68.19,76.6 68.11,75.72 67.94,75.15Z" style="fill:white;fill-rule:nonzero;"/>
                        </g>
                        <g transform="matrix(1,0,0,1,10,9.99875)">
                            <path d="M79.87,101.54C79.11,100.84 77.72,100.49 75.72,100.49C73.72,100.49 72.47,100.99 71.97,101.98C71.7,102.48 71.55,102.93 71.5,103.33C71.45,103.72 71.42,104.3 71.42,105.07L71.42,105.26C71.42,107.02 71.74,108.21 72.39,108.84C73.04,109.47 74.36,109.79 76.37,109.79C78.38,109.79 79.62,109.31 80.12,108.34C80.41,107.82 80.59,107.36 80.64,106.98C80.69,106.6 80.71,106.01 80.71,105.21L80.71,105.02C80.71,103.26 80.43,102.1 79.87,101.54Z" style="fill:white;fill-rule:nonzero;"/>
                        </g>
                        <g transform="matrix(1,0,0,1,10,9.99875)">
                            <path d="M99.94,75.15C99.78,74.66 99.55,74.3 99.25,74.09C98.95,73.87 98.52,73.68 97.96,73.52C97.39,73.35 96.6,73.27 95.59,73.27C94.58,73.27 93.65,73.7 92.79,74.56L92.64,74.66L84.49,82.01C83.3,83.07 82.7,84.05 82.7,84.94C82.7,85.83 83.22,86.86 84.27,88.02C85.31,89.18 86.31,89.76 87.27,89.76C88.23,89.76 89.39,89.25 90.75,88.22L91.4,87.63L91.4,105.36C91.4,106.16 91.42,106.76 91.47,107.18C91.52,107.59 91.68,108.05 91.94,108.54C92.44,109.4 93.72,109.84 95.77,109.84C97.82,109.84 99.18,109.39 99.65,108.49C99.91,108 100.07,107.56 100.12,107.18C100.17,106.8 100.19,106.23 100.19,105.46L100.19,77.79C100.19,76.6 100.11,75.72 99.94,75.15Z" style="fill:white;fill-rule:nonzero;"/>
                        </g>
                        <g transform="matrix(1,0,0,1,10,9.99875)">
                            <path d="M129.01,75.25C128.61,74 127.25,73.37 124.93,73.37L107.05,73.37C105.82,73.37 104.86,73.56 104.16,73.96C103.73,74.19 103.42,74.62 103.22,75.25C103.02,75.88 102.92,76.71 102.92,77.74C102.92,78.77 103.02,79.59 103.22,80.22C103.42,80.85 103.82,81.33 104.41,81.66C105.01,81.99 105.97,82.16 107.3,82.16L118.62,82.16C118.62,82.59 118.26,83.35 117.53,84.42C116.8,85.5 115.92,86.79 114.9,88.3C113.87,89.8 112.84,91.45 111.82,93.24C110.79,95.03 109.91,97.06 109.18,99.33C108.45,101.6 108.09,103.81 108.09,105.96C108.09,106.72 108.12,107.28 108.16,107.62C108.22,107.97 108.37,108.34 108.64,108.74C108.9,109.14 109.34,109.4 109.95,109.54C110.57,109.67 111.4,109.74 112.46,109.74C113.52,109.74 114.36,109.67 114.97,109.54C115.58,109.4 116.02,109.15 116.29,108.77C116.55,108.39 116.72,108.02 116.79,107.67C116.85,107.33 116.89,106.79 116.89,106.06C116.89,103.18 118.34,99.37 121.26,94.63C122.48,92.68 123.7,90.74 124.91,88.82C126.12,86.9 127.15,84.95 128.01,82.98C128.88,81.01 129.31,79.36 129.31,78.04C129.31,76.72 129.21,75.78 129.01,75.25Z" style="fill:white;fill-rule:nonzero;"/>
                        </g>
                    </g>
                </g>
            </g>
        </g>
    </g>
</svg>
