<?xml version="1.0" encoding="UTF-8" standalone="no"?>
<!DOCTYPE svg PUBLIC "-//W3C//DTD SVG 1.1//EN" "http://www.w3.org/Graphics/SVG/1.1/DTD/svg11.dtd">
<svg width="100%" height="100%" viewBox="0 0 1920 1080" version="1.1" xmlns="http://www.w3.org/2000/svg" xmlns:xlink="http://www.w3.org/1999/xlink" xml:space="preserve" xmlns:serif="http://www.serif.com/" style="fill-rule:evenodd;clip-rule:evenodd;stroke-linejoin:round;stroke-miterlimit:2;">
    <g id="singularity-background" serif:id="singularity/background" transform="matrix(1.78857,0,0,2.07692,1.13687e-13,-2806.42)">
        <rect x="0" y="1351.24" width="1073.48" height="520" style="fill:rgb(30,5,48);"/>
        <g transform="matrix(1.07776,0,0,1.07776,189.655,-13.1976)">
            <g transform="matrix(0.559105,0,0,0.481481,151.398,1398.37)">
                <path d="M0,452.207L-376.231,524.487C-390.563,527.241 -401.103,526.866 -407.672,523.288C-414.314,519.697 -417.646,512.453 -417.646,501.593L-417.646,397.903C-417.646,387.057 -414.314,378.875 -407.672,373.403C-401.103,367.99 -390.563,364.639 -376.231,363.361L-260.033,353.006L-260.033,94.878L-354.133,86.491C-368.061,85.25 -378.302,81.973 -384.684,76.634C-391.135,71.262 -394.371,63.204 -394.371,52.502L-394.371,-49.686C-394.371,-60.375 -391.135,-67.523 -384.684,-71.094C-378.302,-74.625 -368.061,-75.034 -354.133,-72.359L-91.941,-21.987C-82.514,-20.176 -75.768,-16.962 -71.631,-12.371C-67.534,-7.801 -65.484,-1.287 -65.484,7.18L-65.484,335.667L0,329.831C8.126,329.107 13.946,330.371 17.516,333.581C21.055,336.782 22.827,342.314 22.827,350.185L22.827,425.434C22.827,433.314 21.055,439.345 17.516,443.531C13.946,447.755 8.126,450.646 0,452.207M-317.967,444.975L-35.967,403.59L-35.967,397.056L-151.632,413.414L-151.632,30.895L-297.472,9.881L-297.472,17.808L-159.902,36.896L-159.902,414.583L-317.967,436.937L-317.967,444.975Z" style="fill:rgb(47,15,76);fill-rule:nonzero;"/>
            </g>
            <g transform="matrix(0.559105,0,0,0.481481,432.417,1398.37)">
                <path d="M0,452.207L-376.231,524.487C-390.563,527.241 -401.103,526.866 -407.672,523.288C-414.314,519.697 -417.646,512.453 -417.646,501.593L-417.646,397.903C-417.646,387.057 -414.314,378.875 -407.672,373.403C-401.103,367.99 -390.563,364.639 -376.231,363.361L-260.033,353.006L-260.033,94.878L-354.133,86.491C-368.061,85.25 -378.302,81.973 -384.684,76.634C-391.135,71.262 -394.371,63.204 -394.371,52.502L-394.371,-49.686C-394.371,-60.375 -391.135,-67.523 -384.684,-71.094C-378.302,-74.625 -368.061,-75.034 -354.133,-72.359L-91.941,-21.987C-82.513,-20.176 -75.768,-16.962 -71.631,-12.371C-67.534,-7.801 -65.484,-1.287 -65.484,7.18L-65.484,335.667L0,329.831C8.126,329.107 13.946,330.371 17.516,333.581C21.055,336.782 22.827,342.314 22.827,350.185L22.827,425.434C22.827,433.314 21.055,439.345 17.516,443.531C13.946,447.755 8.126,450.646 0,452.207M-317.967,444.975L-35.967,403.59L-35.967,397.056L-151.632,413.414L-151.632,30.895L-297.472,9.881L-297.472,17.808L-159.902,36.896L-159.902,414.583L-317.967,436.937L-317.967,444.975Z" style="fill:rgb(68,10,61);fill-rule:nonzero;"/>
            </g>
            <g transform="matrix(0.559105,0,0,0.481481,713.437,1398.37)">
                <path d="M0,452.207L-376.231,524.487C-390.563,527.241 -401.103,526.866 -407.672,523.288C-414.314,519.697 -417.646,512.453 -417.646,501.593L-417.646,397.903C-417.646,387.057 -414.314,378.875 -407.672,373.403C-401.103,367.99 -390.563,364.639 -376.231,363.361L-260.033,353.006L-260.033,94.878L-354.133,86.491C-368.061,85.25 -378.302,81.973 -384.684,76.634C-391.135,71.262 -394.371,63.204 -394.371,52.502L-394.371,-49.686C-394.371,-60.375 -391.135,-67.523 -384.684,-71.094C-378.302,-74.625 -368.061,-75.034 -354.133,-72.359L-91.941,-21.987C-82.514,-20.176 -75.768,-16.962 -71.631,-12.371C-67.534,-7.801 -65.484,-1.287 -65.484,7.18L-65.484,335.667L0,329.831C8.126,329.107 13.946,330.371 17.516,333.581C21.055,336.782 22.827,342.314 22.827,350.185L22.827,425.434C22.827,433.314 21.055,439.345 17.516,443.531C13.946,447.755 8.126,450.646 0,452.207M-317.967,444.975L-35.967,403.59L-35.967,397.056L-151.632,413.414L-151.632,30.895L-297.472,9.881L-297.472,17.808L-159.902,36.896L-159.902,414.583L-317.967,436.937L-317.967,444.975Z" style="fill:rgb(47,15,76);fill-rule:nonzero;"/>
            </g>
        </g>
    </g>
</svg>
