<?xml version="1.0" encoding="UTF-8" standalone="no"?>
<!DOCTYPE svg PUBLIC "-//W3C//DTD SVG 1.1//EN" "http://www.w3.org/Graphics/SVG/1.1/DTD/svg11.dtd">
<svg width="100%" height="100%" viewBox="0 0 686 200" version="1.1" xmlns="http://www.w3.org/2000/svg" xmlns:xlink="http://www.w3.org/1999/xlink" xml:space="preserve" xmlns:serif="http://www.serif.com/" style="fill-rule:evenodd;clip-rule:evenodd;stroke-linejoin:round;stroke-miterlimit:2;">
    <g transform="matrix(1,0,0,1,-3400,-1440)">
        <g id="singularity-lockup-transparent" serif:id="singularity/lockup-transparent" transform="matrix(0.722126,0,0,1,3400,1440)">
            <rect x="0" y="0" width="949.973" height="200" style="fill:none;"/>
            <clipPath id="_clip1">
                <rect x="0" y="0" width="949.973" height="200"/>
            </clipPath>
            <g clip-path="url(#_clip1)">
                <g id="Icon" transform="matrix(1.3848,0,0,1,-58.8866,-42.5238)">
                    <rect x="42.524" y="42.524" width="200" height="200" style="fill:none;"/>
                </g>
                <g transform="matrix(2.8642,0,0,2.06831,126.581,-147.642)">
                    <path d="M96.052,83.361C97.078,83.361 97.907,83.461 98.536,83.659C99.165,83.858 99.612,84.206 99.877,84.703C100.142,85.2 100.3,85.647 100.349,86.044C100.399,86.442 100.424,87.021 100.424,87.783L100.424,115.359C100.424,116.121 100.391,116.692 100.325,117.073C100.258,117.454 100.101,117.885 99.853,118.365C99.604,118.845 99.165,119.185 98.536,119.384C97.907,119.582 97.062,119.682 96.002,119.682C95.141,119.682 94.429,119.599 93.865,119.433C93.302,119.268 92.872,119.069 92.574,118.837C92.275,118.605 92.052,118.266 91.903,117.818C91.754,117.371 91.671,116.99 91.654,116.676C91.638,116.361 91.63,115.889 91.63,115.26L91.63,98.615C90.801,99.642 89.592,101.273 88.002,103.509C86.413,105.745 85.237,107.343 84.475,108.304C84.375,108.469 84.243,108.66 84.077,108.875C83.912,109.09 83.506,109.388 82.86,109.769C82.214,110.15 81.51,110.341 80.748,110.341C80.02,110.341 79.349,110.167 78.736,109.819C78.123,109.471 77.684,109.132 77.419,108.8L77.022,108.254C76.359,107.426 75.051,105.662 73.097,102.962C71.142,100.263 70.082,98.814 69.917,98.615L69.917,115.359C69.917,116.121 69.892,116.692 69.842,117.073C69.793,117.454 69.635,117.885 69.37,118.365C69.105,118.845 68.658,119.185 68.029,119.384C67.399,119.582 66.555,119.682 65.495,119.682C64.468,119.682 63.648,119.582 63.035,119.384C62.422,119.185 61.984,118.845 61.719,118.365C61.454,117.885 61.296,117.446 61.247,117.048C61.197,116.651 61.172,116.055 61.172,115.26L61.172,87.684C61.172,86.922 61.197,86.351 61.247,85.97C61.296,85.589 61.454,85.158 61.719,84.678C61.984,84.198 62.431,83.858 63.06,83.659C63.689,83.461 64.534,83.361 65.594,83.361C66.488,83.361 67.259,83.469 67.904,83.684C68.55,83.9 68.973,84.123 69.171,84.355L69.47,84.653L80.748,99.46C86.379,92.007 90.139,87.088 92.027,84.703C92.59,83.808 93.932,83.361 96.052,83.361Z" style="fill:white;fill-rule:nonzero;"/>
                    <path d="M117.268,92.951C120.911,92.951 124.108,94.234 126.857,96.801C129.606,99.368 130.981,102.639 130.981,106.614C130.981,109.364 130.269,111.806 128.844,113.943C127.42,116.079 125.689,117.653 123.652,118.663C121.615,119.673 119.52,120.179 117.367,120.179C115.148,120.179 113.011,119.64 110.957,118.564C108.904,117.487 107.173,115.897 105.765,113.794C104.357,111.691 103.654,109.314 103.654,106.664C103.654,102.689 105.045,99.41 107.827,96.826C110.61,94.242 113.756,92.951 117.268,92.951ZM114.038,110.217C115.098,111.028 116.174,111.434 117.268,111.434C118.361,111.434 119.454,111.02 120.547,110.192C121.64,109.364 122.186,108.138 122.186,106.515C122.186,104.892 121.673,103.683 120.646,102.888C119.619,102.093 118.477,101.695 117.218,101.695C116.092,101.695 115.015,102.109 113.988,102.938C112.961,103.766 112.448,104.975 112.448,106.565C112.448,108.188 112.978,109.405 114.038,110.217Z" style="fill:white;fill-rule:nonzero;"/>
                    <path d="M155.625,81.324C156.652,81.324 157.48,81.423 158.109,81.622C158.739,81.821 159.178,82.169 159.426,82.666C159.675,83.163 159.824,83.601 159.873,83.982C159.923,84.363 159.948,84.935 159.948,85.696L159.948,115.359C159.948,116.121 159.923,116.692 159.873,117.073C159.824,117.454 159.666,117.885 159.401,118.365C159.136,118.845 158.689,119.185 158.06,119.384C157.43,119.582 156.586,119.682 155.526,119.682C153.008,119.682 151.617,118.87 151.352,117.247C149.961,118.837 148.023,119.632 145.539,119.632C142.558,119.632 139.842,118.332 137.39,115.732C134.939,113.131 133.714,110.059 133.714,106.515C133.714,103.136 134.947,100.139 137.415,97.522C139.883,94.905 142.591,93.597 145.539,93.597C147.99,93.597 149.895,94.425 151.253,96.081L151.253,85.647C151.253,84.885 151.278,84.314 151.327,83.933C151.377,83.552 151.526,83.121 151.774,82.641C152.023,82.161 152.462,81.821 153.091,81.622C153.72,81.423 154.565,81.324 155.625,81.324ZM143.7,109.645C144.562,110.539 145.605,110.987 146.831,110.987C148.056,110.987 149.075,110.539 149.886,109.645C150.698,108.751 151.104,107.757 151.104,106.664C151.104,105.604 150.714,104.61 149.936,103.683C149.158,102.755 148.106,102.292 146.781,102.292C145.456,102.292 144.396,102.747 143.601,103.658C142.806,104.569 142.409,105.571 142.409,106.664C142.409,107.757 142.839,108.751 143.7,109.645Z" style="fill:white;fill-rule:nonzero;"/>
                    <path d="M188.02,83.312C188.782,83.312 189.354,83.336 189.735,83.386C190.115,83.436 190.546,83.593 191.026,83.858C191.507,84.123 191.846,84.57 192.045,85.2C192.244,85.829 192.343,86.674 192.343,87.734C192.343,88.794 192.244,89.638 192.045,90.268C191.846,90.897 191.498,91.336 191.002,91.584C190.505,91.833 190.066,91.982 189.685,92.031C189.304,92.081 188.716,92.106 187.921,92.106L172.717,92.106L172.717,97.124L182.505,97.124C183.3,97.124 183.888,97.149 184.269,97.199C184.65,97.248 185.081,97.406 185.561,97.671C186.041,97.936 186.381,98.391 186.58,99.037C186.778,99.683 186.878,100.536 186.878,101.596C186.878,102.457 186.795,103.169 186.629,103.733C186.464,104.296 186.265,104.726 186.033,105.024C185.801,105.322 185.462,105.546 185.014,105.695C184.567,105.844 184.186,105.927 183.872,105.944C183.557,105.96 183.085,105.968 182.456,105.968L172.717,105.968L172.717,115.359C172.717,116.154 172.692,116.734 172.643,117.098C172.593,117.462 172.436,117.893 172.171,118.39C171.906,118.887 171.458,119.235 170.829,119.433C170.2,119.632 169.355,119.731 168.295,119.731C167.434,119.731 166.722,119.649 166.159,119.483C165.595,119.317 165.165,119.119 164.867,118.887C164.569,118.655 164.345,118.315 164.196,117.868C164.047,117.421 163.964,117.04 163.948,116.725C163.931,116.411 163.923,115.939 163.923,115.309L163.923,87.684C163.923,85.995 164.237,84.844 164.867,84.231C165.496,83.618 166.689,83.312 168.444,83.312L188.02,83.312Z" style="fill:white;fill-rule:nonzero;"/>
                    <path d="M216.341,103.285C216.341,105.472 215.836,107.053 214.826,108.03C213.816,109.008 212.698,109.496 211.472,109.496L199.697,109.496C199.697,110.424 200.243,111.202 201.336,111.831C202.429,112.461 203.605,112.775 204.864,112.775C205.758,112.775 206.603,112.709 207.398,112.577C208.193,112.444 208.773,112.312 209.137,112.179L209.683,111.98C210.478,111.616 211.141,111.434 211.671,111.434C212.731,111.434 213.642,112.179 214.404,113.67C214.834,114.564 215.05,115.326 215.05,115.955C215.05,118.903 211.522,120.377 204.466,120.377C202.015,120.377 199.837,119.955 197.933,119.11C196.028,118.266 194.546,117.156 193.486,115.781C192.426,114.407 191.639,112.958 191.126,111.434C190.612,109.91 190.356,108.353 190.356,106.763C190.356,102.59 191.705,99.252 194.405,96.752C197.105,94.251 200.475,93 204.516,93C206.139,93 207.63,93.224 208.988,93.671C210.346,94.118 211.472,94.698 212.367,95.41C213.261,96.122 214.014,96.942 214.627,97.87C215.24,98.797 215.679,99.716 215.944,100.627C216.209,101.538 216.341,102.424 216.341,103.285ZM205.858,104.975C207.116,104.975 207.746,104.445 207.746,103.385C207.746,102.623 207.456,102.01 206.876,101.546C206.297,101.083 205.46,100.851 204.367,100.851C203.307,100.851 202.247,101.29 201.187,102.167C200.127,103.045 199.597,103.981 199.597,104.975L205.858,104.975Z" style="fill:white;fill-rule:nonzero;"/>
                    <path d="M229.21,120.179C225.865,120.179 222.718,119.251 219.77,117.396C219.14,116.999 218.826,116.419 218.826,115.657C218.826,114.697 219.455,113.338 220.714,111.583C221.078,111.02 221.641,110.738 222.403,110.738C223.264,110.738 224.275,111.086 225.434,111.782C227.057,112.709 228.432,113.173 229.558,113.173C231.578,113.173 232.589,112.775 232.589,111.98C232.589,111.649 232.274,111.368 231.645,111.136C231.015,110.904 230.22,110.722 229.26,110.589C228.299,110.457 227.264,110.183 226.154,109.769C225.045,109.355 224.01,108.85 223.049,108.254C222.088,107.658 221.293,106.722 220.664,105.447C220.035,104.171 219.72,102.656 219.72,100.9C219.72,95.667 223.314,93.05 230.502,93.05C232.854,93.05 235.272,93.613 237.756,94.739C238.915,95.269 239.495,95.998 239.495,96.926C239.495,97.588 239.147,98.482 238.452,99.609C237.69,100.801 236.928,101.397 236.166,101.397C235.769,101.397 235.206,101.232 234.477,100.9C233.052,100.238 231.711,99.907 230.452,99.907C228.498,99.907 227.521,100.271 227.521,101C227.521,101.53 227.844,101.952 228.49,102.267C229.136,102.581 229.947,102.797 230.924,102.913C231.901,103.029 232.953,103.252 234.079,103.583C235.206,103.915 236.257,104.32 237.234,104.801C238.212,105.281 239.023,106.093 239.669,107.235C240.315,108.378 240.638,109.778 240.638,111.434C240.638,113.223 240.315,114.721 239.669,115.93C239.023,117.139 238.112,118.034 236.936,118.613C235.76,119.193 234.568,119.599 233.359,119.831C232.15,120.063 230.767,120.179 229.21,120.179Z" style="fill:white;fill-rule:nonzero;"/>
                    <path d="M258.276,102.341L255.047,102.143L255.047,108.999C255.047,109.894 255.188,110.539 255.469,110.937C255.751,111.334 256.256,111.533 256.985,111.533C257.813,111.533 258.434,111.558 258.848,111.608C259.262,111.657 259.692,111.806 260.14,112.055C260.587,112.303 260.893,112.693 261.059,113.223C261.224,113.753 261.307,114.481 261.307,115.409C261.307,116.436 261.2,117.264 260.984,117.893C260.769,118.522 260.413,118.961 259.916,119.21C259.419,119.458 258.98,119.607 258.599,119.657C258.218,119.707 257.664,119.731 256.935,119.731C253.49,119.731 250.873,118.953 249.084,117.396C247.296,115.839 246.401,113.206 246.401,109.496L246.401,102.143C245.772,102.242 245.176,102.292 244.613,102.292C243.718,102.292 243.031,102.01 242.551,101.447C242.07,100.884 241.83,99.708 241.83,97.919C241.83,96.992 241.913,96.222 242.079,95.609C242.244,94.996 242.485,94.557 242.799,94.292C243.114,94.027 243.42,93.853 243.718,93.77C244.017,93.688 244.364,93.646 244.762,93.646L246.401,93.845L246.401,88.727C246.401,87.965 246.426,87.402 246.476,87.038C246.526,86.674 246.675,86.268 246.923,85.821C247.172,85.374 247.61,85.059 248.24,84.877C248.869,84.694 249.714,84.603 250.774,84.603C251.602,84.603 252.289,84.686 252.836,84.852C253.382,85.017 253.805,85.208 254.103,85.423C254.401,85.639 254.624,85.97 254.774,86.417C254.923,86.864 255.005,87.253 255.022,87.585C255.039,87.916 255.047,88.38 255.047,88.976L255.047,93.845C256.504,93.712 257.597,93.646 258.326,93.646C259.088,93.646 259.659,93.671 260.04,93.721C260.421,93.77 260.852,93.92 261.332,94.168C261.812,94.416 262.152,94.855 262.351,95.485C262.549,96.114 262.649,96.959 262.649,98.019C262.649,99.045 262.549,99.874 262.351,100.503C262.152,101.132 261.804,101.571 261.307,101.82C260.81,102.068 260.371,102.217 259.991,102.267C259.61,102.316 259.038,102.341 258.276,102.341Z" style="fill:white;fill-rule:nonzero;"/>
                    <path d="M273.083,95.683C273.679,96.313 273.977,97.538 273.977,99.36C273.944,100.155 273.903,100.743 273.853,101.124C273.803,101.505 273.638,101.96 273.356,102.49C273.075,103.02 272.603,103.393 271.94,103.608C271.278,103.824 270.383,103.931 269.257,103.931C267.468,103.931 266.226,103.583 265.531,102.888C264.934,102.292 264.636,101.066 264.636,99.211C264.636,98.582 264.653,98.118 264.686,97.82C264.719,97.522 264.818,97.124 264.984,96.627C265.15,96.131 265.39,95.766 265.704,95.534C266.019,95.302 266.483,95.095 267.096,94.913C267.708,94.731 268.462,94.64 269.356,94.64C271.145,94.64 272.387,94.988 273.083,95.683ZM273.083,111.533C273.679,112.129 273.977,113.355 273.977,115.21C273.944,116.005 273.903,116.593 273.853,116.974C273.803,117.355 273.638,117.81 273.356,118.34C273.075,118.87 272.603,119.243 271.94,119.458C271.278,119.673 270.383,119.781 269.257,119.781C267.468,119.781 266.226,119.433 265.531,118.738C264.934,118.141 264.636,116.916 264.636,115.061C264.636,114.432 264.653,113.968 264.686,113.67C264.719,113.372 264.818,112.974 264.984,112.477C265.15,111.98 265.39,111.616 265.704,111.384C266.019,111.152 266.483,110.945 267.096,110.763C267.708,110.581 268.462,110.49 269.356,110.49C271.145,110.49 272.387,110.838 273.083,111.533Z" style="fill:white;fill-rule:nonzero;"/>
                </g>
                <g transform="matrix(1.70068,0,0,1.2281,289.363,23.5237)">
                    <path d="M23.411,114.614C22.549,113.554 22.119,112.676 22.119,111.98C22.119,110.987 22.831,109.794 24.255,108.403C25.083,107.608 25.912,107.211 26.74,107.211C27.766,107.211 29.025,107.956 30.516,109.446L30.764,109.695C30.897,109.86 31.095,110.076 31.36,110.341C31.625,110.606 32.139,110.962 32.901,111.409C33.663,111.856 34.408,112.08 35.137,112.08C38.217,112.08 39.757,110.821 39.757,108.304C39.757,107.542 39.335,106.904 38.49,106.391C37.646,105.877 36.594,105.505 35.335,105.273C34.077,105.041 32.719,104.668 31.261,104.155C29.804,103.641 28.446,103.037 27.187,102.341C25.928,101.646 24.876,100.544 24.032,99.037C23.187,97.53 22.765,95.716 22.765,93.597C22.765,90.682 23.85,88.139 26.019,85.97C28.189,83.8 31.145,82.715 34.888,82.715C36.876,82.715 38.689,82.972 40.329,83.485C41.968,83.999 43.103,84.521 43.732,85.051L44.726,85.796L44.974,85.995C46.001,86.955 46.515,87.75 46.515,88.38C46.515,89.075 46.117,90.003 45.322,91.162C44.196,92.818 43.037,93.646 41.844,93.646C41.149,93.646 40.287,93.315 39.261,92.653C39.161,92.586 38.971,92.421 38.689,92.156C38.408,91.891 38.151,91.684 37.919,91.535C37.687,91.386 37.298,91.236 36.751,91.087C36.205,90.938 35.567,90.864 34.838,90.864C34.043,90.864 33.29,91.121 32.578,91.634C31.866,92.147 31.509,92.818 31.509,93.646C31.509,94.64 31.932,95.418 32.776,95.981C33.621,96.545 34.673,96.926 35.932,97.124C37.19,97.323 38.565,97.629 40.055,98.043C41.546,98.458 42.921,98.963 44.179,99.559C45.438,100.155 46.49,101.19 47.334,102.664C48.179,104.138 48.601,105.968 48.601,108.155C48.601,110.274 48.171,112.154 47.31,113.794C46.448,115.434 45.33,116.701 43.956,117.595C42.581,118.489 41.165,119.152 39.708,119.582C38.25,120.013 36.793,120.228 35.335,120.228C33.778,120.228 32.304,120.038 30.913,119.657C29.522,119.276 28.388,118.812 27.51,118.266C26.632,117.719 25.87,117.164 25.224,116.601C24.578,116.038 24.123,115.558 23.858,115.16L23.411,114.614Z" style="fill:white;fill-rule:nonzero;"/>
                    <path d="M51.831,87.684C51.831,86.922 51.856,86.351 51.906,85.97C51.955,85.589 52.113,85.15 52.378,84.653C52.643,84.156 53.09,83.808 53.719,83.61C54.348,83.411 55.193,83.312 56.253,83.312C57.114,83.312 57.827,83.394 58.39,83.56C58.953,83.726 59.383,83.924 59.681,84.156C59.98,84.388 60.203,84.728 60.352,85.175C60.501,85.622 60.584,86.003 60.601,86.318C60.617,86.632 60.625,87.104 60.625,87.734L60.625,115.359C60.625,116.154 60.601,116.734 60.551,117.098C60.501,117.462 60.344,117.893 60.079,118.39C59.814,118.887 59.367,119.235 58.737,119.433C58.108,119.632 57.263,119.731 56.203,119.731C55.342,119.731 54.63,119.649 54.067,119.483C53.504,119.317 53.073,119.119 52.775,118.887C52.477,118.655 52.253,118.315 52.104,117.868C51.955,117.421 51.872,117.04 51.856,116.725C51.839,116.411 51.831,115.939 51.831,115.309L51.831,87.684Z" style="fill:white;fill-rule:nonzero;"/>
                    <path d="M92.077,83.361C92.905,83.361 93.609,83.444 94.188,83.61C94.768,83.775 95.199,83.974 95.48,84.206C95.762,84.438 95.977,84.777 96.126,85.224C96.275,85.672 96.358,86.053 96.375,86.367C96.391,86.682 96.399,87.154 96.399,87.783L96.399,115.359C96.399,116.154 96.375,116.734 96.325,117.098C96.275,117.462 96.118,117.893 95.853,118.39C95.588,118.887 95.141,119.235 94.511,119.433C93.882,119.632 93.037,119.731 91.977,119.731C90.686,119.731 89.791,119.632 89.294,119.433C88.797,119.235 88.383,118.92 88.052,118.489C80.599,108.552 75.697,102.06 73.345,99.012L73.345,115.359C73.345,116.154 73.32,116.734 73.271,117.098C73.221,117.462 73.064,117.893 72.799,118.39C72.534,118.887 72.086,119.235 71.457,119.433C70.828,119.632 69.983,119.731 68.923,119.731C67.896,119.731 67.076,119.632 66.464,119.433C65.851,119.235 65.412,118.887 65.147,118.39C64.882,117.893 64.725,117.446 64.675,117.048C64.625,116.651 64.6,116.071 64.6,115.309L64.6,87.585C64.6,86.823 64.633,86.26 64.7,85.895C64.766,85.531 64.923,85.117 65.172,84.653C65.42,84.189 65.859,83.858 66.488,83.659C67.118,83.461 67.962,83.361 69.022,83.361C69.95,83.361 70.703,83.452 71.283,83.635C71.863,83.817 72.269,84.015 72.5,84.231C72.732,84.446 73.03,84.786 73.395,85.249L73.643,85.547C80.632,95.054 85.303,101.331 87.655,104.378L87.655,87.585C87.655,86.823 87.688,86.26 87.754,85.895C87.82,85.531 87.978,85.117 88.226,84.653C88.474,84.189 88.913,83.858 89.543,83.659C90.172,83.461 91.017,83.361 92.077,83.361Z" style="fill:white;fill-rule:nonzero;"/>
                    <path d="M119.354,97.77L128.099,97.77C128.993,97.803 129.714,97.928 130.26,98.143C130.807,98.358 131.188,98.689 131.403,99.137C131.619,99.584 131.751,99.981 131.801,100.329C131.85,100.677 131.875,101.215 131.875,101.944L131.875,112.875C131.875,113.935 131.411,114.945 130.484,115.906C129.557,116.866 128.53,117.645 127.403,118.241C124.754,119.566 121.607,120.228 117.963,120.228C113.028,120.228 108.738,118.365 105.094,114.639C101.451,110.912 99.629,106.366 99.629,101C99.629,95.832 101.484,91.485 105.194,87.957C108.904,84.429 113.276,82.666 118.311,82.666C121.756,82.666 124.985,83.626 128,85.547C128.629,85.978 129.101,86.309 129.416,86.541C129.73,86.773 130.029,87.096 130.31,87.51C130.592,87.924 130.732,88.363 130.732,88.827C130.732,89.589 130.352,90.499 129.59,91.559C128.298,93.315 127.122,94.193 126.062,94.193C125.433,94.193 124.555,93.812 123.429,93.05C121.772,91.99 119.984,91.46 118.063,91.46C115.545,91.46 113.309,92.346 111.355,94.118C109.401,95.89 108.423,98.217 108.423,101.099C108.423,103.948 109.417,106.374 111.405,108.378C113.392,110.382 115.644,111.384 118.162,111.384C119.984,111.384 121.623,111.086 123.081,110.49L123.081,105.074L119.156,105.074C118.526,105.074 118.071,105.049 117.789,105C117.508,104.95 117.193,104.817 116.845,104.602C116.497,104.387 116.257,104.022 116.125,103.509C115.992,102.995 115.926,102.292 115.926,101.397C115.926,100.536 116.001,99.84 116.15,99.31C116.299,98.78 116.572,98.416 116.969,98.217C117.367,98.019 117.706,97.894 117.988,97.845C118.27,97.795 118.725,97.77 119.354,97.77Z" style="fill:white;fill-rule:nonzero;"/>
                    <path d="M163.575,83.262C164.436,83.262 165.148,83.345 165.711,83.51C166.274,83.676 166.705,83.875 167.003,84.107C167.301,84.338 167.525,84.686 167.674,85.15C167.823,85.614 167.906,86.003 167.922,86.318C167.939,86.632 167.947,87.104 167.947,87.734L167.947,102.739C167.947,104.859 167.591,106.946 166.879,108.999C166.167,111.053 165.157,112.933 163.848,114.639C162.54,116.344 160.842,117.719 158.755,118.763C156.669,119.806 154.35,120.328 151.799,120.328C149.282,120.328 146.988,119.798 144.918,118.738C142.848,117.678 141.166,116.295 139.875,114.589C138.583,112.883 137.589,110.995 136.894,108.925C136.198,106.854 135.85,104.759 135.85,102.639L135.85,87.684C135.85,86.889 135.875,86.301 135.925,85.92C135.974,85.539 136.132,85.1 136.397,84.603C136.662,84.107 137.109,83.759 137.738,83.56C138.368,83.361 139.212,83.262 140.272,83.262C141.332,83.262 142.177,83.361 142.806,83.56C143.435,83.759 143.874,84.107 144.123,84.603C144.371,85.1 144.529,85.547 144.595,85.945C144.661,86.342 144.694,86.939 144.694,87.734L144.694,102.639C144.694,103.633 144.81,104.602 145.042,105.546C145.274,106.49 145.647,107.434 146.16,108.378C146.673,109.322 147.427,110.076 148.421,110.639C149.414,111.202 150.59,111.484 151.948,111.484C154.366,111.484 156.172,110.589 157.364,108.8C158.557,107.012 159.153,104.942 159.153,102.59L159.153,87.386C159.153,86.657 159.186,86.102 159.252,85.721C159.318,85.34 159.484,84.935 159.749,84.504C160.014,84.073 160.461,83.759 161.091,83.56C161.72,83.361 162.548,83.262 163.575,83.262Z" style="fill:white;fill-rule:nonzero;"/>
                    <path d="M180.717,112.378L194.231,112.378C194.894,112.378 195.382,112.403 195.697,112.452C196.012,112.502 196.368,112.626 196.765,112.825C197.163,113.024 197.444,113.388 197.61,113.918C197.775,114.448 197.858,115.16 197.858,116.055C197.858,116.916 197.775,117.611 197.61,118.141C197.444,118.671 197.154,119.044 196.74,119.259C196.326,119.475 195.954,119.607 195.622,119.657C195.291,119.707 194.811,119.731 194.181,119.731L176.295,119.731C175.433,119.731 174.721,119.649 174.158,119.483C173.595,119.317 173.164,119.119 172.866,118.887C172.568,118.655 172.344,118.315 172.195,117.868C172.046,117.421 171.964,117.04 171.947,116.725C171.93,116.411 171.922,115.939 171.922,115.309L171.922,87.684C171.922,86.922 171.947,86.351 171.997,85.97C172.046,85.589 172.204,85.15 172.469,84.653C172.734,84.156 173.181,83.808 173.81,83.61C174.44,83.411 175.284,83.312 176.344,83.312C177.205,83.312 177.918,83.394 178.481,83.56C179.044,83.726 179.474,83.924 179.773,84.156C180.071,84.388 180.294,84.728 180.443,85.175C180.592,85.622 180.675,86.003 180.692,86.318C180.708,86.632 180.717,87.104 180.717,87.734L180.717,112.378Z" style="fill:white;fill-rule:nonzero;"/>
                    <path d="M222.105,85.895L235.52,113.62C236.083,114.746 236.365,115.591 236.365,116.154C236.365,117.346 235.404,118.423 233.483,119.384C232.357,119.947 231.413,120.228 230.651,120.228C230.121,120.228 229.649,120.079 229.235,119.781C228.821,119.483 228.523,119.168 228.341,118.837C228.158,118.506 227.902,118.009 227.57,117.346L224.987,111.98L211.224,111.98L208.64,117.346C208.309,118.009 208.052,118.489 207.87,118.787C207.688,119.085 207.39,119.392 206.976,119.707C206.562,120.021 206.09,120.179 205.56,120.179C204.798,120.179 203.854,119.897 202.727,119.334C200.806,118.406 199.846,117.346 199.846,116.154C199.846,115.591 200.127,114.746 200.69,113.62C200.69,113.62 205.162,104.362 214.106,85.846C214.47,85.084 215.025,84.471 215.77,84.007C216.515,83.543 217.302,83.312 218.13,83.312C219.919,83.312 221.244,84.173 222.105,85.895ZM218.08,97.82L214.801,104.627L221.409,104.627L218.08,97.82Z" style="fill:white;fill-rule:nonzero;"/>
                    <path d="M266.971,113.57C267.468,114.763 267.717,115.624 267.717,116.154C267.717,117.413 266.69,118.473 264.636,119.334C263.576,119.798 262.682,120.03 261.953,120.03C261.39,120.03 260.901,119.872 260.487,119.557C260.073,119.243 259.775,118.92 259.593,118.589C259.411,118.257 259.171,117.744 258.873,117.048C258.144,115.392 257.084,112.908 255.693,109.595L254.152,109.695L247.892,109.695L247.892,115.309C247.892,116.071 247.867,116.643 247.817,117.024C247.768,117.404 247.61,117.843 247.345,118.34C247.08,118.837 246.633,119.185 246.004,119.384C245.375,119.582 244.53,119.682 243.47,119.682C242.609,119.682 241.897,119.599 241.333,119.433C240.77,119.268 240.34,119.069 240.042,118.837C239.744,118.605 239.52,118.266 239.371,117.818C239.222,117.371 239.139,116.99 239.122,116.676C239.106,116.361 239.098,115.889 239.098,115.26L239.098,87.684C239.098,86.922 239.122,86.351 239.172,85.97C239.222,85.589 239.379,85.15 239.644,84.653C239.909,84.156 240.356,83.808 240.986,83.61C241.615,83.411 242.46,83.312 243.52,83.312L254.252,83.312C255.643,83.312 257.076,83.585 258.55,84.131C260.024,84.678 261.423,85.465 262.748,86.491C264.073,87.518 265.166,88.91 266.027,90.665C266.889,92.421 267.319,94.375 267.319,96.528C267.319,100.271 266.077,103.352 263.593,105.77C264.322,107.525 265.448,110.125 266.971,113.57ZM247.892,100.9L254.252,100.9C255.212,100.9 256.173,100.536 257.134,99.807C258.094,99.079 258.575,97.969 258.575,96.478C258.575,95.054 258.094,93.969 257.134,93.224C256.173,92.479 255.179,92.106 254.152,92.106L247.892,92.106L247.892,100.9Z" style="fill:white;fill-rule:nonzero;"/>
                    <path d="M270.449,87.684C270.449,86.922 270.474,86.351 270.524,85.97C270.574,85.589 270.731,85.15 270.996,84.653C271.261,84.156 271.708,83.808 272.338,83.61C272.967,83.411 273.812,83.312 274.872,83.312C275.733,83.312 276.445,83.394 277.008,83.56C277.571,83.726 278.002,83.924 278.3,84.156C278.598,84.388 278.822,84.728 278.971,85.175C279.12,85.622 279.202,86.003 279.219,86.318C279.236,86.632 279.244,87.104 279.244,87.734L279.244,115.359C279.244,116.154 279.219,116.734 279.169,117.098C279.12,117.462 278.962,117.893 278.697,118.39C278.432,118.887 277.985,119.235 277.356,119.433C276.726,119.632 275.882,119.731 274.822,119.731C273.961,119.731 273.248,119.649 272.685,119.483C272.122,119.317 271.692,119.119 271.394,118.887C271.095,118.655 270.872,118.315 270.723,117.868C270.574,117.421 270.491,117.04 270.474,116.725C270.458,116.411 270.449,115.939 270.449,115.309L270.449,87.684Z" style="fill:white;fill-rule:nonzero;"/>
                    <path d="M285.604,83.262L313.229,83.262C313.892,83.262 314.372,83.287 314.67,83.336C314.968,83.386 315.316,83.51 315.713,83.709C316.111,83.908 316.392,84.272 316.558,84.802C316.724,85.332 316.807,86.028 316.807,86.889C316.807,87.75 316.724,88.438 316.558,88.951C316.392,89.464 316.111,89.82 315.713,90.019C315.316,90.218 314.96,90.342 314.645,90.392C314.33,90.442 313.842,90.466 313.179,90.466L303.689,90.466L303.689,115.458C303.689,116.22 303.665,116.783 303.615,117.148C303.565,117.512 303.416,117.934 303.168,118.415C302.919,118.895 302.48,119.235 301.851,119.433C301.222,119.632 300.394,119.731 299.367,119.731C298.34,119.731 297.52,119.632 296.907,119.433C296.294,119.235 295.864,118.895 295.615,118.415C295.367,117.934 295.218,117.504 295.168,117.123C295.119,116.742 295.094,116.171 295.094,115.409L295.094,90.466L285.554,90.466C284.925,90.466 284.453,90.442 284.138,90.392C283.823,90.342 283.467,90.218 283.07,90.019C282.672,89.82 282.391,89.456 282.225,88.926C282.059,88.396 281.977,87.7 281.977,86.839C281.977,85.978 282.059,85.291 282.225,84.777C282.391,84.264 282.672,83.908 283.07,83.709C283.467,83.51 283.823,83.386 284.138,83.336C284.453,83.287 284.941,83.262 285.604,83.262Z" style="fill:white;fill-rule:nonzero;"/>
                    <path d="M348.456,84.007C350.08,85.133 350.891,86.226 350.891,87.286C350.891,87.916 350.51,88.794 349.748,89.92L339.016,105.968L339.016,115.458C339.016,116.22 338.991,116.792 338.942,117.173C338.892,117.553 338.735,117.992 338.47,118.489C338.205,118.986 337.757,119.334 337.128,119.533C336.499,119.731 335.654,119.831 334.594,119.831C333.534,119.831 332.689,119.731 332.06,119.533C331.431,119.334 330.984,118.978 330.719,118.464C330.454,117.951 330.296,117.504 330.247,117.123C330.197,116.742 330.172,116.154 330.172,115.359L330.172,105.968L319.44,89.92C318.678,88.794 318.297,87.916 318.297,87.286C318.297,86.226 319.125,85.133 320.781,84.007C322.04,83.179 323.084,82.765 323.912,82.765C324.342,82.765 324.748,82.898 325.129,83.163C325.51,83.427 325.808,83.692 326.023,83.957C326.239,84.222 326.528,84.637 326.893,85.2L334.594,97.522L342.295,85.2C342.66,84.637 342.95,84.222 343.165,83.957C343.38,83.692 343.678,83.427 344.059,83.163C344.44,82.898 344.863,82.765 345.326,82.765C346.088,82.765 347.132,83.179 348.456,84.007Z" style="fill:white;fill-rule:nonzero;"/>
                </g>
                <g id="singularity-transparent" serif:id="singularity/transparent" transform="matrix(1.24632,0,0,0.9,14.573,10)">
                    <g>
                        <g id="singularity-transparent1" serif:id="singularity/transparent">
                            <rect x="0" y="0" width="200" height="200" style="fill:none;"/>
                            <g transform="matrix(1.11111,0,0,1.11111,0.0569444,-0.0048771)">
                                <path d="M163.48,106.31L149.18,120.61C151.15,120.55 152.6,120.93 153.52,121.77C154.57,122.72 155.09,124.35 155.09,126.68L155.09,148.92C155.09,151.25 154.57,153.03 153.52,154.27C152.47,155.52 150.75,156.37 148.35,156.83L104.24,165.31C100.2,168.51 95.23,170.24 90,170.24C87.75,170.24 85.56,169.92 83.46,169.3L37.14,178.2C32.91,179.01 29.79,178.9 27.85,177.84C25.89,176.78 24.9,174.64 24.9,171.43L24.9,140.78C24.9,137.58 25.89,135.16 27.85,133.54C29.79,131.94 32.91,130.95 37.14,130.57L40.48,130.27L16.52,106.31C12.16,101.96 9.77,96.16 9.77,90C9.77,83.84 12.16,78.05 16.52,73.7L41.71,48.51C38.58,48.03 36.22,47.14 34.65,45.83C32.74,44.24 31.78,41.86 31.78,38.69L31.78,8.49C31.78,5.33 32.74,3.22 34.65,2.16C36.53,1.12 39.56,1 43.68,1.79L86.54,10.03C87.68,9.86 88.83,9.77 90,9.77C94.16,9.77 98.15,10.87 101.65,12.93L121.17,16.68C123.96,17.21 125.95,18.16 127.17,19.52C128.39,20.87 128.99,22.79 128.99,25.3L128.99,39.21L163.48,73.7C167.83,78.05 170.23,83.84 170.23,90C170.23,96.16 167.83,101.96 163.48,106.31Z" style="fill:rgb(30,5,48);fill-rule:nonzero;"/>
                            </g>
                            <g transform="matrix(1.11111,0,0,1.11111,0.0569444,-0.0048771)">
                                <path d="M153.52,121.77C152.6,120.93 151.15,120.55 149.18,120.61C148.91,120.62 148.63,120.63 148.35,120.66L128.99,122.39L128.99,25.3C128.99,22.79 128.39,20.87 127.17,19.52C125.95,18.16 123.96,17.21 121.17,16.68L101.65,12.93L86.54,10.03L43.68,1.79C39.56,1 36.53,1.12 34.65,2.16C32.74,3.22 31.78,5.33 31.78,8.49L31.78,38.69C31.78,41.86 32.74,44.24 34.65,45.83C36.22,47.14 38.58,48.03 41.71,48.51C42.34,48.6 42.99,48.68 43.68,48.74L59.53,50.15L71.49,51.22L71.49,127.51L58.35,128.68L40.48,130.27L37.14,130.57C32.91,130.95 29.79,131.94 27.85,133.54C25.89,135.16 24.9,137.58 24.9,140.78L24.9,171.43C24.9,174.64 25.89,176.78 27.85,177.84C29.79,178.9 32.91,179.01 37.14,178.2L83.46,169.3L104.24,165.31L148.35,156.83C150.75,156.37 152.47,155.52 153.52,154.27C154.57,153.03 155.09,151.25 155.09,148.92L155.09,126.68C155.09,124.35 154.57,122.72 153.52,121.77ZM137.72,142.46L125.54,144.25L102.72,147.6L80.53,150.86L63.56,153.35L54.36,154.7L54.36,152.32L61.52,151.31L78.57,148.9L101.08,145.71L101.08,34.08L78.7,30.98L61.61,28.61L60.42,28.44L60.42,26.1L63.65,26.57L80.66,29.02L102.47,32.16L103.53,32.31L103.53,145.37L105.18,145.14L127.86,141.93L137.72,140.53L137.72,142.46Z" style="fill:rgb(68,10,61);fill-rule:nonzero;"/>
                            </g>
                            <g transform="matrix(1.11111,0,0,1.11111,0.0569444,-0.0048771)">
                                <path d="M98.54,108.67L98.54,65.62C98.54,64.32 97.48,63.26 96.18,63.26L74.14,63.26C72.84,63.26 71.78,64.32 71.78,65.62L71.78,73.22C71.78,74.52 72.84,75.58 74.14,75.58L82.85,75.58L82.85,108.67L72.47,108.67C71.17,108.67 70.11,109.73 70.11,111.03L70.11,118.46C70.11,119.76 71.17,120.82 72.47,120.82L107.53,120.82C108.83,120.82 109.89,119.76 109.89,118.46L109.89,111.03C109.89,109.73 108.83,108.67 107.53,108.67L98.54,108.67Z" style="fill:white;fill-rule:nonzero;"/>
                            </g>
                            <g transform="matrix(1.11111,0,0,1.11111,170.843,92.6911)">
                                <path d="M0,13.15L-57.169,70.319C-58.925,72.076 -61.26,73.043 -63.743,73.043C-66.228,73.043 -68.563,72.076 -70.318,70.319L-127.487,13.15C-129.244,11.394 -130.211,9.059 -130.211,6.575C-130.211,4.091 -129.244,1.756 -127.487,0.001L-70.318,-57.168C-68.563,-58.925 -66.228,-59.892 -63.743,-59.892C-61.26,-59.892 -58.925,-58.925 -57.169,-57.168L0,0.001C1.757,1.756 2.724,4.091 2.724,6.575C2.724,9.059 1.757,11.394 0,13.15M9.734,-9.734L-47.435,-66.903C-51.791,-71.259 -57.583,-73.658 -63.743,-73.658C-69.904,-73.658 -75.696,-71.259 -80.053,-66.903L-137.222,-9.734C-141.578,-5.377 -143.977,0.415 -143.977,6.575C-143.977,12.736 -141.578,18.528 -137.222,22.884L-80.053,80.053C-75.696,84.41 -69.904,86.808 -63.743,86.808C-57.583,86.808 -51.791,84.41 -47.435,80.053L9.734,22.884C14.091,18.528 16.489,12.736 16.489,6.575C16.489,0.415 14.091,-5.377 9.734,-9.734" style="fill:url(#_Linear2);fill-rule:nonzero;"/>
                            </g>
                        </g>
                    </g>
                </g>
            </g>
        </g>
    </g>
    <defs>
        <linearGradient id="_Linear2" x1="0" y1="0" x2="1" y2="0" gradientUnits="userSpaceOnUse" gradientTransform="matrix(109.643,179.438,-179.438,109.643,-128.839,-72.8627)"><stop offset="0" style="stop-color:rgb(250,103,165);stop-opacity:1"/><stop offset="1" style="stop-color:rgb(142,70,165);stop-opacity:1"/></linearGradient>
    </defs>
</svg>
