<?xml version="1.0" encoding="UTF-8" standalone="no"?>
<!DOCTYPE svg PUBLIC "-//W3C//DTD SVG 1.1//EN" "http://www.w3.org/Graphics/SVG/1.1/DTD/svg11.dtd">
<svg width="100%" height="100%" viewBox="0 0 1920 1080" version="1.1" xmlns="http://www.w3.org/2000/svg" xmlns:xlink="http://www.w3.org/1999/xlink" xml:space="preserve" xmlns:serif="http://www.serif.com/" style="fill-rule:evenodd;clip-rule:evenodd;stroke-linejoin:round;stroke-miterlimit:2;">
    <g transform="matrix(1,0,0,1,0,-9600)">
        <g id="bc22-background" serif:id="bc22/background" transform="matrix(1.78857,0,0,2.07692,2.06057e-13,6793.58)">
            <rect x="0" y="1351.24" width="1073.48" height="520" style="fill:rgb(0,24,59);"/>
            <clipPath id="_clip1">
                <rect x="0" y="1351.24" width="1073.48" height="520"/>
            </clipPath>
            <g clip-path="url(#_clip1)">
                <g transform="matrix(0.965926,0.222886,-0.300545,0.965926,571.562,-342.766)">
                    <g transform="matrix(2.31208e-16,3.25169,-3.77592,1.99109e-16,441.598,1332.51)">
                        <path d="M104.25,69.91L98.99,75.17L93.18,69.36C91.57,67.75 88.95,67.75 87.34,69.36C85.72,70.98 85.72,73.59 87.34,75.21L93.14,81.02L81.02,93.14L75.21,87.33C73.6,85.72 70.98,85.72 69.37,87.33C67.75,88.95 67.75,91.56 69.37,93.18L75.17,98.98L69.91,104.24C64.51,109.64 55.73,109.64 50.33,104.24L16,69.91C10.6,64.51 10.6,55.73 16,50.33L50.33,16C55.73,10.6 64.51,10.6 69.91,16L104.24,50.33C109.64,55.73 109.65,64.51 104.25,69.91Z" style="fill:rgb(140,232,244);fill-opacity:0.07;fill-rule:nonzero;"/>
                    </g>
                    <g transform="matrix(2.31208e-16,3.25169,-3.77592,1.99109e-16,441.598,1332.51)">
                        <path d="M164,129.67L129.67,164C124.27,169.4 115.49,169.4 110.09,164L75.76,129.67C70.36,124.27 70.36,115.49 75.76,110.09L81.02,104.83L86.9,110.72C87.71,111.52 88.77,111.93 89.83,111.93C90.89,111.93 91.94,111.52 92.75,110.72C94.36,109.1 94.36,106.48 92.75,104.87L86.87,98.99L98.99,86.86L104.87,92.75C105.68,93.55 106.74,93.96 107.8,93.96C108.86,93.96 109.91,93.55 110.72,92.75C112.33,91.13 112.33,88.51 110.72,86.9L104.84,81.02L110.09,75.76C115.49,70.36 124.27,70.36 129.67,75.76L164,110.09C169.4,115.49 169.4,124.27 164,129.67Z" style="fill:rgb(140,232,244);fill-opacity:0.07;fill-rule:nonzero;"/>
                    </g>
                </g>
                <g transform="matrix(1.32139,0.304908,-0.411146,1.32139,586.691,-619.983)">
                    <g transform="matrix(1.69012e-16,2.37697,-2.76017,1.45547e-16,400.28,1483.44)">
                        <path d="M104.25,69.91L98.99,75.17L93.18,69.36C91.57,67.75 88.95,67.75 87.34,69.36C85.72,70.98 85.72,73.59 87.34,75.21L93.14,81.02L81.02,93.14L75.21,87.33C73.6,85.72 70.98,85.72 69.37,87.33C67.75,88.95 67.75,91.56 69.37,93.18L75.17,98.98L69.91,104.24C64.51,109.64 55.73,109.64 50.33,104.24L16,69.91C10.6,64.51 10.6,55.73 16,50.33L50.33,16C55.73,10.6 64.51,10.6 69.91,16L104.24,50.33C109.64,55.73 109.65,64.51 104.25,69.91Z" style="fill:rgb(140,232,244);fill-opacity:0.07;fill-rule:nonzero;"/>
                    </g>
                    <g transform="matrix(1.69012e-16,2.37697,-2.76017,1.45547e-16,400.28,1483.44)">
                        <path d="M164,129.67L129.67,164C124.27,169.4 115.49,169.4 110.09,164L75.76,129.67C70.36,124.27 70.36,115.49 75.76,110.09L81.02,104.83L86.9,110.72C87.71,111.52 88.77,111.93 89.83,111.93C90.89,111.93 91.94,111.52 92.75,110.72C94.36,109.1 94.36,106.48 92.75,104.87L86.87,98.99L98.99,86.86L104.87,92.75C105.68,93.55 106.74,93.96 107.8,93.96C108.86,93.96 109.91,93.55 110.72,92.75C112.33,91.13 112.33,88.51 110.72,86.9L104.84,81.02L110.09,75.76C115.49,70.36 124.27,70.36 129.67,75.76L164,110.09C169.4,115.49 169.4,124.27 164,129.67Z" style="fill:rgb(140,232,244);fill-opacity:0.07;fill-rule:nonzero;"/>
                    </g>
                </g>
                <g transform="matrix(1.32139,0.304908,-0.411146,1.32139,1192.11,-920.995)">
                    <g transform="matrix(1.69012e-16,2.37697,-2.76017,1.45547e-16,400.28,1483.44)">
                        <path d="M104.25,69.91L98.99,75.17L93.18,69.36C91.57,67.75 88.95,67.75 87.34,69.36C85.72,70.98 85.72,73.59 87.34,75.21L93.14,81.02L81.02,93.14L75.21,87.33C73.6,85.72 70.98,85.72 69.37,87.33C67.75,88.95 67.75,91.56 69.37,93.18L75.17,98.98L69.91,104.24C64.51,109.64 55.73,109.64 50.33,104.24L16,69.91C10.6,64.51 10.6,55.73 16,50.33L50.33,16C55.73,10.6 64.51,10.6 69.91,16L104.24,50.33C109.64,55.73 109.65,64.51 104.25,69.91Z" style="fill:rgb(140,232,244);fill-opacity:0.07;fill-rule:nonzero;"/>
                    </g>
                    <g transform="matrix(1.69012e-16,2.37697,-2.76017,1.45547e-16,400.28,1483.44)">
                        <path d="M164,129.67L129.67,164C124.27,169.4 115.49,169.4 110.09,164L75.76,129.67C70.36,124.27 70.36,115.49 75.76,110.09L81.02,104.83L86.9,110.72C87.71,111.52 88.77,111.93 89.83,111.93C90.89,111.93 91.94,111.52 92.75,110.72C94.36,109.1 94.36,106.48 92.75,104.87L86.87,98.99L98.99,86.86L104.87,92.75C105.68,93.55 106.74,93.96 107.8,93.96C108.86,93.96 109.91,93.55 110.72,92.75C112.33,91.13 112.33,88.51 110.72,86.9L104.84,81.02L110.09,75.76C115.49,70.36 124.27,70.36 129.67,75.76L164,110.09C169.4,115.49 169.4,124.27 164,129.67Z" style="fill:rgb(140,232,244);fill-opacity:0.07;fill-rule:nonzero;"/>
                    </g>
                </g>
                <g transform="matrix(9.03263,-4.49097,5.1255,7.64509,737.301,1948.26)">
                    <path d="M24.04,-8.362C24.8,-8.362 25.37,-8.33 25.75,-8.267C26.131,-8.203 26.542,-8.053 26.986,-7.815C27.429,-7.578 27.746,-7.15 27.936,-6.533C28.126,-5.915 28.221,-5.099 28.221,-4.086C28.221,-3.104 28.118,-2.312 27.912,-1.71C27.706,-1.109 27.374,-0.689 26.914,-0.451C26.455,-0.214 26.028,-0.063 25.632,0C25.236,0.063 24.674,0.095 23.945,0.095L5.369,0.095C4.228,0.095 3.247,-0.333 2.423,-1.188C1.6,-2.043 1.188,-3.041 1.188,-4.181C1.188,-5.891 1.782,-7.467 2.969,-8.908C4.157,-10.349 5.59,-11.585 7.269,-12.614C8.948,-13.643 10.626,-14.657 12.305,-15.655C13.984,-16.652 15.417,-17.785 16.605,-19.052C17.792,-20.318 18.386,-21.665 18.386,-23.09C18.386,-23.185 18.371,-23.319 18.339,-23.494C18.307,-23.668 18.196,-23.977 18.006,-24.42C17.816,-24.864 17.587,-25.252 17.317,-25.584C17.048,-25.917 16.629,-26.226 16.058,-26.511C15.488,-26.796 14.823,-26.938 14.063,-26.938C12.796,-26.938 11.79,-26.566 11.046,-25.822C10.302,-25.077 9.882,-24.341 9.787,-23.612L9.597,-22.52L9.597,-22.235C9.597,-21.538 9.573,-21.015 9.526,-20.667C9.478,-20.318 9.328,-19.93 9.074,-19.503C8.821,-19.075 8.393,-18.774 7.792,-18.6C7.19,-18.426 6.382,-18.339 5.369,-18.339C4.545,-18.339 3.864,-18.418 3.326,-18.576C2.787,-18.735 2.376,-18.925 2.09,-19.147C1.805,-19.368 1.592,-19.693 1.449,-20.12C1.307,-20.548 1.227,-20.912 1.212,-21.213C1.196,-21.514 1.188,-21.965 1.188,-22.567C1.188,-25.861 2.368,-28.815 4.727,-31.428C7.087,-34.041 10.183,-35.347 14.015,-35.347C17.816,-35.347 20.904,-34.025 23.28,-31.38C25.655,-28.736 26.843,-25.719 26.843,-22.33C26.843,-20.524 26.447,-18.814 25.655,-17.199C24.864,-15.583 23.905,-14.277 22.781,-13.279C21.657,-12.281 20.532,-11.41 19.408,-10.666C18.283,-9.922 17.325,-9.391 16.533,-9.074L15.346,-8.599L15.346,-8.362L24.04,-8.362Z" style="fill:rgb(9,38,71);fill-rule:nonzero;"/>
                </g>
                <g transform="matrix(9.03263,-4.49097,5.1255,7.64509,993.571,1820.84)">
                    <path d="M24.04,-8.362C24.8,-8.362 25.37,-8.33 25.75,-8.267C26.131,-8.203 26.542,-8.053 26.986,-7.815C27.429,-7.578 27.746,-7.15 27.936,-6.533C28.126,-5.915 28.221,-5.099 28.221,-4.086C28.221,-3.104 28.118,-2.312 27.912,-1.71C27.706,-1.109 27.374,-0.689 26.914,-0.451C26.455,-0.214 26.028,-0.063 25.632,0C25.236,0.063 24.674,0.095 23.945,0.095L5.369,0.095C4.228,0.095 3.247,-0.333 2.423,-1.188C1.6,-2.043 1.188,-3.041 1.188,-4.181C1.188,-5.891 1.782,-7.467 2.969,-8.908C4.157,-10.349 5.59,-11.585 7.269,-12.614C8.948,-13.643 10.626,-14.657 12.305,-15.655C13.984,-16.652 15.417,-17.785 16.605,-19.052C17.792,-20.318 18.386,-21.665 18.386,-23.09C18.386,-23.185 18.371,-23.319 18.339,-23.494C18.307,-23.668 18.196,-23.977 18.006,-24.42C17.816,-24.864 17.587,-25.252 17.317,-25.584C17.048,-25.917 16.629,-26.226 16.058,-26.511C15.488,-26.796 14.823,-26.938 14.063,-26.938C12.796,-26.938 11.79,-26.566 11.046,-25.822C10.302,-25.077 9.882,-24.341 9.787,-23.612L9.597,-22.52L9.597,-22.235C9.597,-21.538 9.573,-21.015 9.526,-20.667C9.478,-20.318 9.328,-19.93 9.074,-19.503C8.821,-19.075 8.393,-18.774 7.792,-18.6C7.19,-18.426 6.382,-18.339 5.369,-18.339C4.545,-18.339 3.864,-18.418 3.326,-18.576C2.787,-18.735 2.376,-18.925 2.09,-19.147C1.805,-19.368 1.592,-19.693 1.449,-20.12C1.307,-20.548 1.227,-20.912 1.212,-21.213C1.196,-21.514 1.188,-21.965 1.188,-22.567C1.188,-25.861 2.368,-28.815 4.727,-31.428C7.087,-34.041 10.183,-35.347 14.015,-35.347C17.816,-35.347 20.904,-34.025 23.28,-31.38C25.655,-28.736 26.843,-25.719 26.843,-22.33C26.843,-20.524 26.447,-18.814 25.655,-17.199C24.864,-15.583 23.905,-14.277 22.781,-13.279C21.657,-12.281 20.532,-11.41 19.408,-10.666C18.283,-9.922 17.325,-9.391 16.533,-9.074L15.346,-8.599L15.346,-8.362L24.04,-8.362Z" style="fill:rgb(9,38,71);fill-rule:nonzero;"/>
                </g>
            </g>
        </g>
    </g>
</svg>
