<?xml version="1.0" encoding="UTF-8" standalone="no"?>
<!DOCTYPE svg PUBLIC "-//W3C//DTD SVG 1.1//EN" "http://www.w3.org/Graphics/SVG/1.1/DTD/svg11.dtd">
<svg width="100%" height="100%" viewBox="0 0 992 200" version="1.1" xmlns="http://www.w3.org/2000/svg" xmlns:xlink="http://www.w3.org/1999/xlink" xml:space="preserve" xmlns:serif="http://www.serif.com/" style="fill-rule:evenodd;clip-rule:evenodd;stroke-linejoin:round;stroke-miterlimit:2;">
    <g transform="matrix(1,0,0,1,-4800,-2400)">
        <g id="bc22-lockup-minimal" serif:id="bc22/lockup-minimal" transform="matrix(1.04424,0,0,1,4800,2400)">
            <rect x="0" y="0" width="949.973" height="200" style="fill:none;"/>
            <clipPath id="_clip1">
                <rect x="0" y="0" width="949.973" height="200"/>
            </clipPath>
            <g clip-path="url(#_clip1)">
                <g id="Icon" transform="matrix(0.957634,0,0,1,-40.722,-42.5238)">
                    <rect x="42.524" y="42.524" width="200" height="200" style="fill:none;"/>
                    <g transform="matrix(1,0,0,1,52.5235,52.5213)">
                        <path d="M104.24,50.33L69.91,16.01C64.51,10.61 55.73,10.6 50.33,16L16,50.33C10.6,55.73 10.6,64.52 16,69.92L50.33,104.24C55.73,109.64 64.51,109.65 69.91,104.24L75.17,98.98L69.37,93.17C67.75,91.56 67.75,88.94 69.37,87.33C70.98,85.72 73.6,85.72 75.21,87.33L81.02,93.14L93.15,81.01L87.34,75.2C85.72,73.59 85.72,70.97 87.34,69.36C88.95,67.74 91.57,67.74 93.18,69.36L98.99,75.17L104.25,69.91C109.65,64.51 109.64,55.72 104.24,50.32L104.24,50.33ZM73.57,72.57C73.36,73.17 73.02,73.59 72.55,73.81C71.85,74.19 70.87,74.38 69.6,74.38L51.03,74.38C49.89,74.38 48.9,73.95 48.08,73.1C47.26,72.24 46.85,71.24 46.85,70.1C46.85,68.39 47.44,66.82 48.63,65.38C49.81,63.93 51.25,62.7 52.93,61.67C54.6,60.64 56.28,59.63 57.96,58.63C59.64,57.63 61.07,56.5 62.26,55.23C63.45,53.97 64.04,52.62 64.04,51.19C64.04,50.91 63.93,50.51 63.71,49.98C63.49,49.46 63.24,49.03 62.97,48.7C62.7,48.37 62.29,48.06 61.72,47.77C61.14,47.49 60.35,47.35 59.34,47.35C58.33,47.35 57.45,47.72 56.7,48.46C55.96,49.21 55.54,49.94 55.44,50.67L55.25,51.76L55.25,52.05C55.25,52.75 55.23,53.27 55.18,53.62C55.14,53.97 54.98,54.36 54.73,54.8C54.26,55.57 53.02,55.95 51.03,55.95C48.81,55.95 47.49,55.34 47.08,54.14C46.92,53.63 46.85,52.83 46.85,51.72C46.85,48.42 48.02,45.47 50.38,42.86C52.74,40.24 55.83,38.94 59.65,38.94C63.47,38.94 66.56,40.26 68.94,42.9C71.31,45.55 72.5,48.57 72.5,51.95C72.5,53.76 72.1,55.47 71.31,57.09C70.52,58.7 69.57,60 68.46,60.98C66.12,63.07 64.03,64.48 62.19,65.21L61,65.68L61,65.92L69.7,65.92C70.99,65.92 71.92,66.07 72.48,66.37C73.03,66.67 73.4,67.13 73.59,67.75C73.78,68.37 73.88,69.18 73.88,70.17C73.88,71.16 73.77,71.97 73.57,72.57Z" style="fill:rgb(148,192,255);fill-rule:nonzero;"/>
                    </g>
                    <g transform="matrix(1,0,0,1,52.5235,52.5213)">
                        <path d="M164,110.09L129.67,75.76C124.27,70.36 115.49,70.36 110.09,75.76L104.83,81.02L110.72,86.9C112.33,88.52 112.33,91.14 110.72,92.75C109.91,93.56 108.85,93.96 107.8,93.96C106.75,93.96 105.68,93.56 104.87,92.75L98.99,86.86L86.86,98.99L92.75,104.88C94.36,106.49 94.36,109.11 92.75,110.72C91.94,111.53 90.88,111.93 89.83,111.93C88.78,111.93 87.71,111.53 86.9,110.72L81.02,104.83L75.76,110.09C70.36,115.49 70.36,124.27 75.76,129.67L110.09,164C115.49,169.4 124.27,169.4 129.67,164L164,129.67C169.4,124.27 169.4,115.49 164,110.09ZM133.33,135.98C133.12,136.58 132.78,136.99 132.31,137.22C131.61,137.6 130.63,137.79 129.36,137.79L110.78,137.79C109.64,137.79 108.66,137.36 107.84,136.5C107.02,135.65 106.6,134.65 106.6,133.51C106.6,131.8 107.2,130.22 108.39,128.78C109.57,127.34 111.01,126.11 112.69,125.08C114.36,124.05 116.04,123.03 117.72,122.04C119.4,121.04 120.83,119.91 122.02,118.64C123.21,117.37 123.8,116.03 123.8,114.6C123.8,114.32 123.69,113.91 123.47,113.39C123.25,112.87 123,112.44 122.73,112.11C122.46,111.78 122.04,111.47 121.47,111.18C120.9,110.9 120.11,110.75 119.1,110.75C118.09,110.75 117.21,111.13 116.46,111.87C115.72,112.61 115.3,113.35 115.2,114.08L115.01,115.17L115.01,115.46C115.01,116.15 114.99,116.68 114.94,117.02C114.89,117.37 114.74,117.77 114.49,118.21C114.02,118.97 112.78,119.35 110.78,119.35C108.57,119.35 107.25,118.75 106.84,117.55C106.68,117.04 106.6,116.23 106.6,115.12C106.6,111.83 107.78,108.88 110.14,106.26C112.5,103.65 115.59,102.34 119.41,102.34C123.23,102.34 126.32,103.67 128.69,106.31C131.07,108.96 132.26,111.97 132.26,115.36C132.26,117.17 131.86,118.88 131.07,120.49C130.28,122.11 129.33,123.41 128.22,124.39C125.88,126.48 123.79,127.89 121.95,128.62L120.76,129.09L120.76,129.33L129.46,129.33C130.75,129.33 131.68,129.48 132.23,129.78C132.79,130.08 133.16,130.54 133.35,131.16C133.54,131.78 133.64,132.58 133.64,133.58C133.64,134.58 133.53,135.38 133.33,135.98Z" style="fill:rgb(140,232,244);fill-rule:nonzero;"/>
                    </g>
                </g>
                <g transform="matrix(3.69516,0,0,3.85863,-9077.52,-9736.08)">
                    <g transform="matrix(26.6667,0,0,26.6667,2705.53,2559.31)">
                    </g>
                    <text x="2512.01px" y="2559.31px" style="font-family:'FredokaOne-Regular', 'Fredoka One';font-size:26.667px;fill:white;">Blank<tspan x="2583.5px 2598.52px " y="2559.31px 2559.31px ">et</tspan>Con &apos;22</text>
                </g>
            </g>
        </g>
    </g>
</svg>
