<?xml version="1.0" encoding="UTF-8" standalone="no"?>
<!DOCTYPE svg PUBLIC "-//W3C//DTD SVG 1.1//EN" "http://www.w3.org/Graphics/SVG/1.1/DTD/svg11.dtd">
<svg width="100%" height="100%" viewBox="0 0 1920 1080" version="1.1" xmlns="http://www.w3.org/2000/svg" xmlns:xlink="http://www.w3.org/1999/xlink" xml:space="preserve" xmlns:serif="http://www.serif.com/" style="fill-rule:evenodd;clip-rule:evenodd;stroke-linecap:round;stroke-miterlimit:25;">
    <g transform="matrix(1,0,0,1,0,-4800)">
        <g id="_1.16-background" serif:id="1.16/background" transform="matrix(1.78857,0,0,2.07692,1.13687e-13,1993.58)">
            <rect x="0" y="1351.24" width="1073.48" height="520" style="fill:rgb(24,1,1);"/>
            <clipPath id="_clip1">
                <rect x="0" y="1351.24" width="1073.48" height="520"/>
            </clipPath>
            <g clip-path="url(#_clip1)">
                <g transform="matrix(9.06381,-4.50647,5.23299,7.80543,-727.711,1354.13)">
                    <path d="M79.258,83.262C80.119,83.262 80.831,83.345 81.394,83.51C81.957,83.676 82.388,83.866 82.686,84.082C82.984,84.297 83.208,84.645 83.357,85.125C83.506,85.605 83.589,86.003 83.605,86.318C83.622,86.632 83.63,87.121 83.63,87.783L83.63,115.458C83.63,116.22 83.605,116.792 83.556,117.173C83.506,117.553 83.349,117.992 83.084,118.489C82.819,118.986 82.371,119.334 81.742,119.533C81.113,119.731 80.268,119.831 79.208,119.831C78.181,119.831 77.353,119.731 76.724,119.533C76.094,119.334 75.647,118.994 75.382,118.514C75.117,118.034 74.96,117.587 74.91,117.173C74.861,116.759 74.836,116.154 74.836,115.359L74.836,97.621L74.19,98.217C72.832,99.244 71.705,99.758 70.811,99.758C69.784,99.758 68.824,99.261 67.929,98.267C66.737,96.942 66.141,95.816 66.141,94.888C66.141,94.027 66.737,93.067 67.929,92.007L76.078,84.653L76.227,84.554C77.088,83.692 78.098,83.262 79.258,83.262Z" style="fill:rgb(45,15,15);fill-rule:nonzero;"/>
                    <path d="M95.306,111.533C95.869,112.096 96.151,113.256 96.151,115.011L96.151,115.21C96.151,116.005 96.126,116.593 96.076,116.974C96.027,117.355 95.861,117.81 95.58,118.34C95.298,118.87 94.826,119.243 94.164,119.458C93.501,119.673 92.607,119.781 91.481,119.781C89.692,119.781 88.45,119.433 87.754,118.738C87.158,118.175 86.86,117.015 86.86,115.26L86.86,115.061C86.86,114.299 86.885,113.719 86.934,113.322C86.984,112.924 87.141,112.469 87.406,111.956C87.671,111.442 88.143,111.069 88.822,110.838C89.501,110.606 90.404,110.49 91.53,110.49C93.286,110.49 94.544,110.838 95.306,111.533Z" style="fill:rgb(45,15,15);fill-rule:nonzero;"/>
                    <path d="M111.256,83.262C112.117,83.262 112.829,83.345 113.392,83.51C113.955,83.676 114.386,83.866 114.684,84.082C114.982,84.297 115.206,84.645 115.355,85.125C115.504,85.605 115.586,86.003 115.603,86.318C115.62,86.632 115.628,87.121 115.628,87.783L115.628,115.458C115.628,116.22 115.603,116.792 115.553,117.173C115.504,117.553 115.346,117.992 115.081,118.489C114.816,118.986 114.369,119.334 113.74,119.533C113.11,119.731 112.266,119.831 111.206,119.831C110.179,119.831 109.351,119.731 108.722,119.533C108.092,119.334 107.645,118.994 107.38,118.514C107.115,118.034 106.958,117.587 106.908,117.173C106.858,116.759 106.833,116.154 106.833,115.359L106.833,97.621L106.188,98.217C104.829,99.244 103.703,99.758 102.809,99.758C101.782,99.758 100.821,99.261 99.927,98.267C98.735,96.942 98.138,95.816 98.138,94.888C98.138,94.027 98.735,93.067 99.927,92.007L108.076,84.653L108.225,84.554C109.086,83.692 110.096,83.262 111.256,83.262Z" style="fill:rgb(45,15,15);fill-rule:nonzero;"/>
                    <path d="M144.197,108.602C144.197,111.947 142.997,114.746 140.595,116.999C138.194,119.251 135.287,120.377 131.875,120.377C127.569,120.377 124.323,118.994 122.137,116.229C119.951,113.463 118.857,109.894 118.857,105.521C118.857,99.195 120.654,93.911 124.248,89.671C127.842,85.431 132.753,83.312 138.98,83.312C139.742,83.312 140.305,83.345 140.67,83.411C141.034,83.477 141.448,83.635 141.912,83.883C142.376,84.131 142.707,84.57 142.906,85.2C143.104,85.829 143.204,86.674 143.204,87.734C143.204,88.595 143.121,89.307 142.955,89.87C142.79,90.433 142.591,90.864 142.359,91.162C142.127,91.46 141.788,91.684 141.34,91.833C140.893,91.982 140.512,92.065 140.198,92.081C139.883,92.098 139.411,92.106 138.782,92.106C137.225,92.106 135.809,92.338 134.533,92.802C133.258,93.265 132.264,93.828 131.552,94.491C130.84,95.153 130.244,95.816 129.764,96.478C129.283,97.141 128.977,97.704 128.844,98.168L128.596,98.863C129.822,98.3 131.047,98.019 132.273,98.019C135.552,98.019 138.359,99.103 140.694,101.273C143.03,103.443 144.197,105.886 144.197,108.602ZM131.676,112.229C134.227,112.229 135.502,111.119 135.502,108.9C135.502,108.138 135.212,107.426 134.633,106.763C134.053,106.101 133.167,105.77 131.975,105.77C130.617,105.77 129.598,106.076 128.919,106.689C128.24,107.302 127.9,108.006 127.9,108.8C127.9,109.264 127.942,109.662 128.025,109.993C128.107,110.324 128.265,110.68 128.497,111.061C128.728,111.442 129.109,111.732 129.639,111.931C130.169,112.129 130.848,112.229 131.676,112.229Z" style="fill:rgb(45,15,15);fill-rule:nonzero;"/>
                </g>
                <g transform="matrix(1.25545,1.87261,-2.02667,1.00765,1448.48,36.6129)">
                    <path d="M312.361,684.621C312.361,684.621 344.796,750.489 359.811,816.774M363.753,905.753C357.448,929.846 342.028,947.086 312.361,950.738" style="fill:none;stroke:rgb(45,15,15);stroke-width:37.9px;"/>
                    <g transform="matrix(0.574669,0,0,1,147.423,0)">
                        <path d="M369.583,816.774C401.744,814.918 502.97,819.296 485.337,950.738C439.746,905.146 395.134,903.8 376.442,905.753C387.752,880.916 382.205,848.796 369.583,816.774Z" style="fill:none;stroke:rgb(45,15,15);stroke-width:47.32px;stroke-linejoin:round;"/>
                    </g>
                    <g transform="matrix(-1,0,0,1,624.722,0)">
                        <path d="M312.361,684.621C312.361,684.621 344.796,750.489 359.811,816.774M363.753,905.753C357.448,929.846 342.028,947.086 312.361,950.738" style="fill:none;stroke:rgb(45,15,15);stroke-width:37.9px;"/>
                    </g>
                    <g transform="matrix(-0.574669,0,0,1,477.299,0)">
                        <path d="M369.583,816.774C401.744,814.918 502.97,819.296 485.337,950.738C439.746,905.146 395.134,903.8 376.442,905.753C387.752,880.916 382.205,848.796 369.583,816.774Z" style="fill:none;stroke:rgb(45,15,15);stroke-width:47.32px;stroke-linejoin:round;"/>
                    </g>
                </g>
            </g>
        </g>
    </g>
</svg>
