<?xml version="1.0" encoding="UTF-8" standalone="no"?>
<!DOCTYPE svg PUBLIC "-//W3C//DTD SVG 1.1//EN" "http://www.w3.org/Graphics/SVG/1.1/DTD/svg11.dtd">
<svg width="100%" height="100%" viewBox="0 0 1920 1080" version="1.1" xmlns="http://www.w3.org/2000/svg" xmlns:xlink="http://www.w3.org/1999/xlink" xml:space="preserve" xmlns:serif="http://www.serif.com/" style="fill-rule:evenodd;clip-rule:evenodd;stroke-linejoin:round;stroke-miterlimit:2;">
    <g transform="matrix(1,0,0,1,0,-2400)">
        <g id="_1.14-background" serif:id="1.14/background" transform="matrix(1.78857,0,0,2.07692,1.13687e-13,-406.418)">
            <rect x="0" y="1351.24" width="1073.48" height="520" style="fill:rgb(28,19,58);"/>
            <clipPath id="_clip1">
                <rect x="0" y="1351.24" width="1073.48" height="520"/>
            </clipPath>
            <g clip-path="url(#_clip1)">
                <g transform="matrix(9.06381,-4.50647,5.23299,7.80543,-750.075,1373.39)">
                    <path d="M78.463,83.262C79.324,83.262 80.036,83.345 80.599,83.51C81.162,83.676 81.593,83.866 81.891,84.082C82.189,84.297 82.413,84.645 82.562,85.125C82.711,85.605 82.794,86.003 82.81,86.318C82.827,86.632 82.835,87.121 82.835,87.783L82.835,115.458C82.835,116.22 82.81,116.792 82.761,117.173C82.711,117.553 82.554,117.992 82.289,118.489C82.024,118.986 81.576,119.334 80.947,119.533C80.318,119.731 79.473,119.831 78.413,119.831C77.386,119.831 76.558,119.731 75.929,119.533C75.299,119.334 74.852,118.994 74.587,118.514C74.322,118.034 74.165,117.587 74.115,117.173C74.066,116.759 74.041,116.154 74.041,115.359L74.041,97.621L73.395,98.217C72.037,99.244 70.91,99.758 70.016,99.758C68.989,99.758 68.029,99.261 67.134,98.267C65.942,96.942 65.346,95.816 65.346,94.888C65.346,94.027 65.942,93.067 67.134,92.007L75.283,84.653L75.432,84.554C76.293,83.692 77.303,83.262 78.463,83.262Z" style="fill:rgb(39,25,75);fill-rule:nonzero;stroke:rgb(28,19,58);stroke-width:0.05px;"/>
                    <path d="M94.511,111.533C95.074,112.096 95.356,113.256 95.356,115.011L95.356,115.21C95.356,116.005 95.331,116.593 95.281,116.974C95.232,117.355 95.066,117.81 94.785,118.34C94.503,118.87 94.031,119.243 93.369,119.458C92.706,119.673 91.812,119.781 90.686,119.781C88.897,119.781 87.655,119.433 86.959,118.738C86.363,118.175 86.065,117.015 86.065,115.26L86.065,115.061C86.065,114.299 86.09,113.719 86.139,113.322C86.189,112.924 86.346,112.469 86.611,111.956C86.876,111.442 87.348,111.069 88.027,110.838C88.706,110.606 89.609,110.49 90.735,110.49C92.491,110.49 93.749,110.838 94.511,111.533Z" style="fill:rgb(39,25,75);fill-rule:nonzero;stroke:rgb(28,19,58);stroke-width:0.05px;"/>
                    <path d="M110.461,83.262C111.322,83.262 112.034,83.345 112.597,83.51C113.16,83.676 113.591,83.866 113.889,84.082C114.187,84.297 114.411,84.645 114.56,85.125C114.709,85.605 114.792,86.003 114.808,86.318C114.825,86.632 114.833,87.121 114.833,87.783L114.833,115.458C114.833,116.22 114.808,116.792 114.758,117.173C114.709,117.553 114.551,117.992 114.286,118.489C114.021,118.986 113.574,119.334 112.945,119.533C112.315,119.731 111.471,119.831 110.411,119.831C109.384,119.831 108.556,119.731 107.927,119.533C107.297,119.334 106.85,118.994 106.585,118.514C106.32,118.034 106.163,117.587 106.113,117.173C106.063,116.759 106.038,116.154 106.038,115.359L106.038,97.621L105.393,98.217C104.034,99.244 102.908,99.758 102.014,99.758C100.987,99.758 100.026,99.261 99.132,98.267C97.94,96.942 97.343,95.816 97.343,94.888C97.343,94.027 97.94,93.067 99.132,92.007L107.281,84.653L107.43,84.554C108.291,83.692 109.301,83.262 110.461,83.262Z" style="fill:rgb(39,25,75);fill-rule:nonzero;stroke:rgb(28,19,58);stroke-width:0.05px;"/>
                    <path d="M139.875,83.262C140.902,83.262 141.73,83.37 142.359,83.585C142.988,83.8 143.435,84.148 143.7,84.628C143.965,85.109 144.123,85.547 144.173,85.945C144.222,86.342 144.247,86.922 144.247,87.684L144.247,115.309C144.247,116.071 144.214,116.651 144.148,117.048C144.081,117.446 143.924,117.885 143.676,118.365C143.427,118.845 142.98,119.185 142.334,119.384C141.688,119.582 140.835,119.682 139.775,119.682C138.914,119.682 138.202,119.599 137.639,119.433C137.076,119.268 136.645,119.069 136.347,118.837C136.049,118.605 135.825,118.266 135.676,117.818C135.527,117.371 135.444,116.99 135.428,116.676C135.411,116.361 135.403,115.889 135.403,115.26L135.403,109.198L121.938,109.198C121.077,109.198 120.365,109.115 119.802,108.95C119.238,108.784 118.808,108.585 118.51,108.353C118.212,108.121 117.988,107.782 117.839,107.335C117.69,106.888 117.607,106.507 117.59,106.192C117.574,105.877 117.566,105.405 117.566,104.776C117.566,104.147 117.615,103.617 117.715,103.186L121.839,86.541C122.037,85.779 122.211,85.2 122.36,84.802C122.509,84.405 122.808,84.024 123.255,83.659C123.702,83.295 124.29,83.113 125.019,83.113C125.681,83.113 126.426,83.229 127.254,83.461C129.573,84.09 130.732,85.15 130.732,86.641C130.732,87.171 130.617,87.866 130.385,88.727L130.335,88.777L130.335,88.876L127.304,101L135.403,101L135.403,87.436C135.403,86.674 135.428,86.111 135.477,85.746C135.527,85.382 135.684,84.968 135.949,84.504C136.214,84.04 136.67,83.717 137.316,83.535C137.962,83.353 138.815,83.262 139.875,83.262Z" style="fill:rgb(39,25,75);fill-rule:nonzero;stroke:rgb(28,19,58);stroke-width:0.05px;"/>
                </g>
                <g transform="matrix(0.385895,-0.33232,0.385895,0.33232,-1364.47,158.686)">
                    <path d="M414.091,3521.42C414.091,3448.28 354.716,3388.91 281.582,3388.91L-281.582,3388.91C-354.716,3388.91 -414.091,3448.28 -414.091,3521.42L-414.091,4084.58C-414.091,4157.72 -354.716,4217.09 -281.582,4217.09L281.582,4217.09C354.716,4217.09 414.091,4157.72 414.091,4084.58L414.091,3521.42Z" style="fill:none;stroke:rgb(39,25,75);stroke-width:168.63px;stroke-linecap:round;stroke-miterlimit:1.5;"/>
                </g>
            </g>
        </g>
    </g>
</svg>
