<?xml version="1.0" encoding="UTF-8"?>
<svg id="Layer_1" data-name="Layer 1" xmlns="http://www.w3.org/2000/svg" xmlns:xlink="http://www.w3.org/1999/xlink" viewBox="0 0 180 180">
  <defs>
    <filter id="drop-shadow-5" filterUnits="userSpaceOnUse">
      <feOffset dx="11.73" dy="11.73"/>
      <feGaussianBlur result="blur" stdDeviation="16.76"/>
      <feFlood flood-color="#000" flood-opacity=".9"/>
      <feComposite in2="blur" operator="in"/>
      <feComposite in="SourceGraphic"/>
    </filter>
  </defs>
  <path d="M158.61,101.45l-57.17,57.17c-6.32,6.31-16.56,6.31-22.88,0L21.39,101.45c-6.32-6.32-6.32-16.57,0-22.89L78.56,21.39c6.32-6.32,16.56-6.32,22.88,0l57.17,57.17c6.32,6.32,6.32,16.57,0,22.89Z" style="fill: #1c133a;"/>
  <g style="filter: url(#drop-shadow-5);">
    <g>
      <g>
        <path d="M67.17,75.15c-.16-.49-.39-.85-.69-1.06-.3-.22-.73-.41-1.29-.57-.57-.17-1.35-.25-2.36-.25s-1.95,.43-2.81,1.29l-.15,.1-8.15,7.35c-1.19,1.06-1.79,2.04-1.79,2.93s.52,1.92,1.57,3.08c1.04,1.16,2.04,1.74,3,1.74s2.12-.51,3.48-1.54l.65-.59v17.73c0,.8,.02,1.4,.07,1.82,.05,.41,.21,.87,.47,1.36,.5,.86,1.78,1.3,3.83,1.3s3.41-.45,3.88-1.35c.26-.49,.42-.93,.47-1.31,.05-.38,.07-.95,.07-1.72v-27.67c0-1.19-.08-2.07-.25-2.64Z" style="fill: #fff;"/>
        <path d="M79.1,101.54c-.76-.7-2.15-1.05-4.15-1.05s-3.26,.5-3.75,1.49c-.27,.5-.43,.95-.48,1.35-.05,.39-.07,.97-.07,1.74v.19c0,1.76,.32,2.95,.97,3.58,.65,.63,1.97,.95,3.97,.95s3.26-.48,3.76-1.45c.29-.52,.47-.98,.52-1.36,.05-.38,.07-.97,.07-1.77v-.19c0-1.76-.28-2.92-.84-3.48Z" style="fill: #fff;"/>
        <path d="M99.17,75.15c-.17-.49-.4-.85-.69-1.06-.3-.22-.73-.41-1.3-.57-.56-.17-1.35-.25-2.36-.25s-1.94,.43-2.8,1.29l-.15,.1-8.15,7.35c-1.19,1.06-1.79,2.04-1.79,2.93s.52,1.92,1.57,3.08c1.04,1.16,2.04,1.74,3,1.74s2.12-.51,3.48-1.54l.65-.59v17.73c0,.8,.02,1.4,.07,1.82,.05,.41,.21,.87,.47,1.36,.5,.86,1.77,1.3,3.83,1.3s3.41-.45,3.87-1.35c.27-.49,.42-.93,.47-1.31,.05-.38,.08-.95,.08-1.72v-27.67c0-1.19-.08-2.07-.25-2.64Z" style="fill: #fff;"/>
        <path d="M128.76,75.95c-.05-.4-.21-.84-.47-1.32-.27-.48-.72-.82-1.34-1.04-.63-.22-1.47-.32-2.51-.32s-1.89,.09-2.54,.27c-.64,.18-1.1,.51-1.36,.97-.27,.46-.43,.88-.48,1.24-.05,.37-.07,.93-.07,1.69v13.56h-8.1l3.03-12.12s.02-.08,.05-.15c.23-.86,.35-1.55,.35-2.08,0-1.5-1.16-2.56-3.48-3.18-.83-.24-1.59-.35-2.29-.35s-1.26,.18-1.71,.54c-.45,.37-.74,.75-.89,1.15-.15,.39-.33,.97-.53,1.74l-4.12,16.64c-.1,.43-.15,1.09-.15,1.99s.08,1.6,.25,2.13c.43,1.26,1.81,1.89,4.12,1.89h13.47v6.06c0,1.16,.1,2.02,.3,2.59,.13,.43,.34,.76,.64,.99,.3,.23,.73,.43,1.29,.6,.57,.16,1.33,.25,2.29,.25s1.76-.1,2.41-.3,1.13-.61,1.44-1.22c.32-.61,.47-1.56,.47-2.86v-27.62c0-.76-.02-1.34-.07-1.74Z" style="fill: #fff;"/>
      </g>
      <path d="M158.61,101.45l-57.17,57.17c-6.32,6.31-16.56,6.31-22.88,0L21.39,101.45c-6.32-6.32-6.32-16.57,0-22.89L78.56,21.39c6.32-6.32,16.56-6.32,22.88,0l57.17,57.17c6.32,6.32,6.32,16.57,0,22.89Z" style="fill: none; stroke: #945cff; stroke-miterlimit: 10; stroke-width: 13.77px;"/>
    </g>
  </g>
</svg>