<?xml version="1.0" encoding="UTF-8" standalone="no"?>
<!DOCTYPE svg PUBLIC "-//W3C//DTD SVG 1.1//EN" "http://www.w3.org/Graphics/SVG/1.1/DTD/svg11.dtd">
<svg width="100%" height="100%" viewBox="0 0 200 200" version="1.1" xmlns="http://www.w3.org/2000/svg" xmlns:xlink="http://www.w3.org/1999/xlink" xml:space="preserve" xmlns:serif="http://www.serif.com/" style="fill-rule:evenodd;clip-rule:evenodd;stroke-miterlimit:10;">
    <g transform="matrix(1,0,0,1,0,-810)">
        <g transform="matrix(1,0,0,1,3,0)">
            <g id="_1.15-full" serif:id="1.15/full" transform="matrix(1,0,0,1,-3,810)">
                <rect x="0" y="0" width="200" height="200" style="fill:none;"/>
                <clipPath id="_clip1">
                    <rect x="0" y="0" width="200" height="200"/>
                </clipPath>
                <g clip-path="url(#_clip1)">
                    <rect x="0" y="0" width="200" height="200" style="fill:rgb(30,22,8);"/>
                    <g>
                        <g transform="matrix(0.707107,-0.707107,0.707107,0.707107,-41.42,100)">
                            <path d="M156.6,59.57L156.6,140.42C156.6,149.35 149.35,156.6 140.42,156.6L59.57,156.6C50.64,156.6 43.39,149.35 43.39,140.42L43.39,59.57C43.39,50.64 50.64,43.39 59.57,43.39L140.42,43.39C149.35,43.39 156.6,50.64 156.6,59.57Z" style="fill:none;stroke:rgb(255,191,11);stroke-width:13.77px;"/>
                        </g>
                        <g transform="matrix(1,0,0,1,60.72,119.73)">
                            <path d="M13.864,-36.472C14.725,-36.472 15.437,-36.39 16,-36.224C16.563,-36.058 16.994,-35.868 17.292,-35.653C17.59,-35.437 17.814,-35.089 17.963,-34.609C18.112,-34.129 18.195,-33.731 18.211,-33.417C18.228,-33.102 18.236,-32.613 18.236,-31.951L18.236,-4.273C18.236,-3.511 18.211,-2.94 18.162,-2.559C18.112,-2.178 17.955,-1.739 17.69,-1.242C17.425,-0.745 16.977,-0.398 16.348,-0.199C15.719,0 14.874,0.099 13.814,0.099C12.787,0.099 11.959,0 11.329,-0.199C10.7,-0.398 10.253,-0.737 9.988,-1.217C9.723,-1.698 9.565,-2.145 9.516,-2.559C9.466,-2.973 9.441,-3.578 9.441,-4.373L9.441,-22.112L8.795,-21.516C7.437,-20.489 6.311,-19.975 5.416,-19.975C4.389,-19.975 3.429,-20.472 2.534,-21.466C1.342,-22.791 0.745,-23.917 0.745,-24.845C0.745,-25.706 1.342,-26.667 2.534,-27.727L10.683,-35.081L10.832,-35.181C11.694,-36.042 12.704,-36.472 13.864,-36.472Z" style="fill:white;fill-rule:nonzero;"/>
                            <path d="M29.913,-8.199C30.477,-7.636 30.758,-6.476 30.758,-4.721L30.758,-4.522C30.758,-3.727 30.733,-3.139 30.684,-2.758C30.634,-2.377 30.468,-1.921 30.187,-1.391C29.905,-0.861 29.433,-0.489 28.771,-0.273C28.108,-0.058 27.214,0.05 26.087,0.05C24.298,0.05 23.056,-0.298 22.36,-0.994C21.764,-1.557 21.466,-2.716 21.466,-4.472L21.466,-4.671C21.466,-5.433 21.491,-6.012 21.541,-6.41C21.59,-6.808 21.748,-7.263 22.013,-7.776C22.278,-8.29 22.75,-8.663 23.429,-8.895C24.108,-9.126 25.011,-9.242 26.137,-9.242C27.893,-9.242 29.151,-8.895 29.913,-8.199Z" style="fill:white;fill-rule:nonzero;"/>
                            <path d="M45.864,-36.472C46.725,-36.472 47.437,-36.39 48.001,-36.224C48.564,-36.058 48.994,-35.868 49.292,-35.653C49.591,-35.437 49.814,-35.089 49.963,-34.609C50.112,-34.129 50.195,-33.731 50.212,-33.417C50.228,-33.102 50.237,-32.613 50.237,-31.951L50.237,-4.273C50.237,-3.511 50.212,-2.94 50.162,-2.559C50.112,-2.178 49.955,-1.739 49.69,-1.242C49.425,-0.745 48.978,-0.398 48.348,-0.199C47.719,0 46.874,0.099 45.814,0.099C44.787,0.099 43.959,0 43.33,-0.199C42.7,-0.398 42.253,-0.737 41.988,-1.217C41.723,-1.698 41.566,-2.145 41.516,-2.559C41.466,-2.973 41.441,-3.578 41.441,-4.373L41.441,-22.112L40.795,-21.516C39.437,-20.489 38.311,-19.975 37.417,-19.975C36.39,-19.975 35.429,-20.472 34.535,-21.466C33.342,-22.791 32.746,-23.917 32.746,-24.845C32.746,-25.706 33.342,-26.667 34.535,-27.727L42.684,-35.081L42.833,-35.181C43.694,-36.042 44.704,-36.472 45.864,-36.472Z" style="fill:white;fill-rule:nonzero;"/>
                            <path d="M77.318,-12.075C77.318,-8.497 76.125,-5.474 73.74,-3.006C71.355,-0.538 68.39,0.696 64.845,0.696C63.62,0.696 62.444,0.571 61.317,0.323C60.191,0.075 59.255,-0.224 58.51,-0.571C57.765,-0.919 57.102,-1.275 56.522,-1.64C55.943,-2.004 55.52,-2.319 55.255,-2.584L54.858,-2.932C53.599,-4.025 52.97,-4.986 52.97,-5.814C52.97,-6.774 53.582,-7.884 54.808,-9.143C55.802,-10.236 56.796,-10.783 57.789,-10.783C58.651,-10.783 59.727,-10.253 61.019,-9.193C61.616,-8.497 62.775,-8.149 64.498,-8.149C65.723,-8.149 66.692,-8.464 67.404,-9.093C68.117,-9.723 68.473,-10.601 68.473,-11.727C68.473,-12.82 68.084,-13.69 67.305,-14.336C66.527,-14.982 65.657,-15.305 64.696,-15.305C63.669,-15.305 62.858,-15.006 62.262,-14.41C61.367,-13.648 60.473,-13.267 59.578,-13.267C58.651,-13.267 57.574,-13.598 56.348,-14.261C55.222,-14.857 54.477,-15.346 54.112,-15.727C53.748,-16.108 53.566,-16.53 53.566,-16.994C53.566,-17.126 53.599,-17.425 53.665,-17.888C54.493,-24.216 55.123,-28.953 55.553,-32.1C55.553,-32.232 55.57,-32.398 55.603,-32.597C55.636,-32.795 55.752,-33.143 55.951,-33.64C56.15,-34.137 56.39,-34.584 56.671,-34.982C56.953,-35.379 57.384,-35.735 57.963,-36.05C58.543,-36.365 59.214,-36.522 59.976,-36.522C60.009,-36.522 60.787,-36.514 62.311,-36.497C63.835,-36.481 65.583,-36.472 67.554,-36.472L72.2,-36.472C72.995,-36.472 73.574,-36.448 73.939,-36.398C74.303,-36.348 74.734,-36.191 75.231,-35.926C75.728,-35.661 76.075,-35.205 76.274,-34.559C76.473,-33.913 76.572,-33.044 76.572,-31.951C76.572,-30.957 76.481,-30.162 76.299,-29.566C76.117,-28.969 75.794,-28.547 75.33,-28.298C74.866,-28.05 74.46,-27.901 74.113,-27.851C73.765,-27.802 73.226,-27.777 72.498,-27.777L63.802,-27.777C63.736,-27.379 63.57,-26.12 63.305,-24C63.669,-24.067 64.249,-24.1 65.044,-24.1C68.191,-24.1 71.024,-22.915 73.541,-20.547C76.059,-18.178 77.318,-15.354 77.318,-12.075Z" style="fill:white;fill-rule:nonzero;"/>
                        </g>
                    </g>
                </g>
            </g>
        </g>
    </g>
</svg>
