<?xml version="1.0" encoding="UTF-8" standalone="no"?>
<!DOCTYPE svg PUBLIC "-//W3C//DTD SVG 1.1//EN" "http://www.w3.org/Graphics/SVG/1.1/DTD/svg11.dtd">
<svg width="100%" height="100%" viewBox="0 0 180 180" version="1.1" xmlns="http://www.w3.org/2000/svg" xmlns:xlink="http://www.w3.org/1999/xlink" xml:space="preserve" xmlns:serif="http://www.serif.com/" style="fill-rule:evenodd;clip-rule:evenodd;stroke-miterlimit:10;">
    <g transform="matrix(1,0,0,1,-1060,-820)">
        <g transform="matrix(1,0,0,1,3,0)">
            <g id="_1.15-minimal-modfest" serif:id="1.15/minimal-modfest" transform="matrix(0.9,0,0,0.9,1057,820)">
                <rect x="0" y="0" width="200" height="200" style="fill:none;"/>
                <clipPath id="_clip1">
                    <rect x="0" y="0" width="200" height="200"/>
                </clipPath>
                <g clip-path="url(#_clip1)">
                    <g transform="matrix(1.11111,0,0,1.11111,-11.1111,-11.1111)">
                        <g transform="matrix(1,0,0,1,10,9.99875)">
                            <path d="M158.61,101.45L101.44,158.62C95.13,164.93 84.88,164.93 78.56,158.62L21.39,101.45C15.07,95.13 15.07,84.88 21.39,78.56L78.56,21.39C84.88,15.07 95.13,15.07 101.44,21.39L158.61,78.56C164.93,84.88 164.93,95.13 158.61,101.45Z" style="fill:none;fill-rule:nonzero;stroke:rgb(255,191,11);stroke-width:13.77px;"/>
                        </g>
                        <g transform="matrix(1,0,0,1,65.55,130.9)">
                            <path d="M58.759,-57.967C60.396,-57.967 61.715,-57.809 62.718,-57.492C63.722,-57.175 64.434,-56.621 64.857,-55.829C65.279,-55.037 65.53,-54.324 65.609,-53.691C65.688,-53.057 65.728,-52.133 65.728,-50.919L65.728,-6.969C65.728,-5.754 65.675,-4.844 65.569,-4.237C65.464,-3.63 65.213,-2.943 64.817,-2.178C64.421,-1.412 63.722,-0.871 62.718,-0.554C61.715,-0.238 60.369,-0.079 58.68,-0.079C57.307,-0.079 56.172,-0.211 55.275,-0.475C54.377,-0.739 53.691,-1.056 53.216,-1.425C52.741,-1.795 52.384,-2.336 52.147,-3.049C51.909,-3.762 51.777,-4.369 51.751,-4.87C51.724,-5.372 51.711,-6.124 51.711,-7.127L51.711,-33.656C50.391,-32.019 48.464,-29.419 45.93,-25.856C43.396,-22.292 41.522,-19.745 40.308,-18.214C40.149,-17.95 39.938,-17.646 39.674,-17.303C39.41,-16.96 38.764,-16.485 37.734,-15.878C36.705,-15.27 35.583,-14.967 34.368,-14.967C33.207,-14.967 32.138,-15.244 31.161,-15.798C30.185,-16.353 29.485,-16.894 29.063,-17.422L28.429,-18.293C27.373,-19.613 25.288,-22.424 22.173,-26.727C19.058,-31.029 17.369,-33.339 17.105,-33.656L17.105,-6.969C17.105,-5.754 17.065,-4.844 16.986,-4.237C16.907,-3.63 16.656,-2.943 16.234,-2.178C15.812,-1.412 15.099,-0.871 14.096,-0.554C13.093,-0.238 11.747,-0.079 10.057,-0.079C8.421,-0.079 7.114,-0.238 6.137,-0.554C5.161,-0.871 4.461,-1.412 4.039,-2.178C3.616,-2.943 3.366,-3.643 3.286,-4.276C3.207,-4.91 3.168,-5.86 3.168,-7.127L3.168,-51.078C3.168,-52.292 3.207,-53.202 3.286,-53.81C3.366,-54.417 3.616,-55.103 4.039,-55.869C4.461,-56.634 5.174,-57.175 6.177,-57.492C7.18,-57.809 8.526,-57.967 10.216,-57.967C11.641,-57.967 12.868,-57.796 13.898,-57.452C14.927,-57.109 15.6,-56.753 15.917,-56.383L16.392,-55.908L34.368,-32.31C43.343,-44.188 49.335,-52.028 52.345,-55.829C53.242,-57.254 55.38,-57.967 58.759,-57.967Z" style="fill:white;fill-rule:nonzero;"/>
                        </g>
                    </g>
                </g>
            </g>
        </g>
    </g>
</svg>
