<?xml version="1.0" encoding="UTF-8" standalone="no"?>
<!DOCTYPE svg PUBLIC "-//W3C//DTD SVG 1.1//EN" "http://www.w3.org/Graphics/SVG/1.1/DTD/svg11.dtd">
<svg width="100%" height="100%" viewBox="0 0 180 180" version="1.1" xmlns="http://www.w3.org/2000/svg" xmlns:xlink="http://www.w3.org/1999/xlink" xml:space="preserve" xmlns:serif="http://www.serif.com/" style="fill-rule:evenodd;clip-rule:evenodd;stroke-miterlimit:10;">
    <g transform="matrix(1,0,0,1,-430,-820)">
        <g transform="matrix(1,0,0,1,3,0)">
            <g id="_1.15-minimal" serif:id="1.15/minimal" transform="matrix(0.9,0,0,0.9,427,820)">
                <rect x="0" y="0" width="200" height="200" style="fill:none;"/>
                <clipPath id="_clip1">
                    <rect x="0" y="0" width="200" height="200"/>
                </clipPath>
                <g clip-path="url(#_clip1)">
                    <g transform="matrix(1.11111,0,0,1.11111,-11.1111,-11.1111)">
                        <g transform="matrix(1,0,0,1,10,9.99875)">
                            <path d="M158.61,101.45L101.44,158.62C95.13,164.93 84.88,164.93 78.56,158.62L21.39,101.45C15.07,95.13 15.07,84.88 21.39,78.56L78.56,21.39C84.88,15.07 95.13,15.07 101.44,21.39L158.61,78.56C164.93,84.88 164.93,95.13 158.61,101.45Z" style="fill:none;fill-rule:nonzero;stroke:rgb(255,191,11);stroke-width:13.77px;"/>
                        </g>
                        <g transform="matrix(1,0,0,1,10,9.99875)">
                            <path d="M68.71,75.15C68.55,74.66 68.32,74.3 68.02,74.09C67.72,73.87 67.29,73.68 66.73,73.52C66.16,73.35 65.38,73.27 64.37,73.27C63.36,73.27 62.42,73.7 61.56,74.56L61.41,74.66L53.26,82.01C52.07,83.07 51.47,84.05 51.47,84.94C51.47,85.83 51.99,86.86 53.04,88.02C54.08,89.18 55.08,89.76 56.04,89.76C57,89.76 58.16,89.25 59.52,88.22L60.17,87.63L60.17,105.36C60.17,106.16 60.19,106.76 60.24,107.18C60.29,107.59 60.45,108.05 60.71,108.54C61.21,109.4 62.49,109.84 64.54,109.84C66.59,109.84 67.95,109.39 68.42,108.49C68.68,108 68.84,107.56 68.89,107.18C68.94,106.8 68.96,106.23 68.96,105.46L68.96,77.79C68.96,76.6 68.88,75.72 68.71,75.15Z" style="fill:white;fill-rule:nonzero;"/>
                        </g>
                        <g transform="matrix(1,0,0,1,10,9.99875)">
                            <path d="M80.64,101.54C79.88,100.84 78.49,100.49 76.49,100.49C74.49,100.49 73.23,100.99 72.74,101.98C72.47,102.48 72.31,102.93 72.26,103.33C72.22,103.72 72.19,104.3 72.19,105.07L72.19,105.26C72.19,107.02 72.51,108.21 73.16,108.84C73.81,109.47 75.13,109.79 77.13,109.79C79.13,109.79 80.39,109.31 80.89,108.34C81.18,107.82 81.36,107.36 81.41,106.98C81.46,106.6 81.48,106.01 81.48,105.21L81.48,105.02C81.48,103.26 81.2,102.1 80.64,101.54Z" style="fill:white;fill-rule:nonzero;"/>
                        </g>
                        <g transform="matrix(1,0,0,1,10,9.99875)">
                            <path d="M100.71,75.15C100.55,74.66 100.31,74.3 100.02,74.09C99.72,73.87 99.29,73.68 98.72,73.52C98.16,73.35 97.37,73.27 96.36,73.27C95.35,73.27 94.42,73.7 93.56,74.56L93.41,74.66L85.26,82.01C84.07,83.07 83.47,84.05 83.47,84.94C83.47,85.83 83.99,86.86 85.04,88.02C86.08,89.18 87.08,89.76 88.04,89.76C89,89.76 90.16,89.25 91.52,88.22L92.17,87.63L92.17,105.36C92.17,106.16 92.19,106.76 92.24,107.18C92.29,107.59 92.45,108.05 92.71,108.54C93.21,109.4 94.48,109.84 96.54,109.84C98.6,109.84 99.95,109.39 100.41,108.49C100.68,108 100.84,107.56 100.88,107.18C100.93,106.8 100.96,106.23 100.96,105.46L100.96,77.79C100.96,76.6 100.88,75.72 100.71,75.15Z" style="fill:white;fill-rule:nonzero;"/>
                        </g>
                        <g transform="matrix(1,0,0,1,10,9.99875)">
                            <path d="M124.26,89.19C121.74,86.82 118.91,85.64 115.77,85.64C114.97,85.64 114.39,85.67 114.03,85.74C114.29,83.62 114.46,82.36 114.52,81.96L123.22,81.96C123.95,81.96 124.49,81.94 124.83,81.89C125.18,81.84 125.59,81.68 126.05,81.41C126.88,80.98 127.29,79.78 127.29,77.79C127.29,75.6 126.85,74.28 125.95,73.81C125.45,73.55 125.02,73.39 124.66,73.34C124.29,73.29 123.72,73.27 122.92,73.27L118.25,73.27L110.7,73.22C109.93,73.22 109.26,73.37 108.68,73.69C108.11,74 107.67,74.36 107.39,74.76C107.11,75.15 106.87,75.6 106.67,76.1C106.47,76.6 106.36,76.94 106.33,77.14C106.29,77.34 105.94,79.89 105.28,84.79C104.62,89.7 104.29,92.36 104.29,92.79C104.29,93.22 104.47,93.63 104.83,94.01C105.2,94.39 105.97,94.9 107.14,95.53C108.32,96.15 109.36,96.47 110.28,96.47C111.2,96.47 112.09,96.09 112.98,95.33C113.58,94.73 114.37,94.43 115.37,94.43C116.37,94.43 117.25,94.76 118.03,95.4C118.8,96.05 119.19,96.93 119.19,98.03C119.19,99.13 118.84,100.01 118.13,100.64C117.41,101.27 116.32,101.59 114.85,101.59C113.38,101.59 112.34,101.24 111.74,100.54C110.45,99.48 109.34,98.95 108.41,98.95C107.48,98.95 106.52,99.5 105.53,100.59C104.3,101.85 103.69,102.93 103.69,103.82C103.69,104.71 104.32,105.71 105.58,106.8L105.98,107.15C106.24,107.42 106.66,107.73 107.22,108.1C109.7,109.65 112.49,110.43 115.57,110.43C119.11,110.43 122.08,109.2 124.46,106.73C126.85,104.26 128.04,101.31 128.04,97.89C128.04,94.47 126.78,91.56 124.26,89.19Z" style="fill:white;fill-rule:nonzero;"/>
                        </g>
                    </g>
                </g>
            </g>
        </g>
    </g>
</svg>
