<?xml version="1.0" encoding="UTF-8" standalone="no"?>
<!DOCTYPE svg PUBLIC "-//W3C//DTD SVG 1.1//EN" "http://www.w3.org/Graphics/SVG/1.1/DTD/svg11.dtd">
<svg width="100%" height="100%" viewBox="0 0 200 200" version="1.1" xmlns="http://www.w3.org/2000/svg" xmlns:xlink="http://www.w3.org/1999/xlink" xml:space="preserve" xmlns:serif="http://www.serif.com/" style="fill-rule:evenodd;clip-rule:evenodd;stroke-miterlimit:10;">
    <g transform="matrix(1,0,0,1,0,-1440)">
        <g transform="matrix(1,0,0,1,3,0)">
            <g id="_1.20-full" serif:id="1.20/full" transform="matrix(1,0,0,1,-3,1440)">
                <rect x="0" y="0" width="200" height="200" style="fill:none;"/>
                <clipPath id="_clip1">
                    <rect x="0" y="0" width="200" height="200"/>
                </clipPath>
                <g clip-path="url(#_clip1)">
                    <rect x="0" y="0" width="200" height="200" style="fill:rgb(12,19,38);"/>
                    <g>
                        <path d="M31.4,88.6L88.6,31.4C94.9,25.1 105.2,25.1 111.5,31.4L168.7,88.6C175,94.9 175,105.2 168.7,111.5L111.5,168.7C105.2,175 94.9,175 88.6,168.7L31.4,111.5C25.1,105.1 25.1,94.9 31.4,88.6Z" style="fill:none;fill-rule:nonzero;stroke:rgb(84,132,255);stroke-width:13.77px;"/>
                        <g transform="matrix(1,0,0,1,53.576,119.73)">
                            <path d="M13.864,-36.472C14.725,-36.472 15.437,-36.39 16,-36.224C16.563,-36.058 16.994,-35.868 17.292,-35.653C17.59,-35.437 17.814,-35.089 17.963,-34.609C18.112,-34.129 18.195,-33.731 18.211,-33.417C18.228,-33.102 18.236,-32.613 18.236,-31.951L18.236,-4.273C18.236,-3.511 18.211,-2.94 18.162,-2.559C18.112,-2.178 17.955,-1.739 17.69,-1.242C17.425,-0.745 16.977,-0.398 16.348,-0.199C15.719,0 14.874,0.099 13.814,0.099C12.787,0.099 11.959,0 11.329,-0.199C10.7,-0.398 10.253,-0.737 9.988,-1.217C9.723,-1.698 9.565,-2.145 9.516,-2.559C9.466,-2.973 9.441,-3.578 9.441,-4.373L9.441,-22.112L8.795,-21.516C7.437,-20.489 6.311,-19.975 5.416,-19.975C4.389,-19.975 3.429,-20.472 2.534,-21.466C1.342,-22.791 0.745,-23.917 0.745,-24.845C0.745,-25.706 1.342,-26.667 2.534,-27.727L10.683,-35.081L10.832,-35.181C11.694,-36.042 12.704,-36.472 13.864,-36.472Z" style="fill:white;fill-rule:nonzero;"/>
                            <path d="M29.913,-8.199C30.477,-7.636 30.758,-6.476 30.758,-4.721L30.758,-4.522C30.758,-3.727 30.733,-3.139 30.684,-2.758C30.634,-2.377 30.468,-1.921 30.187,-1.391C29.905,-0.861 29.433,-0.489 28.771,-0.273C28.108,-0.058 27.214,0.05 26.087,0.05C24.298,0.05 23.056,-0.298 22.36,-0.994C21.764,-1.557 21.466,-2.716 21.466,-4.472L21.466,-4.671C21.466,-5.433 21.491,-6.012 21.541,-6.41C21.59,-6.808 21.748,-7.263 22.013,-7.776C22.278,-8.29 22.75,-8.663 23.429,-8.895C24.108,-9.126 25.011,-9.242 26.137,-9.242C27.893,-9.242 29.151,-8.895 29.913,-8.199Z" style="fill:white;fill-rule:nonzero;"/>
                            <path d="M57.143,-8.745C57.939,-8.745 58.535,-8.712 58.932,-8.646C59.33,-8.58 59.761,-8.422 60.224,-8.174C60.688,-7.926 61.019,-7.478 61.218,-6.832C61.417,-6.186 61.516,-5.333 61.516,-4.273C61.516,-3.246 61.409,-2.418 61.193,-1.789C60.978,-1.159 60.63,-0.721 60.15,-0.472C59.669,-0.224 59.222,-0.066 58.808,0C58.394,0.066 57.806,0.099 57.044,0.099L37.615,0.099C36.423,0.099 35.396,-0.348 34.535,-1.242C33.673,-2.137 33.243,-3.18 33.243,-4.373C33.243,-6.162 33.864,-7.81 35.106,-9.317C36.348,-10.824 37.847,-12.116 39.603,-13.193C41.359,-14.269 43.114,-15.329 44.87,-16.373C46.626,-17.416 48.125,-18.601 49.367,-19.926C50.609,-21.251 51.23,-22.659 51.23,-24.149C51.23,-24.249 51.214,-24.39 51.181,-24.572C51.148,-24.754 51.032,-25.077 50.833,-25.541C50.634,-26.004 50.394,-26.41 50.112,-26.758C49.831,-27.106 49.392,-27.429 48.796,-27.727C48.199,-28.025 47.504,-28.174 46.709,-28.174C45.384,-28.174 44.332,-27.785 43.553,-27.007C42.775,-26.228 42.336,-25.458 42.236,-24.696L42.038,-23.553L42.038,-23.255C42.038,-22.526 42.013,-21.98 41.963,-21.615C41.914,-21.251 41.756,-20.845 41.491,-20.398C41.226,-19.951 40.779,-19.636 40.15,-19.454C39.52,-19.271 38.675,-19.18 37.615,-19.18C36.754,-19.18 36.042,-19.263 35.479,-19.429C34.916,-19.594 34.485,-19.793 34.187,-20.025C33.889,-20.257 33.665,-20.597 33.516,-21.044C33.367,-21.491 33.284,-21.872 33.267,-22.187C33.251,-22.501 33.243,-22.973 33.243,-23.603C33.243,-27.048 34.477,-30.137 36.945,-32.87C39.412,-35.603 42.651,-36.969 46.659,-36.969C50.634,-36.969 53.864,-35.586 56.348,-32.82C58.833,-30.054 60.075,-26.899 60.075,-23.354C60.075,-21.466 59.661,-19.677 58.833,-17.988C58.005,-16.298 57.003,-14.932 55.827,-13.888C54.651,-12.845 53.475,-11.934 52.299,-11.155C51.123,-10.377 50.121,-9.822 49.292,-9.491L48.05,-8.994L48.05,-8.745L57.143,-8.745Z" style="fill:white;fill-rule:nonzero;"/>
                            <path d="M77.417,-36.969C79.67,-36.969 81.649,-36.522 83.355,-35.628C85.061,-34.733 86.403,-33.624 87.38,-32.298C88.357,-30.973 89.144,-29.416 89.74,-27.628C90.336,-25.839 90.734,-24.191 90.933,-22.683C91.131,-21.176 91.231,-19.661 91.231,-18.137C91.231,-16.514 91.131,-14.932 90.933,-13.391C90.734,-11.851 90.328,-10.203 89.715,-8.447C89.102,-6.692 88.316,-5.159 87.355,-3.851C86.394,-2.542 85.061,-1.458 83.355,-0.596C81.649,0.265 79.703,0.696 77.516,0.696C75.198,0.696 73.169,0.257 71.429,-0.621C69.69,-1.499 68.332,-2.584 67.355,-3.876C66.378,-5.168 65.583,-6.708 64.97,-8.497C64.357,-10.286 63.959,-11.942 63.777,-13.466C63.595,-14.99 63.504,-16.563 63.504,-18.187C63.504,-19.677 63.595,-21.151 63.777,-22.609C63.959,-24.067 64.349,-25.698 64.945,-27.503C65.541,-29.309 66.32,-30.882 67.28,-32.224C68.241,-33.566 69.591,-34.692 71.33,-35.603C73.069,-36.514 75.098,-36.969 77.417,-36.969ZM77.318,-8.149C80.73,-8.149 82.436,-11.396 82.436,-17.888L82.436,-18.187C82.436,-24.845 80.746,-28.174 77.367,-28.174C73.988,-28.174 72.299,-24.828 72.299,-18.137C72.299,-11.478 73.972,-8.149 77.318,-8.149Z" style="fill:white;fill-rule:nonzero;"/>
                        </g>
                    </g>
                </g>
            </g>
        </g>
    </g>
</svg>
