<?xml version="1.0" encoding="UTF-8" standalone="no"?>
<!DOCTYPE svg PUBLIC "-//W3C//DTD SVG 1.1//EN" "http://www.w3.org/Graphics/SVG/1.1/DTD/svg11.dtd">
<svg width="100%" height="100%" viewBox="0 0 200 200" version="1.1" xmlns="http://www.w3.org/2000/svg" xmlns:xlink="http://www.w3.org/1999/xlink" xml:space="preserve" xmlns:serif="http://www.serif.com/" style="fill-rule:evenodd;clip-rule:evenodd;stroke-miterlimit:10;">
    <g transform="matrix(1,0,0,1,-630,-2070)">
        <g transform="matrix(1,0,0,1,3,0)">
            <g id="carnival-full-modfest" serif:id="carnival/full-modfest" transform="matrix(1,0,0,1,627,2070)">
                <rect x="0" y="0" width="200" height="200" style="fill:none;"/>
                <clipPath id="_clip1">
                    <rect x="0" y="0" width="200" height="200"/>
                </clipPath>
                <g clip-path="url(#_clip1)">
                    <g>
                        <rect x="0" y="0" width="200" height="200" style="fill:url(#_Linear2);"/>
                    </g>
                    <g id="Layer6" transform="matrix(1.00025,0,0,1,-0.0500125,0)">
                        <rect x="0.05" y="0" width="199.95" height="200" style="fill-opacity:0.77;"/>
                    </g>
                    <g id="Layer3" transform="matrix(1.16718,0,0,1.05621,-16.9381,-20.8629)">
                        <g opacity="0.37">
                            <g transform="matrix(0.885871,0,0,1,11.6008,1.92375)">
                                <path d="M33.32,121.595C21.206,116.723 15.466,112.138 15.466,112.138C10.955,108.719 8.697,103.172 9.569,97.654C10.441,92.135 14.305,87.515 19.66,85.591C19.66,85.591 35.211,79.766 55.959,62.581C77.139,45.039 86.81,30.585 86.81,30.585C91.489,23.458 101.198,21.391 108.478,25.972C110.453,27.214 112.047,28.819 113.229,30.641C114.053,31.841 123.829,45.8 144.091,62.581C164.839,79.766 180.39,85.591 180.39,85.591C185.742,87.514 189.606,92.131 190.48,97.646C191.354,103.161 189.102,108.707 184.597,112.128C184.597,112.128 176.984,118.224 160.766,123.83C162.888,123.119 164.871,122.397 166.718,121.678C164.367,139.214 167.357,155.44 171.84,171.294C172.017,171.879 172.127,172.473 172.174,173.066C172.288,174.503 172.026,175.912 171.454,177.182C170.884,178.452 169.999,179.593 168.839,180.48C168.347,180.858 167.809,181.187 167.231,181.458C165.545,182.277 152.103,188.585 131.061,192.246L130.661,191.809C130.661,191.809 117.883,177.865 112.829,169.654C108.824,163.148 105.595,156.622 103.7,151.264L100.546,142.351L97.392,151.264C95.497,156.622 92.269,163.148 88.264,169.654C83.268,177.769 77.064,185.859 70.668,191.575L69.975,192.194C47.285,188.288 32.83,181.462 32.83,181.462C28.999,179.667 27.034,175.44 28.17,171.434C32.682,155.51 35.698,139.214 33.32,121.595ZM69.827,91.121C66.564,93.631 63.429,95.901 60.451,97.946C63.303,98.638 66.4,99.288 69.746,99.865C76.459,101.023 84.177,101.884 92.934,102.192L99.922,111.173C104.276,105.532 107.904,100.853 110.806,97.136C111.657,97.79 112.53,98.556 113.427,99.434L115.738,101.696C121.015,101.267 125.849,100.638 130.251,99.882C133.622,99.303 136.739,98.649 139.608,97.953C136.606,95.891 133.443,93.601 130.152,91.066C128.448,89.753 126.709,88.374 124.939,86.927C124.572,86.627 124.204,86.324 123.835,86.018C113.758,77.672 105.872,69.87 100.016,63.483C94.169,69.872 86.29,77.673 76.215,86.018C75.846,86.324 75.479,86.626 75.112,86.926C73.318,88.394 71.555,89.791 69.827,91.121Z" style="fill:url(#_Linear3);"/>
                            </g>
                        </g>
                    </g>
                    <g transform="matrix(0.99975,0,0,0.99975,0,0)">
                        <g transform="matrix(1,0,0,1,7.10543e-14,-0.05)">
                            <path d="M31.4,88.6L88.6,31.4C94.9,25.1 105.2,25.1 111.5,31.4L168.7,88.6C175,94.9 175,105.2 168.7,111.5L111.5,168.7C105.2,175 94.9,175 88.6,168.7L31.4,111.5C25.1,105.1 25.1,94.9 31.4,88.6Z" style="fill:none;fill-rule:nonzero;stroke:url(#_Linear4);stroke-width:13.77px;"/>
                        </g>
                        <g transform="matrix(1.00025,0,0,1.00025,65.5664,130.933)">
                            <path d="M58.759,-57.967C60.396,-57.967 61.715,-57.809 62.718,-57.492C63.722,-57.175 64.434,-56.621 64.857,-55.829C65.279,-55.037 65.53,-54.324 65.609,-53.691C65.688,-53.057 65.728,-52.133 65.728,-50.919L65.728,-6.969C65.728,-5.754 65.675,-4.844 65.569,-4.237C65.464,-3.63 65.213,-2.943 64.817,-2.178C64.421,-1.412 63.722,-0.871 62.718,-0.554C61.715,-0.238 60.369,-0.079 58.68,-0.079C57.307,-0.079 56.172,-0.211 55.275,-0.475C54.377,-0.739 53.691,-1.056 53.216,-1.425C52.741,-1.795 52.384,-2.336 52.147,-3.049C51.909,-3.762 51.777,-4.369 51.751,-4.87C51.724,-5.372 51.711,-6.124 51.711,-7.127L51.711,-33.656C50.391,-32.019 48.464,-29.419 45.93,-25.856C43.396,-22.292 41.522,-19.745 40.308,-18.214C40.149,-17.95 39.938,-17.646 39.674,-17.303C39.41,-16.96 38.764,-16.485 37.734,-15.878C36.705,-15.27 35.583,-14.967 34.368,-14.967C33.207,-14.967 32.138,-15.244 31.161,-15.798C30.185,-16.353 29.485,-16.894 29.063,-17.422L28.429,-18.293C27.373,-19.613 25.288,-22.424 22.173,-26.727C19.058,-31.029 17.369,-33.339 17.105,-33.656L17.105,-6.969C17.105,-5.754 17.065,-4.844 16.986,-4.237C16.907,-3.63 16.656,-2.943 16.234,-2.178C15.812,-1.412 15.099,-0.871 14.096,-0.554C13.093,-0.238 11.747,-0.079 10.057,-0.079C8.421,-0.079 7.114,-0.238 6.137,-0.554C5.161,-0.871 4.461,-1.412 4.039,-2.178C3.616,-2.943 3.366,-3.643 3.286,-4.276C3.207,-4.91 3.168,-5.86 3.168,-7.127L3.168,-51.078C3.168,-52.292 3.207,-53.202 3.286,-53.81C3.366,-54.417 3.616,-55.103 4.039,-55.869C4.461,-56.634 5.174,-57.175 6.177,-57.492C7.18,-57.809 8.526,-57.967 10.216,-57.967C11.641,-57.967 12.868,-57.796 13.898,-57.452C14.927,-57.109 15.6,-56.753 15.917,-56.383L16.392,-55.908L34.368,-32.31C43.343,-44.188 49.335,-52.028 52.345,-55.829C53.242,-57.254 55.38,-57.967 58.759,-57.967Z" style="fill:white;fill-rule:nonzero;"/>
                        </g>
                    </g>
                </g>
            </g>
        </g>
    </g>
    <defs>
        <linearGradient id="_Linear2" x1="0" y1="0" x2="1" y2="0" gradientUnits="userSpaceOnUse" gradientTransform="matrix(200,0,0,200,0,100)"><stop offset="0" style="stop-color:rgb(34,196,0);stop-opacity:1"/><stop offset="0.23" style="stop-color:rgb(25,188,23);stop-opacity:1"/><stop offset="0.49" style="stop-color:rgb(0,167,86);stop-opacity:1"/><stop offset="1" style="stop-color:rgb(0,126,147);stop-opacity:1"/></linearGradient>
        <linearGradient id="_Linear3" x1="0" y1="0" x2="1" y2="0" gradientUnits="userSpaceOnUse" gradientTransform="matrix(181.282,0,0,181.282,9.38418,107.891)"><stop offset="0" style="stop-color:rgb(34,196,0);stop-opacity:1"/><stop offset="0.23" style="stop-color:rgb(25,188,23);stop-opacity:1"/><stop offset="0.49" style="stop-color:rgb(0,167,86);stop-opacity:1"/><stop offset="1" style="stop-color:rgb(0,126,147);stop-opacity:1"/></linearGradient>
        <linearGradient id="_Linear4" x1="0" y1="0" x2="1" y2="0" gradientUnits="userSpaceOnUse" gradientTransform="matrix(146.75,0,0,146.75,26.675,100.05)"><stop offset="0" style="stop-color:rgb(206,255,97);stop-opacity:1"/><stop offset="0.23" style="stop-color:rgb(176,255,104);stop-opacity:1"/><stop offset="0.49" style="stop-color:rgb(95,255,122);stop-opacity:1"/><stop offset="1" style="stop-color:rgb(0,228,196);stop-opacity:1"/></linearGradient>
    </defs>
</svg>
