<?xml version="1.0" encoding="UTF-8" standalone="no"?>
<!DOCTYPE svg PUBLIC "-//W3C//DTD SVG 1.1//EN" "http://www.w3.org/Graphics/SVG/1.1/DTD/svg11.dtd">
<svg width="100%" height="100%" viewBox="0 0 85 85" version="1.1" xmlns="http://www.w3.org/2000/svg" xmlns:xlink="http://www.w3.org/1999/xlink" xml:space="preserve" xmlns:serif="http://www.serif.com/" style="fill-rule:evenodd;clip-rule:evenodd;stroke-linejoin:round;stroke-miterlimit:2;">
    <g transform="matrix(1,0,0,1,-716,-494)">
        <g id="ModFest-Carnival-Ticket" serif:id="ModFest Carnival Ticket" transform="matrix(1,0,0,1,12.5341,452.388)">
            <rect x="703.532" y="41.832" width="84.274" height="84.274" style="fill:none;"/>
            <g transform="matrix(0.865803,0.865803,-0.535219,0.535219,312.092,-478.907)">
                <path d="M556.676,121.072L556.676,121.068L556.676,81.883C556.676,79.804 557.186,77.811 558.094,76.341C559.003,74.872 560.235,74.046 561.52,74.046L567.631,74.046C568.335,74.046 568.958,74.779 569.176,75.861C570.146,80.686 572.95,84.178 576.255,84.178C579.56,84.178 582.365,80.686 583.335,75.861C583.552,74.779 584.176,74.046 584.879,74.046L590.99,74.046C592.275,74.046 593.507,74.872 594.416,76.341C595.324,77.811 595.835,79.804 595.835,81.883L595.835,121.072L595.834,121.076L595.799,160.273C595.795,164.597 593.627,168.098 590.954,168.098L584.839,168.098C584.135,168.098 583.511,167.366 583.294,166.283C582.324,161.458 579.519,157.966 576.214,157.966C572.91,157.966 570.105,161.458 569.135,166.283C568.917,167.366 568.294,168.098 567.59,168.098L561.484,168.098C560.198,168.098 558.965,167.271 558.056,165.799C557.147,164.327 556.638,162.33 556.64,160.25L556.676,121.072ZM565.209,107.792C565.209,109.4 565.481,110.963 566.026,112.482C566.57,114 567.073,115.106 567.534,115.798C567.994,116.49 568.434,117.082 568.853,117.574C566.424,119.807 565.209,123.201 565.209,127.757C565.209,128.65 565.314,129.532 565.523,130.403C565.733,131.274 565.97,131.977 566.235,132.513C566.5,133.049 566.808,133.563 567.157,134.054C567.506,134.546 567.743,134.858 567.869,134.992L568.183,135.327C567.233,135.327 566.507,135.707 566.005,136.466C565.502,137.225 565.251,138.699 565.251,140.888C565.251,142.317 565.335,143.456 565.502,144.305C565.67,145.153 565.956,145.756 566.361,146.113C566.766,146.471 567.129,146.683 567.45,146.75C567.771,146.817 568.253,146.85 568.895,146.85L583.639,146.85C584.309,146.85 584.798,146.817 585.105,146.75C585.412,146.683 585.775,146.482 586.194,146.147C586.613,145.812 586.906,145.22 587.074,144.372C587.241,143.523 587.325,142.406 587.325,141.022C587.325,139.593 587.241,138.454 587.074,137.605C586.906,136.756 586.62,136.153 586.215,135.796C585.81,135.439 585.447,135.227 585.126,135.16C584.805,135.093 584.323,135.059 583.681,135.059L576.267,135.059C573.838,135.059 572.623,133.719 572.623,131.04C572.623,128.27 573.838,126.886 576.267,126.886L583.597,126.886C584.24,126.886 584.721,126.852 585.042,126.785C585.364,126.718 585.734,126.517 586.152,126.182C586.571,125.847 586.871,125.256 587.053,124.407C587.234,123.558 587.325,122.442 587.325,121.057C587.325,119.628 587.241,118.489 587.074,117.64C586.906,116.792 586.613,116.189 586.194,115.832C585.775,115.474 585.412,115.262 585.105,115.195C584.798,115.128 584.309,115.095 583.639,115.095L576.309,115.095C575.136,115.095 574.229,114.816 573.586,114.257C572.944,113.699 572.623,112.638 572.623,111.075C572.623,108.306 573.838,106.921 576.267,106.921L583.597,106.921C584.24,106.921 584.721,106.888 585.042,106.821C585.364,106.754 585.734,106.553 586.152,106.218C586.571,105.883 586.871,105.291 587.053,104.442C587.234,103.594 587.325,102.477 587.325,101.093C587.325,99.663 587.241,98.525 587.074,97.676C586.906,96.827 586.613,96.236 586.194,95.901C585.775,95.566 585.405,95.365 585.084,95.298C584.763,95.231 584.281,95.197 583.639,95.197L576.309,95.197C572.344,95.197 569.502,96.403 567.785,98.815C566.068,101.227 565.209,104.219 565.209,107.792Z" style="fill:white;"/>
            </g>
        </g>
    </g>
</svg>
