<?xml version="1.0" encoding="UTF-8" standalone="no"?>
<!DOCTYPE svg PUBLIC "-//W3C//DTD SVG 1.1//EN" "http://www.w3.org/Graphics/SVG/1.1/DTD/svg11.dtd">
<svg width="100%" height="100%" viewBox="0 0 190 190" version="1.1" xmlns="http://www.w3.org/2000/svg" xmlns:xlink="http://www.w3.org/1999/xlink" xml:space="preserve" xmlns:serif="http://www.serif.com/" style="fill-rule:evenodd;clip-rule:evenodd;stroke-miterlimit:10;">
    <g transform="matrix(1,0,0,1,-845,-2075)">
        <g transform="matrix(1,0,0,1,3,0)">
            <g id="carnival-transparent-modfest" serif:id="carnival/transparent-modfest" transform="matrix(0.95,0,0,0.95,842,2075)">
                <rect x="0" y="0" width="200" height="200" style="fill:none;"/>
                <clipPath id="_clip1">
                    <rect x="0" y="0" width="200" height="200"/>
                </clipPath>
                <g clip-path="url(#_clip1)">
                    <g id="ModFest-Carnival-Transparent" serif:id="ModFest Carnival Transparent" transform="matrix(1.05263,0,0,1.05263,-5.21447,-5.26316)">
                        <rect x="0" y="0" width="200" height="200" style="fill:none;"/>
                        <g>
                            <g transform="matrix(1,0,0,1,0.05,0)">
                                <path d="M199.95,0L200,0L200,200L199.95,200L199.95,0ZM29.295,108.905C17.94,104.035 12.547,99.635 12.547,99.635C7.882,96.023 5.546,90.163 6.448,84.333C7.349,78.502 11.346,73.622 16.884,71.588C16.884,71.588 32.968,65.435 54.426,47.279C76.331,28.747 86.332,13.476 86.332,13.476C91.172,5.947 101.213,3.763 108.742,8.603C110.785,9.915 112.434,11.611 113.656,13.535C114.508,14.803 124.619,29.551 145.574,47.279C167.032,65.435 183.116,71.588 183.116,71.588C188.651,73.621 192.647,78.497 193.551,84.324C194.455,90.151 192.126,96.01 187.467,99.624C187.467,99.624 182.079,104.031 170.724,108.906C170.164,109.757 169.515,110.566 168.778,111.32C166.725,129.232 169.771,145.868 174.273,162.132C174.457,162.75 174.57,163.377 174.618,164.004C174.737,165.521 174.466,167.011 173.874,168.351C173.285,169.693 172.369,170.899 171.17,171.836C170.661,172.235 170.104,172.583 169.506,172.869C167.763,173.734 153.861,180.399 132.098,184.267L131.684,183.805C131.684,183.805 121.871,172.864 115.812,164.288L111.45,168.65C105.15,174.95 94.85,174.95 88.55,168.65L84.923,165.023C80.347,171.975 75.059,178.609 69.638,183.558L68.921,184.212C45.455,180.085 30.505,172.873 30.505,172.873C26.542,170.977 24.511,166.512 25.685,162.279C30.211,145.967 33.281,129.285 31.221,111.317C30.492,110.561 29.85,109.752 29.295,108.905Z" style="fill:url(#_Linear2);"/>
                            </g>
                            <g id="Layer6">
                                <path d="M29.345,108.905C17.99,104.035 12.597,99.635 12.597,99.635C7.932,96.023 5.596,90.163 6.498,84.333C7.399,78.502 11.396,73.622 16.934,71.588C16.934,71.588 33.018,65.435 54.476,47.279C76.381,28.747 86.382,13.476 86.382,13.476C91.222,5.947 101.263,3.763 108.792,8.603C110.835,9.915 112.484,11.611 113.706,13.535C114.558,14.803 124.669,29.551 145.624,47.279C167.082,65.435 183.166,71.588 183.166,71.588C188.701,73.621 192.697,78.497 193.601,84.324C194.505,90.151 192.176,96.01 187.517,99.624C187.517,99.624 182.129,104.031 170.774,108.906C170.214,109.757 169.565,110.566 168.828,111.32C166.775,129.232 169.821,145.868 174.323,162.132C174.507,162.75 174.62,163.377 174.668,164.004C174.787,165.521 174.516,167.011 173.924,168.351C173.335,169.693 172.419,170.899 171.22,171.836C170.711,172.235 170.154,172.583 169.556,172.869C167.813,173.734 153.911,180.399 132.148,184.267L131.734,183.805C131.734,183.805 121.921,172.864 115.862,164.288L111.5,168.65C105.2,174.95 94.9,174.95 88.6,168.65L84.973,165.023C80.397,171.975 75.109,178.609 69.688,183.558L68.971,184.212C45.505,180.085 30.555,172.873 30.555,172.873C26.592,170.977 24.561,166.512 25.735,162.279C30.261,145.967 33.331,129.285 31.271,111.317C30.542,110.561 29.9,109.752 29.345,108.905Z" style="fill-opacity:0.8;"/>
                            </g>
                            <g id="Layer3" transform="matrix(1.16747,0,0,1.05647,-16.9423,-20.8681)">
                                <g opacity="0.13">
                                    <g transform="matrix(0.885871,0,0,1,11.6008,1.92375)">
                                        <path d="M33.32,121.595C21.206,116.723 15.466,112.138 15.466,112.138C10.955,108.719 8.697,103.172 9.569,97.654C10.441,92.135 14.305,87.515 19.66,85.591C19.66,85.591 35.211,79.766 55.959,62.581C77.139,45.039 86.81,30.585 86.81,30.585C91.489,23.458 101.198,21.391 108.478,25.972C110.453,27.214 112.047,28.819 113.229,30.641C114.053,31.841 123.829,45.8 144.091,62.581C164.839,79.766 180.39,85.591 180.39,85.591C185.742,87.514 189.606,92.131 190.48,97.646C191.354,103.161 189.102,108.707 184.597,112.128C184.597,112.128 176.984,118.224 160.766,123.83C162.888,123.119 164.871,122.397 166.718,121.678C164.367,139.214 167.357,155.44 171.84,171.294C172.017,171.879 172.127,172.473 172.174,173.066C172.288,174.503 172.026,175.912 171.454,177.182C170.884,178.452 169.999,179.593 168.839,180.48C168.347,180.858 167.809,181.187 167.231,181.458C165.545,182.277 152.103,188.585 131.061,192.246L130.661,191.809C130.661,191.809 117.883,177.865 112.829,169.654C108.824,163.148 105.595,156.622 103.7,151.264L100.546,142.351L97.392,151.264C95.497,156.622 92.269,163.148 88.264,169.654C83.268,177.769 77.064,185.859 70.668,191.575L69.975,192.194C47.285,188.288 32.83,181.462 32.83,181.462C28.999,179.667 27.034,175.44 28.17,171.434C32.682,155.51 35.698,139.214 33.32,121.595ZM69.759,91.173C66.521,93.663 63.408,95.915 60.451,97.946C63.285,98.634 66.362,99.281 69.685,99.855C76.399,101.015 84.119,101.88 92.882,102.19L99.853,111.15C104.224,105.487 107.862,100.794 110.77,97.071C111.647,97.739 112.549,98.527 113.476,99.434L115.783,101.692C121.011,101.266 125.805,100.643 130.175,99.895C133.575,99.312 136.718,98.654 139.608,97.953C136.581,95.874 133.391,93.563 130.071,91.003C128.387,89.705 126.67,88.343 124.923,86.914C124.562,86.618 124.199,86.32 123.835,86.018C113.758,77.672 105.872,69.87 100.016,63.483C94.169,69.872 86.29,77.673 76.215,86.018C75.856,86.316 75.498,86.611 75.141,86.903C73.313,88.398 71.517,89.821 69.759,91.173Z" style="fill:rgb(184,178,116);"/>
                                    </g>
                                </g>
                            </g>
                            <g transform="matrix(1,0,0,1,7.10543e-14,-0.05)">
                                <path d="M31.4,88.6L88.6,31.4C94.9,25.1 105.2,25.1 111.5,31.4L168.7,88.6C175,94.9 175,105.2 168.7,111.5L111.5,168.7C105.2,175 94.9,175 88.6,168.7L31.4,111.5C25.1,105.1 25.1,94.9 31.4,88.6Z" style="fill:none;fill-rule:nonzero;stroke:url(#_Linear3);stroke-width:13.77px;"/>
                            </g>
                        </g>
                    </g>
                    <g transform="matrix(1.05263,0,0,1.05263,63.7368,132.526)">
                        <path d="M58.759,-57.967C60.396,-57.967 61.715,-57.809 62.718,-57.492C63.722,-57.175 64.434,-56.621 64.857,-55.829C65.279,-55.037 65.53,-54.324 65.609,-53.691C65.688,-53.057 65.728,-52.133 65.728,-50.919L65.728,-6.969C65.728,-5.754 65.675,-4.844 65.569,-4.237C65.464,-3.63 65.213,-2.943 64.817,-2.178C64.421,-1.412 63.722,-0.871 62.718,-0.554C61.715,-0.238 60.369,-0.079 58.68,-0.079C57.307,-0.079 56.172,-0.211 55.275,-0.475C54.377,-0.739 53.691,-1.056 53.216,-1.425C52.741,-1.795 52.384,-2.336 52.147,-3.049C51.909,-3.762 51.777,-4.369 51.751,-4.87C51.724,-5.372 51.711,-6.124 51.711,-7.127L51.711,-33.656C50.391,-32.019 48.464,-29.419 45.93,-25.856C43.396,-22.292 41.522,-19.745 40.308,-18.214C40.149,-17.95 39.938,-17.646 39.674,-17.303C39.41,-16.96 38.764,-16.485 37.734,-15.878C36.705,-15.27 35.583,-14.967 34.368,-14.967C33.207,-14.967 32.138,-15.244 31.161,-15.798C30.185,-16.353 29.485,-16.894 29.063,-17.422L28.429,-18.293C27.373,-19.613 25.288,-22.424 22.173,-26.727C19.058,-31.029 17.369,-33.339 17.105,-33.656L17.105,-6.969C17.105,-5.754 17.065,-4.844 16.986,-4.237C16.907,-3.63 16.656,-2.943 16.234,-2.178C15.812,-1.412 15.099,-0.871 14.096,-0.554C13.093,-0.238 11.747,-0.079 10.057,-0.079C8.421,-0.079 7.114,-0.238 6.137,-0.554C5.161,-0.871 4.461,-1.412 4.039,-2.178C3.616,-2.943 3.366,-3.643 3.286,-4.276C3.207,-4.91 3.168,-5.86 3.168,-7.127L3.168,-51.078C3.168,-52.292 3.207,-53.202 3.286,-53.81C3.366,-54.417 3.616,-55.103 4.039,-55.869C4.461,-56.634 5.174,-57.175 6.177,-57.492C7.18,-57.809 8.526,-57.967 10.216,-57.967C11.641,-57.967 12.868,-57.796 13.898,-57.452C14.927,-57.109 15.6,-56.753 15.917,-56.383L16.392,-55.908L34.368,-32.31C43.343,-44.188 49.335,-52.028 52.345,-55.829C53.242,-57.254 55.38,-57.967 58.759,-57.967Z" style="fill:white;fill-rule:nonzero;"/>
                    </g>
                </g>
            </g>
        </g>
    </g>
    <defs>
        <linearGradient id="_Linear2" x1="0" y1="0" x2="1" y2="0" gradientUnits="userSpaceOnUse" gradientTransform="matrix(200,0,0,200,0,100)"><stop offset="0" style="stop-color:rgb(206,255,97);stop-opacity:1"/><stop offset="0.23" style="stop-color:rgb(176,255,104);stop-opacity:1"/><stop offset="0.49" style="stop-color:rgb(95,255,122);stop-opacity:1"/><stop offset="1" style="stop-color:rgb(0,228,196);stop-opacity:1"/></linearGradient>
        <linearGradient id="_Linear3" x1="0" y1="0" x2="1" y2="0" gradientUnits="userSpaceOnUse" gradientTransform="matrix(146.75,0,0,146.75,26.675,100.05)"><stop offset="0" style="stop-color:rgb(206,255,97);stop-opacity:1"/><stop offset="0.23" style="stop-color:rgb(176,255,104);stop-opacity:1"/><stop offset="0.49" style="stop-color:rgb(95,255,122);stop-opacity:1"/><stop offset="1" style="stop-color:rgb(0,228,196);stop-opacity:1"/></linearGradient>
    </defs>
</svg>
