<?xml version="1.0" encoding="UTF-8" standalone="no"?>
<!DOCTYPE svg PUBLIC "-//W3C//DTD SVG 1.1//EN" "http://www.w3.org/Graphics/SVG/1.1/DTD/svg11.dtd">
<svg width="100%" height="100%" viewBox="0 0 180 180" version="1.1" xmlns="http://www.w3.org/2000/svg" xmlns:xlink="http://www.w3.org/1999/xlink" xml:space="preserve" xmlns:serif="http://www.serif.com/" style="fill-rule:evenodd;clip-rule:evenodd;stroke-linejoin:round;stroke-miterlimit:2;">
    <g transform="matrix(1,0,0,1,-230,-2610)">
        <g transform="matrix(1,0,0,1,0,2600)">
            <g id="bc23-transparent" serif:id="bc23/transparent" transform="matrix(0.755823,0,0,0.755823,160.602,-179.108)">
                <rect x="91.817" y="250.202" width="238.151" height="238.151" style="fill:none;"/>
                <g transform="matrix(1.32306,0,0,1.32306,91.8172,250.2)">
                    <path d="M158.62,101.45L101.45,158.62C95.13,164.93 84.88,164.93 78.56,158.62L21.39,101.45C15.07,95.13 15.07,84.88 21.39,78.56L78.56,21.39C84.88,15.07 95.13,15.07 101.45,21.39L158.62,78.56C164.93,84.88 164.93,95.13 158.62,101.45Z" style="fill:rgb(49,19,41);fill-rule:nonzero;"/>
                </g>
                <g transform="matrix(0.120408,-0.120408,0.120408,0.120408,-247.02,-88.6352)">
                    <path d="M498.407,3521.42L498.407,4084.58C498.407,4204.25 401.251,4301.41 281.582,4301.41L-281.582,4301.41C-401.251,4301.41 -498.407,4204.25 -498.407,4084.58L-498.407,3521.42C-498.407,3401.75 -401.251,3304.59 -281.582,3304.59L281.582,3304.59C401.251,3304.59 498.407,3401.75 498.407,3521.42ZM-202.733,4132.78C-154.227,4179.94 -95.121,4203.21 -25.288,4202.26C38.814,4202.19 96.474,4179.32 147.317,4132.78L281.582,4132.78C308.181,4132.78 329.776,4111.18 329.776,4084.58L329.776,3923C370.395,3877.87 390.788,3824.06 390.857,3761.55C391.755,3700.24 371.504,3646.57 329.776,3600.67L329.776,3521.42C329.776,3494.82 308.181,3473.22 281.582,3473.22L202.772,3473.22L157.578,3428.03C140.079,3410.53 124.215,3398.58 110.543,3391.47C88.987,3380.26 68.176,3378.68 48.345,3384.72C32.714,3389.47 20.885,3395.58 12.39,3402.03C6.058,3406.85 -3.28,3415.23 -15.437,3427.38L-61.278,3473.22L-281.582,3473.22C-308.181,3473.22 -329.776,3494.82 -329.776,3521.42L-329.776,3741.72L-374.323,3786.27C-383.198,3795.14 -389.724,3801.93 -393.928,3806.6C-399.691,3813.01 -405.863,3821.97 -411.947,3833.82C-420.422,3850.32 -422.834,3865.9 -421.05,3880.18C-419.68,3891.14 -415.482,3904.37 -407.261,3919.44C-400.546,3931.75 -390.166,3945.38 -375.616,3959.93L-329.776,4005.77L-329.776,4084.58C-329.776,4111.18 -308.181,4132.78 -281.582,4132.78L-202.733,4132.78Z" style="fill:rgb(227,101,193);"/>
                </g>
                <g transform="matrix(0.811053,0,0,0.811053,-490.143,-10142.6)">
                    <path d="M910.417,12952.6C908.922,12954.8 909.061,12957.7 910.756,12959.7C917.356,12967.5 920.698,12976.3 920.712,12986C920.477,12997.1 916.803,13006.4 909.556,13013.6C909.536,13013.6 909.516,13013.6 909.496,13013.7C901.953,13021.4 892.922,13025.3 882.383,13025.3L831.887,13025.3C829.224,13025.3 827.017,13025.1 825.276,13024.6C823.959,13024.2 822.916,13023.8 822.219,13023.3C821.891,13023 821.762,13022.6 821.598,13022.1C821.21,13020.9 820.953,13019.9 820.91,13019.1C820.849,13017.9 820.822,13016.2 820.822,13013.9L820.822,12907.3C820.822,12904.6 820.887,12902.6 821.056,12901.4C821.174,12900.5 821.619,12899.5 822.248,12898.4C822.586,12897.7 823.24,12897.4 824.043,12897.1C826.037,12896.5 828.72,12896.3 832.079,12896.3L880.463,12896.3C890.566,12896.3 899.034,12899.7 905.843,12906.8C905.864,12906.8 905.886,12906.8 905.908,12906.8C913.083,12914 916.68,12922.6 916.68,12932.7C916.68,12939.9 914.588,12946.6 910.417,12952.6ZM898.39,12983.9C898.39,12980.1 897.847,12977 896.93,12974.7C895.609,12971.3 893.344,12969 890.223,12967.7C888.032,12966.8 886.085,12966.2 884.4,12966C882.927,12965.8 880.72,12965.6 877.775,12965.6C874.449,12965.6 871.946,12965.4 870.411,12964.2C869.919,12963.8 869.818,12963 869.622,12962.1C869.331,12960.8 869.206,12959.3 869.206,12957.4C869.206,12955.8 869.326,12954.4 869.613,12953.2C869.808,12952.4 869.957,12951.7 870.445,12951.3C872.093,12950.1 874.906,12949.8 878.735,12949.8C880.756,12949.8 882.311,12949.7 883.399,12949.6C884.863,12949.4 886.501,12948.8 888.279,12947.9C890.646,12946.7 892.412,12944.6 893.387,12941.7C893.986,12939.9 894.358,12937.5 894.358,12934.4C894.358,12927.6 891.88,12923.5 888.381,12921.4C885.587,12919.7 881.443,12918.6 875.855,12918.6L848.975,12918.6C845.754,12918.6 843.144,12921.2 843.144,12924.4L843.144,12997.2C843.144,13000.4 845.754,13003 848.975,13003L880.463,13003C882.223,13003 883.717,13002.9 884.949,13002.6C886.111,13002.3 887.743,13001.8 889.819,13000.9C892.632,12999.7 894.954,12997.4 896.529,12993.9C897.71,12991.3 898.39,12988 898.39,12983.9Z" style="fill:rgb(255,223,0);fill-rule:nonzero;"/>
                </g>
            </g>
        </g>
    </g>
</svg>
