<?xml version="1.0" encoding="UTF-8" standalone="no"?>
<!DOCTYPE svg PUBLIC "-//W3C//DTD SVG 1.1//EN" "http://www.w3.org/Graphics/SVG/1.1/DTD/svg11.dtd">
<svg width="100%" height="100%" viewBox="0 0 180 180" version="1.1" xmlns="http://www.w3.org/2000/svg" xmlns:xlink="http://www.w3.org/1999/xlink" xml:space="preserve" xmlns:serif="http://www.serif.com/" style="fill-rule:evenodd;clip-rule:evenodd;stroke-linejoin:round;stroke-miterlimit:2;">
    <g transform="matrix(1,0,0,1,-430,-3110)">
        <g transform="matrix(1,0,0,1,3,3154.98)">
            <g id="blanketcon-minimal-light" serif:id="blanketcon/minimal-light" transform="matrix(0.9,0,0,0.9,427,-44.9818)">
                <rect x="0" y="0" width="200" height="200" style="fill:none;"/>
                <g transform="matrix(1.11111,0,0,1.11111,0,0)">
                    <path d="M99.15,98.41C99.44,99.15 99.58,100.15 99.58,101.42C99.58,105.01 97.92,106.8 94.6,106.8L81.61,106.8L81.61,76.79L92.7,76.79C94.44,76.79 95.74,77.05 96.61,77.58C97.49,78.11 97.92,79.04 97.92,80.35C97.92,81.66 97.84,82.62 97.68,83.21C97.26,84.31 95.99,84.87 93.88,84.87C91.61,84.87 89.99,85.24 89.01,85.98C88.03,86.72 87.55,88.23 87.55,90.53C87.55,92.83 88.02,94.34 88.97,95.08C89.92,95.82 91.35,96.19 93.25,96.19C95.15,96.19 96.63,96.4 97.68,96.83C98.37,97.14 98.86,97.67 99.15,98.41Z" style="fill:rgb(26,38,61);fill-rule:nonzero;"/>
                </g>
                <g transform="matrix(1.11111,0,0,1.11111,0,0)">
                    <path d="M163.65,73.65L106.34,16.37C97.33,7.35 82.67,7.34 73.66,16.35L16.36,73.65C7.34,82.67 7.34,97.34 16.36,106.35L73.66,163.65C82.67,172.65 97.33,172.67 106.34,163.65L115.12,154.87L105.43,145.19C102.74,142.49 102.74,138.13 105.43,135.43C108.13,132.74 112.5,132.74 115.19,135.43L124.89,145.13L145.12,124.88L135.42,115.2C132.73,112.49 132.73,108.12 135.42,105.43C138.12,102.75 142.48,102.75 145.18,105.43L154.88,115.13L163.65,106.35C172.66,97.34 172.66,82.67 163.65,73.65ZM108.18,115.48C104.67,119.04 100.4,120.82 95.39,120.82L74.56,120.82C70.86,120.82 68.7,119.82 68.07,117.81C67.75,116.92 67.59,115.54 67.59,113.69L67.59,69.74C67.59,68.47 67.63,67.55 67.71,66.97C67.79,66.39 68.04,65.7 68.46,64.91C69.2,63.49 71.26,62.77 74.64,62.77L94.6,62.77C99.45,62.77 103.52,64.46 106.79,67.84C110.22,71.27 111.94,75.39 111.94,80.2C111.94,83.68 110.94,86.88 108.93,89.78C112.04,93.47 113.6,97.62 113.6,102.21C113.5,107.49 111.69,111.91 108.18,115.48Z" style="fill:rgb(26,38,61);fill-rule:nonzero;"/>
                </g>
            </g>
        </g>
    </g>
</svg>
