<?xml version="1.0" encoding="UTF-8" standalone="no"?>
<!DOCTYPE svg PUBLIC "-//W3C//DTD SVG 1.1//EN" "http://www.w3.org/Graphics/SVG/1.1/DTD/svg11.dtd">
<svg width="100%" height="100%" viewBox="0 0 180 180" version="1.1" xmlns="http://www.w3.org/2000/svg" xmlns:xlink="http://www.w3.org/1999/xlink" xml:space="preserve" xmlns:serif="http://www.serif.com/" style="fill-rule:evenodd;clip-rule:evenodd;stroke-linejoin:round;stroke-miterlimit:2;">
    <g transform="matrix(1,0,0,1,-220,-3110)">
        <g transform="matrix(1,0,0,1,3,3154.98)">
            <g id="blanketcon-transparent-light" serif:id="blanketcon/transparent-light" transform="matrix(0.9,0,0,0.9,217,-44.9818)">
                <rect x="0" y="0" width="200" height="200" style="fill:none;"/>
                <g transform="matrix(1.11111,0,0,1.11111,2.84217e-14,0)">
                    <path d="M163.64,106.35L154.88,115.13L145.18,105.43C142.48,102.74 138.12,102.74 135.42,105.43C132.73,108.12 132.73,112.49 135.42,115.19L145.12,124.87L124.89,145.12L115.19,135.42C112.5,132.73 108.13,132.73 105.43,135.42C102.74,138.12 102.74,142.48 105.43,145.18L115.13,154.86L106.35,163.64C97.34,172.65 82.68,172.64 73.67,163.64L16.36,106.35C7.35,97.34 7.35,82.66 16.36,73.65L73.66,16.35C82.67,7.34 97.33,7.35 106.34,16.37L163.64,73.66C172.65,82.67 172.65,97.35 163.64,106.36L163.64,106.35Z" style="fill:rgb(26,38,61);fill-rule:nonzero;"/>
                </g>
                <g transform="matrix(1.11111,0,0,1.11111,71.5778,134.333)">
                    <text x="0px" y="0px" style="font-family:'FredokaOne-Regular', 'Fredoka One';font-size:79.19px;fill:rgb(148,192,255);">B</text>
                </g>
            </g>
        </g>
    </g>
</svg>
