<?xml version="1.0" encoding="UTF-8" standalone="no"?>
<!DOCTYPE svg PUBLIC "-//W3C//DTD SVG 1.1//EN" "http://www.w3.org/Graphics/SVG/1.1/DTD/svg11.dtd">
<svg width="100%" height="100%" viewBox="0 0 180 180" version="1.1" xmlns="http://www.w3.org/2000/svg" xmlns:xlink="http://www.w3.org/1999/xlink" xml:space="preserve" xmlns:serif="http://www.serif.com/" style="fill-rule:evenodd;clip-rule:evenodd;stroke-miterlimit:10;">
    <g transform="matrix(1,0,0,1,-220,-2290)">
        <g transform="matrix(1,0,0,1,3,0)">
            <g id="flashfest-transparent" serif:id="flashfest/transparent" transform="matrix(0.9,0,0,0.9,217,2290)">
                <rect x="0" y="0" width="200" height="200" style="fill:none;"/>
                <clipPath id="_clip1">
                    <rect x="0" y="0" width="200" height="200"/>
                </clipPath>
                <g clip-path="url(#_clip1)">
                    <g transform="matrix(1.11111,0,0,1.11111,-11.1111,-11.1111)">
                        <path d="M168.61,111.45L111.44,168.62C105.12,174.93 94.88,174.93 88.56,168.62L31.39,111.45C25.07,105.13 25.07,94.88 31.39,88.56L88.56,31.39C94.88,25.07 105.12,25.07 111.44,31.39L168.61,88.56C174.93,94.88 174.93,105.13 168.61,111.45Z" style="fill:rgb(234,193,98);fill-rule:nonzero;stroke:rgb(23,29,35);stroke-width:13.77px;"/>
                    </g>
                    <g transform="matrix(0.916584,0,0,0.916584,85.76,139.253)">
                        <path d="M24.439,-19.202C25.757,-17.883 26.417,-15.633 26.417,-12.452L26.417,-10.59C26.417,-8.728 26.359,-7.351 26.242,-6.459C26.126,-5.567 25.738,-4.5 25.079,-3.258C24.419,-2.017 23.314,-1.144 21.762,-0.64C20.21,-0.136 18.116,0.116 15.478,0.116C11.288,0.116 8.379,-0.698 6.75,-2.327C5.353,-3.724 4.655,-6.595 4.655,-10.939C4.655,-12.724 4.733,-14.081 4.888,-15.012C5.043,-15.943 5.431,-17.01 6.051,-18.213C6.672,-19.415 7.778,-20.288 9.368,-20.831C10.959,-21.374 13.034,-21.646 15.594,-21.646C19.784,-21.646 22.732,-20.831 24.439,-19.202ZM21.413,-31.305C19.939,-30.917 17.96,-30.723 15.478,-30.723C12.995,-30.723 11.017,-30.917 9.543,-31.305C8.069,-31.693 7.041,-32.391 6.459,-33.399C5.877,-34.408 5.528,-35.3 5.411,-36.076C5.295,-36.852 5.237,-38.054 5.237,-39.684L5.237,-76.574C5.237,-78.203 5.295,-79.425 5.411,-80.24C5.528,-81.054 5.896,-81.966 6.517,-82.975C7.138,-83.983 8.185,-84.701 9.659,-85.128C11.133,-85.554 13.111,-85.768 15.594,-85.768C18.077,-85.768 20.055,-85.554 21.529,-85.128C23.003,-84.701 24.031,-83.964 24.613,-82.916C25.195,-81.869 25.544,-80.938 25.66,-80.123C25.777,-79.309 25.835,-78.087 25.835,-76.458L25.835,-39.567C25.835,-37.938 25.777,-36.735 25.66,-35.96C25.544,-35.184 25.176,-34.311 24.555,-33.341C23.934,-32.371 22.887,-31.693 21.413,-31.305Z" style="fill:rgb(23,29,35);fill-rule:nonzero;"/>
                    </g>
                </g>
            </g>
        </g>
    </g>
</svg>
