<?xml version="1.0" encoding="UTF-8" standalone="no"?>
<!DOCTYPE svg PUBLIC "-//W3C//DTD SVG 1.1//EN" "http://www.w3.org/Graphics/SVG/1.1/DTD/svg11.dtd">
<svg width="100%" height="100%" viewBox="0 0 200 200" version="1.1" xmlns="http://www.w3.org/2000/svg" xmlns:xlink="http://www.w3.org/1999/xlink" xml:space="preserve" xmlns:serif="http://www.serif.com/" style="fill-rule:evenodd;clip-rule:evenodd;stroke-miterlimit:10;">
    <g transform="matrix(1,0,0,1,0,-600)">
        <g transform="matrix(1,0,0,1,3,0)">
            <g id="_1.14-full" serif:id="1.14/full" transform="matrix(1,0,0,1,-3,600)">
                <rect x="0" y="0" width="200" height="200" style="fill:none;"/>
                <clipPath id="_clip1">
                    <rect x="0" y="0" width="200" height="200"/>
                </clipPath>
                <g clip-path="url(#_clip1)">
                    <g transform="matrix(1.00003,0,0,1,-0.00571483,-1.13687e-13)">
                        <rect x="0" y="0" width="200" height="200" style="fill:rgb(28,19,58);"/>
                    </g>
                    <g transform="matrix(1,0,0,1,0.00285742,0)">
                        <g transform="matrix(1,0,0,1,59.18,119.73)">
                            <g>
                                <path d="M13.864,-36.472C14.725,-36.472 15.437,-36.39 16,-36.224C16.563,-36.058 16.994,-35.868 17.292,-35.653C17.59,-35.437 17.814,-35.089 17.963,-34.609C18.112,-34.129 18.195,-33.731 18.211,-33.417C18.228,-33.102 18.236,-32.613 18.236,-31.951L18.236,-4.273C18.236,-3.511 18.211,-2.94 18.162,-2.559C18.112,-2.178 17.955,-1.739 17.69,-1.242C17.425,-0.745 16.977,-0.398 16.348,-0.199C15.719,0 14.874,0.099 13.814,0.099C12.787,0.099 11.959,0 11.329,-0.199C10.7,-0.398 10.253,-0.737 9.988,-1.217C9.723,-1.698 9.565,-2.145 9.516,-2.559C9.466,-2.973 9.441,-3.578 9.441,-4.373L9.441,-22.112L8.795,-21.516C7.437,-20.489 6.311,-19.975 5.416,-19.975C4.389,-19.975 3.429,-20.472 2.534,-21.466C1.342,-22.791 0.745,-23.917 0.745,-24.845C0.745,-25.706 1.342,-26.667 2.534,-27.727L10.683,-35.081L10.832,-35.181C11.694,-36.042 12.704,-36.472 13.864,-36.472Z" style="fill:white;fill-rule:nonzero;"/>
                                <path d="M29.913,-8.199C30.477,-7.636 30.758,-6.476 30.758,-4.721L30.758,-4.522C30.758,-3.727 30.733,-3.139 30.684,-2.758C30.634,-2.377 30.468,-1.921 30.187,-1.391C29.905,-0.861 29.433,-0.489 28.771,-0.273C28.108,-0.058 27.214,0.05 26.087,0.05C24.298,0.05 23.056,-0.298 22.36,-0.994C21.764,-1.557 21.466,-2.716 21.466,-4.472L21.466,-4.671C21.466,-5.433 21.491,-6.012 21.541,-6.41C21.59,-6.808 21.748,-7.263 22.013,-7.776C22.278,-8.29 22.75,-8.663 23.429,-8.895C24.108,-9.126 25.011,-9.242 26.137,-9.242C27.893,-9.242 29.151,-8.895 29.913,-8.199Z" style="fill:white;fill-rule:nonzero;"/>
                                <path d="M45.864,-36.472C46.725,-36.472 47.437,-36.39 48.001,-36.224C48.564,-36.058 48.994,-35.868 49.292,-35.653C49.591,-35.437 49.814,-35.089 49.963,-34.609C50.112,-34.129 50.195,-33.731 50.212,-33.417C50.228,-33.102 50.237,-32.613 50.237,-31.951L50.237,-4.273C50.237,-3.511 50.212,-2.94 50.162,-2.559C50.112,-2.178 49.955,-1.739 49.69,-1.242C49.425,-0.745 48.978,-0.398 48.348,-0.199C47.719,0 46.874,0.099 45.814,0.099C44.787,0.099 43.959,0 43.33,-0.199C42.7,-0.398 42.253,-0.737 41.988,-1.217C41.723,-1.698 41.566,-2.145 41.516,-2.559C41.466,-2.973 41.441,-3.578 41.441,-4.373L41.441,-22.112L40.795,-21.516C39.437,-20.489 38.311,-19.975 37.417,-19.975C36.39,-19.975 35.429,-20.472 34.535,-21.466C33.342,-22.791 32.746,-23.917 32.746,-24.845C32.746,-25.706 33.342,-26.667 34.535,-27.727L42.684,-35.081L42.833,-35.181C43.694,-36.042 44.704,-36.472 45.864,-36.472Z" style="fill:white;fill-rule:nonzero;"/>
                                <path d="M75.28,-36.472C76.307,-36.472 77.135,-36.365 77.765,-36.149C78.394,-35.934 78.841,-35.586 79.106,-35.106C79.371,-34.626 79.529,-34.187 79.579,-33.789C79.628,-33.392 79.653,-32.812 79.653,-32.05L79.653,-4.422C79.653,-3.66 79.62,-3.081 79.554,-2.683C79.487,-2.286 79.33,-1.847 79.082,-1.366C78.833,-0.886 78.386,-0.547 77.74,-0.348C77.094,-0.149 76.241,-0.05 75.181,-0.05C74.32,-0.05 73.607,-0.133 73.044,-0.298C72.481,-0.464 72.051,-0.663 71.752,-0.894C71.454,-1.126 71.231,-1.466 71.082,-1.913C70.932,-2.36 70.85,-2.741 70.833,-3.056C70.817,-3.371 70.808,-3.843 70.808,-4.472L70.808,-10.534L57.342,-10.534C56.481,-10.534 55.769,-10.617 55.206,-10.783C54.642,-10.948 54.212,-11.147 53.914,-11.379C53.616,-11.611 53.392,-11.95 53.243,-12.398C53.094,-12.845 53.011,-13.226 52.994,-13.541C52.978,-13.855 52.97,-14.327 52.97,-14.957C52.97,-15.586 53.019,-16.116 53.119,-16.547L57.243,-33.193C57.442,-33.955 57.616,-34.535 57.765,-34.932C57.914,-35.33 58.212,-35.711 58.659,-36.075C59.106,-36.439 59.694,-36.622 60.423,-36.622C61.086,-36.622 61.831,-36.506 62.659,-36.274C64.978,-35.644 66.137,-34.584 66.137,-33.094C66.137,-32.564 66.021,-31.868 65.79,-31.007L65.74,-30.957L65.74,-30.857L62.709,-18.733L70.808,-18.733L70.808,-32.298C70.808,-33.06 70.833,-33.624 70.883,-33.988C70.932,-34.352 71.09,-34.766 71.355,-35.23C71.62,-35.694 72.075,-36.017 72.721,-36.199C73.367,-36.381 74.22,-36.472 75.28,-36.472Z" style="fill:white;fill-rule:nonzero;"/>
                            </g>
                        </g>
                        <g transform="matrix(0.707107,-0.707107,0.707107,0.707107,-41.42,100)">
                            <path d="M156.6,59.57L156.6,140.42C156.6,149.35 149.35,156.6 140.42,156.6L59.57,156.6C50.64,156.6 43.39,149.35 43.39,140.42L43.39,59.57C43.39,50.64 50.64,43.39 59.57,43.39L140.42,43.39C149.35,43.39 156.6,50.64 156.6,59.57Z" style="fill:none;stroke:rgb(148,92,255);stroke-width:13.77px;"/>
                        </g>
                    </g>
                </g>
            </g>
        </g>
    </g>
</svg>
