<?xml version="1.0" encoding="UTF-8" standalone="no"?>
<!DOCTYPE svg PUBLIC "-//W3C//DTD SVG 1.1//EN" "http://www.w3.org/Graphics/SVG/1.1/DTD/svg11.dtd">
<svg width="100%" height="100%" viewBox="0 0 180 180" version="1.1" xmlns="http://www.w3.org/2000/svg" xmlns:xlink="http://www.w3.org/1999/xlink" xml:space="preserve" xmlns:serif="http://www.serif.com/" style="fill-rule:evenodd;clip-rule:evenodd;stroke-miterlimit:10;">
    <g transform="matrix(1,0,0,1,-220,-610)">
        <g transform="matrix(1,0,0,1,3,0)">
            <g id="_1.14-transparent" serif:id="1.14/transparent" transform="matrix(0.9,0,0,0.9,217,610)">
                <rect x="0" y="0" width="200" height="200" style="fill:none;"/>
                <clipPath id="_clip1">
                    <rect x="0" y="0" width="200" height="200"/>
                </clipPath>
                <g clip-path="url(#_clip1)">
                    <g transform="matrix(1.11111,0,0,1.11111,-3.55271e-15,0.00129969)">
                        <path d="M158.61,101.45L101.44,158.62C95.12,164.93 84.88,164.93 78.56,158.62L21.39,101.45C15.07,95.13 15.07,84.88 21.39,78.56L78.56,21.39C84.88,15.07 95.12,15.07 101.44,21.39L158.61,78.56C164.93,84.88 164.93,95.13 158.61,101.45Z" style="fill:rgb(28,19,58);fill-rule:nonzero;"/>
                    </g>
                    <g transform="matrix(1.11111,0,0,1.11111,-3.55271e-15,-0.00407747)">
                        <g>
                            <path d="M67.17,75.15C67.01,74.66 66.78,74.3 66.48,74.09C66.18,73.87 65.75,73.68 65.19,73.52C64.62,73.35 63.84,73.27 62.83,73.27C61.82,73.27 60.88,73.7 60.02,74.56L59.87,74.66L51.72,82.01C50.53,83.07 49.93,84.05 49.93,84.94C49.93,85.83 50.45,86.86 51.5,88.02C52.54,89.18 53.54,89.76 54.5,89.76C55.46,89.76 56.62,89.25 57.98,88.22L58.63,87.63L58.63,105.36C58.63,106.16 58.65,106.76 58.7,107.18C58.75,107.59 58.91,108.05 59.17,108.54C59.67,109.4 60.95,109.84 63,109.84C65.05,109.84 66.41,109.39 66.88,108.49C67.14,108 67.3,107.56 67.35,107.18C67.4,106.8 67.42,106.23 67.42,105.46L67.42,77.79C67.42,76.6 67.34,75.72 67.17,75.15Z" style="fill:white;fill-rule:nonzero;"/>
                            <path d="M79.1,101.54C78.34,100.84 76.95,100.49 74.95,100.49C72.95,100.49 71.69,100.99 71.2,101.98C70.93,102.48 70.77,102.93 70.72,103.33C70.67,103.72 70.65,104.3 70.65,105.07L70.65,105.26C70.65,107.02 70.97,108.21 71.62,108.84C72.27,109.47 73.59,109.79 75.59,109.79C77.59,109.79 78.85,109.31 79.35,108.34C79.64,107.82 79.82,107.36 79.87,106.98C79.92,106.6 79.94,106.01 79.94,105.21L79.94,105.02C79.94,103.26 79.66,102.1 79.1,101.54Z" style="fill:white;fill-rule:nonzero;"/>
                            <path d="M99.17,75.15C99,74.66 98.77,74.3 98.48,74.09C98.18,73.87 97.75,73.68 97.18,73.52C96.62,73.35 95.83,73.27 94.82,73.27C93.81,73.27 92.88,73.7 92.02,74.56L91.87,74.66L83.72,82.01C82.53,83.07 81.93,84.05 81.93,84.94C81.93,85.83 82.45,86.86 83.5,88.02C84.54,89.18 85.54,89.76 86.5,89.76C87.46,89.76 88.62,89.25 89.98,88.22L90.63,87.63L90.63,105.36C90.63,106.16 90.65,106.76 90.7,107.18C90.75,107.59 90.91,108.05 91.17,108.54C91.67,109.4 92.94,109.84 95,109.84C97.06,109.84 98.41,109.39 98.87,108.49C99.14,108 99.29,107.56 99.34,107.18C99.39,106.8 99.42,106.23 99.42,105.46L99.42,77.79C99.42,76.6 99.34,75.72 99.17,75.15Z" style="fill:white;fill-rule:nonzero;"/>
                            <path d="M128.76,75.95C128.71,75.55 128.55,75.11 128.29,74.63C128.02,74.15 127.57,73.81 126.95,73.59C126.32,73.37 125.48,73.27 124.44,73.27C123.4,73.27 122.55,73.36 121.9,73.54C121.26,73.72 120.8,74.05 120.54,74.51C120.27,74.97 120.11,75.39 120.06,75.75C120.01,76.12 119.99,76.68 119.99,77.44L119.99,91L111.89,91L114.92,78.88C114.92,78.88 114.94,78.8 114.97,78.73C115.2,77.87 115.32,77.18 115.32,76.65C115.32,75.15 114.16,74.09 111.84,73.47C111.01,73.23 110.25,73.12 109.55,73.12C108.85,73.12 108.29,73.3 107.84,73.66C107.39,74.03 107.1,74.41 106.95,74.81C106.8,75.2 106.62,75.78 106.42,76.55L102.3,93.19C102.2,93.62 102.15,94.28 102.15,95.18C102.15,96.08 102.23,96.78 102.4,97.31C102.83,98.57 104.21,99.2 106.52,99.2L119.99,99.2L119.99,105.26C119.99,106.42 120.09,107.28 120.29,107.85C120.42,108.28 120.63,108.61 120.93,108.84C121.23,109.07 121.66,109.27 122.22,109.44C122.79,109.6 123.55,109.69 124.51,109.69C125.47,109.69 126.27,109.59 126.92,109.39C127.57,109.19 128.05,108.78 128.36,108.17C128.68,107.56 128.83,106.61 128.83,105.31L128.83,77.69C128.83,76.93 128.81,76.35 128.76,75.95Z" style="fill:white;fill-rule:nonzero;"/>
                        </g>
                        <path d="M158.61,101.45L101.44,158.62C95.12,164.93 84.88,164.93 78.56,158.62L21.39,101.45C15.07,95.13 15.07,84.88 21.39,78.56L78.56,21.39C84.88,15.07 95.12,15.07 101.44,21.39L158.61,78.56C164.93,84.88 164.93,95.13 158.61,101.45Z" style="fill:none;fill-rule:nonzero;stroke:rgb(148,92,255);stroke-width:13.77px;"/>
                    </g>
                </g>
            </g>
        </g>
    </g>
</svg>
