<?xml version="1.0" encoding="UTF-8" standalone="no"?>
<!DOCTYPE svg PUBLIC "-//W3C//DTD SVG 1.1//EN" "http://www.w3.org/Graphics/SVG/1.1/DTD/svg11.dtd">
<svg width="100%" height="100%" viewBox="0 0 1920 1080" version="1.1" xmlns="http://www.w3.org/2000/svg" xmlns:xlink="http://www.w3.org/1999/xlink" xml:space="preserve" xmlns:serif="http://www.serif.com/" style="fill-rule:evenodd;clip-rule:evenodd;stroke-linejoin:round;stroke-miterlimit:2;">
    <g transform="matrix(1,0,0,1,0,-7200)">
        <g id="fallfest-background" serif:id="fallfest/background" transform="matrix(1.78857,0,0,2.07692,1.13687e-13,4393.58)">
            <rect x="0" y="1351.24" width="1073.48" height="520" style="fill:rgb(22,14,11);"/>
            <g transform="matrix(0.559105,0,0,0.481481,0,-2883.8)">
                <g transform="matrix(1.78857,0,0,2.07692,0,5989.42)">
                    <g>
                        <g transform="matrix(6.91975,0,0,5.95904,421.544,1563.49)">
                            <path d="M-0,-25.198C-2.982,-21.313 -6.127,-17.555 -9.161,-13.71C-11.973,-10.147 -14.671,-6.503 -17.342,-2.834C-12.72,-1.587 -8.187,0.023 -3.436,0.734C0.059,1.256 3.596,1.125 7.118,1.129C5.558,-1.664 4.096,-4.351 3.305,-7.476C1.826,-13.315 1.883,-19.447 -0,-25.198Z" style="fill:rgb(34,23,17);fill-rule:nonzero;"/>
                        </g>
                        <g transform="matrix(6.91975,0,0,5.95904,651.94,1563.49)">
                            <path d="M-0,-25.198C2.671,-21.79 5.066,-18.176 7.674,-14.72C10.509,-10.962 13.545,-7.366 16.587,-3.774C11.003,-3.664 5.38,-3.917 -0.176,-3.229C-3.591,-2.807 -6.881,-1.813 -10.197,-0.932C-9.752,-4.133 -9.263,-7.146 -7.928,-10.12C-5.598,-15.313 -1.919,-19.806 -0,-25.198Z" style="fill:rgb(34,23,17);fill-rule:nonzero;"/>
                        </g>
                        <g transform="matrix(6.91975,0,0,5.95904,536.742,1597.48)">
                            <path d="M1.814,11.634C3.725,7.422 5.636,3.21 7.547,-1.002C2.22,-0.315 -3.107,0.372 -8.434,1.059C-5.018,4.584 -1.602,8.109 1.814,11.634Z" style="fill:rgb(34,23,17);fill-rule:nonzero;"/>
                        </g>
                        <g transform="matrix(6.91975,0,0,5.95904,818.997,1809.15)">
                            <path d="M-0,-22.125C-1.097,-12.509 -10.631,-6.941 -18.805,-3.817C-20.412,-3.203 -22.047,-2.66 -23.702,-2.189C-25.863,-1.574 -28.055,-1.096 -30.275,-0.75C-32.898,-0.341 -35.546,-0.096 -38.198,0C-38.198,-3.263 -37.542,-6.485 -36.932,-9.676C-41.608,-9.442 -46.285,-9.207 -50.962,-8.972C-51.57,-6.312 -52.17,-3.636 -52.278,-0.899C-60.488,-2.28 -68.642,-5.034 -74.925,-10.709C-78.207,-13.673 -81.031,-17.519 -81.58,-22.018C-75.446,-20.668 -69.4,-18.938 -63.205,-17.868C-63.171,-15.324 -63.473,-12.794 -63.839,-10.281C-60.549,-10.138 -57.252,-10.063 -53.961,-10.211C-53.468,-12.413 -53.05,-14.645 -53.025,-16.908C-48.215,-16.95 -43.343,-17.554 -38.57,-18.112C-34.134,-18.63 -29.712,-19.279 -25.32,-20.089C-25.312,-17.367 -25.691,-14.657 -26.123,-11.975C-23.16,-12.164 -20.198,-12.159 -17.232,-12.014C-16.897,-14.978 -16.609,-17.961 -16.667,-20.947C-11.093,-21.137 -5.482,-20.899 -0,-22.125" style="fill:rgb(34,23,17);fill-rule:nonzero;"/>
                        </g>
                    </g>
                </g>
            </g>
        </g>
    </g>
</svg>
