<?xml version="1.0" encoding="UTF-8" standalone="no"?>
<!DOCTYPE svg PUBLIC "-//W3C//DTD SVG 1.1//EN" "http://www.w3.org/Graphics/SVG/1.1/DTD/svg11.dtd">
<svg width="100%" height="100%" viewBox="0 0 686 200" version="1.1" xmlns="http://www.w3.org/2000/svg" xmlns:xlink="http://www.w3.org/1999/xlink" xml:space="preserve" xmlns:serif="http://www.serif.com/" style="fill-rule:evenodd;clip-rule:evenodd;stroke-miterlimit:10;">
    <g transform="matrix(1,0,0,1,-4400,-1200)">
        <g id="fallfest-lockup-minimal" serif:id="fallfest/lockup-minimal" transform="matrix(0.722126,0,0,1,4400,1200)">
            <rect x="0" y="0" width="949.973" height="200" style="fill:none;"/>
            <clipPath id="_clip1">
                <rect x="0" y="0" width="949.973" height="200"/>
            </clipPath>
            <g clip-path="url(#_clip1)">
                <g id="Icon" transform="matrix(1.3848,0,0,1,-58.8866,-42.5238)">
                    <rect x="42.524" y="42.524" width="200" height="200" style="fill:none;"/>
                    <clipPath id="_clip2">
                        <rect x="42.524" y="42.524" width="200" height="200"/>
                    </clipPath>
                    <g clip-path="url(#_clip2)">
                        <g transform="matrix(1,0,0,1,211.657,131.073)">
                            <path d="M0,22.9L-57.17,80.07C-63.49,86.38 -73.73,86.38 -80.05,80.07L-137.22,22.9C-143.54,16.58 -143.54,6.33 -137.22,0.01L-80.05,-57.16C-73.73,-63.48 -63.49,-63.48 -57.17,-57.16L0,0.01C6.32,6.33 6.32,16.58 0,22.9Z" style="fill:none;fill-rule:nonzero;stroke:url(#_Linear3);stroke-width:13.77px;"/>
                        </g>
                    </g>
                </g>
                <g transform="matrix(2.8642,0,0,2.06831,126.581,-147.642)">
                    <path d="M96.052,83.361C97.078,83.361 97.907,83.461 98.536,83.659C99.165,83.858 99.612,84.206 99.877,84.703C100.142,85.2 100.3,85.647 100.349,86.044C100.399,86.442 100.424,87.021 100.424,87.783L100.424,115.359C100.424,116.121 100.391,116.692 100.325,117.073C100.258,117.454 100.101,117.885 99.853,118.365C99.604,118.845 99.165,119.185 98.536,119.384C97.907,119.582 97.062,119.682 96.002,119.682C95.141,119.682 94.429,119.599 93.865,119.433C93.302,119.268 92.872,119.069 92.574,118.837C92.275,118.605 92.052,118.266 91.903,117.818C91.754,117.371 91.671,116.99 91.654,116.676C91.638,116.361 91.63,115.889 91.63,115.26L91.63,98.615C90.801,99.642 89.592,101.273 88.002,103.509C86.413,105.745 85.237,107.343 84.475,108.304C84.375,108.469 84.243,108.66 84.077,108.875C83.912,109.09 83.506,109.388 82.86,109.769C82.214,110.15 81.51,110.341 80.748,110.341C80.02,110.341 79.349,110.167 78.736,109.819C78.123,109.471 77.684,109.132 77.419,108.8L77.022,108.254C76.359,107.426 75.051,105.662 73.097,102.962C71.142,100.263 70.082,98.814 69.917,98.615L69.917,115.359C69.917,116.121 69.892,116.692 69.842,117.073C69.793,117.454 69.635,117.885 69.37,118.365C69.105,118.845 68.658,119.185 68.029,119.384C67.399,119.582 66.555,119.682 65.495,119.682C64.468,119.682 63.648,119.582 63.035,119.384C62.422,119.185 61.984,118.845 61.719,118.365C61.454,117.885 61.296,117.446 61.247,117.048C61.197,116.651 61.172,116.055 61.172,115.26L61.172,87.684C61.172,86.922 61.197,86.351 61.247,85.97C61.296,85.589 61.454,85.158 61.719,84.678C61.984,84.198 62.431,83.858 63.06,83.659C63.689,83.461 64.534,83.361 65.594,83.361C66.488,83.361 67.259,83.469 67.904,83.684C68.55,83.9 68.973,84.123 69.171,84.355L69.47,84.653L80.748,99.46C86.379,92.007 90.139,87.088 92.027,84.703C92.59,83.808 93.932,83.361 96.052,83.361Z" style="fill:white;fill-rule:nonzero;"/>
                    <path d="M117.268,92.951C120.911,92.951 124.108,94.234 126.857,96.801C129.606,99.368 130.981,102.639 130.981,106.614C130.981,109.364 130.269,111.806 128.844,113.943C127.42,116.079 125.689,117.653 123.652,118.663C121.615,119.673 119.52,120.179 117.367,120.179C115.148,120.179 113.011,119.64 110.957,118.564C108.904,117.487 107.173,115.897 105.765,113.794C104.357,111.691 103.654,109.314 103.654,106.664C103.654,102.689 105.045,99.41 107.827,96.826C110.61,94.242 113.756,92.951 117.268,92.951ZM114.038,110.217C115.098,111.028 116.174,111.434 117.268,111.434C118.361,111.434 119.454,111.02 120.547,110.192C121.64,109.364 122.186,108.138 122.186,106.515C122.186,104.892 121.673,103.683 120.646,102.888C119.619,102.093 118.477,101.695 117.218,101.695C116.092,101.695 115.015,102.109 113.988,102.938C112.961,103.766 112.448,104.975 112.448,106.565C112.448,108.188 112.978,109.405 114.038,110.217Z" style="fill:white;fill-rule:nonzero;"/>
                    <path d="M155.625,81.324C156.652,81.324 157.48,81.423 158.109,81.622C158.739,81.821 159.178,82.169 159.426,82.666C159.675,83.163 159.824,83.601 159.873,83.982C159.923,84.363 159.948,84.935 159.948,85.696L159.948,115.359C159.948,116.121 159.923,116.692 159.873,117.073C159.824,117.454 159.666,117.885 159.401,118.365C159.136,118.845 158.689,119.185 158.06,119.384C157.43,119.582 156.586,119.682 155.526,119.682C153.008,119.682 151.617,118.87 151.352,117.247C149.961,118.837 148.023,119.632 145.539,119.632C142.558,119.632 139.842,118.332 137.39,115.732C134.939,113.131 133.714,110.059 133.714,106.515C133.714,103.136 134.947,100.139 137.415,97.522C139.883,94.905 142.591,93.597 145.539,93.597C147.99,93.597 149.895,94.425 151.253,96.081L151.253,85.647C151.253,84.885 151.278,84.314 151.327,83.933C151.377,83.552 151.526,83.121 151.774,82.641C152.023,82.161 152.462,81.821 153.091,81.622C153.72,81.423 154.565,81.324 155.625,81.324ZM143.7,109.645C144.562,110.539 145.605,110.987 146.831,110.987C148.056,110.987 149.075,110.539 149.886,109.645C150.698,108.751 151.104,107.757 151.104,106.664C151.104,105.604 150.714,104.61 149.936,103.683C149.158,102.755 148.106,102.292 146.781,102.292C145.456,102.292 144.396,102.747 143.601,103.658C142.806,104.569 142.409,105.571 142.409,106.664C142.409,107.757 142.839,108.751 143.7,109.645Z" style="fill:white;fill-rule:nonzero;"/>
                    <path d="M188.02,83.312C188.782,83.312 189.354,83.336 189.735,83.386C190.115,83.436 190.546,83.593 191.026,83.858C191.507,84.123 191.846,84.57 192.045,85.2C192.244,85.829 192.343,86.674 192.343,87.734C192.343,88.794 192.244,89.638 192.045,90.268C191.846,90.897 191.498,91.336 191.002,91.584C190.505,91.833 190.066,91.982 189.685,92.031C189.304,92.081 188.716,92.106 187.921,92.106L172.717,92.106L172.717,97.124L182.505,97.124C183.3,97.124 183.888,97.149 184.269,97.199C184.65,97.248 185.081,97.406 185.561,97.671C186.041,97.936 186.381,98.391 186.58,99.037C186.778,99.683 186.878,100.536 186.878,101.596C186.878,102.457 186.795,103.169 186.629,103.733C186.464,104.296 186.265,104.726 186.033,105.024C185.801,105.322 185.462,105.546 185.014,105.695C184.567,105.844 184.186,105.927 183.872,105.944C183.557,105.96 183.085,105.968 182.456,105.968L172.717,105.968L172.717,115.359C172.717,116.154 172.692,116.734 172.643,117.098C172.593,117.462 172.436,117.893 172.171,118.39C171.906,118.887 171.458,119.235 170.829,119.433C170.2,119.632 169.355,119.731 168.295,119.731C167.434,119.731 166.722,119.649 166.159,119.483C165.595,119.317 165.165,119.119 164.867,118.887C164.569,118.655 164.345,118.315 164.196,117.868C164.047,117.421 163.964,117.04 163.948,116.725C163.931,116.411 163.923,115.939 163.923,115.309L163.923,87.684C163.923,85.995 164.237,84.844 164.867,84.231C165.496,83.618 166.689,83.312 168.444,83.312L188.02,83.312Z" style="fill:white;fill-rule:nonzero;"/>
                    <path d="M216.341,103.285C216.341,105.472 215.836,107.053 214.826,108.03C213.816,109.008 212.698,109.496 211.472,109.496L199.697,109.496C199.697,110.424 200.243,111.202 201.336,111.831C202.429,112.461 203.605,112.775 204.864,112.775C205.758,112.775 206.603,112.709 207.398,112.577C208.193,112.444 208.773,112.312 209.137,112.179L209.683,111.98C210.478,111.616 211.141,111.434 211.671,111.434C212.731,111.434 213.642,112.179 214.404,113.67C214.834,114.564 215.05,115.326 215.05,115.955C215.05,118.903 211.522,120.377 204.466,120.377C202.015,120.377 199.837,119.955 197.933,119.11C196.028,118.266 194.546,117.156 193.486,115.781C192.426,114.407 191.639,112.958 191.126,111.434C190.612,109.91 190.356,108.353 190.356,106.763C190.356,102.59 191.705,99.252 194.405,96.752C197.105,94.251 200.475,93 204.516,93C206.139,93 207.63,93.224 208.988,93.671C210.346,94.118 211.472,94.698 212.367,95.41C213.261,96.122 214.014,96.942 214.627,97.87C215.24,98.797 215.679,99.716 215.944,100.627C216.209,101.538 216.341,102.424 216.341,103.285ZM205.858,104.975C207.116,104.975 207.746,104.445 207.746,103.385C207.746,102.623 207.456,102.01 206.876,101.546C206.297,101.083 205.46,100.851 204.367,100.851C203.307,100.851 202.247,101.29 201.187,102.167C200.127,103.045 199.597,103.981 199.597,104.975L205.858,104.975Z" style="fill:white;fill-rule:nonzero;"/>
                    <path d="M229.21,120.179C225.865,120.179 222.718,119.251 219.77,117.396C219.14,116.999 218.826,116.419 218.826,115.657C218.826,114.697 219.455,113.338 220.714,111.583C221.078,111.02 221.641,110.738 222.403,110.738C223.264,110.738 224.275,111.086 225.434,111.782C227.057,112.709 228.432,113.173 229.558,113.173C231.578,113.173 232.589,112.775 232.589,111.98C232.589,111.649 232.274,111.368 231.645,111.136C231.015,110.904 230.22,110.722 229.26,110.589C228.299,110.457 227.264,110.183 226.154,109.769C225.045,109.355 224.01,108.85 223.049,108.254C222.088,107.658 221.293,106.722 220.664,105.447C220.035,104.171 219.72,102.656 219.72,100.9C219.72,95.667 223.314,93.05 230.502,93.05C232.854,93.05 235.272,93.613 237.756,94.739C238.915,95.269 239.495,95.998 239.495,96.926C239.495,97.588 239.147,98.482 238.452,99.609C237.69,100.801 236.928,101.397 236.166,101.397C235.769,101.397 235.206,101.232 234.477,100.9C233.052,100.238 231.711,99.907 230.452,99.907C228.498,99.907 227.521,100.271 227.521,101C227.521,101.53 227.844,101.952 228.49,102.267C229.136,102.581 229.947,102.797 230.924,102.913C231.901,103.029 232.953,103.252 234.079,103.583C235.206,103.915 236.257,104.32 237.234,104.801C238.212,105.281 239.023,106.093 239.669,107.235C240.315,108.378 240.638,109.778 240.638,111.434C240.638,113.223 240.315,114.721 239.669,115.93C239.023,117.139 238.112,118.034 236.936,118.613C235.76,119.193 234.568,119.599 233.359,119.831C232.15,120.063 230.767,120.179 229.21,120.179Z" style="fill:white;fill-rule:nonzero;"/>
                    <path d="M258.276,102.341L255.047,102.143L255.047,108.999C255.047,109.894 255.188,110.539 255.469,110.937C255.751,111.334 256.256,111.533 256.985,111.533C257.813,111.533 258.434,111.558 258.848,111.608C259.262,111.657 259.692,111.806 260.14,112.055C260.587,112.303 260.893,112.693 261.059,113.223C261.224,113.753 261.307,114.481 261.307,115.409C261.307,116.436 261.2,117.264 260.984,117.893C260.769,118.522 260.413,118.961 259.916,119.21C259.419,119.458 258.98,119.607 258.599,119.657C258.218,119.707 257.664,119.731 256.935,119.731C253.49,119.731 250.873,118.953 249.084,117.396C247.296,115.839 246.401,113.206 246.401,109.496L246.401,102.143C245.772,102.242 245.176,102.292 244.613,102.292C243.718,102.292 243.031,102.01 242.551,101.447C242.07,100.884 241.83,99.708 241.83,97.919C241.83,96.992 241.913,96.222 242.079,95.609C242.244,94.996 242.485,94.557 242.799,94.292C243.114,94.027 243.42,93.853 243.718,93.77C244.017,93.688 244.364,93.646 244.762,93.646L246.401,93.845L246.401,88.727C246.401,87.965 246.426,87.402 246.476,87.038C246.526,86.674 246.675,86.268 246.923,85.821C247.172,85.374 247.61,85.059 248.24,84.877C248.869,84.694 249.714,84.603 250.774,84.603C251.602,84.603 252.289,84.686 252.836,84.852C253.382,85.017 253.805,85.208 254.103,85.423C254.401,85.639 254.624,85.97 254.774,86.417C254.923,86.864 255.005,87.253 255.022,87.585C255.039,87.916 255.047,88.38 255.047,88.976L255.047,93.845C256.504,93.712 257.597,93.646 258.326,93.646C259.088,93.646 259.659,93.671 260.04,93.721C260.421,93.77 260.852,93.92 261.332,94.168C261.812,94.416 262.152,94.855 262.351,95.485C262.549,96.114 262.649,96.959 262.649,98.019C262.649,99.045 262.549,99.874 262.351,100.503C262.152,101.132 261.804,101.571 261.307,101.82C260.81,102.068 260.371,102.217 259.991,102.267C259.61,102.316 259.038,102.341 258.276,102.341Z" style="fill:white;fill-rule:nonzero;"/>
                    <path d="M273.083,95.683C273.679,96.313 273.977,97.538 273.977,99.36C273.944,100.155 273.903,100.743 273.853,101.124C273.803,101.505 273.638,101.96 273.356,102.49C273.075,103.02 272.603,103.393 271.94,103.608C271.278,103.824 270.383,103.931 269.257,103.931C267.468,103.931 266.226,103.583 265.531,102.888C264.934,102.292 264.636,101.066 264.636,99.211C264.636,98.582 264.653,98.118 264.686,97.82C264.719,97.522 264.818,97.124 264.984,96.627C265.15,96.131 265.39,95.766 265.704,95.534C266.019,95.302 266.483,95.095 267.096,94.913C267.708,94.731 268.462,94.64 269.356,94.64C271.145,94.64 272.387,94.988 273.083,95.683ZM273.083,111.533C273.679,112.129 273.977,113.355 273.977,115.21C273.944,116.005 273.903,116.593 273.853,116.974C273.803,117.355 273.638,117.81 273.356,118.34C273.075,118.87 272.603,119.243 271.94,119.458C271.278,119.673 270.383,119.781 269.257,119.781C267.468,119.781 266.226,119.433 265.531,118.738C264.934,118.141 264.636,116.916 264.636,115.061C264.636,114.432 264.653,113.968 264.686,113.67C264.719,113.372 264.818,112.974 264.984,112.477C265.15,111.98 265.39,111.616 265.704,111.384C266.019,111.152 266.483,110.945 267.096,110.763C267.708,110.581 268.462,110.49 269.356,110.49C271.145,110.49 272.387,110.838 273.083,111.533Z" style="fill:white;fill-rule:nonzero;"/>
                </g>
                <g transform="matrix(1.70068,0,0,1.2281,289.363,23.5237)">
                    <path d="M85.27,83.312C86.032,83.312 86.603,83.336 86.984,83.386C87.365,83.436 87.795,83.593 88.276,83.858C88.756,84.123 89.096,84.57 89.294,85.2C89.493,85.829 89.592,86.674 89.592,87.734C89.592,88.794 89.493,89.638 89.294,90.268C89.096,90.897 88.748,91.336 88.251,91.584C87.754,91.833 87.315,91.982 86.934,92.031C86.553,92.081 85.965,92.106 85.17,92.106L69.966,92.106L69.966,97.124L79.755,97.124C80.55,97.124 81.138,97.149 81.518,97.199C81.899,97.248 82.33,97.406 82.81,97.671C83.291,97.936 83.63,98.391 83.829,99.037C84.028,99.683 84.127,100.536 84.127,101.596C84.127,102.457 84.044,103.169 83.879,103.733C83.713,104.296 83.514,104.726 83.282,105.024C83.05,105.322 82.711,105.546 82.264,105.695C81.817,105.844 81.436,105.927 81.121,105.944C80.806,105.96 80.334,105.968 79.705,105.968L69.966,105.968L69.966,115.359C69.966,116.154 69.942,116.734 69.892,117.098C69.842,117.462 69.685,117.893 69.42,118.39C69.155,118.887 68.708,119.235 68.078,119.433C67.449,119.632 66.604,119.731 65.544,119.731C64.683,119.731 63.971,119.649 63.408,119.483C62.845,119.317 62.414,119.119 62.116,118.887C61.818,118.655 61.594,118.315 61.445,117.868C61.296,117.421 61.213,117.04 61.197,116.725C61.18,116.411 61.172,115.939 61.172,115.309L61.172,87.684C61.172,85.995 61.487,84.844 62.116,84.231C62.745,83.618 63.938,83.312 65.693,83.312L85.27,83.312Z" style="fill:white;fill-rule:nonzero;"/>
                    <path d="M113.839,85.895L127.254,113.62C127.818,114.746 128.099,115.591 128.099,116.154C128.099,117.346 127.138,118.423 125.217,119.384C124.091,119.947 123.147,120.228 122.385,120.228C121.855,120.228 121.383,120.079 120.969,119.781C120.555,119.483 120.257,119.168 120.075,118.837C119.893,118.506 119.636,118.009 119.305,117.346L116.721,111.98L102.958,111.98L100.374,117.346C100.043,118.009 99.786,118.489 99.604,118.787C99.422,119.085 99.124,119.392 98.71,119.707C98.296,120.021 97.824,120.179 97.294,120.179C96.532,120.179 95.588,119.897 94.462,119.334C92.54,118.406 91.58,117.346 91.58,116.154C91.58,115.591 91.861,114.746 92.425,113.62C92.425,113.62 96.896,104.362 105.84,85.846C106.204,85.084 106.759,84.471 107.504,84.007C108.25,83.543 109.036,83.312 109.864,83.312C111.653,83.312 112.978,84.173 113.839,85.895ZM109.815,97.82L106.535,104.627L113.144,104.627L109.815,97.82Z" style="fill:white;fill-rule:nonzero;"/>
                    <path d="M139.626,112.378L153.141,112.378C153.803,112.378 154.292,112.403 154.607,112.452C154.921,112.502 155.277,112.626 155.675,112.825C156.072,113.024 156.354,113.388 156.519,113.918C156.685,114.448 156.768,115.16 156.768,116.055C156.768,116.916 156.685,117.611 156.519,118.141C156.354,118.671 156.064,119.044 155.65,119.259C155.236,119.475 154.863,119.607 154.532,119.657C154.201,119.707 153.72,119.731 153.091,119.731L135.204,119.731C134.343,119.731 133.631,119.649 133.068,119.483C132.505,119.317 132.074,119.119 131.776,118.887C131.478,118.655 131.254,118.315 131.105,117.868C130.956,117.421 130.873,117.04 130.857,116.725C130.84,116.411 130.832,115.939 130.832,115.309L130.832,87.684C130.832,86.922 130.857,86.351 130.906,85.97C130.956,85.589 131.113,85.15 131.378,84.653C131.643,84.156 132.091,83.808 132.72,83.61C133.349,83.411 134.194,83.312 135.254,83.312C136.115,83.312 136.827,83.394 137.39,83.56C137.953,83.726 138.384,83.924 138.682,84.156C138.98,84.388 139.204,84.728 139.353,85.175C139.502,85.622 139.585,86.003 139.601,86.318C139.618,86.632 139.626,87.104 139.626,87.734L139.626,112.378Z" style="fill:white;fill-rule:nonzero;"/>
                    <path d="M168.792,112.378L182.307,112.378C182.969,112.378 183.458,112.403 183.772,112.452C184.087,112.502 184.443,112.626 184.84,112.825C185.238,113.024 185.52,113.388 185.685,113.918C185.851,114.448 185.934,115.16 185.934,116.055C185.934,116.916 185.851,117.611 185.685,118.141C185.52,118.671 185.23,119.044 184.816,119.259C184.402,119.475 184.029,119.607 183.698,119.657C183.366,119.707 182.886,119.731 182.257,119.731L164.37,119.731C163.509,119.731 162.796,119.649 162.233,119.483C161.67,119.317 161.24,119.119 160.942,118.887C160.643,118.655 160.42,118.315 160.271,117.868C160.122,117.421 160.039,117.04 160.022,116.725C160.006,116.411 159.997,115.939 159.997,115.309L159.997,87.684C159.997,86.922 160.022,86.351 160.072,85.97C160.122,85.589 160.279,85.15 160.544,84.653C160.809,84.156 161.256,83.808 161.886,83.61C162.515,83.411 163.36,83.312 164.42,83.312C165.281,83.312 165.993,83.394 166.556,83.56C167.119,83.726 167.55,83.924 167.848,84.156C168.146,84.388 168.37,84.728 168.519,85.175C168.668,85.622 168.751,86.003 168.767,86.318C168.784,86.632 168.792,87.104 168.792,87.734L168.792,112.378Z" style="fill:white;fill-rule:nonzero;"/>
                    <path d="M213.261,83.312C214.023,83.312 214.594,83.336 214.975,83.386C215.356,83.436 215.787,83.593 216.267,83.858C216.747,84.123 217.087,84.57 217.285,85.2C217.484,85.829 217.584,86.674 217.584,87.734C217.584,88.794 217.484,89.638 217.285,90.268C217.087,90.897 216.739,91.336 216.242,91.584C215.745,91.833 215.306,91.982 214.925,92.031C214.544,92.081 213.956,92.106 213.162,92.106L197.958,92.106L197.958,97.124L207.746,97.124C208.541,97.124 209.129,97.149 209.51,97.199C209.891,97.248 210.321,97.406 210.801,97.671C211.282,97.936 211.621,98.391 211.82,99.037C212.019,99.683 212.118,100.536 212.118,101.596C212.118,102.457 212.035,103.169 211.87,103.733C211.704,104.296 211.505,104.726 211.273,105.024C211.042,105.322 210.702,105.546 210.255,105.695C209.808,105.844 209.427,105.927 209.112,105.944C208.797,105.96 208.325,105.968 207.696,105.968L197.958,105.968L197.958,115.359C197.958,116.154 197.933,116.734 197.883,117.098C197.833,117.462 197.676,117.893 197.411,118.39C197.146,118.887 196.699,119.235 196.07,119.433C195.44,119.632 194.596,119.731 193.536,119.731C192.674,119.731 191.962,119.649 191.399,119.483C190.836,119.317 190.405,119.119 190.107,118.887C189.809,118.655 189.586,118.315 189.436,117.868C189.287,117.421 189.205,117.04 189.188,116.725C189.171,116.411 189.163,115.939 189.163,115.309L189.163,87.684C189.163,85.995 189.478,84.844 190.107,84.231C190.737,83.618 191.929,83.312 193.685,83.312L213.261,83.312Z" style="fill:white;fill-rule:nonzero;"/>
                    <path d="M229.608,110.937L244.911,110.937C245.673,110.937 246.244,110.962 246.625,111.012C247.006,111.061 247.445,111.219 247.942,111.484C248.439,111.749 248.786,112.196 248.985,112.825C249.184,113.454 249.283,114.299 249.283,115.359C249.283,116.22 249.2,116.932 249.035,117.496C248.869,118.059 248.67,118.489 248.439,118.787C248.207,119.085 247.867,119.309 247.42,119.458C246.973,119.607 246.592,119.69 246.277,119.707C245.963,119.723 245.491,119.731 244.861,119.731L225.186,119.731C224.324,119.731 223.612,119.649 223.049,119.483C222.486,119.317 222.055,119.119 221.757,118.887C221.459,118.655 221.235,118.315 221.086,117.868C220.937,117.421 220.855,117.04 220.838,116.725C220.821,116.411 220.813,115.939 220.813,115.309L220.813,87.684C220.813,85.995 221.128,84.844 221.757,84.231C222.387,83.618 223.579,83.312 225.335,83.312L244.911,83.312C245.673,83.312 246.244,83.336 246.625,83.386C247.006,83.436 247.445,83.593 247.942,83.858C248.439,84.123 248.786,84.57 248.985,85.2C249.184,85.829 249.283,86.674 249.283,87.734C249.283,88.595 249.2,89.307 249.035,89.87C248.869,90.433 248.67,90.864 248.439,91.162C248.207,91.46 247.867,91.684 247.42,91.833C246.973,91.982 246.592,92.065 246.277,92.081C245.963,92.098 245.491,92.106 244.861,92.106L229.608,92.106L229.608,97.124L239.445,97.124C240.207,97.124 240.779,97.149 241.16,97.199C241.541,97.248 241.979,97.406 242.476,97.671C242.973,97.936 243.321,98.383 243.52,99.012C243.718,99.642 243.818,100.486 243.818,101.546C243.818,102.408 243.735,103.12 243.569,103.683C243.404,104.246 243.205,104.677 242.973,104.975C242.741,105.273 242.393,105.496 241.93,105.645C241.466,105.794 241.077,105.877 240.762,105.894C240.447,105.91 239.975,105.919 239.346,105.919L229.608,105.919L229.608,110.937Z" style="fill:white;fill-rule:nonzero;"/>
                    <path d="M253.059,114.614C252.198,113.554 251.768,112.676 251.768,111.98C251.768,110.987 252.48,109.794 253.904,108.403C254.732,107.608 255.56,107.211 256.388,107.211C257.415,107.211 258.674,107.956 260.164,109.446L260.413,109.695C260.545,109.86 260.744,110.076 261.009,110.341C261.274,110.606 261.788,110.962 262.549,111.409C263.311,111.856 264.057,112.08 264.785,112.08C267.866,112.08 269.406,110.821 269.406,108.304C269.406,107.542 268.984,106.904 268.139,106.391C267.294,105.877 266.243,105.505 264.984,105.273C263.725,105.041 262.367,104.668 260.91,104.155C259.452,103.641 258.094,103.037 256.836,102.341C255.577,101.646 254.525,100.544 253.68,99.037C252.836,97.53 252.413,95.716 252.413,93.597C252.413,90.682 253.498,88.139 255.668,85.97C257.838,83.8 260.794,82.715 264.537,82.715C266.524,82.715 268.338,82.972 269.977,83.485C271.617,83.999 272.752,84.521 273.381,85.051L274.375,85.796L274.623,85.995C275.65,86.955 276.163,87.75 276.163,88.38C276.163,89.075 275.766,90.003 274.971,91.162C273.845,92.818 272.685,93.646 271.493,93.646C270.797,93.646 269.936,93.315 268.909,92.653C268.81,92.586 268.619,92.421 268.338,92.156C268.056,91.891 267.8,91.684 267.568,91.535C267.336,91.386 266.947,91.236 266.4,91.087C265.854,90.938 265.216,90.864 264.487,90.864C263.692,90.864 262.939,91.121 262.226,91.634C261.514,92.147 261.158,92.818 261.158,93.646C261.158,94.64 261.581,95.418 262.425,95.981C263.27,96.545 264.322,96.926 265.58,97.124C266.839,97.323 268.214,97.629 269.704,98.043C271.195,98.458 272.569,98.963 273.828,99.559C275.087,100.155 276.139,101.19 276.983,102.664C277.828,104.138 278.25,105.968 278.25,108.155C278.25,110.274 277.82,112.154 276.958,113.794C276.097,115.434 274.979,116.701 273.605,117.595C272.23,118.489 270.814,119.152 269.356,119.582C267.899,120.013 266.441,120.228 264.984,120.228C263.427,120.228 261.953,120.038 260.562,119.657C259.171,119.276 258.036,118.812 257.158,118.266C256.281,117.719 255.519,117.164 254.873,116.601C254.227,116.038 253.772,115.558 253.507,115.16L253.059,114.614Z" style="fill:white;fill-rule:nonzero;"/>
                    <path d="M281.38,83.262L309.006,83.262C309.668,83.262 310.149,83.287 310.447,83.336C310.745,83.386 311.093,83.51 311.49,83.709C311.888,83.908 312.169,84.272 312.335,84.802C312.5,85.332 312.583,86.028 312.583,86.889C312.583,87.75 312.5,88.438 312.335,88.951C312.169,89.464 311.888,89.82 311.49,90.019C311.093,90.218 310.737,90.342 310.422,90.392C310.107,90.442 309.619,90.466 308.956,90.466L299.466,90.466L299.466,115.458C299.466,116.22 299.441,116.783 299.392,117.148C299.342,117.512 299.193,117.934 298.944,118.415C298.696,118.895 298.257,119.235 297.628,119.433C296.998,119.632 296.17,119.731 295.143,119.731C294.117,119.731 293.297,119.632 292.684,119.433C292.071,119.235 291.641,118.895 291.392,118.415C291.144,117.934 290.995,117.504 290.945,117.123C290.895,116.742 290.87,116.171 290.87,115.409L290.87,90.466L281.331,90.466C280.701,90.466 280.229,90.442 279.915,90.392C279.6,90.342 279.244,90.218 278.846,90.019C278.449,89.82 278.167,89.456 278.002,88.926C277.836,88.396 277.753,87.7 277.753,86.839C277.753,85.978 277.836,85.291 278.002,84.777C278.167,84.264 278.449,83.908 278.846,83.709C279.244,83.51 279.6,83.386 279.915,83.336C280.229,83.287 280.718,83.262 281.38,83.262Z" style="fill:white;fill-rule:nonzero;"/>
                </g>
                <g transform="matrix(1.3848,0,0,1,116.151,92.5101)">
                    <path d="M0,-25.198L-17.01,-3.328L8.558,0L0,-25.198Z" style="fill:white;fill-rule:nonzero;"/>
                </g>
                <g transform="matrix(1.3848,0,0,1,162.259,92.5101)">
                    <path d="M0,-25.198L17.01,-3.328L-8.558,0L0,-25.198Z" style="fill:white;fill-rule:nonzero;"/>
                </g>
                <g transform="matrix(1.3848,0,0,1,139.205,98.2142)">
                    <path d="M0,11.75L8.09,0L-8.09,0L0,11.75Z" style="fill:white;fill-rule:nonzero;"/>
                </g>
                <g transform="matrix(1.3848,0,0,1,195.691,133.735)">
                    <path d="M0,-22.125C-1.356,-10.241 -17.735,-0.744 -38.198,0L-38.198,-9.465L-52.296,-9.465L-52.296,-0.905C-68.377,-3.639 -80.355,-11.965 -81.58,-22.018C-76.46,-20.891 -70.879,-19.972 -64.947,-19.296L-64.947,-11.039L-55.61,-11.039L-55.61,-18.46C-50.9,-18.146 -46.024,-17.982 -41.03,-17.982C-36.453,-17.982 -31.974,-18.12 -27.632,-18.384L-27.632,-11.039L-18.295,-11.039L-18.295,-19.167C-11.734,-19.872 -5.586,-20.876 0,-22.125" style="fill:white;fill-rule:nonzero;"/>
                </g>
            </g>
        </g>
    </g>
    <defs>
        <linearGradient id="_Linear3" x1="0" y1="0" x2="1" y2="0" gradientUnits="userSpaceOnUse" gradientTransform="matrix(88.2836,-95.61,95.61,88.2836,-112.752,59.2599)"><stop offset="0" style="stop-color:rgb(255,152,38);stop-opacity:1"/><stop offset="0.76" style="stop-color:rgb(255,86,21);stop-opacity:1"/><stop offset="1" style="stop-color:rgb(255,91,22);stop-opacity:1"/></linearGradient>
    </defs>
</svg>
