<?xml version="1.0" encoding="UTF-8" standalone="no"?>
<!DOCTYPE svg PUBLIC "-//W3C//DTD SVG 1.1//EN" "http://www.w3.org/Graphics/SVG/1.1/DTD/svg11.dtd">
<svg width="100%" height="100%" viewBox="0 0 200 200" version="1.1" xmlns="http://www.w3.org/2000/svg" xmlns:xlink="http://www.w3.org/1999/xlink" xml:space="preserve" xmlns:serif="http://www.serif.com/" style="fill-rule:evenodd;clip-rule:evenodd;stroke-miterlimit:10;">
    <g transform="matrix(1,0,0,1,0,-1020)">
        <g transform="matrix(1,0,0,1,3,0)">
            <g id="_1.16-full" serif:id="1.16/full" transform="matrix(1,0,0,1,-3,1020)">
                <rect x="0" y="0" width="200" height="200" style="fill:none;"/>
                <clipPath id="_clip1">
                    <rect x="0" y="0" width="200" height="200"/>
                </clipPath>
                <g clip-path="url(#_clip1)">
                    <rect x="0" y="0" width="200" height="200" style="fill:rgb(30,8,8);"/>
                    <g>
                        <g transform="matrix(0.707107,-0.707107,0.707107,0.707107,-41.42,100)">
                            <path d="M156.6,59.57L156.6,140.42C156.6,149.35 149.35,156.6 140.42,156.6L59.57,156.6C50.64,156.6 43.39,149.35 43.39,140.42L43.39,59.57C43.39,50.64 50.64,43.39 59.57,43.39L140.42,43.39C149.35,43.39 156.6,50.64 156.6,59.57Z" style="fill:none;stroke:rgb(255,57,57);stroke-width:13.77px;"/>
                        </g>
                        <g transform="matrix(1,0,0,1,59.98,119.73)">
                            <path d="M13.864,-36.472C14.725,-36.472 15.437,-36.39 16,-36.224C16.563,-36.058 16.994,-35.868 17.292,-35.653C17.59,-35.437 17.814,-35.089 17.963,-34.609C18.112,-34.129 18.195,-33.731 18.211,-33.417C18.228,-33.102 18.236,-32.613 18.236,-31.951L18.236,-4.273C18.236,-3.511 18.211,-2.94 18.162,-2.559C18.112,-2.178 17.955,-1.739 17.69,-1.242C17.425,-0.745 16.977,-0.398 16.348,-0.199C15.719,0 14.874,0.099 13.814,0.099C12.787,0.099 11.959,0 11.329,-0.199C10.7,-0.398 10.253,-0.737 9.988,-1.217C9.723,-1.698 9.565,-2.145 9.516,-2.559C9.466,-2.973 9.441,-3.578 9.441,-4.373L9.441,-22.112L8.795,-21.516C7.437,-20.489 6.311,-19.975 5.416,-19.975C4.389,-19.975 3.429,-20.472 2.534,-21.466C1.342,-22.791 0.745,-23.917 0.745,-24.845C0.745,-25.706 1.342,-26.667 2.534,-27.727L10.683,-35.081L10.832,-35.181C11.694,-36.042 12.704,-36.472 13.864,-36.472Z" style="fill:white;fill-rule:nonzero;"/>
                            <path d="M29.913,-8.199C30.477,-7.636 30.758,-6.476 30.758,-4.721L30.758,-4.522C30.758,-3.727 30.733,-3.139 30.684,-2.758C30.634,-2.377 30.468,-1.921 30.187,-1.391C29.905,-0.861 29.433,-0.489 28.771,-0.273C28.108,-0.058 27.214,0.05 26.087,0.05C24.298,0.05 23.056,-0.298 22.36,-0.994C21.764,-1.557 21.466,-2.716 21.466,-4.472L21.466,-4.671C21.466,-5.433 21.491,-6.012 21.541,-6.41C21.59,-6.808 21.748,-7.263 22.013,-7.776C22.278,-8.29 22.75,-8.663 23.429,-8.895C24.108,-9.126 25.011,-9.242 26.137,-9.242C27.893,-9.242 29.151,-8.895 29.913,-8.199Z" style="fill:white;fill-rule:nonzero;"/>
                            <path d="M45.864,-36.472C46.725,-36.472 47.437,-36.39 48.001,-36.224C48.564,-36.058 48.994,-35.868 49.292,-35.653C49.591,-35.437 49.814,-35.089 49.963,-34.609C50.112,-34.129 50.195,-33.731 50.212,-33.417C50.228,-33.102 50.237,-32.613 50.237,-31.951L50.237,-4.273C50.237,-3.511 50.212,-2.94 50.162,-2.559C50.112,-2.178 49.955,-1.739 49.69,-1.242C49.425,-0.745 48.978,-0.398 48.348,-0.199C47.719,0 46.874,0.099 45.814,0.099C44.787,0.099 43.959,0 43.33,-0.199C42.7,-0.398 42.253,-0.737 41.988,-1.217C41.723,-1.698 41.566,-2.145 41.516,-2.559C41.466,-2.973 41.441,-3.578 41.441,-4.373L41.441,-22.112L40.795,-21.516C39.437,-20.489 38.311,-19.975 37.417,-19.975C36.39,-19.975 35.429,-20.472 34.535,-21.466C33.342,-22.791 32.746,-23.917 32.746,-24.845C32.746,-25.706 33.342,-26.667 34.535,-27.727L42.684,-35.081L42.833,-35.181C43.694,-36.042 44.704,-36.472 45.864,-36.472Z" style="fill:white;fill-rule:nonzero;"/>
                            <path d="M78.808,-11.131C78.808,-7.785 77.607,-4.986 75.206,-2.733C72.804,-0.48 69.897,0.646 66.485,0.646C62.179,0.646 58.932,-0.737 56.746,-3.503C54.56,-6.269 53.466,-9.839 53.466,-14.211C53.466,-20.539 55.264,-25.822 58.858,-30.062C62.452,-34.303 67.363,-36.423 73.591,-36.423C74.353,-36.423 74.916,-36.39 75.28,-36.323C75.645,-36.257 76.059,-36.1 76.523,-35.851C76.986,-35.603 77.318,-35.164 77.516,-34.535C77.715,-33.905 77.815,-33.06 77.815,-32C77.815,-31.139 77.732,-30.427 77.566,-29.864C77.4,-29.301 77.202,-28.87 76.97,-28.572C76.738,-28.274 76.398,-28.05 75.951,-27.901C75.504,-27.752 75.123,-27.669 74.808,-27.652C74.494,-27.636 74.022,-27.628 73.392,-27.628C71.835,-27.628 70.419,-27.396 69.144,-26.932C67.868,-26.468 66.874,-25.905 66.162,-25.243C65.45,-24.58 64.854,-23.917 64.373,-23.255C63.893,-22.592 63.587,-22.029 63.454,-21.565L63.206,-20.87C64.431,-21.433 65.657,-21.715 66.883,-21.715C70.162,-21.715 72.97,-20.63 75.305,-18.46C77.641,-16.29 78.808,-13.847 78.808,-11.131ZM66.286,-7.503C68.837,-7.503 70.113,-8.613 70.113,-10.832C70.113,-11.594 69.823,-12.307 69.243,-12.969C68.663,-13.632 67.777,-13.963 66.585,-13.963C65.226,-13.963 64.208,-13.656 63.529,-13.044C62.85,-12.431 62.51,-11.727 62.51,-10.932C62.51,-10.468 62.551,-10.071 62.634,-9.739C62.717,-9.408 62.874,-9.052 63.106,-8.671C63.338,-8.29 63.719,-8 64.249,-7.801C64.779,-7.603 65.458,-7.503 66.286,-7.503Z" style="fill:white;fill-rule:nonzero;"/>
                        </g>
                    </g>
                </g>
            </g>
        </g>
    </g>
</svg>
