<?xml version="1.0" encoding="UTF-8" standalone="no"?>
<!DOCTYPE svg PUBLIC "-//W3C//DTD SVG 1.1//EN" "http://www.w3.org/Graphics/SVG/1.1/DTD/svg11.dtd">
<svg width="100%" height="100%" viewBox="0 0 180 180" version="1.1" xmlns="http://www.w3.org/2000/svg" xmlns:xlink="http://www.w3.org/1999/xlink" xml:space="preserve" xmlns:serif="http://www.serif.com/" style="fill-rule:evenodd;clip-rule:evenodd;stroke-miterlimit:10;">
    <g transform="matrix(1,0,0,1,-430,-10)">
        <g transform="matrix(1,0,0,1,3,0)">
            <g id="modfest-minimal-light" serif:id="modfest/minimal-light" transform="matrix(0.9,0,0,0.9,427,10)">
                <rect x="0" y="0" width="200" height="200" style="fill:none;"/>
                <clipPath id="_clip1">
                    <rect x="0" y="0" width="200" height="200"/>
                </clipPath>
                <g clip-path="url(#_clip1)">
                    <g transform="matrix(1.11111,0,0,1.11111,-11.1111,-11.1111)">
                        <g transform="matrix(1,0,0,1,10,9.99875)">
                            <path d="M121.17,67.21C121.09,66.57 120.84,65.86 120.41,65.07C119.68,63.65 117.63,62.93 114.28,62.93C110.93,62.93 108.8,63.65 107.9,65.07C104.89,68.87 98.9,76.71 89.93,88.59L71.95,64.99L71.47,64.52C71.16,64.15 70.48,63.79 69.45,63.45C68.43,63.1 67.2,62.93 65.77,62.93C62.45,62.93 60.39,63.62 59.6,64.99C59.17,65.78 58.92,66.48 58.84,67.09C58.76,67.7 58.72,68.61 58.72,69.82L58.72,113.77C58.72,115.04 58.76,115.99 58.84,116.62C58.92,117.26 59.17,117.94 59.6,118.68C60.39,120.11 62.39,120.82 65.61,120.82C68.83,120.82 71,120.11 71.79,118.68C72.21,117.94 72.46,117.27 72.54,116.66C72.62,116.06 72.66,115.15 72.66,113.93L72.66,87.24C72.93,87.56 74.61,89.87 77.73,94.17C80.84,98.48 82.93,101.29 83.99,102.61L84.62,103.48C85.04,104.01 85.74,104.55 86.72,105.1C87.69,105.66 88.78,105.93 89.97,105.93C91.16,105.93 92.26,105.63 93.29,105.02C94.32,104.42 94.97,103.94 95.23,103.6C95.5,103.25 95.97,102.63 96.66,101.74C97.34,100.84 98.95,98.61 101.49,95.04C104.02,91.48 105.95,88.88 107.27,87.24L107.27,113.77C107.27,115.62 107.4,116.99 107.66,117.89C107.93,118.58 108.3,119.11 108.77,119.48C109.25,119.85 109.93,120.16 110.83,120.43C111.73,120.69 112.94,120.82 114.48,120.82C116.02,120.82 117.27,120.66 118.28,120.35C120.28,119.71 121.29,117.57 121.29,113.93L121.29,69.98C121.29,68.77 121.25,67.84 121.17,67.21Z" style="fill:rgb(23,29,35);fill-rule:nonzero;"/>
                        </g>
                        <g transform="matrix(1,0,0,1,10,9.99875)">
                            <path d="M158.61,101.45L101.44,158.62C95.12,164.93 84.88,164.93 78.56,158.62L21.39,101.45C15.07,95.13 15.07,84.88 21.39,78.56L78.56,21.39C84.88,15.07 95.12,15.07 101.44,21.39L158.61,78.56C164.93,84.88 164.93,95.13 158.61,101.45Z" style="fill:none;fill-rule:nonzero;stroke:rgb(23,29,35);stroke-width:13.77px;"/>
                        </g>
                    </g>
                </g>
            </g>
        </g>
    </g>
</svg>
