<?xml version="1.0" encoding="UTF-8" standalone="no"?>
<!DOCTYPE svg PUBLIC "-//W3C//DTD SVG 1.1//EN" "http://www.w3.org/Graphics/SVG/1.1/DTD/svg11.dtd">
<svg width="100%" height="100%" viewBox="0 0 1920 1080" version="1.1" xmlns="http://www.w3.org/2000/svg" xmlns:xlink="http://www.w3.org/1999/xlink" xml:space="preserve" xmlns:serif="http://www.serif.com/" style="fill-rule:evenodd;clip-rule:evenodd;stroke-linecap:round;stroke-linejoin:round;stroke-miterlimit:1.5;">
    <g transform="matrix(1,0,0,1,0,-10800)">
        <g id="bc23-background-lockup" serif:id="bc23/background-lockup" transform="matrix(1.78857,0,0,2.07692,2.06057e-13,7993.58)">
            <rect x="0" y="1351.24" width="1073.48" height="520" style="fill:rgb(38,0,34);"/>
            <clipPath id="_clip1">
                <rect x="0" y="1351.24" width="1073.48" height="520"/>
            </clipPath>
            <g clip-path="url(#_clip1)">
                <g transform="matrix(0.559105,0,0,0.481481,249.761,-3577.69)">
                    <path d="M-499.304,11154.3C-494.51,11155 -489.771,11156.3 -484.986,11156.2C311.576,11138.8 415.323,10163.3 940.554,10159.9" style="fill:none;stroke:rgb(52,0,45);stroke-width:173.33px;"/>
                </g>
                <g id="Layer7" transform="matrix(0.559105,0,0,0.481481,-5.16448e-14,-3848.76)">
                    <g opacity="0.07">
                        <path d="M-141.932,11579.7C-166.202,11319.5 394.6,11528.5 667.34,10744.2" style="fill:none;stroke:rgb(255,244,37);stroke-width:173.33px;"/>
                        <g transform="matrix(28.517,-16.4643,16.4643,28.517,-208600,-296542)">
                            <path d="M844.331,11295.4C844.758,11295.4 845.078,11295.4 845.291,11295.4C845.504,11295.5 845.736,11295.5 845.984,11295.7C846.233,11295.8 846.411,11296 846.518,11296.4C846.624,11296.7 846.678,11297.2 846.678,11297.8C846.678,11298.3 846.62,11298.8 846.504,11299.1C846.389,11299.4 846.202,11299.7 845.944,11299.8C845.687,11299.9 845.447,11300 845.224,11300.1C845.002,11300.1 844.687,11300.1 844.278,11300.1L833.851,11300.1C833.211,11300.1 832.66,11299.9 832.198,11299.4C831.736,11298.9 831.504,11298.4 831.504,11297.7C831.504,11296.8 831.838,11295.9 832.504,11295.1C833.171,11294.3 833.976,11293.6 834.918,11293C835.86,11292.4 836.802,11291.8 837.744,11291.3C838.687,11290.7 839.491,11290.1 840.158,11289.4C840.824,11288.7 841.158,11287.9 841.158,11287.1C841.158,11287 841.149,11287 841.131,11286.9C841.113,11286.8 841.051,11286.6 840.944,11286.4C840.838,11286.1 840.709,11285.9 840.558,11285.7C840.407,11285.5 840.171,11285.3 839.851,11285.2C839.531,11285 839.158,11284.9 838.731,11284.9C838.02,11284.9 837.456,11285.2 837.038,11285.6C836.62,11286 836.384,11286.4 836.331,11286.8L836.224,11287.4L836.224,11287.6C836.224,11288 836.211,11288.3 836.184,11288.5C836.158,11288.7 836.073,11288.9 835.931,11289.1C835.789,11289.4 835.549,11289.5 835.211,11289.6C834.873,11289.7 834.42,11289.8 833.851,11289.8C833.389,11289.8 833.007,11289.7 832.704,11289.6C832.402,11289.5 832.171,11289.4 832.011,11289.3C831.851,11289.2 831.731,11289 831.651,11288.8C831.571,11288.5 831.527,11288.3 831.518,11288.2C831.509,11288 831.504,11287.7 831.504,11287.4C831.504,11285.5 832.167,11283.9 833.491,11282.4C834.816,11281 836.553,11280.2 838.704,11280.2C840.838,11280.2 842.571,11281 843.904,11282.4C845.238,11283.9 845.904,11285.6 845.904,11287.5C845.904,11288.5 845.682,11289.5 845.238,11290.4C844.793,11291.3 844.256,11292 843.624,11292.6C842.993,11293.2 842.362,11293.7 841.731,11294.1C841.1,11294.5 840.562,11294.8 840.118,11295L839.451,11295.2L839.451,11295.4L844.331,11295.4Z" style="fill:rgb(255,244,37);fill-rule:nonzero;"/>
                        </g>
                    </g>
                </g>
                <g transform="matrix(15.944,-7.92727,9.20528,13.7304,-116629,-146628)">
                    <path d="M862.624,11293.8C862.624,11295.8 861.913,11297.3 860.491,11298.6C859.069,11299.8 857.282,11300.4 855.131,11300.4C854.313,11300.4 853.553,11300.3 852.851,11300.1C852.149,11300 851.562,11299.7 851.091,11299.5C850.62,11299.2 850.193,11298.9 849.811,11298.5C849.429,11298.2 849.131,11297.9 848.918,11297.5C848.704,11297.2 848.527,11296.9 848.384,11296.6C848.242,11296.4 848.144,11296.1 848.091,11296L848.038,11295.7C847.842,11295.1 847.744,11294.6 847.744,11294.2C847.744,11293.2 848.616,11292.7 850.358,11292.7C851.069,11292.7 851.54,11292.8 851.771,11293C852.002,11293.1 852.224,11293.5 852.438,11294L852.491,11294.2C852.509,11294.2 852.531,11294.3 852.558,11294.3C852.584,11294.4 852.664,11294.6 852.798,11294.7C852.931,11294.9 853.087,11295.1 853.264,11295.2C853.442,11295.4 853.7,11295.5 854.038,11295.6C854.376,11295.7 854.749,11295.8 855.158,11295.8C856.1,11295.8 856.793,11295.6 857.238,11295.2C857.682,11294.8 857.904,11294.4 857.904,11293.9C857.904,11293.4 857.687,11293 857.251,11292.7C856.816,11292.3 856.207,11292.1 855.424,11292.1C855.016,11292.1 854.704,11292.1 854.491,11292.1C854.278,11292 854.042,11291.9 853.784,11291.8C853.527,11291.7 853.344,11291.4 853.238,11291.1C853.131,11290.8 853.078,11290.3 853.078,11289.7C853.078,11289.3 853.122,11288.9 853.211,11288.6C853.3,11288.3 853.407,11288.1 853.531,11287.9C853.656,11287.7 853.838,11287.6 854.078,11287.5C854.318,11287.5 854.522,11287.4 854.691,11287.4C854.86,11287.4 855.113,11287.4 855.451,11287.4C856.802,11287.4 857.478,11287 857.478,11286.4C857.478,11286 857.3,11285.6 856.944,11285.3C856.589,11285 856.064,11284.8 855.371,11284.8C854.802,11284.8 854.331,11284.9 853.958,11285.1C853.584,11285.3 853.353,11285.5 853.264,11285.7L853.104,11286.1C852.696,11287 852.109,11287.4 851.344,11287.4C850.9,11287.4 850.411,11287.2 849.878,11286.9C848.989,11286.4 848.544,11285.8 848.544,11285.1C848.544,11284.8 848.696,11284.3 848.998,11283.7C849.033,11283.6 849.087,11283.5 849.158,11283.3C849.229,11283.2 849.424,11282.9 849.744,11282.5C850.064,11282.1 850.433,11281.7 850.851,11281.4C851.269,11281.1 851.856,11280.8 852.611,11280.6C853.367,11280.3 854.207,11280.2 855.131,11280.2C857.318,11280.2 859.042,11280.8 860.304,11282.1C861.567,11283.3 862.198,11284.7 862.198,11286.2C862.198,11286.7 862.127,11287.2 861.984,11287.6C861.842,11288 861.669,11288.3 861.464,11288.6C861.26,11288.8 861.056,11289 860.851,11289.2C860.647,11289.4 860.473,11289.5 860.331,11289.6L860.118,11289.7L860.118,11289.8C860.189,11289.9 860.278,11289.9 860.384,11290C860.491,11290.1 860.691,11290.2 860.984,11290.5C861.278,11290.7 861.536,11291 861.758,11291.3C861.98,11291.6 862.18,11291.9 862.358,11292.4C862.536,11292.9 862.624,11293.4 862.624,11293.8Z" style="fill:rgb(52,0,45);fill-rule:nonzero;"/>
                </g>
                <g id="bc23-lockup-transparent" serif:id="bc23/lockup-transparent" transform="matrix(1.01004,0,0,0.832963,57.0342,1527.94)">
                    <rect x="0" y="0" width="949.973" height="200" style="fill:none;"/>
                    <clipPath id="_clip2">
                        <rect x="0" y="0" width="949.973" height="200"/>
                    </clipPath>
                    <g clip-path="url(#_clip2)">
                        <g id="Icon" transform="matrix(0.957634,0,0,1,-40.722,-42.5238)">
                            <rect x="42.524" y="42.524" width="200" height="200" style="fill:none;"/>
                            <g transform="matrix(1,0,0,1,52.5235,52.5226)">
                                <path d="M158.62,101.45L101.45,158.62C95.13,164.93 84.88,164.93 78.56,158.62L21.39,101.45C15.07,95.13 15.07,84.88 21.39,78.56L78.56,21.39C84.88,15.07 95.13,15.07 101.45,21.39L158.62,78.56C164.93,84.88 164.93,95.13 158.62,101.45Z" style="fill:rgb(49,19,41);fill-rule:nonzero;"/>
                            </g>
                            <g transform="matrix(0.0910074,-0.0910074,0.0910074,0.0910074,-203.577,-203.577)">
                                <path d="M498.407,3521.42L498.407,4084.58C498.407,4204.25 401.251,4301.41 281.582,4301.41L-281.582,4301.41C-401.251,4301.41 -498.407,4204.25 -498.407,4084.58L-498.407,3521.42C-498.407,3401.75 -401.251,3304.59 -281.582,3304.59L281.582,3304.59C401.251,3304.59 498.407,3401.75 498.407,3521.42ZM-202.733,4132.78C-154.227,4179.94 -95.121,4203.21 -25.288,4202.26C38.814,4202.19 96.474,4179.32 147.317,4132.78L281.582,4132.78C308.181,4132.78 329.776,4111.18 329.776,4084.58L329.776,3923C370.395,3877.87 390.788,3824.06 390.857,3761.55C391.755,3700.24 371.504,3646.57 329.776,3600.67L329.776,3521.42C329.776,3494.82 308.181,3473.22 281.582,3473.22L202.772,3473.22L157.578,3428.03C140.079,3410.53 124.215,3398.58 110.543,3391.47C88.987,3380.26 68.176,3378.68 48.345,3384.72C32.714,3389.47 20.885,3395.58 12.39,3402.03C6.058,3406.85 -3.28,3415.23 -15.437,3427.38L-61.278,3473.22L-281.582,3473.22C-308.181,3473.22 -329.776,3494.82 -329.776,3521.42L-329.776,3741.72L-374.323,3786.27C-383.198,3795.14 -389.724,3801.93 -393.928,3806.6C-399.691,3813.01 -405.863,3821.97 -411.947,3833.82C-420.422,3850.32 -422.834,3865.9 -421.05,3880.18C-419.68,3891.14 -415.482,3904.37 -407.261,3919.44C-400.546,3931.75 -390.166,3945.38 -375.616,3959.93L-329.776,4005.77L-329.776,4084.58C-329.776,4111.18 -308.181,4132.78 -281.582,4132.78L-202.733,4132.78Z" style="fill:rgb(227,101,193);"/>
                            </g>
                            <g transform="matrix(0.613012,0,0,0.613012,-387.335,-7802.61)">
                                <path d="M910.417,12952.6C908.922,12954.8 909.061,12957.7 910.756,12959.7C917.356,12967.5 920.698,12976.3 920.712,12986C920.477,12997.1 916.803,13006.4 909.556,13013.6C909.536,13013.6 909.516,13013.6 909.496,13013.7C901.953,13021.4 892.922,13025.3 882.383,13025.3L831.887,13025.3C829.224,13025.3 827.017,13025.1 825.276,13024.6C823.959,13024.2 822.916,13023.8 822.219,13023.3C821.891,13023 821.762,13022.6 821.598,13022.1C821.21,13020.9 820.953,13019.9 820.91,13019.1C820.849,13017.9 820.822,13016.2 820.822,13013.9L820.822,12907.3C820.822,12904.6 820.887,12902.6 821.056,12901.4C821.174,12900.5 821.619,12899.5 822.248,12898.4C822.586,12897.7 823.24,12897.4 824.043,12897.1C826.037,12896.5 828.72,12896.3 832.079,12896.3L880.463,12896.3C890.566,12896.3 899.034,12899.7 905.843,12906.8C905.864,12906.8 905.886,12906.8 905.908,12906.8C913.083,12914 916.68,12922.6 916.68,12932.7C916.68,12939.9 914.588,12946.6 910.417,12952.6ZM898.39,12983.9C898.39,12980.1 897.847,12977 896.93,12974.7C895.609,12971.3 893.344,12969 890.223,12967.7C888.032,12966.8 886.085,12966.2 884.4,12966C882.927,12965.8 880.72,12965.6 877.775,12965.6C874.449,12965.6 871.946,12965.4 870.411,12964.2C869.919,12963.8 869.818,12963 869.622,12962.1C869.331,12960.8 869.206,12959.3 869.206,12957.4C869.206,12955.8 869.326,12954.4 869.613,12953.2C869.808,12952.4 869.957,12951.7 870.445,12951.3C872.093,12950.1 874.906,12949.8 878.735,12949.8C880.756,12949.8 882.311,12949.7 883.399,12949.6C884.863,12949.4 886.501,12948.8 888.279,12947.9C890.646,12946.7 892.412,12944.6 893.387,12941.7C893.986,12939.9 894.358,12937.5 894.358,12934.4C894.358,12927.6 891.88,12923.5 888.381,12921.4C885.587,12919.7 881.443,12918.6 875.855,12918.6L848.975,12918.6C845.754,12918.6 843.144,12921.2 843.144,12924.4L843.144,12997.2C843.144,13000.4 845.754,13003 848.975,13003L880.463,13003C882.223,13003 883.717,13002.9 884.949,13002.6C886.111,13002.3 887.743,13001.8 889.819,13000.9C892.632,12999.7 894.954,12997.4 896.529,12993.9C897.71,12991.3 898.39,12988 898.39,12983.9Z" style="fill:rgb(255,223,0);fill-rule:nonzero;"/>
                            </g>
                        </g>
                        <g transform="matrix(3.69516,0,0,3.85863,-9077.52,-9736.08)">
                            <g transform="matrix(26.6667,0,0,26.6667,2705.52,2559.31)">
                            </g>
                            <text x="2512.02px" y="2559.31px" style="font-family:'FredokaOne-Regular', 'Fredoka One';font-size:26.667px;fill:white;">Blank<tspan x="2583.52px 2598.53px " y="2559.31px 2559.31px ">et</tspan>Con &apos;23</text>
                        </g>
                    </g>
                </g>
            </g>
        </g>
    </g>
</svg>
