<?xml version="1.0" encoding="UTF-8" standalone="no"?>
<!DOCTYPE svg PUBLIC "-//W3C//DTD SVG 1.1//EN" "http://www.w3.org/Graphics/SVG/1.1/DTD/svg11.dtd">
<svg width="100%" height="100%" viewBox="0 0 200 200" version="1.1" xmlns="http://www.w3.org/2000/svg" xmlns:xlink="http://www.w3.org/1999/xlink" xml:space="preserve" xmlns:serif="http://www.serif.com/" style="fill-rule:evenodd;clip-rule:evenodd;stroke-linejoin:round;stroke-miterlimit:2;">
    <g transform="matrix(1,0,0,1,0,-1650)">
        <g transform="matrix(1,0,0,1,3,0)">
            <g id="singularity-full" serif:id="singularity/full" transform="matrix(1,0,0,1,-3,1650)">
                <rect x="0" y="0" width="200" height="200" style="fill:none;"/>
                <rect x="0" y="0" width="200" height="200" style="fill:rgb(30,5,48);"/>
                <path d="M64.37,164.69L147.72,152.46L147.72,150.53L113.53,155.36L113.53,42.3L70.42,36.09L70.42,38.43L111.08,44.07L111.08,155.7L64.36,162.31L64.36,164.69L64.37,164.69ZM158.35,166.83L47.15,188.19C42.91,189 39.8,188.89 37.86,187.84C35.9,186.78 34.91,184.64 34.91,181.43L34.91,150.78C34.91,147.57 35.89,145.16 37.86,143.54C39.8,141.94 42.92,140.95 47.15,140.57L81.5,137.51L81.5,61.21L53.69,58.73C49.57,58.36 46.55,57.39 44.66,55.82C42.75,54.23 41.8,51.85 41.8,48.69L41.8,18.49C41.8,15.33 42.76,13.22 44.66,12.16C46.55,11.12 49.57,11 53.69,11.79L131.19,26.68C133.98,27.22 135.97,28.17 137.19,29.52C138.4,30.87 139.01,32.8 139.01,35.3L139.01,132.39L158.37,130.67C160.77,130.46 162.49,130.83 163.55,131.78C164.6,132.73 165.12,134.36 165.12,136.69L165.12,158.93C165.12,161.26 164.6,163.04 163.55,164.28C162.49,165.53 160.77,166.38 158.37,166.84L158.35,166.83Z" style="fill:rgb(68,10,61);fill-rule:nonzero;"/>
                <path d="M108.54,118.67L108.54,75.62C108.54,74.32 107.48,73.26 106.18,73.26L84.14,73.26C82.84,73.26 81.78,74.32 81.78,75.62L81.78,83.22C81.78,84.52 82.84,85.58 84.14,85.58L92.85,85.58L92.85,118.67L82.47,118.67C81.17,118.67 80.11,119.73 80.11,121.03L80.11,128.46C80.11,129.76 81.17,130.82 82.47,130.82L117.53,130.82C118.83,130.82 119.89,129.76 119.89,128.46L119.89,121.03C119.89,119.73 118.83,118.67 117.53,118.67L108.54,118.67Z" style="fill:white;fill-rule:nonzero;"/>
                <g transform="matrix(1,0,0,1,163.759,93.422)">
                    <path d="M0,13.15L-57.169,70.319C-58.925,72.076 -61.26,73.043 -63.743,73.043C-66.228,73.043 -68.563,72.076 -70.318,70.319L-127.487,13.15C-129.244,11.394 -130.211,9.059 -130.211,6.575C-130.211,4.091 -129.244,1.756 -127.487,0.001L-70.318,-57.168C-68.563,-58.925 -66.228,-59.892 -63.743,-59.892C-61.26,-59.892 -58.925,-58.925 -57.169,-57.168L0,0.001C1.757,1.756 2.724,4.091 2.724,6.575C2.724,9.059 1.757,11.394 0,13.15M9.734,-9.734L-47.435,-66.903C-51.791,-71.259 -57.583,-73.658 -63.743,-73.658C-69.904,-73.658 -75.696,-71.259 -80.053,-66.903L-137.222,-9.734C-141.578,-5.377 -143.977,0.415 -143.977,6.575C-143.977,12.736 -141.578,18.528 -137.222,22.884L-80.053,80.053C-75.696,84.41 -69.904,86.808 -63.743,86.808C-57.583,86.808 -51.791,84.41 -47.435,80.053L9.734,22.884C14.091,18.528 16.489,12.736 16.489,6.575C16.489,0.415 14.091,-5.377 9.734,-9.734" style="fill:url(#_Linear1);fill-rule:nonzero;"/>
                </g>
            </g>
        </g>
    </g>
    <defs>
        <linearGradient id="_Linear1" x1="0" y1="0" x2="1" y2="0" gradientUnits="userSpaceOnUse" gradientTransform="matrix(109.643,179.438,-179.438,109.643,-128.839,-72.8627)"><stop offset="0" style="stop-color:rgb(250,103,165);stop-opacity:1"/><stop offset="1" style="stop-color:rgb(142,70,165);stop-opacity:1"/></linearGradient>
    </defs>
</svg>
