<?xml version="1.0" encoding="UTF-8" standalone="no"?>
<!DOCTYPE svg PUBLIC "-//W3C//DTD SVG 1.1//EN" "http://www.w3.org/Graphics/SVG/1.1/DTD/svg11.dtd">
<svg width="100%" height="100%" viewBox="0 0 686 200" version="1.1" xmlns="http://www.w3.org/2000/svg" xmlns:xlink="http://www.w3.org/1999/xlink" xml:space="preserve" xmlns:serif="http://www.serif.com/" style="fill-rule:evenodd;clip-rule:evenodd;stroke-miterlimit:10;">
    <g transform="matrix(1,0,0,1,-3400,-1680)">
        <g id="carnival-lockup-transparent" serif:id="carnival/lockup-transparent" transform="matrix(0.722126,0,0,1,3400,1680)">
            <rect x="0" y="0" width="949.973" height="200" style="fill:none;"/>
            <g transform="matrix(2.8642,0,0,2.06831,126.581,-147.642)">
                <path d="M96.052,83.361C97.078,83.361 97.907,83.461 98.536,83.659C99.165,83.858 99.612,84.206 99.877,84.703C100.142,85.2 100.3,85.647 100.349,86.044C100.399,86.442 100.424,87.021 100.424,87.783L100.424,115.359C100.424,116.121 100.391,116.692 100.325,117.073C100.258,117.454 100.101,117.885 99.853,118.365C99.604,118.845 99.165,119.185 98.536,119.384C97.907,119.582 97.062,119.682 96.002,119.682C95.141,119.682 94.429,119.599 93.865,119.433C93.302,119.268 92.872,119.069 92.574,118.837C92.275,118.605 92.052,118.266 91.903,117.818C91.754,117.371 91.671,116.99 91.654,116.676C91.638,116.361 91.63,115.889 91.63,115.26L91.63,98.615C90.801,99.642 89.592,101.273 88.002,103.509C86.413,105.745 85.237,107.343 84.475,108.304C84.375,108.469 84.243,108.66 84.077,108.875C83.912,109.09 83.506,109.388 82.86,109.769C82.214,110.15 81.51,110.341 80.748,110.341C80.02,110.341 79.349,110.167 78.736,109.819C78.123,109.471 77.684,109.132 77.419,108.8L77.022,108.254C76.359,107.426 75.051,105.662 73.097,102.962C71.142,100.263 70.082,98.814 69.917,98.615L69.917,115.359C69.917,116.121 69.892,116.692 69.842,117.073C69.793,117.454 69.635,117.885 69.37,118.365C69.105,118.845 68.658,119.185 68.029,119.384C67.399,119.582 66.555,119.682 65.495,119.682C64.468,119.682 63.648,119.582 63.035,119.384C62.422,119.185 61.984,118.845 61.719,118.365C61.454,117.885 61.296,117.446 61.247,117.048C61.197,116.651 61.172,116.055 61.172,115.26L61.172,87.684C61.172,86.922 61.197,86.351 61.247,85.97C61.296,85.589 61.454,85.158 61.719,84.678C61.984,84.198 62.431,83.858 63.06,83.659C63.689,83.461 64.534,83.361 65.594,83.361C66.488,83.361 67.259,83.469 67.904,83.684C68.55,83.9 68.973,84.123 69.171,84.355L69.47,84.653L80.748,99.46C86.379,92.007 90.139,87.088 92.027,84.703C92.59,83.808 93.932,83.361 96.052,83.361Z" style="fill:white;fill-rule:nonzero;"/>
                <path d="M117.268,92.951C120.911,92.951 124.108,94.234 126.857,96.801C129.606,99.368 130.981,102.639 130.981,106.614C130.981,109.364 130.269,111.806 128.844,113.943C127.42,116.079 125.689,117.653 123.652,118.663C121.615,119.673 119.52,120.179 117.367,120.179C115.148,120.179 113.011,119.64 110.957,118.564C108.904,117.487 107.173,115.897 105.765,113.794C104.357,111.691 103.654,109.314 103.654,106.664C103.654,102.689 105.045,99.41 107.827,96.826C110.61,94.242 113.756,92.951 117.268,92.951ZM114.038,110.217C115.098,111.028 116.174,111.434 117.268,111.434C118.361,111.434 119.454,111.02 120.547,110.192C121.64,109.364 122.186,108.138 122.186,106.515C122.186,104.892 121.673,103.683 120.646,102.888C119.619,102.093 118.477,101.695 117.218,101.695C116.092,101.695 115.015,102.109 113.988,102.938C112.961,103.766 112.448,104.975 112.448,106.565C112.448,108.188 112.978,109.405 114.038,110.217Z" style="fill:white;fill-rule:nonzero;"/>
                <path d="M155.625,81.324C156.652,81.324 157.48,81.423 158.109,81.622C158.739,81.821 159.178,82.169 159.426,82.666C159.675,83.163 159.824,83.601 159.873,83.982C159.923,84.363 159.948,84.935 159.948,85.696L159.948,115.359C159.948,116.121 159.923,116.692 159.873,117.073C159.824,117.454 159.666,117.885 159.401,118.365C159.136,118.845 158.689,119.185 158.06,119.384C157.43,119.582 156.586,119.682 155.526,119.682C153.008,119.682 151.617,118.87 151.352,117.247C149.961,118.837 148.023,119.632 145.539,119.632C142.558,119.632 139.842,118.332 137.39,115.732C134.939,113.131 133.714,110.059 133.714,106.515C133.714,103.136 134.947,100.139 137.415,97.522C139.883,94.905 142.591,93.597 145.539,93.597C147.99,93.597 149.895,94.425 151.253,96.081L151.253,85.647C151.253,84.885 151.278,84.314 151.327,83.933C151.377,83.552 151.526,83.121 151.774,82.641C152.023,82.161 152.462,81.821 153.091,81.622C153.72,81.423 154.565,81.324 155.625,81.324ZM143.7,109.645C144.562,110.539 145.605,110.987 146.831,110.987C148.056,110.987 149.075,110.539 149.886,109.645C150.698,108.751 151.104,107.757 151.104,106.664C151.104,105.604 150.714,104.61 149.936,103.683C149.158,102.755 148.106,102.292 146.781,102.292C145.456,102.292 144.396,102.747 143.601,103.658C142.806,104.569 142.409,105.571 142.409,106.664C142.409,107.757 142.839,108.751 143.7,109.645Z" style="fill:white;fill-rule:nonzero;"/>
                <path d="M188.02,83.312C188.782,83.312 189.354,83.336 189.735,83.386C190.115,83.436 190.546,83.593 191.026,83.858C191.507,84.123 191.846,84.57 192.045,85.2C192.244,85.829 192.343,86.674 192.343,87.734C192.343,88.794 192.244,89.638 192.045,90.268C191.846,90.897 191.498,91.336 191.002,91.584C190.505,91.833 190.066,91.982 189.685,92.031C189.304,92.081 188.716,92.106 187.921,92.106L172.717,92.106L172.717,97.124L182.505,97.124C183.3,97.124 183.888,97.149 184.269,97.199C184.65,97.248 185.081,97.406 185.561,97.671C186.041,97.936 186.381,98.391 186.58,99.037C186.778,99.683 186.878,100.536 186.878,101.596C186.878,102.457 186.795,103.169 186.629,103.733C186.464,104.296 186.265,104.726 186.033,105.024C185.801,105.322 185.462,105.546 185.014,105.695C184.567,105.844 184.186,105.927 183.872,105.944C183.557,105.96 183.085,105.968 182.456,105.968L172.717,105.968L172.717,115.359C172.717,116.154 172.692,116.734 172.643,117.098C172.593,117.462 172.436,117.893 172.171,118.39C171.906,118.887 171.458,119.235 170.829,119.433C170.2,119.632 169.355,119.731 168.295,119.731C167.434,119.731 166.722,119.649 166.159,119.483C165.595,119.317 165.165,119.119 164.867,118.887C164.569,118.655 164.345,118.315 164.196,117.868C164.047,117.421 163.964,117.04 163.948,116.725C163.931,116.411 163.923,115.939 163.923,115.309L163.923,87.684C163.923,85.995 164.237,84.844 164.867,84.231C165.496,83.618 166.689,83.312 168.444,83.312L188.02,83.312Z" style="fill:white;fill-rule:nonzero;"/>
                <path d="M216.341,103.285C216.341,105.472 215.836,107.053 214.826,108.03C213.816,109.008 212.698,109.496 211.472,109.496L199.697,109.496C199.697,110.424 200.243,111.202 201.336,111.831C202.429,112.461 203.605,112.775 204.864,112.775C205.758,112.775 206.603,112.709 207.398,112.577C208.193,112.444 208.773,112.312 209.137,112.179L209.683,111.98C210.478,111.616 211.141,111.434 211.671,111.434C212.731,111.434 213.642,112.179 214.404,113.67C214.834,114.564 215.05,115.326 215.05,115.955C215.05,118.903 211.522,120.377 204.466,120.377C202.015,120.377 199.837,119.955 197.933,119.11C196.028,118.266 194.546,117.156 193.486,115.781C192.426,114.407 191.639,112.958 191.126,111.434C190.612,109.91 190.356,108.353 190.356,106.763C190.356,102.59 191.705,99.252 194.405,96.752C197.105,94.251 200.475,93 204.516,93C206.139,93 207.63,93.224 208.988,93.671C210.346,94.118 211.472,94.698 212.367,95.41C213.261,96.122 214.014,96.942 214.627,97.87C215.24,98.797 215.679,99.716 215.944,100.627C216.209,101.538 216.341,102.424 216.341,103.285ZM205.858,104.975C207.116,104.975 207.746,104.445 207.746,103.385C207.746,102.623 207.456,102.01 206.876,101.546C206.297,101.083 205.46,100.851 204.367,100.851C203.307,100.851 202.247,101.29 201.187,102.167C200.127,103.045 199.597,103.981 199.597,104.975L205.858,104.975Z" style="fill:white;fill-rule:nonzero;"/>
                <path d="M229.21,120.179C225.865,120.179 222.718,119.251 219.77,117.396C219.14,116.999 218.826,116.419 218.826,115.657C218.826,114.697 219.455,113.338 220.714,111.583C221.078,111.02 221.641,110.738 222.403,110.738C223.264,110.738 224.275,111.086 225.434,111.782C227.057,112.709 228.432,113.173 229.558,113.173C231.578,113.173 232.589,112.775 232.589,111.98C232.589,111.649 232.274,111.368 231.645,111.136C231.015,110.904 230.22,110.722 229.26,110.589C228.299,110.457 227.264,110.183 226.154,109.769C225.045,109.355 224.01,108.85 223.049,108.254C222.088,107.658 221.293,106.722 220.664,105.447C220.035,104.171 219.72,102.656 219.72,100.9C219.72,95.667 223.314,93.05 230.502,93.05C232.854,93.05 235.272,93.613 237.756,94.739C238.915,95.269 239.495,95.998 239.495,96.926C239.495,97.588 239.147,98.482 238.452,99.609C237.69,100.801 236.928,101.397 236.166,101.397C235.769,101.397 235.206,101.232 234.477,100.9C233.052,100.238 231.711,99.907 230.452,99.907C228.498,99.907 227.521,100.271 227.521,101C227.521,101.53 227.844,101.952 228.49,102.267C229.136,102.581 229.947,102.797 230.924,102.913C231.901,103.029 232.953,103.252 234.079,103.583C235.206,103.915 236.257,104.32 237.234,104.801C238.212,105.281 239.023,106.093 239.669,107.235C240.315,108.378 240.638,109.778 240.638,111.434C240.638,113.223 240.315,114.721 239.669,115.93C239.023,117.139 238.112,118.034 236.936,118.613C235.76,119.193 234.568,119.599 233.359,119.831C232.15,120.063 230.767,120.179 229.21,120.179Z" style="fill:white;fill-rule:nonzero;"/>
                <path d="M258.276,102.341L255.047,102.143L255.047,108.999C255.047,109.894 255.188,110.539 255.469,110.937C255.751,111.334 256.256,111.533 256.985,111.533C257.813,111.533 258.434,111.558 258.848,111.608C259.262,111.657 259.692,111.806 260.14,112.055C260.587,112.303 260.893,112.693 261.059,113.223C261.224,113.753 261.307,114.481 261.307,115.409C261.307,116.436 261.2,117.264 260.984,117.893C260.769,118.522 260.413,118.961 259.916,119.21C259.419,119.458 258.98,119.607 258.599,119.657C258.218,119.707 257.664,119.731 256.935,119.731C253.49,119.731 250.873,118.953 249.084,117.396C247.296,115.839 246.401,113.206 246.401,109.496L246.401,102.143C245.772,102.242 245.176,102.292 244.613,102.292C243.718,102.292 243.031,102.01 242.551,101.447C242.07,100.884 241.83,99.708 241.83,97.919C241.83,96.992 241.913,96.222 242.079,95.609C242.244,94.996 242.485,94.557 242.799,94.292C243.114,94.027 243.42,93.853 243.718,93.77C244.017,93.688 244.364,93.646 244.762,93.646L246.401,93.845L246.401,88.727C246.401,87.965 246.426,87.402 246.476,87.038C246.526,86.674 246.675,86.268 246.923,85.821C247.172,85.374 247.61,85.059 248.24,84.877C248.869,84.694 249.714,84.603 250.774,84.603C251.602,84.603 252.289,84.686 252.836,84.852C253.382,85.017 253.805,85.208 254.103,85.423C254.401,85.639 254.624,85.97 254.774,86.417C254.923,86.864 255.005,87.253 255.022,87.585C255.039,87.916 255.047,88.38 255.047,88.976L255.047,93.845C256.504,93.712 257.597,93.646 258.326,93.646C259.088,93.646 259.659,93.671 260.04,93.721C260.421,93.77 260.852,93.92 261.332,94.168C261.812,94.416 262.152,94.855 262.351,95.485C262.549,96.114 262.649,96.959 262.649,98.019C262.649,99.045 262.549,99.874 262.351,100.503C262.152,101.132 261.804,101.571 261.307,101.82C260.81,102.068 260.371,102.217 259.991,102.267C259.61,102.316 259.038,102.341 258.276,102.341Z" style="fill:white;fill-rule:nonzero;"/>
                <path d="M273.083,95.683C273.679,96.313 273.977,97.538 273.977,99.36C273.944,100.155 273.903,100.743 273.853,101.124C273.803,101.505 273.638,101.96 273.356,102.49C273.075,103.02 272.603,103.393 271.94,103.608C271.278,103.824 270.383,103.931 269.257,103.931C267.468,103.931 266.226,103.583 265.531,102.888C264.934,102.292 264.636,101.066 264.636,99.211C264.636,98.582 264.653,98.118 264.686,97.82C264.719,97.522 264.818,97.124 264.984,96.627C265.15,96.131 265.39,95.766 265.704,95.534C266.019,95.302 266.483,95.095 267.096,94.913C267.708,94.731 268.462,94.64 269.356,94.64C271.145,94.64 272.387,94.988 273.083,95.683ZM273.083,111.533C273.679,112.129 273.977,113.355 273.977,115.21C273.944,116.005 273.903,116.593 273.853,116.974C273.803,117.355 273.638,117.81 273.356,118.34C273.075,118.87 272.603,119.243 271.94,119.458C271.278,119.673 270.383,119.781 269.257,119.781C267.468,119.781 266.226,119.433 265.531,118.738C264.934,118.141 264.636,116.916 264.636,115.061C264.636,114.432 264.653,113.968 264.686,113.67C264.719,113.372 264.818,112.974 264.984,112.477C265.15,111.98 265.39,111.616 265.704,111.384C266.019,111.152 266.483,110.945 267.096,110.763C267.708,110.581 268.462,110.49 269.356,110.49C271.145,110.49 272.387,110.838 273.083,111.533Z" style="fill:white;fill-rule:nonzero;"/>
            </g>
            <g transform="matrix(1.70068,0,0,1.2281,289.363,23.5237)">
                <path d="M86.959,109.745L87.257,109.546C88.383,108.883 89.178,108.552 89.642,108.552C90.669,108.552 91.779,109.48 92.971,111.334C93.7,112.494 94.064,113.438 94.064,114.167C94.064,114.829 93.841,115.392 93.393,115.856C92.946,116.32 92.275,116.816 91.381,117.346C91.083,117.545 90.661,117.81 90.114,118.141C89.568,118.473 88.45,118.903 86.76,119.433C85.071,119.963 83.382,120.228 81.692,120.228C80.235,120.228 78.703,120.021 77.096,119.607C75.49,119.193 73.834,118.498 72.128,117.52C70.422,116.543 68.89,115.351 67.532,113.943C66.174,112.535 65.056,110.73 64.178,108.527C63.3,106.324 62.861,103.915 62.861,101.298C62.861,98.747 63.292,96.42 64.153,94.317C65.014,92.214 66.116,90.475 67.457,89.1C68.799,87.725 70.331,86.566 72.053,85.622C73.776,84.678 75.457,83.999 77.096,83.585C78.736,83.171 80.318,82.964 81.841,82.964C83.398,82.964 84.98,83.204 86.586,83.684C88.193,84.165 89.41,84.653 90.238,85.15L91.431,85.846C92.027,86.21 92.483,86.516 92.797,86.765C93.112,87.013 93.41,87.353 93.692,87.783C93.973,88.214 94.114,88.678 94.114,89.175C94.114,90.003 93.766,90.897 93.07,91.858C91.779,93.646 90.619,94.541 89.592,94.541C88.996,94.541 88.152,94.176 87.058,93.448C85.667,92.321 83.812,91.758 81.494,91.758C80.467,91.758 79.407,91.949 78.314,92.33C77.221,92.71 76.169,93.265 75.159,93.994C74.148,94.723 73.312,95.75 72.65,97.075C71.987,98.4 71.656,99.89 71.656,101.546C71.656,103.236 71.987,104.743 72.65,106.068C73.312,107.393 74.157,108.428 75.183,109.173C76.21,109.918 77.27,110.473 78.363,110.838C79.456,111.202 80.5,111.384 81.494,111.384C82.52,111.384 83.489,111.252 84.4,110.987C85.311,110.722 85.965,110.457 86.363,110.192L86.959,109.745Z" style="fill:white;fill-rule:nonzero;"/>
                <path d="M117.367,85.895L130.782,113.62C131.345,114.746 131.627,115.591 131.627,116.154C131.627,117.346 130.666,118.423 128.745,119.384C127.619,119.947 126.675,120.228 125.913,120.228C125.383,120.228 124.911,120.079 124.497,119.781C124.083,119.483 123.785,119.168 123.602,118.837C123.42,118.506 123.164,118.009 122.832,117.346L120.249,111.98L106.486,111.98L103.902,117.346C103.571,118.009 103.314,118.489 103.132,118.787C102.95,119.085 102.652,119.392 102.238,119.707C101.823,120.021 101.351,120.179 100.821,120.179C100.06,120.179 99.116,119.897 97.989,119.334C96.068,118.406 95.108,117.346 95.108,116.154C95.108,115.591 95.389,114.746 95.952,113.62C95.952,113.62 100.424,104.362 109.367,85.846C109.732,85.084 110.287,84.471 111.032,84.007C111.777,83.543 112.564,83.312 113.392,83.312C115.181,83.312 116.506,84.173 117.367,85.895ZM113.342,97.82L110.063,104.627L116.671,104.627L113.342,97.82Z" style="fill:white;fill-rule:nonzero;"/>
                <path d="M162.233,113.57C162.73,114.763 162.979,115.624 162.979,116.154C162.979,117.413 161.952,118.473 159.898,119.334C158.838,119.798 157.944,120.03 157.215,120.03C156.652,120.03 156.163,119.872 155.749,119.557C155.335,119.243 155.037,118.92 154.855,118.589C154.673,118.257 154.433,117.744 154.135,117.048C153.406,115.392 152.346,112.908 150.955,109.595L149.414,109.695L143.154,109.695L143.154,115.309C143.154,116.071 143.129,116.643 143.079,117.024C143.03,117.404 142.872,117.843 142.607,118.34C142.342,118.837 141.895,119.185 141.266,119.384C140.637,119.582 139.792,119.682 138.732,119.682C137.871,119.682 137.158,119.599 136.595,119.433C136.032,119.268 135.602,119.069 135.304,118.837C135.005,118.605 134.782,118.266 134.633,117.818C134.484,117.371 134.401,116.99 134.384,116.676C134.368,116.361 134.36,115.889 134.36,115.26L134.36,87.684C134.36,86.922 134.384,86.351 134.434,85.97C134.484,85.589 134.641,85.15 134.906,84.653C135.171,84.156 135.618,83.808 136.248,83.61C136.877,83.411 137.722,83.312 138.782,83.312L149.514,83.312C150.905,83.312 152.338,83.585 153.812,84.131C155.286,84.678 156.685,85.465 158.01,86.491C159.335,87.518 160.428,88.91 161.289,90.665C162.151,92.421 162.581,94.375 162.581,96.528C162.581,100.271 161.339,103.352 158.855,105.77C159.583,107.525 160.71,110.125 162.233,113.57ZM143.154,100.9L149.514,100.9C150.474,100.9 151.435,100.536 152.396,99.807C153.356,99.079 153.836,97.969 153.836,96.478C153.836,95.054 153.356,93.969 152.396,93.224C151.435,92.479 150.441,92.106 149.414,92.106L143.154,92.106L143.154,100.9Z" style="fill:white;fill-rule:nonzero;"/>
                <path d="M193.188,83.361C194.016,83.361 194.72,83.444 195.299,83.61C195.879,83.775 196.31,83.974 196.591,84.206C196.873,84.438 197.088,84.777 197.237,85.224C197.386,85.672 197.469,86.053 197.486,86.367C197.502,86.682 197.51,87.154 197.51,87.783L197.51,115.359C197.51,116.154 197.486,116.734 197.436,117.098C197.386,117.462 197.229,117.893 196.964,118.39C196.699,118.887 196.252,119.235 195.622,119.433C194.993,119.632 194.148,119.731 193.088,119.731C191.797,119.731 190.902,119.632 190.405,119.433C189.908,119.235 189.494,118.92 189.163,118.489C181.71,108.552 176.808,102.06 174.456,99.012L174.456,115.359C174.456,116.154 174.431,116.734 174.382,117.098C174.332,117.462 174.175,117.893 173.91,118.39C173.645,118.887 173.197,119.235 172.568,119.433C171.939,119.632 171.094,119.731 170.034,119.731C169.007,119.731 168.187,119.632 167.575,119.433C166.962,119.235 166.523,118.887 166.258,118.39C165.993,117.893 165.836,117.446 165.786,117.048C165.736,116.651 165.711,116.071 165.711,115.309L165.711,87.585C165.711,86.823 165.745,86.26 165.811,85.895C165.877,85.531 166.034,85.117 166.283,84.653C166.531,84.189 166.97,83.858 167.599,83.659C168.229,83.461 169.073,83.361 170.133,83.361C171.061,83.361 171.814,83.452 172.394,83.635C172.974,83.817 173.38,84.015 173.611,84.231C173.843,84.446 174.141,84.786 174.506,85.249L174.754,85.547C181.743,95.054 186.414,101.331 188.766,104.378L188.766,87.585C188.766,86.823 188.799,86.26 188.865,85.895C188.931,85.531 189.089,85.117 189.337,84.653C189.586,84.189 190.024,83.858 190.654,83.659C191.283,83.461 192.128,83.361 193.188,83.361Z" style="fill:white;fill-rule:nonzero;"/>
                <path d="M201.485,87.684C201.485,86.922 201.51,86.351 201.56,85.97C201.61,85.589 201.767,85.15 202.032,84.653C202.297,84.156 202.744,83.808 203.373,83.61C204.003,83.411 204.847,83.312 205.907,83.312C206.769,83.312 207.481,83.394 208.044,83.56C208.607,83.726 209.038,83.924 209.336,84.156C209.634,84.388 209.857,84.728 210.006,85.175C210.156,85.622 210.238,86.003 210.255,86.318C210.271,86.632 210.28,87.104 210.28,87.734L210.28,115.359C210.28,116.154 210.255,116.734 210.205,117.098C210.156,117.462 209.998,117.893 209.733,118.39C209.468,118.887 209.021,119.235 208.392,119.433C207.762,119.632 206.918,119.731 205.858,119.731C204.996,119.731 204.284,119.649 203.721,119.483C203.158,119.317 202.727,119.119 202.429,118.887C202.131,118.655 201.908,118.315 201.759,117.868C201.61,117.421 201.527,117.04 201.51,116.725C201.494,116.411 201.485,115.939 201.485,115.309L201.485,87.684Z" style="fill:white;fill-rule:nonzero;"/>
                <path d="M247.495,83.858C249.449,84.819 250.426,85.879 250.426,87.038C250.426,87.568 250.178,88.363 249.681,89.423L235.967,117.247C235.603,117.976 235.048,118.564 234.303,119.011C233.558,119.458 232.787,119.682 231.993,119.682L231.496,119.682C230.668,119.682 229.881,119.458 229.136,119.011C228.39,118.564 227.835,117.976 227.471,117.247L213.758,89.423C213.261,88.363 213.012,87.568 213.012,87.038C213.012,85.879 213.99,84.819 215.944,83.858C217.037,83.295 217.964,83.013 218.726,83.013C219.124,83.013 219.472,83.08 219.77,83.212C220.068,83.345 220.341,83.577 220.59,83.908C220.838,84.239 221.028,84.521 221.161,84.752C221.293,84.984 221.492,85.349 221.757,85.846C221.79,85.912 222.32,87.079 223.347,89.348C224.374,91.617 225.475,94.027 226.651,96.578C227.827,99.128 228.937,101.538 229.98,103.807C231.024,106.076 231.612,107.343 231.744,107.608L241.681,85.846C241.946,85.216 242.186,84.728 242.402,84.38C242.617,84.032 242.923,83.717 243.321,83.436C243.718,83.154 244.182,83.013 244.712,83.013C245.474,83.013 246.401,83.295 247.495,83.858Z" style="fill:white;fill-rule:nonzero;"/>
                <path d="M266.723,85.895L280.138,113.62C280.701,114.746 280.983,115.591 280.983,116.154C280.983,117.346 280.022,118.423 278.101,119.384C276.975,119.947 276.031,120.228 275.269,120.228C274.739,120.228 274.267,120.079 273.853,119.781C273.439,119.483 273.141,119.168 272.959,118.837C272.776,118.506 272.52,118.009 272.188,117.346L269.605,111.98L255.842,111.98L253.258,117.346C252.927,118.009 252.67,118.489 252.488,118.787C252.306,119.085 252.008,119.392 251.594,119.707C251.18,120.021 250.708,120.179 250.178,120.179C249.416,120.179 248.472,119.897 247.345,119.334C245.424,118.406 244.464,117.346 244.464,116.154C244.464,115.591 244.745,114.746 245.308,113.62C245.308,113.62 249.78,104.362 258.724,85.846C259.088,85.084 259.643,84.471 260.388,84.007C261.133,83.543 261.92,83.312 262.748,83.312C264.537,83.312 265.862,84.173 266.723,85.895ZM262.698,97.82L259.419,104.627L266.027,104.627L262.698,97.82Z" style="fill:white;fill-rule:nonzero;"/>
                <path d="M292.51,112.378L306.025,112.378C306.687,112.378 307.176,112.403 307.49,112.452C307.805,112.502 308.161,112.626 308.559,112.825C308.956,113.024 309.238,113.388 309.403,113.918C309.569,114.448 309.652,115.16 309.652,116.055C309.652,116.916 309.569,117.611 309.403,118.141C309.238,118.671 308.948,119.044 308.534,119.259C308.12,119.475 307.747,119.607 307.416,119.657C307.085,119.707 306.604,119.731 305.975,119.731L288.088,119.731C287.227,119.731 286.515,119.649 285.952,119.483C285.388,119.317 284.958,119.119 284.66,118.887C284.362,118.655 284.138,118.315 283.989,117.868C283.84,117.421 283.757,117.04 283.74,116.725C283.724,116.411 283.716,115.939 283.716,115.309L283.716,87.684C283.716,86.922 283.74,86.351 283.79,85.97C283.84,85.589 283.997,85.15 284.262,84.653C284.527,84.156 284.974,83.808 285.604,83.61C286.233,83.411 287.078,83.312 288.138,83.312C288.999,83.312 289.711,83.394 290.274,83.56C290.837,83.726 291.268,83.924 291.566,84.156C291.864,84.388 292.088,84.728 292.237,85.175C292.386,85.622 292.469,86.003 292.485,86.318C292.502,86.632 292.51,87.104 292.51,87.734L292.51,112.378Z" style="fill:white;fill-rule:nonzero;"/>
            </g>
            <g id="carnival-transparent" serif:id="carnival/transparent" transform="matrix(1.31556,0,0,0.95,7.649,5)">
                <g>
                    <g id="carnival-transparent1" serif:id="carnival/transparent">
                        <rect x="0" y="0" width="200" height="200" style="fill:none;"/>
                        <g>
                            <clipPath id="_clip1">
                                <rect x="0" y="0" width="200" height="200"/>
                            </clipPath>
                            <g clip-path="url(#_clip1)">
                                <g id="ModFest-Carnival-Transparent" serif:id="ModFest Carnival Transparent" transform="matrix(1.05263,0,0,1.05263,-5.21447,-5.26316)">
                                    <rect x="0" y="0" width="200" height="200" style="fill:none;"/>
                                    <g>
                                        <g transform="matrix(1,0,0,1,0.05,0)">
                                            <path d="M199.95,0L200,0L200,200L199.95,200L199.95,0ZM29.295,108.905C17.94,104.035 12.547,99.635 12.547,99.635C7.882,96.023 5.546,90.163 6.448,84.333C7.349,78.502 11.346,73.622 16.884,71.588C16.884,71.588 32.968,65.435 54.426,47.279C76.331,28.747 86.332,13.476 86.332,13.476C91.172,5.947 101.213,3.763 108.742,8.603C110.785,9.915 112.434,11.611 113.656,13.535C114.508,14.803 124.619,29.551 145.574,47.279C167.032,65.435 183.116,71.588 183.116,71.588C188.651,73.621 192.647,78.497 193.551,84.324C194.455,90.151 192.126,96.01 187.467,99.624C187.467,99.624 182.079,104.031 170.724,108.906C170.164,109.757 169.515,110.566 168.778,111.32C166.725,129.232 169.771,145.868 174.273,162.132C174.457,162.75 174.57,163.377 174.618,164.004C174.737,165.521 174.466,167.011 173.874,168.351C173.285,169.693 172.369,170.899 171.17,171.836C170.661,172.235 170.104,172.583 169.506,172.869C167.763,173.734 153.861,180.399 132.098,184.267L131.684,183.805C131.684,183.805 121.871,172.864 115.812,164.288L111.45,168.65C105.15,174.95 94.85,174.95 88.55,168.65L84.923,165.023C80.347,171.975 75.059,178.609 69.638,183.558L68.921,184.212C45.455,180.085 30.505,172.873 30.505,172.873C26.542,170.977 24.511,166.512 25.685,162.279C30.211,145.967 33.281,129.285 31.221,111.317C30.492,110.561 29.85,109.752 29.295,108.905Z" style="fill:url(#_Linear2);"/>
                                        </g>
                                        <g id="Layer6">
                                            <path d="M29.345,108.905C17.99,104.035 12.597,99.635 12.597,99.635C7.932,96.023 5.596,90.163 6.498,84.333C7.399,78.502 11.396,73.622 16.934,71.588C16.934,71.588 33.018,65.435 54.476,47.279C76.381,28.747 86.382,13.476 86.382,13.476C91.222,5.947 101.263,3.763 108.792,8.603C110.835,9.915 112.484,11.611 113.706,13.535C114.558,14.803 124.669,29.551 145.624,47.279C167.082,65.435 183.166,71.588 183.166,71.588C188.701,73.621 192.697,78.497 193.601,84.324C194.505,90.151 192.176,96.01 187.517,99.624C187.517,99.624 182.129,104.031 170.774,108.906C170.214,109.757 169.565,110.566 168.828,111.32C166.775,129.232 169.821,145.868 174.323,162.132C174.507,162.75 174.62,163.377 174.668,164.004C174.787,165.521 174.516,167.011 173.924,168.351C173.335,169.693 172.419,170.899 171.22,171.836C170.711,172.235 170.154,172.583 169.556,172.869C167.813,173.734 153.911,180.399 132.148,184.267L131.734,183.805C131.734,183.805 121.921,172.864 115.862,164.288L111.5,168.65C105.2,174.95 94.9,174.95 88.6,168.65L84.973,165.023C80.397,171.975 75.109,178.609 69.688,183.558L68.971,184.212C45.505,180.085 30.555,172.873 30.555,172.873C26.592,170.977 24.561,166.512 25.735,162.279C30.261,145.967 33.331,129.285 31.271,111.317C30.542,110.561 29.9,109.752 29.345,108.905Z" style="fill-opacity:0.8;"/>
                                        </g>
                                        <g id="Layer3" transform="matrix(1.16747,0,0,1.05647,-16.9423,-20.8681)">
                                            <g opacity="0.13">
                                                <g transform="matrix(0.885871,0,0,1,11.6008,1.92375)">
                                                    <path d="M33.32,121.595C21.206,116.723 15.466,112.138 15.466,112.138C10.955,108.719 8.697,103.172 9.569,97.654C10.441,92.135 14.305,87.515 19.66,85.591C19.66,85.591 35.211,79.766 55.959,62.581C77.139,45.039 86.81,30.585 86.81,30.585C91.489,23.458 101.198,21.391 108.478,25.972C110.453,27.214 112.047,28.819 113.229,30.641C114.053,31.841 123.829,45.8 144.091,62.581C164.839,79.766 180.39,85.591 180.39,85.591C185.742,87.514 189.606,92.131 190.48,97.646C191.354,103.161 189.102,108.707 184.597,112.128C184.597,112.128 176.984,118.224 160.766,123.83C162.888,123.119 164.871,122.397 166.718,121.678C164.367,139.214 167.357,155.44 171.84,171.294C172.017,171.879 172.127,172.473 172.174,173.066C172.288,174.503 172.026,175.912 171.454,177.182C170.884,178.452 169.999,179.593 168.839,180.48C168.347,180.858 167.809,181.187 167.231,181.458C165.545,182.277 152.103,188.585 131.061,192.246L130.661,191.809C130.661,191.809 117.883,177.865 112.829,169.654C108.824,163.148 105.595,156.622 103.7,151.264L100.546,142.351L97.392,151.264C95.497,156.622 92.269,163.148 88.264,169.654C83.268,177.769 77.064,185.859 70.668,191.575L69.975,192.194C47.285,188.288 32.83,181.462 32.83,181.462C28.999,179.667 27.034,175.44 28.17,171.434C32.682,155.51 35.698,139.214 33.32,121.595ZM115.783,101.692C125.08,100.934 133.004,99.555 139.608,97.953C134.728,94.601 129.426,90.649 123.835,86.018C113.758,77.672 105.872,69.87 100.016,63.483C94.169,69.872 86.29,77.673 76.215,86.018C70.628,90.646 65.328,94.596 60.451,97.946C69.568,100.159 81.194,101.946 95.471,102.265C95.501,101.595 95.651,100.762 95.922,99.763C96.252,98.548 96.833,97.533 97.665,96.718C99.514,94.908 101.782,94.096 104.468,94.281C107.153,94.467 110.156,96.184 113.476,99.434L115.783,101.692Z" style="fill:rgb(184,178,116);"/>
                                                </g>
                                            </g>
                                        </g>
                                        <g transform="matrix(1,0,0,1,7.10543e-14,-0.05)">
                                            <path d="M31.4,88.6L88.6,31.4C94.9,25.1 105.2,25.1 111.5,31.4L168.7,88.6C175,94.9 175,105.2 168.7,111.5L111.5,168.7C105.2,175 94.9,175 88.6,168.7L31.4,111.5C25.1,105.1 25.1,94.9 31.4,88.6Z" style="fill:none;fill-rule:nonzero;stroke:url(#_Linear3);stroke-width:13.77px;"/>
                                        </g>
                                        <g transform="matrix(0.865803,0.865803,-0.535219,0.535219,-334.058,-463.708)">
                                            <path d="M556.676,121.072L556.676,81.883C556.676,79.804 557.186,77.811 558.094,76.341C559.003,74.872 560.235,74.046 561.52,74.046L567.631,74.046C568.335,74.046 568.958,74.779 569.176,75.861C570.146,80.686 572.95,84.178 576.255,84.178C579.56,84.178 582.365,80.686 583.335,75.861C583.552,74.779 584.176,74.046 584.879,74.046L590.99,74.046C592.275,74.046 593.507,74.872 594.416,76.341C595.324,77.811 595.835,79.804 595.835,81.883L595.835,121.072L595.834,121.076L595.799,160.273C595.795,164.597 593.627,168.098 590.954,168.098L584.839,168.098C584.135,168.098 583.511,167.366 583.294,166.283C582.324,161.458 579.519,157.966 576.214,157.966C572.91,157.966 570.105,161.458 569.135,166.283C568.917,167.366 568.294,168.098 567.59,168.098L561.484,168.098C560.198,168.098 558.965,167.271 558.056,165.799C557.147,164.327 556.638,162.33 556.64,160.25L556.676,121.072ZM565.209,107.792C565.209,109.4 565.481,110.963 566.026,112.482C566.57,114 567.073,115.106 567.534,115.798C567.994,116.49 568.434,117.082 568.853,117.574C566.424,119.807 565.209,123.201 565.209,127.757C565.209,128.65 565.314,129.532 565.523,130.403C565.733,131.274 565.97,131.977 566.235,132.513C566.5,133.049 566.808,133.563 567.157,134.054C567.506,134.546 567.743,134.858 567.869,134.992L568.183,135.327C567.233,135.327 566.507,135.707 566.005,136.466C565.502,137.225 565.251,138.699 565.251,140.888C565.251,142.317 565.335,143.456 565.502,144.305C565.67,145.153 565.956,145.756 566.361,146.113C566.766,146.471 567.129,146.683 567.45,146.75C567.771,146.817 568.253,146.85 568.895,146.85L583.639,146.85C584.309,146.85 584.798,146.817 585.105,146.75C585.412,146.683 585.775,146.482 586.194,146.147C586.613,145.812 586.906,145.22 587.074,144.372C587.241,143.523 587.325,142.406 587.325,141.022C587.325,139.593 587.241,138.454 587.074,137.605C586.906,136.756 586.62,136.153 586.215,135.796C585.81,135.439 585.447,135.227 585.126,135.16C584.805,135.093 584.323,135.059 583.681,135.059L576.267,135.059C573.838,135.059 572.623,133.719 572.623,131.04C572.623,128.27 573.838,126.886 576.267,126.886L583.597,126.886C584.24,126.886 584.721,126.852 585.042,126.785C585.364,126.718 585.734,126.517 586.152,126.182C586.571,125.847 586.871,125.256 587.053,124.407C587.234,123.558 587.325,122.442 587.325,121.057C587.325,119.628 587.241,118.489 587.074,117.64C586.906,116.792 586.613,116.189 586.194,115.832C585.775,115.474 585.412,115.262 585.105,115.195C584.798,115.128 584.309,115.095 583.639,115.095L576.309,115.095C575.136,115.095 574.229,114.816 573.586,114.257C572.944,113.699 572.623,112.638 572.623,111.075C572.623,108.306 573.838,106.921 576.267,106.921L583.597,106.921C584.24,106.921 584.721,106.888 585.042,106.821C585.364,106.754 585.734,106.553 586.152,106.218C586.571,105.883 586.871,105.291 587.053,104.442C587.234,103.594 587.325,102.477 587.325,101.093C587.325,99.663 587.241,98.525 587.074,97.676C586.906,96.827 586.613,96.236 586.194,95.901C585.775,95.566 585.405,95.365 585.084,95.298C584.763,95.231 584.281,95.197 583.639,95.197L576.309,95.197C572.344,95.197 569.502,96.403 567.785,98.815C566.068,101.227 565.209,104.219 565.209,107.792Z" style="fill:white;"/>
                                        </g>
                                    </g>
                                </g>
                            </g>
                        </g>
                    </g>
                </g>
            </g>
        </g>
    </g>
    <defs>
        <linearGradient id="_Linear2" x1="0" y1="0" x2="1" y2="0" gradientUnits="userSpaceOnUse" gradientTransform="matrix(200,0,0,200,0,100)"><stop offset="0" style="stop-color:rgb(206,255,97);stop-opacity:1"/><stop offset="0.23" style="stop-color:rgb(176,255,104);stop-opacity:1"/><stop offset="0.49" style="stop-color:rgb(95,255,122);stop-opacity:1"/><stop offset="1" style="stop-color:rgb(0,228,196);stop-opacity:1"/></linearGradient>
        <linearGradient id="_Linear3" x1="0" y1="0" x2="1" y2="0" gradientUnits="userSpaceOnUse" gradientTransform="matrix(146.75,0,0,146.75,26.675,100.05)"><stop offset="0" style="stop-color:rgb(206,255,97);stop-opacity:1"/><stop offset="0.23" style="stop-color:rgb(176,255,104);stop-opacity:1"/><stop offset="0.49" style="stop-color:rgb(95,255,122);stop-opacity:1"/><stop offset="1" style="stop-color:rgb(0,228,196);stop-opacity:1"/></linearGradient>
    </defs>
</svg>
