<?xml version="1.0" encoding="UTF-8"?>
<svg id="Layer_1" data-name="Layer 1" xmlns="http://www.w3.org/2000/svg" viewBox="0 0 200 200">
  <rect x="0" y="0" width="200" height="200" style="fill: #1a263d;"/>
  <path d="M173.64,116.35l-8.76,8.78-9.7-9.7c-2.7-2.69-7.06-2.69-9.76,0-2.69,2.69-2.69,7.06,0,9.76l9.7,9.68-20.23,20.25-9.7-9.7c-2.69-2.69-7.06-2.69-9.76,0-2.69,2.7-2.69,7.06,0,9.76l9.7,9.68-8.78,8.78c-9.01,9.01-23.67,9-32.68,0L26.36,116.35c-9.01-9.01-9.01-23.69,0-32.7L83.66,26.35c9.01-9.01,23.67-9,32.68,.02l57.3,57.29c9.01,9.01,9.01,23.69,0,32.7Z" style="fill: #94c0ff;"/>
  <text transform="translate(74.42 130.9)" style="fill: #1a263d; font-family: FredokaOne-Regular, &apos;Fredoka One&apos;; font-size: 79.19px;"><tspan x="0" y="0">B</tspan></text>
</svg>