<?xml version="1.0" encoding="UTF-8"?>
<svg id="Layer_1" data-name="Layer 1" xmlns="http://www.w3.org/2000/svg" viewBox="0 0 180 180">
  <path d="M104.25,69.91l-5.26,5.26-5.81-5.81c-1.61-1.61-4.23-1.61-5.84,0-1.62,1.62-1.62,4.23,0,5.85l5.8,5.81-12.12,12.12-5.81-5.81c-1.61-1.61-4.23-1.61-5.84,0-1.62,1.62-1.62,4.23,0,5.85l5.8,5.8-5.26,5.26c-5.4,5.4-14.18,5.4-19.58,0L16,69.91c-5.4-5.4-5.4-14.18,0-19.58L50.33,16c5.4-5.4,14.18-5.4,19.58,0l34.33,34.33c5.4,5.4,5.41,14.18,.01,19.58Z" style="fill: #94c0ff;"/>
  <path d="M164,129.67l-34.33,34.33c-5.4,5.4-14.18,5.4-19.58,0l-34.33-34.33c-5.4-5.4-5.4-14.18,0-19.58l5.26-5.26,5.88,5.89c.81,.8,1.87,1.21,2.93,1.21s2.11-.41,2.92-1.21c1.61-1.62,1.61-4.24,0-5.85l-5.88-5.88,12.12-12.13,5.88,5.89c.81,.8,1.87,1.21,2.93,1.21s2.11-.41,2.92-1.21c1.61-1.62,1.61-4.24,0-5.85l-5.88-5.88,5.25-5.26c5.4-5.4,14.18-5.4,19.58,0l34.33,34.33c5.4,5.4,5.4,14.18,0,19.58Z" style="fill: #8ce8f4;"/>
  <text transform="translate(45.65 74.28)" style="fill: #1a263d; font-family: FredokaOne-Regular, &apos;Fredoka One&apos;; font-size: 47.51px;"><tspan x="0" y="0">2</tspan></text>
  <text transform="translate(105.41 137.69)" style="fill: #1a263d; font-family: FredokaOne-Regular, &apos;Fredoka One&apos;; font-size: 47.51px;"><tspan x="0" y="0">2</tspan></text>
</svg>