<?xml version="1.0" encoding="UTF-8" standalone="no"?>
<!DOCTYPE svg PUBLIC "-//W3C//DTD SVG 1.1//EN" "http://www.w3.org/Graphics/SVG/1.1/DTD/svg11.dtd">
<svg width="100%" height="100%" viewBox="0 0 1920 1080" version="1.1" xmlns="http://www.w3.org/2000/svg" xmlns:xlink="http://www.w3.org/1999/xlink" xml:space="preserve" xmlns:serif="http://www.serif.com/" style="fill-rule:evenodd;clip-rule:evenodd;stroke-linecap:round;stroke-linejoin:round;stroke-miterlimit:1.5;">
    <g transform="matrix(1,0,0,1,0,-3600)">
        <g id="_1.15-background" serif:id="1.15/background" transform="matrix(1.78857,0,0,2.07692,1.13687e-13,793.582)">
            <rect x="0" y="1351.24" width="1073.48" height="520" style="fill:rgb(30,22,8);"/>
            <clipPath id="_clip1">
                <rect x="0" y="1351.24" width="1073.48" height="520"/>
            </clipPath>
            <g clip-path="url(#_clip1)">
                <g transform="matrix(9.06381,-4.50647,5.23299,7.80543,-725.474,1352.2)">
                    <path d="M80.003,83.262C80.864,83.262 81.576,83.345 82.14,83.51C82.703,83.676 83.133,83.866 83.431,84.082C83.729,84.297 83.953,84.645 84.102,85.125C84.251,85.605 84.334,86.003 84.351,86.318C84.367,86.632 84.375,87.121 84.375,87.783L84.375,115.458C84.375,116.22 84.351,116.792 84.301,117.173C84.251,117.553 84.094,117.992 83.829,118.489C83.564,118.986 83.117,119.334 82.487,119.533C81.858,119.731 81.013,119.831 79.953,119.831C78.927,119.831 78.098,119.731 77.469,119.533C76.84,119.334 76.393,118.994 76.128,118.514C75.863,118.034 75.705,117.587 75.656,117.173C75.606,116.759 75.581,116.154 75.581,115.359L75.581,97.621L74.935,98.217C73.577,99.244 72.451,99.758 71.556,99.758C70.53,99.758 69.569,99.261 68.675,98.267C67.482,96.942 66.886,95.816 66.886,94.888C66.886,94.027 67.482,93.067 68.675,92.007L76.823,84.653L76.972,84.554C77.833,83.692 78.844,83.262 80.003,83.262Z" style="fill:rgb(51,38,21);fill-rule:nonzero;"/>
                    <path d="M96.052,111.533C96.615,112.096 96.896,113.256 96.896,115.011L96.896,115.21C96.896,116.005 96.871,116.593 96.822,116.974C96.772,117.355 96.606,117.81 96.325,118.34C96.043,118.87 95.571,119.243 94.909,119.458C94.246,119.673 93.352,119.781 92.226,119.781C90.437,119.781 89.195,119.433 88.499,118.738C87.903,118.175 87.605,117.015 87.605,115.26L87.605,115.061C87.605,114.299 87.63,113.719 87.68,113.322C87.729,112.924 87.887,112.469 88.152,111.956C88.417,111.442 88.889,111.069 89.568,110.838C90.247,110.606 91.149,110.49 92.275,110.49C94.031,110.49 95.29,110.838 96.052,111.533Z" style="fill:rgb(51,38,21);fill-rule:nonzero;"/>
                    <path d="M112.001,83.262C112.862,83.262 113.574,83.345 114.137,83.51C114.7,83.676 115.131,83.866 115.429,84.082C115.727,84.297 115.951,84.645 116.1,85.125C116.249,85.605 116.332,86.003 116.348,86.318C116.365,86.632 116.373,87.121 116.373,87.783L116.373,115.458C116.373,116.22 116.348,116.792 116.299,117.173C116.249,117.553 116.092,117.992 115.827,118.489C115.562,118.986 115.114,119.334 114.485,119.533C113.856,119.731 113.011,119.831 111.951,119.831C110.924,119.831 110.096,119.731 109.467,119.533C108.837,119.334 108.39,118.994 108.125,118.514C107.86,118.034 107.703,117.587 107.653,117.173C107.604,116.759 107.579,116.154 107.579,115.359L107.579,97.621L106.933,98.217C105.575,99.244 104.449,99.758 103.554,99.758C102.527,99.758 101.567,99.261 100.672,98.267C99.48,96.942 98.884,95.816 98.884,94.888C98.884,94.027 99.48,93.067 100.672,92.007L108.821,84.653L108.97,84.554C109.831,83.692 110.841,83.262 112.001,83.262Z" style="fill:rgb(51,38,21);fill-rule:nonzero;"/>
                    <path d="M143.452,107.658C143.452,111.235 142.26,114.258 139.875,116.725C137.49,119.193 134.525,120.427 130.981,120.427C129.755,120.427 128.579,120.303 127.453,120.054C126.327,119.806 125.391,119.508 124.646,119.16C123.901,118.812 123.238,118.456 122.658,118.092C122.079,117.727 121.656,117.413 121.391,117.148L120.994,116.8C119.735,115.707 119.106,114.746 119.106,113.918C119.106,112.958 119.719,111.848 120.944,110.589C121.938,109.496 122.932,108.95 123.925,108.95C124.787,108.95 125.863,109.48 127.155,110.539C127.751,111.235 128.911,111.583 130.633,111.583C131.859,111.583 132.828,111.268 133.54,110.639C134.252,110.01 134.608,109.132 134.608,108.006C134.608,106.912 134.219,106.043 133.44,105.397C132.662,104.751 131.792,104.428 130.832,104.428C129.805,104.428 128.993,104.726 128.397,105.322C127.503,106.084 126.609,106.465 125.714,106.465C124.787,106.465 123.71,106.134 122.485,105.472C121.358,104.875 120.613,104.387 120.249,104.006C119.884,103.625 119.702,103.203 119.702,102.739C119.702,102.606 119.735,102.308 119.802,101.844C120.63,95.518 121.259,90.781 121.69,87.634C121.69,87.502 121.706,87.336 121.739,87.137C121.772,86.939 121.888,86.591 122.087,86.094C122.286,85.597 122.526,85.15 122.808,84.752C123.089,84.355 123.52,83.999 124.099,83.684C124.679,83.37 125.35,83.212 126.112,83.212C126.145,83.212 126.923,83.22 128.447,83.237C129.971,83.254 131.718,83.262 133.689,83.262L138.334,83.262C139.129,83.262 139.709,83.287 140.073,83.336C140.438,83.386 140.868,83.543 141.365,83.808C141.862,84.073 142.21,84.529 142.409,85.175C142.607,85.821 142.707,86.69 142.707,87.783C142.707,88.777 142.616,89.572 142.433,90.168C142.251,90.764 141.928,91.187 141.465,91.435C141.001,91.684 140.595,91.833 140.247,91.882C139.9,91.932 139.361,91.957 138.633,91.957L129.937,91.957C129.871,92.354 129.706,93.613 129.441,95.733C129.805,95.667 130.385,95.634 131.18,95.634C134.326,95.634 137.158,96.818 139.676,99.186C142.193,101.555 143.452,104.378 143.452,107.658Z" style="fill:rgb(51,38,21);fill-rule:nonzero;"/>
                </g>
                <g>
                    <g transform="matrix(-0.946702,-9.98414e-17,1.45809e-16,-1.02532,857.072,1845.4)">
                        <g transform="matrix(0.707107,-0.707107,0.707107,0.707107,-181.045,487.364)">
                            <path d="M635.556,324.444C611.616,333.425 588.12,343.524 565.033,354.507C557.131,358.265 549.277,362.121 541.434,366C539.153,367.128 536.872,368.258 534.591,369.386C532.984,370.179 531.487,371.041 529.727,371.451C527.652,371.934 525.486,372.191 523.379,372.501C518.435,373.229 513.461,373.751 508.473,374.057C498.409,374.676 488.295,374.417 478.276,373.292C474.145,372.829 469.881,372.395 465.828,371.451C464.068,371.041 462.572,370.179 460.965,369.386C458.683,368.258 456.403,367.128 454.122,366C446.279,362.121 438.424,358.265 430.523,354.507C407.436,343.524 383.94,333.425 360,324.444C368.98,348.384 379.08,371.88 390.062,394.967C393.821,402.869 397.677,410.723 401.556,418.566C402.684,420.847 403.814,423.128 404.941,425.409C405.735,427.016 406.596,428.513 407.006,430.273C407.49,432.348 407.746,434.514 408.057,436.621C408.785,441.565 409.306,446.539 409.613,451.527C410.232,461.591 409.973,471.705 408.848,481.724C408.384,485.855 407.95,490.119 407.006,494.172C406.596,495.932 405.735,497.428 404.941,499.035C403.814,501.317 402.684,503.597 401.556,505.878C397.677,513.721 393.821,521.576 390.062,529.477C379.08,552.564 368.98,576.06 360,600C383.94,591.02 407.436,580.92 430.523,569.938C438.424,566.179 446.279,562.323 454.122,558.444C456.403,557.316 458.683,556.186 460.965,555.059C462.572,554.265 464.068,553.404 465.828,552.994C467.903,552.51 470.069,552.254 472.176,551.943C477.12,551.215 482.095,550.694 487.083,550.387C497.146,549.768 507.261,550.027 517.28,551.152C521.41,551.616 525.675,552.05 529.727,552.994C531.487,553.404 532.984,554.265 534.591,555.059C536.872,556.186 539.153,557.316 541.434,558.444C549.277,562.323 557.131,566.179 565.033,569.938C588.12,580.92 611.616,591.02 635.556,600C626.575,576.06 616.476,552.564 605.493,529.477C601.735,521.576 597.879,513.721 594,505.878C592.872,503.597 591.742,501.317 590.614,499.035C589.821,497.428 588.959,495.932 588.549,494.172C588.066,492.097 587.809,489.931 587.499,487.824C586.771,482.88 586.249,477.905 585.943,472.917C585.324,462.854 585.583,452.739 586.708,442.72C587.171,438.59 587.605,434.325 588.549,430.273C588.959,428.513 589.821,427.016 590.614,425.409C591.742,423.128 592.872,420.847 594,418.566C597.879,410.723 601.735,402.869 605.493,394.967C616.476,371.88 626.575,348.384 635.556,324.444Z" style="fill:none;stroke:rgb(51,38,21);stroke-width:97.17px;"/>
                        </g>
                    </g>
                    <g transform="matrix(1,0,0,1,-32.7139,94.4335)">
                        <g transform="matrix(1.51248e-16,2.12713,-2.47006,1.30249e-16,1060.26,-192.352)">
                            <path d="M816.649,478.643L816.649,505.648C816.649,516.083 825.121,524.554 835.556,524.554C845.99,524.554 854.462,516.083 854.462,505.648L854.462,478.643C848.475,480.449 842.128,481.421 835.556,481.421C828.983,481.421 822.636,480.449 816.649,478.643ZM854.462,353.357L854.462,326.352C854.462,315.917 845.99,307.446 835.556,307.446C825.121,307.446 816.649,315.917 816.649,326.352L816.649,353.357C822.636,351.551 828.983,350.579 835.556,350.579C842.128,350.579 848.475,351.551 854.462,353.357Z" style="fill:rgb(51,38,21);"/>
                        </g>
                        <g transform="matrix(-1.7466,1.50411,-1.7466,-1.50411,2218.68,953.925)">
                            <path d="M854.462,353.367L854.462,326.352C854.462,315.917 845.99,307.446 835.556,307.446C825.121,307.446 816.649,315.917 816.649,326.352L816.649,353.367C828.961,349.667 842.15,349.667 854.462,353.367ZM816.649,478.633L816.649,505.648C816.649,516.083 825.121,524.554 835.556,524.554C845.99,524.554 854.462,516.083 854.462,505.648L854.462,478.633C842.15,482.333 828.961,482.333 816.649,478.633Z" style="fill:rgb(51,38,21);"/>
                        </g>
                        <g transform="matrix(-2.47006,0,0,-2.12713,2096.59,2469.87)">
                            <path d="M854.462,353.357L854.462,326.352C854.462,315.917 845.99,307.446 835.556,307.446C825.121,307.446 816.649,315.917 816.649,326.352L816.649,353.357C822.636,351.551 828.983,350.579 835.556,350.579C842.128,350.579 848.475,351.551 854.462,353.357ZM816.649,478.643L816.649,505.648C816.649,516.083 825.121,524.554 835.556,524.554C845.99,524.554 854.462,516.083 854.462,505.648L854.462,478.643C848.475,480.449 842.128,481.421 835.556,481.421C828.983,481.421 822.636,480.449 816.649,478.643Z" style="fill:rgb(51,38,21);"/>
                        </g>
                        <g transform="matrix(-1.7466,-1.50411,1.7466,-1.50411,765.508,3467.46)">
                            <path d="M854.462,353.367L854.462,326.352C854.462,315.917 845.99,307.446 835.556,307.446C825.121,307.446 816.649,315.917 816.649,326.352L816.649,353.367C828.961,349.667 842.15,349.667 854.462,353.367ZM816.649,478.633L816.649,505.648C816.649,516.083 825.121,524.554 835.556,524.554C845.99,524.554 854.462,516.083 854.462,505.648L854.462,478.633C842.15,482.333 828.961,482.333 816.649,478.633Z" style="fill:rgb(51,38,21);"/>
                        </g>
                        <g transform="matrix(1.50962,0,0,1.30003,-1372.27,1035.87)">
                            <path d="M836.349,472.973C833.009,466.762 830.264,460.184 828.191,453.317C825.235,443.521 823.645,433.136 823.645,422.382C823.645,411.628 825.235,401.242 828.191,391.447C830.264,384.579 833.009,378.002 836.349,371.791C846.312,353.266 861.572,338.006 880.097,328.043C886.308,324.703 892.885,321.958 899.753,319.885C909.548,316.929 919.934,315.34 930.688,315.34C941.442,315.34 951.827,316.929 961.622,319.885C968.49,321.958 975.068,324.703 981.278,328.043C999.803,338.006 1015.06,353.266 1025.03,371.791C1028.37,378.002 1031.11,384.579 1033.18,391.447C1036.14,401.242 1037.73,411.628 1037.73,422.382C1037.73,433.136 1036.14,443.521 1033.18,453.317C1031.11,460.184 1028.37,466.762 1025.03,472.973C1015.06,491.497 999.803,506.758 981.278,516.721C975.068,520.061 968.49,522.806 961.622,524.879C951.827,527.835 941.442,529.424 930.688,529.424C919.934,529.424 909.548,527.835 899.753,524.879C892.885,522.806 886.308,520.061 880.097,516.721C861.572,506.758 846.312,491.497 836.349,472.973ZM930.688,382.661C908.765,382.661 890.967,400.459 890.967,422.382C890.967,444.304 908.765,462.103 930.688,462.103C952.61,462.103 970.408,444.304 970.408,422.382C970.408,400.459 952.61,382.661 930.688,382.661Z" style="fill:rgb(51,38,21);"/>
                            <path d="M835.696,473.323C832.333,467.07 829.569,460.446 827.482,453.531C824.505,443.668 822.905,433.21 822.905,422.382C822.905,411.554 824.505,401.096 827.482,391.233C829.569,384.318 832.333,377.694 835.696,371.44C845.728,352.788 861.094,337.422 879.746,327.391C886,324.027 892.623,321.263 899.539,319.176C909.402,316.199 919.859,314.599 930.688,314.599C941.516,314.599 951.973,316.199 961.836,319.176C968.752,321.263 975.375,324.027 981.629,327.391C1000.28,337.422 1015.65,352.788 1025.68,371.44C1029.04,377.694 1031.81,384.318 1033.89,391.233C1036.87,401.096 1038.47,411.554 1038.47,422.382C1038.47,433.21 1036.87,443.668 1033.89,453.531C1031.81,460.446 1029.04,467.07 1025.68,473.323C1015.65,491.976 1000.28,507.341 981.629,517.373C975.375,520.737 968.752,523.5 961.836,525.588C951.973,528.564 941.516,530.165 930.688,530.165C919.859,530.165 909.402,528.564 899.539,525.588C892.623,523.5 886,520.737 879.746,517.373C861.094,507.341 845.728,491.976 835.696,473.323ZM836.349,472.973C846.312,491.497 861.572,506.758 880.097,516.721C886.308,520.061 892.885,522.806 899.753,524.879C909.548,527.835 919.934,529.424 930.688,529.424C941.442,529.424 951.827,527.835 961.622,524.879C968.49,522.806 975.068,520.061 981.278,516.721C999.803,506.758 1015.06,491.497 1025.03,472.973C1028.37,466.762 1031.11,460.184 1033.18,453.317C1036.14,443.521 1037.73,433.136 1037.73,422.382C1037.73,411.628 1036.14,401.242 1033.18,391.447C1031.11,384.579 1028.37,378.002 1025.03,371.791C1015.06,353.266 999.803,338.006 981.278,328.043C975.068,324.703 968.49,321.958 961.622,319.885C951.827,316.929 941.442,315.34 930.688,315.34C919.934,315.34 909.548,316.929 899.753,319.885C892.885,321.958 886.308,324.703 880.097,328.043C861.572,338.006 846.312,353.266 836.349,371.791C833.009,378.002 830.264,384.579 828.191,391.447C825.235,401.242 823.645,411.628 823.645,422.382C823.645,433.136 825.235,443.521 828.191,453.317C830.264,460.184 833.009,466.762 836.349,472.973ZM930.688,382.661C952.61,382.661 970.408,400.459 970.408,422.382C970.408,444.304 952.61,462.103 930.688,462.103C908.765,462.103 890.967,444.304 890.967,422.382C890.967,400.459 908.765,382.661 930.688,382.661ZM930.688,383.402C909.174,383.402 891.708,400.868 891.708,422.382C891.708,443.896 909.174,461.362 930.688,461.362C952.201,461.362 969.668,443.896 969.668,422.382C969.668,400.868 952.201,383.402 930.688,383.402Z" style="fill:rgb(55,38,15);"/>
                        </g>
                    </g>
                </g>
            </g>
        </g>
    </g>
</svg>
