<?xml version="1.0" encoding="UTF-8" standalone="no"?>
<!DOCTYPE svg PUBLIC "-//W3C//DTD SVG 1.1//EN" "http://www.w3.org/Graphics/SVG/1.1/DTD/svg11.dtd">
<svg width="100%" height="100%" viewBox="0 0 1920 1080" version="1.1" xmlns="http://www.w3.org/2000/svg" xmlns:xlink="http://www.w3.org/1999/xlink" xml:space="preserve" xmlns:serif="http://www.serif.com/" style="fill-rule:evenodd;clip-rule:evenodd;stroke-linecap:round;stroke-linejoin:round;stroke-miterlimit:25;">
    <g transform="matrix(1,0,0,1,0,-6000)">
        <g id="_1.17-background" serif:id="1.17/background" transform="matrix(1.78857,0,0,2.07692,1.13687e-13,3193.58)">
            <rect x="0" y="1351.24" width="1073.48" height="520" style="fill:rgb(17,35,7);"/>
            <clipPath id="_clip1">
                <rect x="0" y="1351.24" width="1073.48" height="520"/>
            </clipPath>
            <g clip-path="url(#_clip1)">
                <g transform="matrix(9.06381,-4.50647,5.23299,7.80543,-709.819,1368.09)">
                    <path d="M79.233,83.262C80.094,83.262 80.806,83.345 81.369,83.51C81.933,83.676 82.363,83.866 82.661,84.082C82.959,84.297 83.183,84.645 83.332,85.125C83.481,85.605 83.564,86.003 83.58,86.318C83.597,86.632 83.605,87.121 83.605,87.783L83.605,115.458C83.605,116.22 83.58,116.792 83.531,117.173C83.481,117.553 83.324,117.992 83.059,118.489C82.794,118.986 82.347,119.334 81.717,119.533C81.088,119.731 80.243,119.831 79.183,119.831C78.156,119.831 77.328,119.731 76.699,119.533C76.07,119.334 75.622,118.994 75.357,118.514C75.092,118.034 74.935,117.587 74.885,117.173C74.836,116.759 74.811,116.154 74.811,115.359L74.811,97.621L74.165,98.217C72.807,99.244 71.681,99.758 70.786,99.758C69.759,99.758 68.799,99.261 67.904,98.267C66.712,96.942 66.116,95.816 66.116,94.888C66.116,94.027 66.712,93.067 67.904,92.007L76.053,84.653L76.202,84.554C77.063,83.692 78.074,83.262 79.233,83.262Z" style="fill:rgb(13,50,24);fill-rule:nonzero;"/>
                    <path d="M95.281,111.533C95.845,112.096 96.126,113.256 96.126,115.011L96.126,115.21C96.126,116.005 96.101,116.593 96.052,116.974C96.002,117.355 95.836,117.81 95.555,118.34C95.273,118.87 94.801,119.243 94.139,119.458C93.476,119.673 92.582,119.781 91.456,119.781C89.667,119.781 88.425,119.433 87.729,118.738C87.133,118.175 86.835,117.015 86.835,115.26L86.835,115.061C86.835,114.299 86.86,113.719 86.909,113.322C86.959,112.924 87.116,112.469 87.381,111.956C87.646,111.442 88.118,111.069 88.797,110.838C89.476,110.606 90.379,110.49 91.505,110.49C93.261,110.49 94.52,110.838 95.281,111.533Z" style="fill:rgb(13,50,24);fill-rule:nonzero;"/>
                    <path d="M111.231,83.262C112.092,83.262 112.804,83.345 113.367,83.51C113.93,83.676 114.361,83.866 114.659,84.082C114.957,84.297 115.181,84.645 115.33,85.125C115.479,85.605 115.562,86.003 115.578,86.318C115.595,86.632 115.603,87.121 115.603,87.783L115.603,115.458C115.603,116.22 115.578,116.792 115.529,117.173C115.479,117.553 115.321,117.992 115.057,118.489C114.792,118.986 114.344,119.334 113.715,119.533C113.086,119.731 112.241,119.831 111.181,119.831C110.154,119.831 109.326,119.731 108.697,119.533C108.067,119.334 107.62,118.994 107.355,118.514C107.09,118.034 106.933,117.587 106.883,117.173C106.833,116.759 106.809,116.154 106.809,115.359L106.809,97.621L106.163,98.217C104.805,99.244 103.678,99.758 102.784,99.758C101.757,99.758 100.797,99.261 99.902,98.267C98.71,96.942 98.114,95.816 98.114,94.888C98.114,94.027 98.71,93.067 99.902,92.007L108.051,84.653L108.2,84.554C109.061,83.692 110.071,83.262 111.231,83.262Z" style="fill:rgb(13,50,24);fill-rule:nonzero;"/>
                    <path d="M140.347,83.361C141.208,83.361 141.92,83.444 142.483,83.61C143.046,83.775 143.477,83.974 143.775,84.206C144.073,84.438 144.297,84.777 144.446,85.224C144.595,85.672 144.678,86.053 144.694,86.367C144.711,86.682 144.719,87.154 144.719,87.783C144.719,89.274 144.288,91.005 143.427,92.975C142.566,94.946 141.531,96.892 140.322,98.814C139.113,100.735 137.904,102.673 136.695,104.627C135.486,106.581 134.451,108.577 133.589,110.614C132.728,112.651 132.298,114.465 132.298,116.055C132.298,116.783 132.264,117.322 132.198,117.669C132.132,118.017 131.966,118.382 131.701,118.763C131.436,119.143 130.997,119.4 130.385,119.533C129.772,119.665 128.935,119.731 127.875,119.731C126.816,119.731 125.979,119.665 125.366,119.533C124.754,119.4 124.315,119.135 124.05,118.738C123.785,118.34 123.627,117.968 123.578,117.62C123.528,117.272 123.503,116.717 123.503,115.955C123.503,113.802 123.867,111.591 124.596,109.322C125.325,107.053 126.203,105.024 127.23,103.236C128.256,101.447 129.283,99.799 130.31,98.292C131.337,96.785 132.215,95.493 132.943,94.416C133.672,93.34 134.037,92.586 134.037,92.156L122.708,92.156C121.946,92.156 121.367,92.123 120.969,92.056C120.572,91.99 120.133,91.824 119.652,91.559C119.172,91.294 118.833,90.847 118.634,90.218C118.435,89.589 118.336,88.76 118.336,87.734C118.336,86.707 118.435,85.879 118.634,85.249C118.833,84.62 119.156,84.181 119.603,83.933C120.05,83.684 120.464,83.527 120.845,83.461C121.226,83.394 121.764,83.361 122.46,83.361L140.347,83.361Z" style="fill:rgb(13,50,24);fill-rule:nonzero;"/>
                </g>
                <g transform="matrix(0.729261,1.08775,-1.79861,0.89426,1188.01,-21.8672)">
                    <g transform="matrix(1,0,1.11022e-16,2.18667,-2.29554e-13,-1016.37)">
                        <path d="M803.283,701.806L803.283,978.061" style="fill:none;stroke:rgb(52,50,24);stroke-width:27.27px;"/>
                    </g>
                    <g transform="matrix(1,0,0,1,-200.221,-19.642)">
                        <path d="M803.283,701.806L803.283,978.061" style="fill:none;stroke:rgb(52,50,24);stroke-width:51.26px;"/>
                    </g>
                    <g transform="matrix(0.119266,0,0,0.119266,607.368,618.105)">
                        <path d="M803.283,701.806L803.283,978.061" style="fill:none;stroke:rgb(52,50,24);stroke-width:429.81px;"/>
                    </g>
                    <g transform="matrix(0.119266,0,0,0.119266,607.368,822.128)">
                        <path d="M803.283,701.806L803.283,978.061" style="fill:none;stroke:rgb(52,50,24);stroke-width:429.81px;"/>
                    </g>
                    <g transform="matrix(0.119266,0,0,0.119266,607.368,720.116)">
                        <path d="M803.283,701.806L803.283,978.061" style="fill:none;stroke:rgb(52,50,24);stroke-width:429.81px;"/>
                    </g>
                </g>
            </g>
        </g>
    </g>
</svg>
