<?xml version="1.0" encoding="UTF-8" standalone="no"?>
<!DOCTYPE svg PUBLIC "-//W3C//DTD SVG 1.1//EN" "http://www.w3.org/Graphics/SVG/1.1/DTD/svg11.dtd">
<svg width="100%" height="100%" viewBox="0 0 859 200" version="1.1" xmlns="http://www.w3.org/2000/svg" xmlns:xlink="http://www.w3.org/1999/xlink" xml:space="preserve" xmlns:serif="http://www.serif.com/" style="fill-rule:evenodd;clip-rule:evenodd;stroke-linejoin:round;stroke-miterlimit:2;">
    <g transform="matrix(1,0,0,1,-4400,-2040)">
        <g id="_1.17-lockup-minimal-faithful" serif:id="1.17/lockup-minimal-faithful" transform="matrix(0.904236,0,0,1,4400,2040)">
            <rect x="0" y="0" width="949.973" height="200" style="fill:none;"/>
            <g transform="matrix(2.28736,0,0,2.06831,101.088,-108.591)">
                <path d="M96.052,83.361C97.078,83.361 97.907,83.461 98.536,83.659C99.165,83.858 99.612,84.206 99.877,84.703C100.142,85.2 100.3,85.647 100.349,86.044C100.399,86.442 100.424,87.021 100.424,87.783L100.424,115.359C100.424,116.121 100.391,116.692 100.325,117.073C100.258,117.454 100.101,117.885 99.853,118.365C99.604,118.845 99.165,119.185 98.536,119.384C97.907,119.582 97.062,119.682 96.002,119.682C95.141,119.682 94.429,119.599 93.865,119.433C93.302,119.268 92.872,119.069 92.574,118.837C92.275,118.605 92.052,118.266 91.903,117.818C91.754,117.371 91.671,116.99 91.654,116.676C91.638,116.361 91.63,115.889 91.63,115.26L91.63,98.615C90.801,99.642 89.592,101.273 88.002,103.509C86.413,105.745 85.237,107.343 84.475,108.304C84.375,108.469 84.243,108.66 84.077,108.875C83.912,109.09 83.506,109.388 82.86,109.769C82.214,110.15 81.51,110.341 80.748,110.341C80.02,110.341 79.349,110.167 78.736,109.819C78.123,109.471 77.684,109.132 77.419,108.8L77.022,108.254C76.359,107.426 75.051,105.662 73.097,102.962C71.142,100.263 70.082,98.814 69.917,98.615L69.917,115.359C69.917,116.121 69.892,116.692 69.842,117.073C69.793,117.454 69.635,117.885 69.37,118.365C69.105,118.845 68.658,119.185 68.029,119.384C67.399,119.582 66.555,119.682 65.495,119.682C64.468,119.682 63.648,119.582 63.035,119.384C62.422,119.185 61.984,118.845 61.719,118.365C61.454,117.885 61.296,117.446 61.247,117.048C61.197,116.651 61.172,116.055 61.172,115.26L61.172,87.684C61.172,86.922 61.197,86.351 61.247,85.97C61.296,85.589 61.454,85.158 61.719,84.678C61.984,84.198 62.431,83.858 63.06,83.659C63.689,83.461 64.534,83.361 65.594,83.361C66.488,83.361 67.259,83.469 67.904,83.684C68.55,83.9 68.973,84.123 69.171,84.355L69.47,84.653L80.748,99.46C86.379,92.007 90.139,87.088 92.027,84.703C92.59,83.808 93.932,83.361 96.052,83.361Z" style="fill:white;fill-rule:nonzero;"/>
                <path d="M117.268,92.951C120.911,92.951 124.108,94.234 126.857,96.801C129.606,99.368 130.981,102.639 130.981,106.614C130.981,109.364 130.269,111.806 128.844,113.943C127.42,116.079 125.689,117.653 123.652,118.663C121.615,119.673 119.52,120.179 117.367,120.179C115.148,120.179 113.011,119.64 110.957,118.564C108.904,117.487 107.173,115.897 105.765,113.794C104.357,111.691 103.654,109.314 103.654,106.664C103.654,102.689 105.045,99.41 107.827,96.826C110.61,94.242 113.756,92.951 117.268,92.951ZM114.038,110.217C115.098,111.028 116.174,111.434 117.268,111.434C118.361,111.434 119.454,111.02 120.547,110.192C121.64,109.364 122.186,108.138 122.186,106.515C122.186,104.892 121.673,103.683 120.646,102.888C119.619,102.093 118.477,101.695 117.218,101.695C116.092,101.695 115.015,102.109 113.988,102.938C112.961,103.766 112.448,104.975 112.448,106.565C112.448,108.188 112.978,109.405 114.038,110.217Z" style="fill:white;fill-rule:nonzero;"/>
                <path d="M155.625,81.324C156.652,81.324 157.48,81.423 158.109,81.622C158.739,81.821 159.178,82.169 159.426,82.666C159.675,83.163 159.824,83.601 159.873,83.982C159.923,84.363 159.948,84.935 159.948,85.696L159.948,115.359C159.948,116.121 159.923,116.692 159.873,117.073C159.824,117.454 159.666,117.885 159.401,118.365C159.136,118.845 158.689,119.185 158.06,119.384C157.43,119.582 156.586,119.682 155.526,119.682C153.008,119.682 151.617,118.87 151.352,117.247C149.961,118.837 148.023,119.632 145.539,119.632C142.558,119.632 139.842,118.332 137.39,115.732C134.939,113.131 133.714,110.059 133.714,106.515C133.714,103.136 134.947,100.139 137.415,97.522C139.883,94.905 142.591,93.597 145.539,93.597C147.99,93.597 149.895,94.425 151.253,96.081L151.253,85.647C151.253,84.885 151.278,84.314 151.327,83.933C151.377,83.552 151.526,83.121 151.774,82.641C152.023,82.161 152.462,81.821 153.091,81.622C153.72,81.423 154.565,81.324 155.625,81.324ZM143.7,109.645C144.562,110.539 145.605,110.987 146.831,110.987C148.056,110.987 149.075,110.539 149.886,109.645C150.698,108.751 151.104,107.757 151.104,106.664C151.104,105.604 150.714,104.61 149.936,103.683C149.158,102.755 148.106,102.292 146.781,102.292C145.456,102.292 144.396,102.747 143.601,103.658C142.806,104.569 142.409,105.571 142.409,106.664C142.409,107.757 142.839,108.751 143.7,109.645Z" style="fill:white;fill-rule:nonzero;"/>
                <path d="M188.02,83.312C188.782,83.312 189.354,83.336 189.735,83.386C190.115,83.436 190.546,83.593 191.026,83.858C191.507,84.123 191.846,84.57 192.045,85.2C192.244,85.829 192.343,86.674 192.343,87.734C192.343,88.794 192.244,89.638 192.045,90.268C191.846,90.897 191.498,91.336 191.002,91.584C190.505,91.833 190.066,91.982 189.685,92.031C189.304,92.081 188.716,92.106 187.921,92.106L172.717,92.106L172.717,97.124L182.505,97.124C183.3,97.124 183.888,97.149 184.269,97.199C184.65,97.248 185.081,97.406 185.561,97.671C186.041,97.936 186.381,98.391 186.58,99.037C186.778,99.683 186.878,100.536 186.878,101.596C186.878,102.457 186.795,103.169 186.629,103.733C186.464,104.296 186.265,104.726 186.033,105.024C185.801,105.322 185.462,105.546 185.014,105.695C184.567,105.844 184.186,105.927 183.872,105.944C183.557,105.96 183.085,105.968 182.456,105.968L172.717,105.968L172.717,115.359C172.717,116.154 172.692,116.734 172.643,117.098C172.593,117.462 172.436,117.893 172.171,118.39C171.906,118.887 171.458,119.235 170.829,119.433C170.2,119.632 169.355,119.731 168.295,119.731C167.434,119.731 166.722,119.649 166.159,119.483C165.595,119.317 165.165,119.119 164.867,118.887C164.569,118.655 164.345,118.315 164.196,117.868C164.047,117.421 163.964,117.04 163.948,116.725C163.931,116.411 163.923,115.939 163.923,115.309L163.923,87.684C163.923,85.995 164.237,84.844 164.867,84.231C165.496,83.618 166.689,83.312 168.444,83.312L188.02,83.312Z" style="fill:white;fill-rule:nonzero;"/>
                <path d="M216.341,103.285C216.341,105.472 215.836,107.053 214.826,108.03C213.816,109.008 212.698,109.496 211.472,109.496L199.697,109.496C199.697,110.424 200.243,111.202 201.336,111.831C202.429,112.461 203.605,112.775 204.864,112.775C205.758,112.775 206.603,112.709 207.398,112.577C208.193,112.444 208.773,112.312 209.137,112.179L209.683,111.98C210.478,111.616 211.141,111.434 211.671,111.434C212.731,111.434 213.642,112.179 214.404,113.67C214.834,114.564 215.05,115.326 215.05,115.955C215.05,118.903 211.522,120.377 204.466,120.377C202.015,120.377 199.837,119.955 197.933,119.11C196.028,118.266 194.546,117.156 193.486,115.781C192.426,114.407 191.639,112.958 191.126,111.434C190.612,109.91 190.356,108.353 190.356,106.763C190.356,102.59 191.705,99.252 194.405,96.752C197.105,94.251 200.475,93 204.516,93C206.139,93 207.63,93.224 208.988,93.671C210.346,94.118 211.472,94.698 212.367,95.41C213.261,96.122 214.014,96.942 214.627,97.87C215.24,98.797 215.679,99.716 215.944,100.627C216.209,101.538 216.341,102.424 216.341,103.285ZM205.858,104.975C207.116,104.975 207.746,104.445 207.746,103.385C207.746,102.623 207.456,102.01 206.876,101.546C206.297,101.083 205.46,100.851 204.367,100.851C203.307,100.851 202.247,101.29 201.187,102.167C200.127,103.045 199.597,103.981 199.597,104.975L205.858,104.975Z" style="fill:white;fill-rule:nonzero;"/>
                <path d="M229.21,120.179C225.865,120.179 222.718,119.251 219.77,117.396C219.14,116.999 218.826,116.419 218.826,115.657C218.826,114.697 219.455,113.338 220.714,111.583C221.078,111.02 221.641,110.738 222.403,110.738C223.264,110.738 224.275,111.086 225.434,111.782C227.057,112.709 228.432,113.173 229.558,113.173C231.578,113.173 232.589,112.775 232.589,111.98C232.589,111.649 232.274,111.368 231.645,111.136C231.015,110.904 230.22,110.722 229.26,110.589C228.299,110.457 227.264,110.183 226.154,109.769C225.045,109.355 224.01,108.85 223.049,108.254C222.088,107.658 221.293,106.722 220.664,105.447C220.035,104.171 219.72,102.656 219.72,100.9C219.72,95.667 223.314,93.05 230.502,93.05C232.854,93.05 235.272,93.613 237.756,94.739C238.915,95.269 239.495,95.998 239.495,96.926C239.495,97.588 239.147,98.482 238.452,99.609C237.69,100.801 236.928,101.397 236.166,101.397C235.769,101.397 235.206,101.232 234.477,100.9C233.052,100.238 231.711,99.907 230.452,99.907C228.498,99.907 227.521,100.271 227.521,101C227.521,101.53 227.844,101.952 228.49,102.267C229.136,102.581 229.947,102.797 230.924,102.913C231.901,103.029 232.953,103.252 234.079,103.583C235.206,103.915 236.257,104.32 237.234,104.801C238.212,105.281 239.023,106.093 239.669,107.235C240.315,108.378 240.638,109.778 240.638,111.434C240.638,113.223 240.315,114.721 239.669,115.93C239.023,117.139 238.112,118.034 236.936,118.613C235.76,119.193 234.568,119.599 233.359,119.831C232.15,120.063 230.767,120.179 229.21,120.179Z" style="fill:white;fill-rule:nonzero;"/>
                <path d="M258.276,102.341L255.047,102.143L255.047,108.999C255.047,109.894 255.188,110.539 255.469,110.937C255.751,111.334 256.256,111.533 256.985,111.533C257.813,111.533 258.434,111.558 258.848,111.608C259.262,111.657 259.692,111.806 260.14,112.055C260.587,112.303 260.893,112.693 261.059,113.223C261.224,113.753 261.307,114.481 261.307,115.409C261.307,116.436 261.2,117.264 260.984,117.893C260.769,118.522 260.413,118.961 259.916,119.21C259.419,119.458 258.98,119.607 258.599,119.657C258.218,119.707 257.664,119.731 256.935,119.731C253.49,119.731 250.873,118.953 249.084,117.396C247.296,115.839 246.401,113.206 246.401,109.496L246.401,102.143C245.772,102.242 245.176,102.292 244.613,102.292C243.718,102.292 243.031,102.01 242.551,101.447C242.07,100.884 241.83,99.708 241.83,97.919C241.83,96.992 241.913,96.222 242.079,95.609C242.244,94.996 242.485,94.557 242.799,94.292C243.114,94.027 243.42,93.853 243.718,93.77C244.017,93.688 244.364,93.646 244.762,93.646L246.401,93.845L246.401,88.727C246.401,87.965 246.426,87.402 246.476,87.038C246.526,86.674 246.675,86.268 246.923,85.821C247.172,85.374 247.61,85.059 248.24,84.877C248.869,84.694 249.714,84.603 250.774,84.603C251.602,84.603 252.289,84.686 252.836,84.852C253.382,85.017 253.805,85.208 254.103,85.423C254.401,85.639 254.624,85.97 254.774,86.417C254.923,86.864 255.005,87.253 255.022,87.585C255.039,87.916 255.047,88.38 255.047,88.976L255.047,93.845C256.504,93.712 257.597,93.646 258.326,93.646C259.088,93.646 259.659,93.671 260.04,93.721C260.421,93.77 260.852,93.92 261.332,94.168C261.812,94.416 262.152,94.855 262.351,95.485C262.549,96.114 262.649,96.959 262.649,98.019C262.649,99.045 262.549,99.874 262.351,100.503C262.152,101.132 261.804,101.571 261.307,101.82C260.81,102.068 260.371,102.217 259.991,102.267C259.61,102.316 259.038,102.341 258.276,102.341Z" style="fill:white;fill-rule:nonzero;"/>
                <path d="M289.827,83.262C290.688,83.262 291.4,83.345 291.964,83.51C292.527,83.676 292.957,83.866 293.255,84.082C293.553,84.297 293.777,84.645 293.926,85.125C294.075,85.605 294.158,86.003 294.175,86.318C294.191,86.632 294.199,87.121 294.199,87.783L294.199,115.458C294.199,116.22 294.175,116.792 294.125,117.173C294.075,117.553 293.918,117.992 293.653,118.489C293.388,118.986 292.941,119.334 292.311,119.533C291.682,119.731 290.837,119.831 289.777,119.831C288.75,119.831 287.922,119.731 287.293,119.533C286.664,119.334 286.216,118.994 285.952,118.514C285.687,118.034 285.529,117.587 285.479,117.173C285.43,116.759 285.405,116.154 285.405,115.359L285.405,97.621L284.759,98.217C283.401,99.244 282.275,99.758 281.38,99.758C280.354,99.758 279.393,99.261 278.499,98.267C277.306,96.942 276.71,95.816 276.71,94.888C276.71,94.027 277.306,93.067 278.499,92.007L286.647,84.653L286.796,84.554C287.657,83.692 288.668,83.262 289.827,83.262Z" style="fill:white;fill-rule:nonzero;"/>
                <path d="M305.876,111.533C306.439,112.096 306.72,113.256 306.72,115.011L306.72,115.21C306.72,116.005 306.695,116.593 306.646,116.974C306.596,117.355 306.43,117.81 306.149,118.34C305.867,118.87 305.395,119.243 304.733,119.458C304.07,119.673 303.176,119.781 302.05,119.781C300.261,119.781 299.019,119.433 298.323,118.738C297.727,118.175 297.429,117.015 297.429,115.26L297.429,115.061C297.429,114.299 297.454,113.719 297.503,113.322C297.553,112.924 297.711,112.469 297.976,111.956C298.241,111.442 298.713,111.069 299.392,110.838C300.071,110.606 300.973,110.49 302.099,110.49C303.855,110.49 305.114,110.838 305.876,111.533Z" style="fill:white;fill-rule:nonzero;"/>
                <path d="M321.825,83.262C322.686,83.262 323.398,83.345 323.961,83.51C324.524,83.676 324.955,83.866 325.253,84.082C325.551,84.297 325.775,84.645 325.924,85.125C326.073,85.605 326.156,86.003 326.172,86.318C326.189,86.632 326.197,87.121 326.197,87.783L326.197,115.458C326.197,116.22 326.172,116.792 326.123,117.173C326.073,117.553 325.916,117.992 325.651,118.489C325.386,118.986 324.938,119.334 324.309,119.533C323.68,119.731 322.835,119.831 321.775,119.831C320.748,119.831 319.92,119.731 319.291,119.533C318.661,119.334 318.214,118.994 317.949,118.514C317.684,118.034 317.527,117.587 317.477,117.173C317.428,116.759 317.403,116.154 317.403,115.359L317.403,97.621L316.757,98.217C315.399,99.244 314.273,99.758 313.378,99.758C312.351,99.758 311.391,99.261 310.496,98.267C309.304,96.942 308.708,95.816 308.708,94.888C308.708,94.027 309.304,93.067 310.496,92.007L318.645,84.653L318.794,84.554C319.655,83.692 320.665,83.262 321.825,83.262Z" style="fill:white;fill-rule:nonzero;"/>
                <path d="M350.941,83.361C351.802,83.361 352.514,83.444 353.077,83.61C353.64,83.775 354.071,83.974 354.369,84.206C354.667,84.438 354.891,84.777 355.04,85.224C355.189,85.672 355.272,86.053 355.288,86.367C355.305,86.682 355.313,87.154 355.313,87.783C355.313,89.274 354.883,91.005 354.021,92.975C353.16,94.946 352.125,96.892 350.916,98.814C349.707,100.735 348.498,102.673 347.289,104.627C346.08,106.581 345.045,108.577 344.183,110.614C343.322,112.651 342.892,114.465 342.892,116.055C342.892,116.783 342.859,117.322 342.792,117.669C342.726,118.017 342.56,118.382 342.295,118.763C342.03,119.143 341.592,119.4 340.979,119.533C340.366,119.665 339.53,119.731 338.47,119.731C337.41,119.731 336.573,119.665 335.96,119.533C335.348,119.4 334.909,119.135 334.644,118.738C334.379,118.34 334.221,117.968 334.172,117.62C334.122,117.272 334.097,116.717 334.097,115.955C334.097,113.802 334.462,111.591 335.19,109.322C335.919,107.053 336.797,105.024 337.824,103.236C338.851,101.447 339.877,99.799 340.904,98.292C341.931,96.785 342.809,95.493 343.538,94.416C344.266,93.34 344.631,92.586 344.631,92.156L333.302,92.156C332.54,92.156 331.961,92.123 331.563,92.056C331.166,91.99 330.727,91.824 330.247,91.559C329.766,91.294 329.427,90.847 329.228,90.218C329.029,89.589 328.93,88.76 328.93,87.734C328.93,86.707 329.029,85.879 329.228,85.249C329.427,84.62 329.75,84.181 330.197,83.933C330.644,83.684 331.058,83.527 331.439,83.461C331.82,83.394 332.358,83.361 333.054,83.361L350.941,83.361Z" style="fill:white;fill-rule:nonzero;"/>
            </g>
            <g id="_1.17-transparent-faithful" serif:id="1.17/transparent-faithful" transform="matrix(0.995315,0,0,0.9,11.638,11.915)">
                <rect x="0" y="0" width="200" height="200" style="fill:none;"/>
            </g>
            <g transform="matrix(1.10591,0,0,1,0.578256,1.91563)">
                <g transform="matrix(1,0,0,1,10,9.99875)">
                    <path d="M106.317,163.49L106.315,163.492C97.308,172.484 82.702,172.484 73.693,163.49L16.522,106.318C7.513,97.31 7.513,82.7 16.522,73.692L73.692,16.522C82.7,7.513 97.31,7.513 106.318,16.522L163.49,73.693L163.492,73.695C172.484,82.702 172.484,97.308 163.49,106.317L106.317,163.49ZM153.748,96.585C157.376,92.951 157.376,87.059 153.748,83.425L96.582,26.258C92.95,22.627 87.06,22.627 83.428,26.258L26.258,83.428C22.627,87.06 22.627,92.95 26.258,96.582L83.425,153.748C87.059,157.376 92.951,157.376 96.585,153.748L153.748,96.585Z" style="fill:rgb(255,151,100);"/>
                    <path d="M166.131,71.052L166.135,71.057C176.582,81.52 176.583,98.49 166.133,108.955L166.131,108.958L108.958,166.131L108.953,166.135C98.49,176.582 81.52,176.583 71.055,166.133L71.052,166.131L13.881,108.959C3.414,98.493 3.414,81.517 13.881,71.051L71.051,13.881C81.517,3.414 98.493,3.414 108.959,13.881L166.131,71.052ZM105.201,164.534L106.313,167.223C106.293,167.145 105.939,165.755 105.479,164.287C105.762,164.03 106.041,163.765 106.315,163.492L106.317,163.49L163.49,106.317C172.484,97.308 172.484,82.702 163.492,73.695L163.49,73.693L106.318,16.522C97.31,7.513 82.7,7.513 73.692,16.522L16.522,73.692C7.513,82.7 7.513,97.31 16.522,106.318L73.693,163.49C82.339,172.122 96.142,172.47 105.201,164.534ZM153.748,96.585L96.585,153.748C92.951,157.376 87.059,157.376 83.425,153.748L26.258,96.582C22.627,92.95 22.627,87.06 26.258,83.428L83.428,26.258C87.06,22.627 92.95,22.627 96.582,26.258L153.748,83.425C157.376,87.059 157.376,92.951 153.748,96.585ZM151.105,93.946C153.278,91.77 153.278,88.24 151.105,86.064L93.941,28.899C91.767,26.726 88.243,26.726 86.069,28.899L28.899,86.069C26.726,88.243 26.726,91.767 28.899,93.941L86.064,151.105C88.24,153.278 91.77,153.278 93.946,151.105L151.105,93.946Z"/>
                </g>
                <g transform="matrix(1,0,0,1,60.5698,119.578)">
                    <g transform="matrix(1,0,0,1,-3.25576,0)">
                        <path d="M13.864,-36.472C14.725,-36.472 15.437,-36.39 16,-36.224C16.563,-36.058 16.994,-35.868 17.292,-35.653C17.59,-35.437 17.814,-35.089 17.963,-34.609C18.112,-34.129 18.195,-33.731 18.211,-33.417C18.228,-33.102 18.236,-32.613 18.236,-31.951L18.236,-4.273C18.236,-3.511 18.211,-2.94 18.162,-2.559C18.112,-2.178 17.955,-1.739 17.69,-1.242C17.425,-0.745 16.977,-0.398 16.348,-0.199C15.719,0 14.874,0.099 13.814,0.099C12.787,0.099 11.959,0 11.329,-0.199C10.7,-0.398 10.253,-0.737 9.988,-1.217C9.723,-1.698 9.565,-2.145 9.516,-2.559C9.466,-2.973 9.441,-3.578 9.441,-4.373L9.441,-22.112L8.795,-21.516C7.437,-20.489 6.311,-19.975 5.416,-19.975C4.389,-19.975 3.429,-20.472 2.534,-21.466C1.342,-22.791 0.745,-23.917 0.745,-24.845C0.745,-25.706 1.342,-26.667 2.534,-27.727L10.683,-35.081L10.832,-35.181C11.694,-36.042 12.704,-36.472 13.864,-36.472Z" style="fill:rgb(255,151,100);fill-rule:nonzero;"/>
                        <path d="M8.042,-32.698C7.769,-33.004 7.545,-33.358 7.382,-33.751C6.804,-35.147 7.123,-36.753 8.191,-37.822C9.8,-39.43 11.698,-40.207 13.864,-40.207C15.151,-40.207 16.212,-40.055 17.054,-39.807C18.12,-39.494 18.915,-39.088 19.479,-38.68C20.345,-38.055 21.097,-37.112 21.53,-35.716C21.792,-34.871 21.912,-34.167 21.941,-33.613C21.96,-33.256 21.971,-32.702 21.971,-31.951L21.971,-4.273C21.971,-3.297 21.929,-2.564 21.865,-2.076C21.768,-1.331 21.504,-0.457 20.985,0.515C20.28,1.837 19.147,2.834 17.473,3.363C16.563,3.65 15.346,3.834 13.814,3.834C12.32,3.834 11.12,3.652 10.205,3.363C8.539,2.837 7.419,1.858 6.717,0.587C6.186,-0.376 5.907,-1.284 5.807,-2.114C5.745,-2.63 5.706,-3.382 5.706,-4.373L5.706,-16.248C5.608,-16.243 5.511,-16.24 5.416,-16.24C3.428,-16.24 1.489,-17.044 -0.242,-18.968C-2.266,-21.216 -2.99,-23.271 -2.99,-24.845C-2.99,-26.476 -2.214,-28.497 0.037,-30.504L8.181,-37.854C7.034,-36.818 6.643,-35.183 7.197,-33.741C7.365,-33.304 7.609,-32.913 7.91,-32.579L2.534,-27.727C1.342,-26.667 0.745,-25.706 0.745,-24.845C0.745,-23.917 1.342,-22.791 2.534,-21.466C3.429,-20.472 4.389,-19.975 5.416,-19.975C6.311,-19.975 7.437,-20.489 8.795,-21.516L9.441,-22.112L9.441,-4.373C9.441,-3.578 9.466,-2.973 9.516,-2.559C9.565,-2.145 9.723,-1.698 9.988,-1.217C10.253,-0.737 10.7,-0.398 11.329,-0.199C11.959,0 12.787,0.099 13.814,0.099C14.874,0.099 15.719,0 16.348,-0.199C16.977,-0.398 17.425,-0.745 17.69,-1.242C17.955,-1.739 18.112,-2.178 18.162,-2.559C18.211,-2.94 18.236,-3.511 18.236,-4.273L18.236,-31.951C18.236,-32.613 18.228,-33.102 18.211,-33.417C18.195,-33.731 18.112,-34.129 17.963,-34.609C17.814,-35.089 17.59,-35.437 17.292,-35.653C16.994,-35.868 16.563,-36.058 16,-36.224C15.437,-36.39 14.725,-36.472 13.864,-36.472C12.704,-36.472 11.694,-36.042 10.832,-35.181L10.683,-35.081L8.042,-32.698Z"/>
                    </g>
                    <g transform="matrix(1,0,0,1,-0.456415,0)">
                        <path d="M29.913,-8.199C30.477,-7.636 30.758,-6.476 30.758,-4.721L30.758,-4.522C30.758,-3.727 30.733,-3.139 30.684,-2.758C30.634,-2.377 30.468,-1.921 30.187,-1.391C29.905,-0.861 29.433,-0.489 28.771,-0.273C28.108,-0.058 27.214,0.05 26.087,0.05C24.298,0.05 23.056,-0.298 22.36,-0.994C21.764,-1.557 21.466,-2.716 21.466,-4.472L21.466,-4.671C21.466,-5.433 21.491,-6.012 21.541,-6.41C21.59,-6.808 21.748,-7.263 22.013,-7.776C22.278,-8.29 22.75,-8.663 23.429,-8.895C24.108,-9.126 25.011,-9.242 26.137,-9.242C27.893,-9.242 29.151,-8.895 29.913,-8.199Z" style="fill:rgb(255,151,100);fill-rule:nonzero;"/>
                        <path d="M34.493,-4.721L34.493,-4.715C34.493,-4.64 34.467,-4.55 34.42,-4.449L34.493,-4.522C34.493,-3.509 34.45,-2.76 34.387,-2.275C34.292,-1.545 34.025,-0.655 33.485,0.361C32.767,1.713 31.615,2.729 29.925,3.279C28.976,3.587 27.7,3.785 26.087,3.785C22.997,3.785 20.947,2.863 19.749,1.676C18.684,0.64 17.731,-1.327 17.731,-4.472L17.731,-4.665L21.466,-0.936L17.731,-4.671C17.731,-5.636 17.772,-6.37 17.835,-6.873C17.929,-7.63 18.189,-8.511 18.694,-9.489C19.368,-10.796 20.493,-11.839 22.222,-12.429C23.205,-12.765 24.506,-12.977 26.137,-12.977C29.099,-12.977 31.146,-12.131 32.432,-10.957C32.473,-10.919 32.514,-10.88 32.554,-10.84C33.564,-9.83 34.493,-7.869 34.493,-4.721ZM30.243,-1.5C30.491,-1.984 30.637,-2.403 30.684,-2.758C30.733,-3.139 30.758,-3.727 30.758,-4.522L30.758,-4.721C30.758,-6.476 30.477,-7.636 29.913,-8.199C29.151,-8.895 27.893,-9.242 26.137,-9.242C25.011,-9.242 24.108,-9.126 23.429,-8.895C22.75,-8.663 22.278,-8.29 22.013,-7.776C21.748,-7.263 21.59,-6.808 21.541,-6.41C21.491,-6.012 21.466,-5.433 21.466,-4.671L21.466,-4.472C21.466,-2.716 21.764,-1.557 22.36,-0.994C23.056,-0.298 24.298,0.05 26.087,0.05C27.214,0.05 28.108,-0.058 28.771,-0.273C29.433,-0.489 29.905,-0.861 30.187,-1.391C30.206,-1.428 30.225,-1.464 30.243,-1.5Z"/>
                    </g>
                    <g transform="matrix(1,0,0,1,-0.456415,0)">
                        <path d="M45.864,-36.472C46.725,-36.472 47.437,-36.39 48.001,-36.224C48.564,-36.058 48.994,-35.868 49.292,-35.653C49.591,-35.437 49.814,-35.089 49.963,-34.609C50.112,-34.129 50.195,-33.731 50.212,-33.417C50.228,-33.102 50.237,-32.613 50.237,-31.951L50.237,-4.273C50.237,-3.511 50.212,-2.94 50.162,-2.559C50.112,-2.178 49.955,-1.739 49.69,-1.242C49.425,-0.745 48.978,-0.398 48.348,-0.199C47.719,0 46.874,0.099 45.814,0.099C44.787,0.099 43.959,0 43.33,-0.199C42.7,-0.398 42.253,-0.737 41.988,-1.217C41.723,-1.698 41.566,-2.145 41.516,-2.559C41.466,-2.973 41.441,-3.578 41.441,-4.373L41.441,-22.112L40.795,-21.516C39.437,-20.489 38.311,-19.975 37.417,-19.975C36.39,-19.975 35.429,-20.472 34.535,-21.466C33.342,-22.791 32.746,-23.917 32.746,-24.845C32.746,-25.706 33.342,-26.667 34.535,-27.727L42.684,-35.081L42.833,-35.181C43.694,-36.042 44.704,-36.472 45.864,-36.472Z" style="fill:rgb(255,151,100);fill-rule:nonzero;"/>
                        <path d="M40.042,-32.698C39.77,-33.004 39.545,-33.358 39.382,-33.751C38.804,-35.147 39.124,-36.753 40.192,-37.822C41.8,-39.43 43.699,-40.207 45.864,-40.207C47.151,-40.207 48.213,-40.055 49.054,-39.807C50.12,-39.494 50.915,-39.088 51.479,-38.68C52.346,-38.055 53.097,-37.112 53.53,-35.716C53.793,-34.871 53.912,-34.167 53.942,-33.613C53.96,-33.256 53.972,-32.702 53.972,-31.951L53.972,-4.273C53.972,-3.297 53.929,-2.564 53.866,-2.076C53.768,-1.331 53.504,-0.457 52.986,0.515C52.28,1.837 51.148,2.834 49.473,3.363C48.563,3.65 47.347,3.834 45.814,3.834C44.32,3.834 43.121,3.652 42.205,3.363C40.54,2.837 39.419,1.858 38.718,0.587C38.187,-0.376 37.907,-1.284 37.808,-2.114C37.746,-2.63 37.707,-3.382 37.707,-4.373L37.707,-16.248C37.608,-16.243 37.511,-16.24 37.417,-16.24C35.429,-16.24 33.49,-17.044 31.758,-18.968C29.735,-21.216 29.011,-23.271 29.011,-24.845C29.011,-26.476 29.786,-28.497 32.037,-30.504L40.181,-37.854C39.034,-36.818 38.643,-35.183 39.198,-33.741C39.365,-33.304 39.609,-32.913 39.911,-32.579L34.535,-27.727C33.342,-26.667 32.746,-25.706 32.746,-24.845C32.746,-23.917 33.342,-22.791 34.535,-21.466C35.429,-20.472 36.39,-19.975 37.417,-19.975C38.311,-19.975 39.437,-20.489 40.795,-21.516L41.441,-22.112L41.441,-4.373C41.441,-3.578 41.466,-2.973 41.516,-2.559C41.566,-2.145 41.723,-1.698 41.988,-1.217C42.253,-0.737 42.7,-0.398 43.33,-0.199C43.959,0 44.787,0.099 45.814,0.099C46.874,0.099 47.719,0 48.348,-0.199C48.978,-0.398 49.425,-0.745 49.69,-1.242C49.955,-1.739 50.112,-2.178 50.162,-2.559C50.212,-2.94 50.237,-3.511 50.237,-4.273L50.237,-31.951C50.237,-32.613 50.228,-33.102 50.212,-33.417C50.195,-33.731 50.112,-34.129 49.963,-34.609C49.814,-35.089 49.591,-35.437 49.292,-35.653C48.994,-35.868 48.564,-36.058 48.001,-36.224C47.437,-36.39 46.725,-36.472 45.864,-36.472C44.704,-36.472 43.694,-36.042 42.833,-35.181L42.684,-35.081L40.042,-32.698Z"/>
                    </g>
                    <g transform="matrix(1,0,0,1,2.01583,0)">
                        <path d="M74.982,-36.373C75.844,-36.373 76.556,-36.29 77.119,-36.125C77.682,-35.959 78.113,-35.76 78.411,-35.528C78.709,-35.296 78.933,-34.957 79.082,-34.51C79.231,-34.062 79.314,-33.682 79.33,-33.367C79.347,-33.052 79.355,-32.58 79.355,-31.951C79.355,-30.46 78.924,-28.729 78.063,-26.758C77.202,-24.787 76.166,-22.841 74.957,-20.919C73.748,-18.998 72.539,-17.06 71.33,-15.106C70.121,-13.151 69.086,-11.155 68.224,-9.118C67.363,-7.081 66.932,-5.267 66.932,-3.677C66.932,-2.948 66.899,-2.41 66.833,-2.062C66.767,-1.714 66.601,-1.35 66.336,-0.969C66.071,-0.588 65.632,-0.331 65.019,-0.199C64.407,-0.066 63.57,0 62.51,0C61.45,0 60.614,-0.066 60.001,-0.199C59.388,-0.331 58.949,-0.596 58.684,-0.994C58.419,-1.391 58.262,-1.764 58.212,-2.112C58.162,-2.46 58.137,-3.015 58.137,-3.776C58.137,-5.93 58.502,-8.141 59.23,-10.41C59.959,-12.679 60.837,-14.708 61.864,-16.497C62.891,-18.286 63.918,-19.934 64.945,-21.441C65.972,-22.948 66.85,-24.24 67.578,-25.317C68.307,-26.394 68.672,-27.147 68.672,-27.578L57.342,-27.578C56.58,-27.578 56.001,-27.611 55.603,-27.677C55.206,-27.744 54.767,-27.909 54.286,-28.174C53.806,-28.439 53.466,-28.886 53.268,-29.516C53.069,-30.145 52.97,-30.973 52.97,-32C52.97,-33.027 53.069,-33.855 53.268,-34.485C53.466,-35.114 53.789,-35.553 54.237,-35.802C54.684,-36.05 55.098,-36.207 55.479,-36.274C55.86,-36.34 56.398,-36.373 57.094,-36.373L74.982,-36.373Z" style="fill:rgb(255,151,100);fill-rule:nonzero;"/>
                        <path d="M62.062,-23.843L57.342,-23.843C56.311,-23.843 55.527,-23.904 54.989,-23.993C54.236,-24.119 53.392,-24.402 52.482,-24.904C51.211,-25.605 50.232,-26.726 49.706,-28.391C49.417,-29.307 49.235,-30.507 49.235,-32C49.235,-33.494 49.417,-34.694 49.706,-35.61C50.241,-37.302 51.22,-38.398 52.423,-39.067C53.289,-39.548 54.101,-39.825 54.839,-39.953C55.371,-40.046 56.122,-40.108 57.094,-40.108L74.982,-40.108C76.27,-40.108 77.331,-39.955 78.173,-39.708C79.287,-39.38 80.114,-38.935 80.704,-38.477C81.531,-37.833 82.211,-36.932 82.625,-35.691C82.902,-34.86 83.029,-34.148 83.06,-33.563C83.079,-33.205 83.09,-32.667 83.09,-31.951C83.09,-30.035 82.593,-27.796 81.485,-25.263C80.551,-23.125 79.43,-21.014 78.118,-18.93C76.914,-17.017 75.71,-15.087 74.506,-13.141C73.4,-11.353 72.452,-9.527 71.664,-7.664C71.032,-6.167 70.667,-4.846 70.667,-3.677C70.667,-2.632 70.597,-1.862 70.502,-1.363C70.35,-0.565 70.01,0.29 69.402,1.164C68.662,2.228 67.52,3.082 65.809,3.452C65.003,3.626 63.904,3.735 62.51,3.735C61.116,3.735 60.017,3.626 59.211,3.452C57.482,3.078 56.324,2.2 55.576,1.078C54.95,0.139 54.632,-0.762 54.514,-1.584C54.449,-2.042 54.402,-2.772 54.402,-3.776C54.402,-6.3 54.82,-8.893 55.674,-11.552C56.489,-14.09 57.477,-16.356 58.625,-18.357C59.702,-20.234 60.781,-21.963 61.858,-23.544L62.062,-23.843ZM74.982,-36.373L57.094,-36.373C56.398,-36.373 55.86,-36.34 55.479,-36.274C55.098,-36.207 54.684,-36.05 54.237,-35.802C53.789,-35.553 53.466,-35.114 53.268,-34.485C53.069,-33.855 52.97,-33.027 52.97,-32C52.97,-30.973 53.069,-30.145 53.268,-29.516C53.466,-28.886 53.806,-28.439 54.286,-28.174C54.767,-27.909 55.206,-27.744 55.603,-27.677C56.001,-27.611 56.58,-27.578 57.342,-27.578L68.672,-27.578C68.672,-27.147 68.307,-26.394 67.578,-25.317C66.85,-24.24 65.972,-22.948 64.945,-21.441C63.918,-19.934 62.891,-18.286 61.864,-16.497C60.837,-14.708 59.959,-12.679 59.23,-10.41C58.502,-8.141 58.137,-5.93 58.137,-3.776C58.137,-3.015 58.162,-2.46 58.212,-2.112C58.262,-1.764 58.419,-1.391 58.684,-0.994C58.949,-0.596 59.388,-0.331 60.001,-0.199C60.614,-0.066 61.45,0 62.51,0C63.57,0 64.407,-0.066 65.019,-0.199C65.632,-0.331 66.071,-0.588 66.336,-0.969C66.601,-1.35 66.767,-1.714 66.833,-2.062C66.899,-2.41 66.932,-2.948 66.932,-3.677C66.932,-5.267 67.363,-7.081 68.224,-9.118C69.086,-11.155 70.121,-13.151 71.33,-15.106C72.539,-17.06 73.748,-18.998 74.957,-20.919C76.166,-22.841 77.202,-24.787 78.063,-26.758C78.924,-28.729 79.355,-30.46 79.355,-31.951C79.355,-32.58 79.347,-33.052 79.33,-33.367C79.314,-33.682 79.231,-34.062 79.082,-34.51C78.933,-34.957 78.709,-35.296 78.411,-35.528C78.113,-35.76 77.682,-35.959 77.119,-36.125C76.556,-36.29 75.844,-36.373 74.982,-36.373Z"/>
                    </g>
                </g>
            </g>
        </g>
    </g>
</svg>
