<?xml version="1.0" encoding="UTF-8" standalone="no"?>
<!DOCTYPE svg PUBLIC "-//W3C//DTD SVG 1.1//EN" "http://www.w3.org/Graphics/SVG/1.1/DTD/svg11.dtd">
<svg width="100%" height="100%" viewBox="0 0 859 200" version="1.1" xmlns="http://www.w3.org/2000/svg" xmlns:xlink="http://www.w3.org/1999/xlink" xml:space="preserve" xmlns:serif="http://www.serif.com/" style="fill-rule:evenodd;clip-rule:evenodd;stroke-miterlimit:10;">
    <g transform="matrix(1,0,0,1,-2400,-720)">
        <g id="_1.17-lockup-full" serif:id="1.17/lockup-full" transform="matrix(0.904236,0,0,1,2400,720)">
            <rect x="0" y="0" width="949.973" height="200" style="fill:rgb(63,36,28);"/>
            <clipPath id="_clip1">
                <rect x="0" y="0" width="949.973" height="200"/>
            </clipPath>
            <g clip-path="url(#_clip1)">
                <g id="Icon" transform="matrix(1.10591,0,0,1,-47.027,-42.5238)">
                    <rect x="42.524" y="42.524" width="200" height="200" style="fill:none;"/>
                    <clipPath id="_clip2">
                        <rect x="42.524" y="42.524" width="200" height="200"/>
                    </clipPath>
                    <g clip-path="url(#_clip2)">
                        <g transform="matrix(1,0,0,1,44.3106,40.7042)">
                            <path d="M72.277,83.262C73.138,83.262 73.85,83.345 74.413,83.51C74.976,83.676 75.407,83.866 75.705,84.082C76.003,84.297 76.227,84.645 76.376,85.125C76.525,85.605 76.608,86.003 76.624,86.318C76.641,86.632 76.649,87.121 76.649,87.783L76.649,115.458C76.649,116.22 76.624,116.792 76.575,117.173C76.525,117.553 76.368,117.992 76.103,118.489C75.838,118.986 75.391,119.334 74.761,119.533C74.132,119.731 73.287,119.831 72.227,119.831C71.2,119.831 70.372,119.731 69.743,119.533C69.114,119.334 68.666,118.994 68.401,118.514C68.136,118.034 67.979,117.587 67.929,117.173C67.88,116.759 67.855,116.154 67.855,115.359L67.855,97.621L67.209,98.217C65.851,99.244 64.725,99.758 63.83,99.758C62.803,99.758 61.843,99.261 60.948,98.267C59.756,96.942 59.16,95.816 59.16,94.888C59.16,94.027 59.756,93.067 60.948,92.007L69.097,84.653L69.246,84.554C70.107,83.692 71.118,83.262 72.277,83.262Z" style="fill:white;fill-rule:nonzero;"/>
                            <path d="M88.325,111.533C88.889,112.096 89.17,113.256 89.17,115.011L89.17,115.21C89.17,116.005 89.145,116.593 89.096,116.974C89.046,117.355 88.88,117.81 88.599,118.34C88.317,118.87 87.845,119.243 87.183,119.458C86.52,119.673 85.626,119.781 84.5,119.781C82.711,119.781 81.469,119.433 80.773,118.738C80.177,118.175 79.879,117.015 79.879,115.26L79.879,115.061C79.879,114.299 79.904,113.719 79.953,113.322C80.003,112.924 80.16,112.469 80.425,111.956C80.69,111.442 81.162,111.069 81.841,110.838C82.52,110.606 83.423,110.49 84.549,110.49C86.305,110.49 87.564,110.838 88.325,111.533Z" style="fill:white;fill-rule:nonzero;"/>
                            <path d="M104.275,83.262C105.136,83.262 105.848,83.345 106.411,83.51C106.974,83.676 107.405,83.866 107.703,84.082C108.001,84.297 108.225,84.645 108.374,85.125C108.523,85.605 108.606,86.003 108.622,86.318C108.639,86.632 108.647,87.121 108.647,87.783L108.647,115.458C108.647,116.22 108.622,116.792 108.572,117.173C108.523,117.553 108.365,117.992 108.1,118.489C107.835,118.986 107.388,119.334 106.759,119.533C106.13,119.731 105.285,119.831 104.225,119.831C103.198,119.831 102.37,119.731 101.741,119.533C101.111,119.334 100.664,118.994 100.399,118.514C100.134,118.034 99.977,117.587 99.927,117.173C99.877,116.759 99.853,116.154 99.853,115.359L99.853,97.621L99.207,98.217C97.849,99.244 96.722,99.758 95.828,99.758C94.801,99.758 93.841,99.261 92.946,98.267C91.754,96.942 91.158,95.816 91.158,94.888C91.158,94.027 91.754,93.067 92.946,92.007L101.095,84.653L101.244,84.554C102.105,83.692 103.115,83.262 104.275,83.262Z" style="fill:white;fill-rule:nonzero;"/>
                            <path d="M133.391,83.361C134.252,83.361 134.964,83.444 135.527,83.61C136.09,83.775 136.521,83.974 136.819,84.206C137.117,84.438 137.341,84.777 137.49,85.224C137.639,85.672 137.722,86.053 137.738,86.367C137.755,86.682 137.763,87.154 137.763,87.783C137.763,89.274 137.332,91.005 136.471,92.975C135.61,94.946 134.575,96.892 133.366,98.814C132.157,100.735 130.948,102.673 129.739,104.627C128.53,106.581 127.495,108.577 126.633,110.614C125.772,112.651 125.342,114.465 125.342,116.055C125.342,116.783 125.308,117.322 125.242,117.669C125.176,118.017 125.01,118.382 124.745,118.763C124.48,119.143 124.041,119.4 123.429,119.533C122.816,119.665 121.979,119.731 120.919,119.731C119.859,119.731 119.023,119.665 118.41,119.533C117.798,119.4 117.359,119.135 117.094,118.738C116.829,118.34 116.671,117.968 116.622,117.62C116.572,117.272 116.547,116.717 116.547,115.955C116.547,113.802 116.911,111.591 117.64,109.322C118.369,107.053 119.247,105.024 120.274,103.236C121.3,101.447 122.327,99.799 123.354,98.292C124.381,96.785 125.259,95.493 125.987,94.416C126.716,93.34 127.081,92.586 127.081,92.156L115.752,92.156C114.99,92.156 114.411,92.123 114.013,92.056C113.616,91.99 113.177,91.824 112.696,91.559C112.216,91.294 111.877,90.847 111.678,90.218C111.479,89.589 111.38,88.76 111.38,87.734C111.38,86.707 111.479,85.879 111.678,85.249C111.877,84.62 112.2,84.181 112.647,83.933C113.094,83.684 113.508,83.527 113.889,83.461C114.27,83.394 114.808,83.361 115.504,83.361L133.391,83.361Z" style="fill:white;fill-rule:nonzero;"/>
                        </g>
                        <g transform="matrix(1,0,0,1,211.658,131.605)">
                            <path d="M0,22.884L-57.169,80.053C-63.488,86.372 -73.734,86.372 -80.053,80.053L-137.222,22.884C-143.541,16.565 -143.541,6.32 -137.222,0.001L-80.053,-57.169C-73.734,-63.488 -63.488,-63.488 -57.169,-57.169L0,0.001C6.319,6.32 6.319,16.565 0,22.884Z" style="fill:none;fill-rule:nonzero;stroke:rgb(254,152,94);stroke-width:13.77px;"/>
                        </g>
                    </g>
                </g>
                <g transform="matrix(2.28736,0,0,2.06831,101.088,-108.591)">
                    <path d="M96.052,83.361C97.078,83.361 97.907,83.461 98.536,83.659C99.165,83.858 99.612,84.206 99.877,84.703C100.142,85.2 100.3,85.647 100.349,86.044C100.399,86.442 100.424,87.021 100.424,87.783L100.424,115.359C100.424,116.121 100.391,116.692 100.325,117.073C100.258,117.454 100.101,117.885 99.853,118.365C99.604,118.845 99.165,119.185 98.536,119.384C97.907,119.582 97.062,119.682 96.002,119.682C95.141,119.682 94.429,119.599 93.865,119.433C93.302,119.268 92.872,119.069 92.574,118.837C92.275,118.605 92.052,118.266 91.903,117.818C91.754,117.371 91.671,116.99 91.654,116.676C91.638,116.361 91.63,115.889 91.63,115.26L91.63,98.615C90.801,99.642 89.592,101.273 88.002,103.509C86.413,105.745 85.237,107.343 84.475,108.304C84.375,108.469 84.243,108.66 84.077,108.875C83.912,109.09 83.506,109.388 82.86,109.769C82.214,110.15 81.51,110.341 80.748,110.341C80.02,110.341 79.349,110.167 78.736,109.819C78.123,109.471 77.684,109.132 77.419,108.8L77.022,108.254C76.359,107.426 75.051,105.662 73.097,102.962C71.142,100.263 70.082,98.814 69.917,98.615L69.917,115.359C69.917,116.121 69.892,116.692 69.842,117.073C69.793,117.454 69.635,117.885 69.37,118.365C69.105,118.845 68.658,119.185 68.029,119.384C67.399,119.582 66.555,119.682 65.495,119.682C64.468,119.682 63.648,119.582 63.035,119.384C62.422,119.185 61.984,118.845 61.719,118.365C61.454,117.885 61.296,117.446 61.247,117.048C61.197,116.651 61.172,116.055 61.172,115.26L61.172,87.684C61.172,86.922 61.197,86.351 61.247,85.97C61.296,85.589 61.454,85.158 61.719,84.678C61.984,84.198 62.431,83.858 63.06,83.659C63.689,83.461 64.534,83.361 65.594,83.361C66.488,83.361 67.259,83.469 67.904,83.684C68.55,83.9 68.973,84.123 69.171,84.355L69.47,84.653L80.748,99.46C86.379,92.007 90.139,87.088 92.027,84.703C92.59,83.808 93.932,83.361 96.052,83.361Z" style="fill:white;fill-rule:nonzero;"/>
                    <path d="M117.268,92.951C120.911,92.951 124.108,94.234 126.857,96.801C129.606,99.368 130.981,102.639 130.981,106.614C130.981,109.364 130.269,111.806 128.844,113.943C127.42,116.079 125.689,117.653 123.652,118.663C121.615,119.673 119.52,120.179 117.367,120.179C115.148,120.179 113.011,119.64 110.957,118.564C108.904,117.487 107.173,115.897 105.765,113.794C104.357,111.691 103.654,109.314 103.654,106.664C103.654,102.689 105.045,99.41 107.827,96.826C110.61,94.242 113.756,92.951 117.268,92.951ZM114.038,110.217C115.098,111.028 116.174,111.434 117.268,111.434C118.361,111.434 119.454,111.02 120.547,110.192C121.64,109.364 122.186,108.138 122.186,106.515C122.186,104.892 121.673,103.683 120.646,102.888C119.619,102.093 118.477,101.695 117.218,101.695C116.092,101.695 115.015,102.109 113.988,102.938C112.961,103.766 112.448,104.975 112.448,106.565C112.448,108.188 112.978,109.405 114.038,110.217Z" style="fill:white;fill-rule:nonzero;"/>
                    <path d="M155.625,81.324C156.652,81.324 157.48,81.423 158.109,81.622C158.739,81.821 159.178,82.169 159.426,82.666C159.675,83.163 159.824,83.601 159.873,83.982C159.923,84.363 159.948,84.935 159.948,85.696L159.948,115.359C159.948,116.121 159.923,116.692 159.873,117.073C159.824,117.454 159.666,117.885 159.401,118.365C159.136,118.845 158.689,119.185 158.06,119.384C157.43,119.582 156.586,119.682 155.526,119.682C153.008,119.682 151.617,118.87 151.352,117.247C149.961,118.837 148.023,119.632 145.539,119.632C142.558,119.632 139.842,118.332 137.39,115.732C134.939,113.131 133.714,110.059 133.714,106.515C133.714,103.136 134.947,100.139 137.415,97.522C139.883,94.905 142.591,93.597 145.539,93.597C147.99,93.597 149.895,94.425 151.253,96.081L151.253,85.647C151.253,84.885 151.278,84.314 151.327,83.933C151.377,83.552 151.526,83.121 151.774,82.641C152.023,82.161 152.462,81.821 153.091,81.622C153.72,81.423 154.565,81.324 155.625,81.324ZM143.7,109.645C144.562,110.539 145.605,110.987 146.831,110.987C148.056,110.987 149.075,110.539 149.886,109.645C150.698,108.751 151.104,107.757 151.104,106.664C151.104,105.604 150.714,104.61 149.936,103.683C149.158,102.755 148.106,102.292 146.781,102.292C145.456,102.292 144.396,102.747 143.601,103.658C142.806,104.569 142.409,105.571 142.409,106.664C142.409,107.757 142.839,108.751 143.7,109.645Z" style="fill:white;fill-rule:nonzero;"/>
                    <path d="M188.02,83.312C188.782,83.312 189.354,83.336 189.735,83.386C190.115,83.436 190.546,83.593 191.026,83.858C191.507,84.123 191.846,84.57 192.045,85.2C192.244,85.829 192.343,86.674 192.343,87.734C192.343,88.794 192.244,89.638 192.045,90.268C191.846,90.897 191.498,91.336 191.002,91.584C190.505,91.833 190.066,91.982 189.685,92.031C189.304,92.081 188.716,92.106 187.921,92.106L172.717,92.106L172.717,97.124L182.505,97.124C183.3,97.124 183.888,97.149 184.269,97.199C184.65,97.248 185.081,97.406 185.561,97.671C186.041,97.936 186.381,98.391 186.58,99.037C186.778,99.683 186.878,100.536 186.878,101.596C186.878,102.457 186.795,103.169 186.629,103.733C186.464,104.296 186.265,104.726 186.033,105.024C185.801,105.322 185.462,105.546 185.014,105.695C184.567,105.844 184.186,105.927 183.872,105.944C183.557,105.96 183.085,105.968 182.456,105.968L172.717,105.968L172.717,115.359C172.717,116.154 172.692,116.734 172.643,117.098C172.593,117.462 172.436,117.893 172.171,118.39C171.906,118.887 171.458,119.235 170.829,119.433C170.2,119.632 169.355,119.731 168.295,119.731C167.434,119.731 166.722,119.649 166.159,119.483C165.595,119.317 165.165,119.119 164.867,118.887C164.569,118.655 164.345,118.315 164.196,117.868C164.047,117.421 163.964,117.04 163.948,116.725C163.931,116.411 163.923,115.939 163.923,115.309L163.923,87.684C163.923,85.995 164.237,84.844 164.867,84.231C165.496,83.618 166.689,83.312 168.444,83.312L188.02,83.312Z" style="fill:white;fill-rule:nonzero;"/>
                    <path d="M216.341,103.285C216.341,105.472 215.836,107.053 214.826,108.03C213.816,109.008 212.698,109.496 211.472,109.496L199.697,109.496C199.697,110.424 200.243,111.202 201.336,111.831C202.429,112.461 203.605,112.775 204.864,112.775C205.758,112.775 206.603,112.709 207.398,112.577C208.193,112.444 208.773,112.312 209.137,112.179L209.683,111.98C210.478,111.616 211.141,111.434 211.671,111.434C212.731,111.434 213.642,112.179 214.404,113.67C214.834,114.564 215.05,115.326 215.05,115.955C215.05,118.903 211.522,120.377 204.466,120.377C202.015,120.377 199.837,119.955 197.933,119.11C196.028,118.266 194.546,117.156 193.486,115.781C192.426,114.407 191.639,112.958 191.126,111.434C190.612,109.91 190.356,108.353 190.356,106.763C190.356,102.59 191.705,99.252 194.405,96.752C197.105,94.251 200.475,93 204.516,93C206.139,93 207.63,93.224 208.988,93.671C210.346,94.118 211.472,94.698 212.367,95.41C213.261,96.122 214.014,96.942 214.627,97.87C215.24,98.797 215.679,99.716 215.944,100.627C216.209,101.538 216.341,102.424 216.341,103.285ZM205.858,104.975C207.116,104.975 207.746,104.445 207.746,103.385C207.746,102.623 207.456,102.01 206.876,101.546C206.297,101.083 205.46,100.851 204.367,100.851C203.307,100.851 202.247,101.29 201.187,102.167C200.127,103.045 199.597,103.981 199.597,104.975L205.858,104.975Z" style="fill:white;fill-rule:nonzero;"/>
                    <path d="M229.21,120.179C225.865,120.179 222.718,119.251 219.77,117.396C219.14,116.999 218.826,116.419 218.826,115.657C218.826,114.697 219.455,113.338 220.714,111.583C221.078,111.02 221.641,110.738 222.403,110.738C223.264,110.738 224.275,111.086 225.434,111.782C227.057,112.709 228.432,113.173 229.558,113.173C231.578,113.173 232.589,112.775 232.589,111.98C232.589,111.649 232.274,111.368 231.645,111.136C231.015,110.904 230.22,110.722 229.26,110.589C228.299,110.457 227.264,110.183 226.154,109.769C225.045,109.355 224.01,108.85 223.049,108.254C222.088,107.658 221.293,106.722 220.664,105.447C220.035,104.171 219.72,102.656 219.72,100.9C219.72,95.667 223.314,93.05 230.502,93.05C232.854,93.05 235.272,93.613 237.756,94.739C238.915,95.269 239.495,95.998 239.495,96.926C239.495,97.588 239.147,98.482 238.452,99.609C237.69,100.801 236.928,101.397 236.166,101.397C235.769,101.397 235.206,101.232 234.477,100.9C233.052,100.238 231.711,99.907 230.452,99.907C228.498,99.907 227.521,100.271 227.521,101C227.521,101.53 227.844,101.952 228.49,102.267C229.136,102.581 229.947,102.797 230.924,102.913C231.901,103.029 232.953,103.252 234.079,103.583C235.206,103.915 236.257,104.32 237.234,104.801C238.212,105.281 239.023,106.093 239.669,107.235C240.315,108.378 240.638,109.778 240.638,111.434C240.638,113.223 240.315,114.721 239.669,115.93C239.023,117.139 238.112,118.034 236.936,118.613C235.76,119.193 234.568,119.599 233.359,119.831C232.15,120.063 230.767,120.179 229.21,120.179Z" style="fill:white;fill-rule:nonzero;"/>
                    <path d="M258.276,102.341L255.047,102.143L255.047,108.999C255.047,109.894 255.188,110.539 255.469,110.937C255.751,111.334 256.256,111.533 256.985,111.533C257.813,111.533 258.434,111.558 258.848,111.608C259.262,111.657 259.692,111.806 260.14,112.055C260.587,112.303 260.893,112.693 261.059,113.223C261.224,113.753 261.307,114.481 261.307,115.409C261.307,116.436 261.2,117.264 260.984,117.893C260.769,118.522 260.413,118.961 259.916,119.21C259.419,119.458 258.98,119.607 258.599,119.657C258.218,119.707 257.664,119.731 256.935,119.731C253.49,119.731 250.873,118.953 249.084,117.396C247.296,115.839 246.401,113.206 246.401,109.496L246.401,102.143C245.772,102.242 245.176,102.292 244.613,102.292C243.718,102.292 243.031,102.01 242.551,101.447C242.07,100.884 241.83,99.708 241.83,97.919C241.83,96.992 241.913,96.222 242.079,95.609C242.244,94.996 242.485,94.557 242.799,94.292C243.114,94.027 243.42,93.853 243.718,93.77C244.017,93.688 244.364,93.646 244.762,93.646L246.401,93.845L246.401,88.727C246.401,87.965 246.426,87.402 246.476,87.038C246.526,86.674 246.675,86.268 246.923,85.821C247.172,85.374 247.61,85.059 248.24,84.877C248.869,84.694 249.714,84.603 250.774,84.603C251.602,84.603 252.289,84.686 252.836,84.852C253.382,85.017 253.805,85.208 254.103,85.423C254.401,85.639 254.624,85.97 254.774,86.417C254.923,86.864 255.005,87.253 255.022,87.585C255.039,87.916 255.047,88.38 255.047,88.976L255.047,93.845C256.504,93.712 257.597,93.646 258.326,93.646C259.088,93.646 259.659,93.671 260.04,93.721C260.421,93.77 260.852,93.92 261.332,94.168C261.812,94.416 262.152,94.855 262.351,95.485C262.549,96.114 262.649,96.959 262.649,98.019C262.649,99.045 262.549,99.874 262.351,100.503C262.152,101.132 261.804,101.571 261.307,101.82C260.81,102.068 260.371,102.217 259.991,102.267C259.61,102.316 259.038,102.341 258.276,102.341Z" style="fill:white;fill-rule:nonzero;"/>
                    <path d="M289.827,83.262C290.688,83.262 291.4,83.345 291.964,83.51C292.527,83.676 292.957,83.866 293.255,84.082C293.553,84.297 293.777,84.645 293.926,85.125C294.075,85.605 294.158,86.003 294.175,86.318C294.191,86.632 294.199,87.121 294.199,87.783L294.199,115.458C294.199,116.22 294.175,116.792 294.125,117.173C294.075,117.553 293.918,117.992 293.653,118.489C293.388,118.986 292.941,119.334 292.311,119.533C291.682,119.731 290.837,119.831 289.777,119.831C288.75,119.831 287.922,119.731 287.293,119.533C286.664,119.334 286.216,118.994 285.952,118.514C285.687,118.034 285.529,117.587 285.479,117.173C285.43,116.759 285.405,116.154 285.405,115.359L285.405,97.621L284.759,98.217C283.401,99.244 282.275,99.758 281.38,99.758C280.354,99.758 279.393,99.261 278.499,98.267C277.306,96.942 276.71,95.816 276.71,94.888C276.71,94.027 277.306,93.067 278.499,92.007L286.647,84.653L286.796,84.554C287.657,83.692 288.668,83.262 289.827,83.262Z" style="fill:white;fill-rule:nonzero;"/>
                    <path d="M305.876,111.533C306.439,112.096 306.72,113.256 306.72,115.011L306.72,115.21C306.72,116.005 306.695,116.593 306.646,116.974C306.596,117.355 306.43,117.81 306.149,118.34C305.867,118.87 305.395,119.243 304.733,119.458C304.07,119.673 303.176,119.781 302.05,119.781C300.261,119.781 299.019,119.433 298.323,118.738C297.727,118.175 297.429,117.015 297.429,115.26L297.429,115.061C297.429,114.299 297.454,113.719 297.503,113.322C297.553,112.924 297.711,112.469 297.976,111.956C298.241,111.442 298.713,111.069 299.392,110.838C300.071,110.606 300.973,110.49 302.099,110.49C303.855,110.49 305.114,110.838 305.876,111.533Z" style="fill:white;fill-rule:nonzero;"/>
                    <path d="M321.825,83.262C322.686,83.262 323.398,83.345 323.961,83.51C324.524,83.676 324.955,83.866 325.253,84.082C325.551,84.297 325.775,84.645 325.924,85.125C326.073,85.605 326.156,86.003 326.172,86.318C326.189,86.632 326.197,87.121 326.197,87.783L326.197,115.458C326.197,116.22 326.172,116.792 326.123,117.173C326.073,117.553 325.916,117.992 325.651,118.489C325.386,118.986 324.938,119.334 324.309,119.533C323.68,119.731 322.835,119.831 321.775,119.831C320.748,119.831 319.92,119.731 319.291,119.533C318.661,119.334 318.214,118.994 317.949,118.514C317.684,118.034 317.527,117.587 317.477,117.173C317.428,116.759 317.403,116.154 317.403,115.359L317.403,97.621L316.757,98.217C315.399,99.244 314.273,99.758 313.378,99.758C312.351,99.758 311.391,99.261 310.496,98.267C309.304,96.942 308.708,95.816 308.708,94.888C308.708,94.027 309.304,93.067 310.496,92.007L318.645,84.653L318.794,84.554C319.655,83.692 320.665,83.262 321.825,83.262Z" style="fill:white;fill-rule:nonzero;"/>
                    <path d="M350.941,83.361C351.802,83.361 352.514,83.444 353.077,83.61C353.64,83.775 354.071,83.974 354.369,84.206C354.667,84.438 354.891,84.777 355.04,85.224C355.189,85.672 355.272,86.053 355.288,86.367C355.305,86.682 355.313,87.154 355.313,87.783C355.313,89.274 354.883,91.005 354.021,92.975C353.16,94.946 352.125,96.892 350.916,98.814C349.707,100.735 348.498,102.673 347.289,104.627C346.08,106.581 345.045,108.577 344.183,110.614C343.322,112.651 342.892,114.465 342.892,116.055C342.892,116.783 342.859,117.322 342.792,117.669C342.726,118.017 342.56,118.382 342.295,118.763C342.03,119.143 341.592,119.4 340.979,119.533C340.366,119.665 339.53,119.731 338.47,119.731C337.41,119.731 336.573,119.665 335.96,119.533C335.348,119.4 334.909,119.135 334.644,118.738C334.379,118.34 334.221,117.968 334.172,117.62C334.122,117.272 334.097,116.717 334.097,115.955C334.097,113.802 334.462,111.591 335.19,109.322C335.919,107.053 336.797,105.024 337.824,103.236C338.851,101.447 339.877,99.799 340.904,98.292C341.931,96.785 342.809,95.493 343.538,94.416C344.266,93.34 344.631,92.586 344.631,92.156L333.302,92.156C332.54,92.156 331.961,92.123 331.563,92.056C331.166,91.99 330.727,91.824 330.247,91.559C329.766,91.294 329.427,90.847 329.228,90.218C329.029,89.589 328.93,88.76 328.93,87.734C328.93,86.707 329.029,85.879 329.228,85.249C329.427,84.62 329.75,84.181 330.197,83.933C330.644,83.684 331.058,83.527 331.439,83.461C331.82,83.394 332.358,83.361 333.054,83.361L350.941,83.361Z" style="fill:white;fill-rule:nonzero;"/>
                </g>
            </g>
        </g>
    </g>
</svg>
